<svg xmlns:xlink="http://www.w3.org/1999/xlink" width="450" height="106" viewBox="0 0 450 106"><defs><filter id="a" width="200%" height="200%" x="-50%" y="-50%" filterUnits="objectBoundingBox"><feOffset dy="4" in="SourceAlpha" result="shadowOffsetOuter1"/><feGaussianBlur in="shadowOffsetOuter1" result="shadowBlurOuter1" stdDeviation="3.5"/><feColorMatrix in="shadowBlurOuter1" result="shadowMatrixOuter1" values="0 0 0 0 0 0 0 0 0 0 0 0 0 0 0 0 0 0 0.5 0"/><feMerge><feMergeNode in="shadowMatrixOuter1"/><feMergeNode in="SourceGraphic"/></feMerge></filter><path id="b" d="M0 .4v79.917h115.868V.4H0z"/></defs><g fill="none" fill-rule="evenodd" filter="url(#a)" transform="translate(7 -33)"><path fill="#FFF" d="M125.54 102.755c-3.839 6.861 4.518 10.708 9.99 12.182 13.036 3.517 30.026-6 44.662-32.896 10.34-19.005 23.353-27.797 28.333-30.636-6.052-1.64-23.287-5.87-33.349-3.947-12.614 2.416-31.58 16.62-33.207 30.072-.207 1.699-.664 8.156 2.111 9.311.569 1.405-1.064 3.787-1.064 3.787-10.218-8.094-1.02-23.518 4.967-30.598 16.058-18.996 40.21-19.52 55.672-16.598 9.955 1.873 13.535 2.743 14.519 3 8.555-3.337 30.598-10.244 37.488-1.54 3.732 4.716-6.308 7.48-8.811 8.088-6.384 1.55-14.93 2.19-21.48 1.266-6.86-.962-11.144-1.822-12.206-2.041-11.07 4.279-20.146 19.571-24.188 29.319-11.482 27.69-29.553 34.893-42.849 36.487-11.2 1.34-26.996-3.256-24.245-14.994.6-2.561 1.944-3.376 3.945-4.655 0 0-.32 1.292-.151 2.432.07.481.293 1.3.293 1.3s-.312.45-.43.661zm102.546-56.661a72.238 72.238 0 0 0-4.705 1.552c6.86 1.504 24.01 4.562 29.345.223 2.89-2.354-4.845-3.92-8.818-4.068-5.626-.207-11.412 1.01-15.822 2.293z"/><path fill="#FFF" d="M191.762 108.486c2.738 0 7.091-2.068 11.82-6.446l6.958-12.085c-1.17-1.963-2.914-2.878-4.725-2.878-6.435 0-15.31 7.13-17.614 14.76-1.315 4.34.57 6.649 3.56 6.649m9.749-1.307c.215-.736.443-1.465.787-2.195l1.42 1.07c-4.618 3.987-9.365 6.197-13.929 6.197-5.665 0-9.133-4.708-7.145-11.283 2.688-8.885 13.953-17.432 23.465-17.432 2.465 0 4.612.98 6.492 2.823l1.125-2.034 6.527-1.264-12.167 21.146c-.712 1.243-1.292 2.441-1.609 3.496-.093.304-.099.416-.088.437 2.037 0 9.84-6.579 10.869-8.958l-.032 4.534c-2.275 2.398-8.256 8.535-12.571 8.535-2.915 0-3.946-2.428-3.144-5.072m87.743 1.228c2.738 0 7.094-2.065 11.82-6.443l6.958-12.088c-1.171-1.961-2.912-2.878-4.726-2.878-6.433 0-15.307 7.132-17.612 14.76-1.317 4.341.568 6.649 3.56 6.649M299 107.1c.218-.736.445-1.465.79-2.191l1.416 1.07c-4.618 3.986-9.362 6.193-13.923 6.193-5.668 0-9.135-4.708-7.148-11.28 2.688-8.885 13.953-17.431 23.465-17.431 2.464 0 4.61.976 6.491 2.82l1.126-2.031 6.527-1.265-12.167 21.146c-.714 1.241-1.292 2.442-1.61 3.493-.092.307-.098.416-.086.437 2.036 0 7.495-5.52 8.535-6.564l2.3 2.143c-2.273 2.399-8.254 8.532-12.57 8.532-2.914 0-3.947-2.428-3.146-5.072m95.853.915c2.738 0 7.093-2.066 11.82-6.445l6.958-12.084c-1.172-1.964-2.913-2.88-4.726-2.88-6.434 0-15.308 7.132-17.613 14.761-1.316 4.342.57 6.648 3.561 6.648m9.746-1.306c.22-.737.446-1.464.79-2.195l1.416 1.07c-4.618 3.987-9.362 6.198-13.923 6.198-5.668 0-9.134-4.709-7.147-11.283 2.688-8.882 13.952-17.432 23.464-17.432 2.464 0 4.611.978 6.492 2.823l1.126-2.032 6.525-1.265-12.167 21.145c-.712 1.243-1.289 2.443-1.608 3.495-.094.307-.099.416-.087.437 2.036 0 7.496-5.521 8.537-6.563l2.3 2.143c-2.275 2.395-8.256 8.532-12.57 8.532-2.915 0-3.949-2.43-3.148-5.073"/><g transform="translate(0 35.72)"><mask id="c" fill="#fff"><use xlink:href="#b"/></mask><path fill="#FFF" d="M99.197 66.092c-4.728 4.378-9.08 6.446-11.82 6.446-2.991 0-4.875-2.308-3.559-6.65 2.307-7.627 11.179-14.761 17.614-14.761 1.812 0 3.553.916 4.726 2.88l-6.96 12.085zM19 71.82c-1.43 0-16.235.063-16.235-3.444 0-1.15 1.301-2.321 6.41-2.321 4.083 0 11.6 1.639 22.638 4.989-3.948.519-8.218.776-12.813.776zm77.643-60.733c4.854-5.66 8.37-8.094 10.646-8.094.156 0 .341.074.402.092l.029.23c0 1.892-2.595 6.154-8.494 13.056-4.792 5.579-9.773 10.61-14.943 15.086 4.525-9.246 8.649-16.023 12.36-20.37zm5.361 61.106c-.01-.021-.005-.133.088-.44.317-1.051.897-2.25 1.611-3.492l12.165-21.147-6.525 1.263-1.128 2.034c-1.879-1.842-4.026-2.82-6.49-2.82-9.51 0-20.779 8.545-23.466 17.43-1.661 5.502.504 9.688 4.574 10.908a14.26 14.26 0 0 1-1.4.066c-2.618 0-5.362-.327-8.235-.976-2.685-.589-10.472-2.583-23.348-6 7.048-2.19 12.807-5.372 17.244-9.564 5.035-4.763 9.866-12.232 14.505-22.347 6.154-4.532 12.45-10.532 18.895-17.997 6.424-7.397 9.995-12.748 9.995-15.796 0-1.949-1.286-2.914-3.2-2.914-4.094 0-9.622 3.936-16.458 11.088-3.567 3.743-6.636 7.457-9.193 11.137-2.637 3.787-6.87 10.535-12.69 20.262-6.924 5.833-12.72 9.886-17.404 12.202-4.648 2.323-9.316 3.47-14.001 3.47-5.469 0-9.662-1.384-12.686-4.06-1.614-1.439-3.4-2.641-4.373-2.957-.453-.145-1.457.77-1.492 1.569.247.518.874 1.251 1.828 2.204 4.11 4.066 9.587 6.06 16.329 6.06 8.48 0 17.42-3.62 26.795-10.711-3.267 4.595-6.062 8.035-8.386 10.331-3.012 2.963-6.444 5.221-10.314 6.765-13.607-3.52-23.938-5.3-30.933-5.3C5.738 62.46 0 63.983 0 68.374c0 4.675 7.257 6.261 18.444 6.261 6.57 0 12.953-.606 19.157-1.814 9.608 3.057 16.768 5.064 21.484 6.028 4.782.977 9.758 1.467 14.922 1.467 7.05 0 12.567-1.261 16.43-3.895.58-.404 1.54-.995 2.526-1.826 1.423-.881 2.729-1.71 3.999-2.63-.411 2.34.668 4.337 3.306 4.337 4.317 0 10.3-6.136 12.576-8.535l-2.302-2.14c-1.041 1.043-6.502 6.564-8.538 6.564z" mask="url(#c)"/></g><path fill="#FFF" d="M352.5 86.808c-4.28 0-10.116 3.812-14.046 10.56 9.295-1.058 14.592-4.599 15.672-8.162.466-1.549-.222-2.398-1.626-2.398m-15.524 14.057c-.318.196-.61.632-.642.744-1.126 3.723-1.588 6.38 3.563 6.38 4.308 0 8.34-2.56 11.733-4.828l1.833 2.623c-4.267 2.986-9.997 6.2-15.494 6.2-6.558 0-9.395-4.22-7.432-10.71 2.463-8.136 13.61-18.004 23.292-18.004 4.008 0 6.241 2.832 5.15 6.457-1.695 5.585-9.599 9.809-22.003 11.138m-103.002 6.81c-3.67 2.366-7.214 3.654-10.514 3.654-6.053 0-8.645-4.408-6.813-10.481 2.73-9.012 14.55-17.426 23.584-17.426 2.37 0 4.498.981 6.375 2.822l1.127-2.045 6.368-1.098-14.514 24.678c-7.461 12.561-13.634 20.107-22.518 20.107-4.34 0-6.68-3.283-5.65-6.688.666-2.198 2.468-3.862 4.379-3.862 2.327 0 2.663 1.682 2.048 3.725-.986.25-2.134.592-2.471 1.695-.196.655.175 1.707 2.178 1.707 6.052 0 10.046-5.788 16.42-16.787m4.335-7.367l6.122-10.477c-1.168-1.954-2.915-2.879-4.839-2.879-5.758 0-14.866 6.803-17.2 14.534-1.22 4.02.177 5.735 3.035 5.735 3.54 0 7.531-1.966 12.882-6.913m41.96-58.512c-2.452 1.197-4.71 3.175-6.767 4.909l-2.19-2.371c2.046-1.71 8.44-7.258 11.899-7.258 2.777 0 3.443 2.198 2.678 4.729a11.2 11.2 0 0 1-.897 2.128l-32.64 59.9c-.596 1.077-1.341 2.202-1.698 3.39-.19.624-.14.838-.127.864 2.56.037 8.235-4.92 9.54-6.076l2.195 2.375c-3.012 2.616-8.711 7.734-13.417 7.734-3.138 0-4.176-2.429-3.303-5.31.447-1.473 1.353-3.28 2.438-5.335l31.331-57.842c.484-.84.789-1.455.957-1.837"/><path fill="#FFF" d="M289.067 64.982c-2.086 0-3.255-2.056-2.722-3.812.491-1.603 2.496-3.288 4.322-3.288 2.089 0 3.471 1.72 2.835 3.817-.571 1.883-2.546 3.283-4.435 3.283m-12.23 28.507l-5.792 10.36c-.962 1.635-1.667 2.926-1.907 3.719-.069.229-.02.414-.017.49.107.034.292.067.582.067 1.878 0 10.362-6.7 10.73-8.074l.408 4.338c-2.985 2.593-8.623 7.732-13.295 7.732-3.207 0-4.73-2.487-3.884-5.312.567-1.843 1.88-3.654 2.796-5.342l5.556-9.998c.575-1.078 1.342-2.22 1.7-3.394.12-.395.016-.541.006-.556-1.97 0-7.407 5.547-8.42 6.559l-2.314-2.137c2.87-2.98 8.08-8.535 13.044-8.535 2.855 0 4.08 2.372 3.26 5.08-.55 1.807-1.555 3.363-2.453 5.003m57.804-22.856c-2.15.913-4.89 3.922-6.305 5.558l-2.86-1.839c2.54-2.552 7.514-7.958 11.82-7.958 2.787 0 3.355 2.096 2.591 4.616-.233.759-.656 1.752-1.195 2.719l-5.932 9.907h5.492l-1.132 3.768h-6.5l-9.807 16.462c-.93 1.52-1.588 2.685-1.831 3.47-.19.63-.099.79.619.79 1.874 0 10.814-6.323 11.157-7.522l-.026 3.785c-3.018 2.623-8.702 7.732-13.412 7.732-3.149 0-4.244-2.559-3.344-5.536.534-1.798 1.696-3.512 2.615-5.134l8.239-14.047h-5.398l1.141-3.768h6.488l6.112-10.35c.785-1.416 1.261-2.264 1.468-2.653m54.16-28.836c-2.45 1.197-4.71 3.175-6.765 4.909l-2.192-2.371c2.05-1.714 8.44-7.258 11.902-7.258 2.772 0 3.446 2.189 2.674 4.726a10.17 10.17 0 0 1-.892 2.131l-32.647 59.9c-.315.57-2.13 3.632-1.822 4.258 2.557.033 8.23-4.92 9.54-6.082l2.185 2.379c-3.015 2.62-8.702 7.732-13.412 7.732-3.132 0-4.17-2.429-3.302-5.31.444-1.473 1.362-3.282 2.44-5.335l31.331-57.842c.487-.845.791-1.458.96-1.837m15.873 0c-2.454 1.197-4.711 3.172-6.767 4.909l-2.199-2.37c2.052-1.714 8.446-7.259 11.908-7.259 2.77 0 3.441 2.195 2.675 4.729-.227.74-.517 1.449-.894 2.128l-32.644 59.897c-.316.577-2.132 3.63-1.821 4.257 2.55.037 10.756-6.273 10.975-7.3l.757 3.599c-3.01 2.616-8.713 7.734-13.414 7.734-3.14 0-4.181-2.425-3.308-5.311.448-1.472 1.362-3.278 2.438-5.334l31.335-57.842c.483-.84.786-1.452.959-1.837m23.9 24.473c-.364 0-.688.06-.89.162v3.188c.142.042.403.082.648.082 1.273 0 1.92-.624 1.92-1.737 0-1.11-.546-1.695-1.678-1.695zm1.699 7.628l-2.549-3.912h-.04v3.912h-1.154V66.01c.446-.241 1.174-.423 2.065-.423 1.88 0 2.81.907 2.81 2.32 0 1.27-.93 2.177-2.387 2.239l2.611 3.752h-1.356zm-1.517-10.188c-3.398 0-6.007 2.803-6.007 6.192 0 3.391 2.609 6.197 6.007 6.197 3.399 0 6.008-2.806 6.008-6.197 0-3.39-2.61-6.192-6.008-6.192zm0 13.38c-3.965 0-7.182-3.192-7.182-7.165 0-3.956 3.217-7.166 7.182-7.166 3.966 0 7.18 3.21 7.18 7.166 0 3.973-3.214 7.165-7.18 7.165z"/></g></svg>