<svg xmlns="http://www.w3.org/2000/svg" width="221" height="68" viewBox="0 0 221 68"><g fill="#8B1713" fill-rule="evenodd"><path d="M132.332.472c3.263-1.802 5.51-5.031 6.45-8.1a9.437 9.437 0 0 0 .41-2.37l.361-.003a9.735 9.735 0 0 1-.426 2.478c-.909 2.966-3.024 6.102-6.096 8l-.7-.005zm-7.193 0a16.294 16.294 0 0 1-.477-.043c-7.469-.767-9.656-6.143-10.184-10.434l.36.004c.529 4.175 2.669 9.334 9.86 10.073C133.445.972 136.7-6.492 137.12-10h.357c-.386 3.305-3.168 9.937-10.403 10.472h-1.935zm-6.695 0a6.145 6.145 0 0 1-.476-.427c.089.119.202.262.335.428l-.46-.001a7.414 7.414 0 0 1-.163-.213c-.39-.544-.371-.95-.371-.95s.463.009.92.488c.156.164.433.397.792.674h-.577zm-2.78 0c-1.584-2.889-3.092-6.477-3.51-10.473h.363c.308 2.912 1.205 5.608 2.292 7.976A36.5 36.5 0 0 0 116.072.47l-.408.003zm99.777-10.473c-1.462 1.117-3.287 2.157-5.56 3.085-.507.612-4.586 6.917-17.663 6.917-11.392 0-22.113-6.919-26.773-10.006l.663.004c1.98 1.309 4.869 3.15 8.336 4.876 5.054 2.513 11.314 4.767 17.774 4.767 6.476 0 10.7-1.56 13.359-3.177a14.721 14.721 0 0 0 2.911-2.292c.647-.667.991-1.168 1.115-1.318l.142-.103c2.047-.836 3.722-1.76 5.09-2.748l.606-.005zm-2.56 0c-1.25.828-2.237 1.263-2.4 1.35.277-.452.507-.904.698-1.35h.39c-.069.167-.144.337-.224.506l.37-.208c.16-.092.327-.192.502-.3l.664.002zm-3.855 0c-.5.84-1.1 1.442-1.739 1.98l-.09.016c-3.444.675-6.708.023-9.566-1.041a30.376 30.376 0 0 1-2.272-.958l.874.003c3.17 1.39 6.92 2.423 10.894 1.644.528-.445 1.04-.95 1.485-1.647l.414.003zm-18.639 0c4.497 2.283 9.265 4.022 13.315 3.881-5.519 2.335-13.735-.41-20.772-3.879l.809-.002c5.992 2.883 12.721 5.15 17.817 4.155-3.807-.407-8.017-2.102-11.95-4.154h.781zm-55.849 0a2.793 2.793 0 0 1-.645.939c.03-.357-.009-.722-.172-.943l.396.004.017.043c.008-.013.014-.027.021-.042h.383zm-1.896 0a.884.884 0 0 1-.065.041c-1.123.674-1.188 6.381-5.875 6.51-3.876.106-8.102-2.2-9.016-6.553l.373.002c.91 4.107 4.907 6.294 8.633 6.192 2.15-.059 3.245-1.377 3.96-2.848.366-.753.621-1.523.855-2.146.126-.333.244-.626.37-.858.063-.118.135-.236.22-.34h.545zm-6.258 0a7.727 7.727 0 0 0-.303.82c-.445 1.45-1.023 2.137-1.693 2.387a1.998 1.998 0 0 1-.905.102c-.233-.022-.45-.072-.633-.088-.753-.066-2.46-.478-3.117-3.219L120.1-10c.633 2.506 2.18 2.811 2.78 2.863.738.065 1.99.673 2.858-2.148.073-.24.159-.48.255-.715h.39z"/><path d="M128.734 5.708c-1.338-1.004-3.212-2.118-5.503-3.598-.431-.218-.762-.719-.762-.719s.491-.094 1.048.07c3.418.887 6.396.34 8.815-.993l.699.004c-2.576 1.596-5.827 2.317-9.604 1.337 2.512 1.623 4.527 2.809 5.883 3.896l-.576.003zm-2.56 0c-.765-.446-1.546-.895-2.202-1.334-1.832-1.228-4.36-2.945-5.528-3.903h.576c1.242.963 3.465 2.472 5.154 3.605.796.535 1.781 1.084 2.697 1.633l-.696-.001zm-4.201 0c-1.712-2.335-3.391-4.293-4.13-5.235l.46-.001c.83 1.041 2.47 2.974 4.115 5.239l-.445-.003zm-3.025 0c-.845-1.259-2.086-3.046-3.284-5.233l.407-.003a51.901 51.901 0 0 0 1.99 3.267c.499.758.952 1.418 1.317 1.968l-.43.001zm8.126-5.236c-.613.046-1.258.047-1.936-.001h1.936z"/><path d="M129.31 5.708c1.245.994 1.936 1.907 1.95 2.995.032 2.277-2.6 2.533-2.6 2.533l-1.541-1.539s2.247.417 2.377-.962c.087-.958-1.577-1.995-3.323-3.022l.698-.005c.318.191.626.381.915.57.57.372 1.09.758 1.463 1.15.364.381.652.836.604 1.34-.091.966-.943 1.25-1.552 1.322a3.36 3.36 0 0 1-.26.02l.745.744c.526-.094 2.137-.518 2.115-2.146-.014-.961-.645-1.815-1.985-2.855a9.616 9.616 0 0 0-.182-.141l.576-.004zm-6.89 0c2.293 3.163 4.598 6.968 4.732 9.89.235 5.231-2.184 8.882-7 8.882s-6.807-2.983-6.807-5.322c0-2.341 1.477-2.534 1.477-3.72 0-1.188-1.542-1.027-1.542-1.027s.065-2.309 2.12-1.7c2.055.61 2.183 2.31 2.086 3.239-.096.93-1.347 1.989-1.347 3.655 0 1.668 1.991 3.208 3.982 3.208 1.989 0 7.415-2.18 3.82-10.71.16 2.5.225 4.36-2.023 6.477-.674-.224-1.252-.29-1.412-.962-.162-.674.063-1.122-.227-1.412.933-.576 3.213-1.217 1.672-5.29-.9.898-1.413 1.474-1.768 3.142-1.123-1.283-4.655-6.284-.29-6.798-.158-.355-.495-.878-.945-1.548l.43-.004.028.04c.366.554.663 1.021.817 1.365l.201.447-.487.057c-1.867.218-2.052 1.287-1.615 2.643.355 1.091 1.11 2.253 1.689 3.013.368-1.243.893-1.821 1.685-2.611l.394-.393.196.52c.792 2.093.639 3.406.055 4.281-.284.428-.653.721-.997.942-.203.13-.406.237-.585.336.04.15.043.3.043.42 0 .112-.005.235 0 .37.005.122.019.253.053.397a.564.564 0 0 0 .328.413c.098.05.214.092.362.14l.278.085c1.968-1.937 1.914-3.625 1.76-6.048-.036-.418.171-.824.171-.824s.37.33.518.662c3.706 8.794-1.935 11.209-4.151 11.209-2.108 0-4.342-1.628-4.342-3.567 0-.925.35-1.672.684-2.277.16-.29.322-.56.453-.813.125-.244.196-.436.214-.602.09-.872-.033-2.324-1.832-2.857-1.154-.342-1.504.48-1.611.998a2.4 2.4 0 0 1 .462.08c.47.132 1.034.486 1.034 1.303 0 .381-.123.682-.287.943-.076.122-.164.24-.258.36-.085.109-.176.22-.268.34-.334.443-.666 1.002-.666 2.078 0 2.123 1.812 4.963 6.448 4.963 4.533 0 6.872-3.394 6.641-8.507-.118-2.558-1.995-5.894-4.088-8.884a62.926 62.926 0 0 0-.733-1.021l.447-.001zm77.51-1.382c-.13-1.096-.579-2.23-1.676-3.479-.425.145-.883.297-1.218.406.232.314.553.781.845 1.334.268.505.526 1.107.66 1.74h-.368c-.388-1.694-1.737-3.255-1.737-3.255s1.09-.353 1.927-.642c1.288 1.403 1.793 2.679 1.929 3.896h-.363zm-14.819 0a187.56 187.56 0 0 0-7.931-.716c-9.931-.689-14.965-2.824-19.817-7.823 1.966 2.725 5.424 6.068 11.422 7.599a44.82 44.82 0 0 0 4.838.94h-2.214c-.88-.16-1.78-.355-2.713-.593-9.053-2.309-12.425-8.69-13.581-11.031 5.715 6.99 10.53 9.748 22.09 10.55 4.209.292 7.824.678 10.828 1.075h-2.922zm-23.595 0c-5.258-3.85-8.79-8.842-7.652-14.484.05-.292.147-.778.235-1.224h.323l.148 1.232c.247 1.42 3.192 4.16 7.866 4.16 2.688 0 6.703.043 7.406 4.922.602-.09 1.168-.181 1.518-.239a8.557 8.557 0 0 0-1.009-2.523c-.9-1.485-2.523-3.084-5.465-3.53-1.568-.237-2.428.032-3.56-.128-3.215-.453-5.85-1.447-5.895-3.619a1.597 1.597 0 0 1 .014-.271l.366-.004a1.262 1.262 0 0 0-.023.268c.039 1.826 2.29 2.805 5.588 3.27 1.133.161 1.995-.11 3.563.13 6.133.929 6.84 6.701 6.84 6.701s-1.124.193-2.247.353c-.515-4.907-4.303-4.971-7.096-4.971-4.76 0-7.931-2.79-8.22-4.457-1.128 5.593 2.537 10.586 7.922 14.415h-.622zm-2.358 0c-6.011-5.362-7.224-11.115-7.275-13.43-.727 6.968 1.731 10.593 5.53 13.428l-.592.002c-3.671-2.864-6.014-6.59-5.296-13.467.255-1.56.668-2.043.668-2.043s.043 1.207.05 2.073c.047 2.249 1.254 8.066 7.465 13.441l-.55-.004zm-5.432 0c-2.502-2.227-4.425-4.667-4.99-7.406-.106 2.67.868 4.885 2.452 6.866.145.183.298.365.454.543l-.477-.003c-2.68-3.188-3.848-6.973-1.632-12.187-1.832 4.754.695 8.68 4.734 12.186l-.541.001zm-10.88 0a15.854 15.854 0 0 1-.281-1.403c.022.475.06.944.113 1.406l-.363-.003a21.808 21.808 0 0 1-.136-2.446c0-1.551.269-3.2.802-4.944-.193.726-.291 1.671-.291 2.834 0 1.653.176 3.172.527 4.56l-.372-.004zm-3.732 0a43.03 43.03 0 0 1-.064-1.839 28.98 28.98 0 0 0-.165 1.841l-.361-.002c.111-1.939.434-4.084 1.034-6.446-.18 2.358-.194 4.5-.085 6.443l-.36.003zm-4.527 0c3.213-8.3 6.392-12.967 9-15.708h.498c-2.6 2.655-5.832 7.273-9.11 15.704l-.388.004zm13.95-15.708l-.464.316-.318-.316h.782z"/><path d="M205.694 9.563c-1.587-.902-3.446-1.748-5.62-2.509l-.28-.099.042-.293c.115-.776.188-1.546.093-2.339l.363.003c.09.816.016 1.605-.1 2.389 2.445.857 4.5 1.82 6.223 2.849l-.72-.001zm-4.216 0c-.917-.372-1.636-.618-2.017-.767-.064.137-.238.41-.54.763l-.48.004c.409-.445.63-.781.692-.916l.141-.31.318.124c.49.192 1.53.542 2.83 1.104l-.944-.002zm-5.667 0c.793-.486 1.295-.96 1.46-1.341-6.713-1.415-12.034-2.227-16.695-2.758-3.199-.363-6.055-.555-9.167-1.135l2.214-.003c2.31.327 4.551.504 6.994.782 4.67.53 10.003 1.344 16.728 2.763l.43.09-.173.404c-.158.364-.549.777-1.143 1.198h-.648zm-24.528 0c-3.45-1.345-6.87-3.118-9.767-5.238l.622.001c3.018 2.145 6.575 3.923 10.133 5.237h-.988zm-4.08 0c-3.345-1.598-5.978-3.394-8.043-5.236h.548c2.137 1.854 4.869 3.653 8.35 5.235h-.854zm-1.88 0c-.4-.24-.798-.472-1.193-.7-2.408-1.394-4.724-2.64-6.697-4.078a22.292 22.292 0 0 1-.612-.462l.592.003c2.472 1.843 5.51 3.355 8.61 5.238l-.7-.001zm-4.494 0a100.67 100.67 0 0 1-3.257-2.214c-1.357-.966-2.667-1.97-3.846-3.02l.541-.003c2.124 1.843 4.668 3.57 7.214 5.24l-.652-.003zm-3.657 0c-2.277-1.653-4.41-3.34-6.007-5.238l.477.001c1.15 1.322 2.568 2.545 4.121 3.738.66.506 1.34 1.005 2.031 1.502l-.622-.003zm-11.923 0a21.556 21.556 0 0 1-1.128-1.914 13.847 13.847 0 0 1-1.276-3.319l.373-.004a13.315 13.315 0 0 0 1.22 3.153c.382.73.798 1.425 1.247 2.087l-.436-.003zm-1.575 0a18.69 18.69 0 0 1-1.359-5.238l.363.001a18.26 18.26 0 0 0 1.386 5.235l-.39.002zm-2.267 0c-.1-.428-.183-.831-.245-1.21.144.409.296.814.46 1.214l-.215-.004zm-1.654 0a38.744 38.744 0 0 1-.64-5.237h.36c.11 1.938.34 3.68.647 5.237h-.367zm-.996 0c-.243-1.554-.343-3.293-.233-5.234l.361-.003c-.114 1.951-.01 3.692.238 5.24l-.366-.003zm-2.008 0c.056-1.778-.345-4.333-.345-4.333s-.307 1.22-1.365 4.334l-.38-.001c1.083-3.177 1.395-4.42 1.395-4.42l.705.031s.404 2.577.35 4.388h-.36zm-4.026 0a108.12 108.12 0 0 1 1.864-5.233l.389-.004a103.34 103.34 0 0 0-1.873 5.236h-.38zm65.817-5.237c.131.613.145 1.254-.062 1.862l-.103.307-.316-.07c-1.719-.382-6.07-1.314-12.948-2.095l2.922-.004c5.245.693 8.635 1.422 10.105 1.748.189-.559.17-1.16.035-1.745l.367-.003z"/><path d="M211.904 14.799c-1.357-1.81-3.339-3.613-6.21-5.24l.72.004c2.733 1.632 4.634 3.431 5.938 5.239l-.448-.003zm-2.282 0c-2.529-2.721-5.917-4.343-8.144-5.24l.944.004.433.193c1.508.68 3.305 1.632 4.981 2.934a16.96 16.96 0 0 1 2.266 2.105l-.48.004zm-37.106 0c-.509-.441-.925-.788-1.21-1.035-1.932-1.667-3.97-3.003-5.983-4.202h.7c1.854 1.128 3.73 2.387 5.518 3.93.341.294.87.735 1.522 1.305l-.547.002zm-3.95 0a51.261 51.261 0 0 0-1.985-1.433c-1.806-1.247-3.788-2.505-5.752-3.798l.652-.005c2.727 1.79 5.458 3.511 7.682 5.237l-.598-.001zm-4.262 0c-2.234-1.84-4.76-3.52-7.133-5.24l.622.004c1.167.84 2.365 1.672 3.541 2.52 1.214.875 2.41 1.771 3.53 2.715h-.56zm-14.163 0a39.188 39.188 0 0 1-1.725-1.53 19.79 19.79 0 0 1-3.168-3.707h.437a19.314 19.314 0 0 0 2.975 3.443 36.601 36.601 0 0 0 2.055 1.797l-.574-.003zm-3.304 0a44.533 44.533 0 0 1-1.817-2.665 18.083 18.083 0 0 1-1.346-2.568l.39-.003c.357.82.778 1.613 1.26 2.38a45.45 45.45 0 0 0 1.957 2.855h-.444zm-2.838 0a26.98 26.98 0 0 1-1.336-2.196c.232.747.491 1.478.779 2.193l-.386.003a29.532 29.532 0 0 1-.803-2.302 33.802 33.802 0 0 1-.847-2.935h.214a27.359 27.359 0 0 0 2.815 5.24L144 14.8zm-2.76 0c-.17-.45-.339-.922-.502-1.423a32.07 32.07 0 0 1-.984-3.817l.368.004c.405 2.055.942 3.79 1.506 5.238l-.387-.002zm-.9 0c-.675-1.435-1.256-3.169-1.582-5.24l.366.004c.333 2.085.93 3.817 1.618 5.237l-.402-.001zm-4.936 0c.767-.267 1.12-.66 1.12-.66l.22-4.41.006-.161.36-.005-.007.183-.226 4.536s-.118.135-.185.195a2.834 2.834 0 0 1-.448.326l-.84-.004zm-2.607 0c.787-2.14 1.396-3.865 1.862-5.233l.38-.003a220.018 220.018 0 0 1-1.86 5.234l-.382.002zm-1.706 0c.233-.734.467-1.494.704-2.28.309-1.023.618-2.006.929-2.952l.38-.004a130.85 130.85 0 0 0-.965 3.06c-.225.75-.448 1.475-.672 2.178l-.376-.002zm67.831-5.236c-1.729 2.02-7.618 6.685-20.39 3.802-4.474-1.009-8.21-2.32-11.327-3.805l.854.003c2.948 1.338 6.434 2.522 10.553 3.452 12.19 2.752 17.961-1.446 19.83-3.456l.48.004zm-2.462 0c-2.094 1.485-6.712 3.065-12.523 2.898-3.526-.1-8.116-1.13-12.653-2.897l.987-.001c4.184 1.543 8.369 2.444 11.677 2.54 5.45.156 9.72-1.233 11.864-2.542l.648.002z"/><path d="M214.343 20.035c-.05-.225-.106-.45-.17-.68-.404-1.45-1.106-3.005-2.27-4.557h.45c1.292 1.792 2 3.588 2.357 5.236h-.367zm-1.748 0c-.56-2.082-1.648-3.81-2.973-5.235l.48-.001c1.28 1.434 2.326 3.165 2.866 5.239l-.373-.003zm-7.469 0c-.813-.502-1.864-.836-3.201-.927-2.06-.138-3.965.104-5.494.93l-.689-.003c1.683-1.114 3.868-1.443 6.207-1.285 1.658.112 2.902.586 3.814 1.28l-.637.005zm-27.34 0a44.826 44.826 0 0 0-3.348-3.505 59.362 59.362 0 0 0-1.922-1.731h.547c1.386 1.21 3.326 3.009 5.19 5.232l-.467.004zm-4.33 0a16.09 16.09 0 0 0-.524-.905c-.903-1.456-2.452-2.885-4.367-4.335l.598.004c1.76 1.366 3.202 2.734 4.074 4.142.232.374.44.738.627 1.093h-.408zm-4.313 0c-1.205-1.95-2.914-3.652-4.838-5.236h.558c1.874 1.577 3.533 3.284 4.703 5.237l-.423-.001zm-11.541 0c-1.15-.811-2.35-1.623-3.602-2.436a37.153 37.153 0 0 1-3.859-2.803l.574.003a36.419 36.419 0 0 0 3.478 2.498 111.34 111.34 0 0 1 4.023 2.734l-.614.004zm-2.86 0l-2.295-1.72c.084.728.063 1.302-.064 1.723l-.377-.003c.125-.336.177-.869.083-1.68l-.095-.828 3.228 2.417-.041.09h-.438zm-3.48 0a51.044 51.044 0 0 1-4.425-5.233l.444-.003a50.489 50.489 0 0 0 4.486 5.234l-.504.002zm-3.299 0a61.333 61.333 0 0 1-3.235-4.201 27.99 27.99 0 0 1-.73-1.033l.437-.002c.189.28.385.554.584.825a61.08 61.08 0 0 0 3.417 4.41h-.473zm-2.247 0a18.764 18.764 0 0 1-1.642-2.957 27.74 27.74 0 0 1-1.018-2.278l.386-.001c.291.724.61 1.434.956 2.125.54 1.192 1.128 2.232 1.755 3.108l-.437.003zm-1.46 0c-.812-.7-2.556-2.356-3.916-5.238l.4.002a16.202 16.202 0 0 0 1.83 2.944 27.988 27.988 0 0 1-1.33-2.946l.387.002c1.009 2.593 2.103 4.268 2.678 5.233l-.05.003zm-2.883 0c-1.016-1.21-1.79-2.567-2.56-3.832.075 1.532-.07 2.8-.348 3.836l-.372-.004c.284-1.01.437-2.267.362-3.815l.666-.204c.412.678.825 1.38 1.277 2.075.438.674.908 1.332 1.445 1.944h-.47zm-5.28 0c-.357-1.198-1.667-2.55-1.97-3.455-.35-1.051.352-1.488 1.185-1.751l.095-.032.84.002a3.73 3.73 0 0 1-.828.373c-.813.256-1.192.57-.95 1.295.071.216.222.484.43.804.209.322.455.667.69 1.02.352.531.726 1.14.882 1.747l-.374-.003zm-5.273 0a378.714 378.714 0 0 0 1.976-5.236h.382a383.417 383.417 0 0 1-1.974 5.24l-.384-.004zm-1.552 0a87.859 87.859 0 0 0 1.822-5.237h.377a90.503 90.503 0 0 1-1.81 5.234l-.39.003z"/><path d="M214.476 25.271c.03-.19.06-.395.086-.611a13.74 13.74 0 0 0-.22-4.626h.37a14.2 14.2 0 0 1 .128 5.24l-.364-.003zm-1.617 0c.28-1.956.153-3.691-.263-5.232l.372-.004c.404 1.552.526 3.29.253 5.24l-.362-.004zm-5.35 0a2.32 2.32 0 0 0 .042-.438c0-1.822-.636-3.707-2.424-4.802l.636.004c1.568 1.189 2.148 3.032 2.148 4.798 0 .149-.013.294-.037.44l-.365-.002zm-1.516 0c.383-1.005.176-2.309-1.49-3.824-2.705-2.454-8.653-.074-9.562 3.822l-.368.002c.897-4.151 7.197-6.79 10.17-4.09 1.757 1.596 2.006 2.996 1.631 4.092l-.381-.002zm-13.337 0c.431-2.553 1.548-4.223 3.086-5.24l.69.004c-1.71.925-2.949 2.576-3.412 5.235l-.364.001zm-11.228 0a28.513 28.513 0 0 0-2.545-3.88c-.36-.468-.727-.92-1.097-1.355l.466-.001c1.304 1.553 2.57 3.316 3.581 5.234l-.405.002zm-3.425 0c.03-.341.043-.69.034-1.046.196.342.383.692.564 1.05l-.598-.004zm-3.145 0c.049-1.505-.315-3.223-1.402-5.24l.408.004c1.047 1.997 1.4 3.717 1.354 5.233l-.36.003zm-3.927 0c-.172-1.95-.817-3.674-1.788-5.24l.422.004c.94 1.569 1.563 3.294 1.73 5.237h-.364zm-7.488 0c-1.081-1.391-2.413-2.69-4.005-3.907a93.23 93.23 0 0 0-1.837-1.328l.615-.001c.489.344.968.693 1.438 1.042 1.65 1.26 3.035 2.62 4.15 4.072.03.041.06.082.087.123h-.448zm-6.73 0a379.52 379.52 0 0 1-3.394-3.175c.585-.485 1.068-1.163 1.457-2.036l-.033-.025h.438l-.076.171c-.34.762-.757 1.398-1.257 1.894a331.45 331.45 0 0 0 3.4 3.174l-.535-.003zm-3.964 0c-.792-.766-1.516-1.43-1.938-1.852-.292.146-.421.213-.56.251-.205.057-.426.05-1.216.14.321.497.62.984.898 1.462h-.416a36.158 36.158 0 0 0-.785-1.267l-.315-.486.577-.065c.4-.046.655-.067.836-.084.183-.017.26-.027.326-.046a1.09 1.09 0 0 0 .168-.065l.326-.161.232-.115.184.183c.468.468 1.31 1.237 2.205 2.105h-.522zm-5.399 0c-.36-.627-.74-1.274-1.13-1.942-2.183-.676-3.676-1.89-4.848-3.29l.47-.004a.666.666 0 0 0 .036.04c1.1 1.244 2.482 2.303 4.448 2.911l.133.042.071.12c.43.734.845 1.44 1.235 2.126l-.415-.003zm-18.92 0a39.816 39.816 0 0 0 2.257-4.89l.132-.344.385-.002c-.06.16-.12.316-.182.475a40.879 40.879 0 0 1-2.182 4.765l-.41-.004zm-1.646 0c.875-1.444 1.687-3.188 2.484-5.234l.388-.002c-.783 2.023-1.586 3.769-2.452 5.236h-.42zm25.599-5.236c-.092.31-.242.536-.447.68a72.34 72.34 0 0 1-.674-.684l.506.004.16.16a.991.991 0 0 0 .077-.163l.378.003zm-3.948 0a63.353 63.353 0 0 0 1.9 2.133c-.437.194-1.019.292-1.748.292-.728 0-1.48-.534-2.257-1.6a14.088 14.088 0 0 1-.614-.822l.437-.003c.151.21.306.413.463.606.762 1.047 1.425 1.46 1.971 1.46a5.24 5.24 0 0 0 1.102-.102 62.495 62.495 0 0 1-1.726-1.967l.472.003zm-4.13 0c.02.03.04.065.06.097l-.109-.093.048-.004zm-5.84 0c-.732 2.74-2.382 3.872-3.309 4.046-1.279.24-1.646-.43-1.821-1.261-.176-.833-.265-1.74.481-1.873.746-.131 2.368.964 2.368-.35 0-.182-.034-.37-.091-.563h.374c.048.191.076.379.076.563 0 1.029-.784 1.074-1.329.972-.256-.048-.536-.133-.8-.199-.262-.064-.433-.086-.535-.068-.169.03-.258.118-.293.37-.04.278.013.658.1 1.073.155.736.4 1.173 1.403.983.747-.14 2.29-1.128 3.005-3.692l.37-.001z"/><path d="M213.519 28.544c.008-.126.034-.25.069-.362.063-.21.164-.43.26-.636l.12-.26a1.74 1.74 0 0 0 .068-.184c.031-.115.266-.783.44-1.829l.363-.002c-.177 1.1-.423 1.806-.455 1.924-.092.342-.464.905-.508 1.348h-.357zm-1.473 0c.35-.93.624-1.993.802-3.203l.01-.073.363.003-.017.122a16.231 16.231 0 0 1-.772 3.153l-.386-.002zm-7.31 0c.23-.163.472-.337.713-.528.985-.776 1.863-1.71 2.06-2.748l.366.003c-.224 1.338-1.425 2.458-2.526 3.274l-.614-.001zm-2.7 0c.636-.586 1.478-1.045 2-1.299.683-.33 1.59-1.016 1.957-1.976l.381.002c-.387 1.131-1.436 1.937-2.18 2.297a9.347 9.347 0 0 0-1.607.976h-.552zm-7.531 0c-.152-.9-.165-1.912.026-3.05.012-.076.027-.15.042-.225l.368.002c-.022.091-.04.186-.056.282-.186 1.12-.17 2.114-.013 2.992l-.367-.001zm-1.975 0c-.102-.948-.078-2 .107-3.159l.019-.119.364.005a4.29 4.29 0 0 0-.028.17c-.182 1.14-.203 2.172-.097 3.104l-.365-.001zm-9.68 0a20.664 20.664 0 0 0-1.421-3.27l.404-.003a20.48 20.48 0 0 1 1.393 3.27l-.375.003zm-3.277 0a23.093 23.093 0 0 0-1.236-2.995 11.36 11.36 0 0 1-.788 2.996l-.39-.001c.418-.995.74-2.088.844-3.274l.598.001a23.532 23.532 0 0 1 1.345 3.273h-.373zm-5.468 0c.41-.985.715-2.059.753-3.273h.36c-.037 1.208-.33 2.288-.728 3.274l-.385-.001zm-3.314 0a12.97 12.97 0 0 0 .14-3.275l.364.002a13.2 13.2 0 0 1-.14 3.274l-.364-.001zm-5.903 0a7.71 7.71 0 0 0-1.372-3.179l-.073-.096.448.002a8.094 8.094 0 0 1 1.362 3.272h-.365zm-4.622 0a60.67 60.67 0 0 0-.975-.92c-.869-.786-1.729-1.57-2.578-2.355l.534.002c.756.698 1.518 1.393 2.286 2.087.426.395.845.79 1.259 1.19l-.526-.004zm-4.502 0c-.737-1.027-1.938-2.241-3.015-3.277l.522.004c.167.164.337.33.507.5.91.908 1.84 1.905 2.424 2.77l-.438.003zm-4.569 0a28.461 28.461 0 0 0-1.678-3.272h.417a28.855 28.855 0 0 1 1.644 3.269l-.383.003zm-2.113 0c-.489-1.052-1.079-2.134-1.732-3.273h.415c.648 1.14 1.233 2.22 1.713 3.275l-.396-.002zm-10.303 0c-1.41-1.107-3.324-2.05-5.977-2.089-2.004-.029-3.521.84-4.653 2.088h-.484c1.203-1.441 2.874-2.48 5.142-2.446 2.968.043 5.048 1.183 6.534 2.444l-.562.003zm-12.415 0a30.526 30.526 0 0 0 2.067-3.27l.41-.003a31.156 31.156 0 0 1-2.032 3.272h-.445zm-2.212 0c.955-.839 1.82-1.927 2.632-3.27l.42-.003c-.778 1.317-1.606 2.407-2.52 3.272h-.532zm-10.574 0a4.814 4.814 0 0 1-.385-1.567c-.677.593-1.247 1.065-1.49 1.316 0 .07.004.154.014.249l-.362.002c-.026-.297-.004-.482-.004-.482s1.04-.832 2.181-1.872c-.029.926.123 1.71.441 2.35l-.395.004z"/><path d="M215.859 31.816c.142-.857-.048-1.914-1.619-2.32-.602-.154-.747-.564-.722-.952h.359c-.028.276.074.508.454.605 1.81.467 2.042 1.68 1.89 2.666l-.362.001zm-3.067 0a8.198 8.198 0 0 1-.198-.72c-.153.25-.307.489-.464.716l-.441.004c.2-.282.4-.585.598-.907l.461-.753.196.86c.063.275.139.543.226.804l-.378-.004zm-2.672 0c.759-.851 1.421-1.925 1.925-3.27l.388-.002c-.48 1.327-1.106 2.405-1.827 3.272h-.486zm-7.643 0c-1.924-1.18-1.428-2.374-.442-3.275l.553.003c-.323.251-.613.53-.811.826-.397.592-.514 1.371 1.12 2.27.206-.327.407-.672.498-.94-.147-.136-.394-.414-.352-.787a.516.516 0 0 1 .158-.3c.053-.056.12-.11.189-.161.13-.1.315-.222.535-.366.236-.155.513-.338.81-.544l.613.002c-1.006.746-1.928 1.237-1.947 1.41-.043.38.507.676.507.676s-.338.614-.7 1.19l-.731-.004zm-6.576 0a7.604 7.604 0 0 1-1.396-3.275l.367.003a7.329 7.329 0 0 0 1.48 3.276l-.45-.004zm-2.38 0a8.802 8.802 0 0 1-.99-3.269l.364-.003a8.458 8.458 0 0 0 1.045 3.271l-.42.001zm-9.952 0a15.889 15.889 0 0 0-.72-3.27l.377-.002a16.04 16.04 0 0 1 .704 3.273h-.361zm-3.18 0a21.516 21.516 0 0 0-.817-3.275l.374.003c.35 1.074.62 2.173.8 3.272h-.357zm-5.023 0c.596-.931 1.27-2.025 1.792-3.27l.39-.002a18.343 18.343 0 0 1-1.312 2.558c-.148.246-.295.482-.44.71l-.43.004zm-2.96 0c.463-.871 1.027-1.799 1.502-2.83.066-.147.132-.295.196-.447l.386.005c-.49 1.212-1.14 2.282-1.679 3.275l-.405-.003zm-2.509 0c.429-1.15.722-2.24.893-3.273l.365.001a17.954 17.954 0 0 1-.873 3.271l-.385.001zm-5.009 0a7.46 7.46 0 0 0 .158-1.503 9.59 9.59 0 0 0-.158-1.766l.364-.003c.103.563.154 1.153.154 1.77 0 .493-.05.993-.15 1.5l-.368.002zm-1.395 0a77.684 77.684 0 0 0-3.226-3.275l.524.003a78.18 78.18 0 0 1 3.187 3.268l-.485.004zm-8.507 0c-.724-1.686.535-2.509 1.169-2.668a6.135 6.135 0 0 0-.392-.607l.439.003c.1.146.19.29.267.429l.229.41-.455.113c-.515.13-1.601.794-.861 2.32h-.396zm-2.68 0a20.108 20.108 0 0 0-1.11-3.276l.382.004c.49 1.157.842 2.248 1.08 3.268l-.353.004zm-2.075 0c-.237-1.085-.637-2.163-1.15-3.27l.396-.002.082.184c.458 1.034.819 2.053 1.04 3.085l-.368.003zm-5.732 0a1.715 1.715 0 0 1-.067-.18l-.132.11c-.03.024-.063.05-.095.073l-.708-.003c.682-.289 1.187-.953 1.187-.953s-.027.541.219.956l-.404-.003zm-2.591 0a9.576 9.576 0 0 1-.558-.631c-.228-.271-.485-.584-.78-.918a15.56 15.56 0 0 0-.983-1.025c-.25-.234-.518-.469-.808-.696l.564-.002c1.594 1.351 2.506 2.846 3.098 3.271l-.533.001zm-6.414 0c-.626-.842-1.223-1.648-1.995-2.186-.401-.281-3.387-1.896-4.891 1.173-.172.35-.322.685-.44 1.01l-.382.003c.13-.377.299-.766.497-1.172.824-1.674 2.088-2.105 3.204-2.042 1.073.06 1.983.568 2.218.733.635.443 1.149 1.046 1.628 1.668.203.265.405.54.61.814h-.449zm-9.672 0c.43-1.14 1.032-2.299 1.844-3.272h.485c-.858.945-1.492 2.11-1.946 3.268l-.383.004zm-2.277 0a25.256 25.256 0 0 0 2.82-3.27l.445-.002a26.265 26.265 0 0 1-2.754 3.273h-.51zm-2.8 0l.34-.049 1.036-.151-.192.2h-1.185zm-6.617 0c-2.26-.86-2.7-2.474-2.773-3.276l.36.004c.01.088.026.187.048.295a3.18 3.18 0 0 0 .822 1.577c.53.562 1.406 1.107 2.853 1.397l-1.31.003zm10.555-3.272c-1.644 1.557-3.56 2.38-5.933 2.46-2.597.09-4.407-.74-5.173-2.458l.397-.002c.737 1.47 2.363 2.183 4.763 2.101 2.133-.072 3.888-.767 5.415-2.104l.531.003z"/><path d="M215.92 35.743c.147-.51.274-.93.343-1.153l-.962-1.312.116-.202c.037-.067.334-.606.442-1.255l.361-.005a4.678 4.678 0 0 1-.49 1.438l.932 1.27s-.163.508-.368 1.218l-.374.001zm-.848 0c-.798-.855-1.754-2.278-2.28-3.922l.378-.005c.58 1.75 1.651 3.198 2.405 3.927h-.503zm-8.08 0c1.512-.602 3.156-1.74 4.697-3.923l.441-.004c-1.377 2.017-2.853 3.214-4.264 3.926l-.874.001zm-9.25 0c-1.568-.774-3.197-2.028-4.221-3.93l.42.003c1.146 2.008 2.996 3.24 4.646 3.926l-.844.001zm-14.315 0c.03-.18.059-.364.086-.551.165-1.143.174-2.27.056-3.374l.361-.002a13.897 13.897 0 0 1-.06 3.427c-.026.17-.052.338-.079.503l-.364-.003zm-2.82 0a17.348 17.348 0 0 0-.217-3.925l.356-.002a17.91 17.91 0 0 1 .217 3.923l-.356.004zm-6.242 0a2.625 2.625 0 0 1-.389-.949c-.137-.65.547-1.652 1.39-2.976l.43-.002c-.376.59-.727 1.122-.998 1.59-.386.668-.521 1.074-.47 1.313a2.244 2.244 0 0 0 .484 1.022l-.447.002zm-2.756 0a2.682 2.682 0 0 1-.016-.052c-.334-1.128-.002-2.21.51-3.278.094-.196.195-.394.303-.595l.405-.002c-.72 1.341-1.237 2.543-.874 3.774.016.05.033.104.052.156l-.38-.003zm-3.571 0a27.36 27.36 0 0 0 1.86-3.924l.384-.003a26.907 26.907 0 0 1-1.832 3.924l-.412.003zm-4.94 0c-1.376-2.056-1.737-2.101-2.29-2.64-.557-.542-.754-.03-.784.511-.03.54-.06 1.022-.42 1.758a6.937 6.937 0 0 1-.199.374l-.42-.003c.103-.152.195-.328.294-.53.33-.67.357-1.094.387-1.619.014-.268.07-.658.292-.89.353-.368.796-.155 1.1.141.28.272.511.42.846.761.354.36.805.91 1.505 1.958l.12.18h-.431zm-6.365 0c-.17-.434-.125-.946.145-1.287.526-.662 1.49-.45 1.369-1.624-.12-1.174-.422-.511-.632-.09-.211.42-.362.962-.362.962s-1.399-.482-1.851-1.143a4.376 4.376 0 0 1-.417-.745h.397a4.3 4.3 0 0 0 .317.543c.252.368.916.695 1.329.87.066-.195.16-.436.265-.648.056-.112.118-.24.18-.348.04-.067.08-.127.119-.178.04-.052.1-.121.184-.172.302-.184.566.008.672.22.08.16.126.397.157.692.075.736-.213 1.105-.614 1.348-.149.09-.317.164-.483.258a1.13 1.13 0 0 0-.348.278c-.222.28-.222.725-.03 1.068l-.397-.004zm-4.061 0c.087-1.145-.014-2.455-.367-3.928h.353c.34 1.455.444 2.769.365 3.925l-.351.003zm-2.221 0c.024-.522.029-1.093.029-1.708 0-.75-.088-1.486-.249-2.22h.368c.155.729.24 1.466.24 2.22 0 .6-.003 1.174-.027 1.711l-.361-.003zm-22.095 0c-1.006-1.243-1.068-2.486-.57-3.928h.382c-.53 1.435-.489 2.66.658 3.926l-.47.002zm-3.447 0c.073-.963.346-2.428.913-3.927h.383c-.578 1.476-.86 2.943-.936 3.928h-.36zm-6.518 0c.422-.264.86-.541 1.312-.842a26.382 26.382 0 0 0 3.842-3.083l.511-.002c-1.745 1.757-3.463 2.96-4.99 3.926l-.675.001zm-3.308 0c2.318-1.307 4.895-2.414 6.055-3.62-3.35.487-5.556.245-7.01-.308h1.31c1.273.254 2.991.309 5.305 0h1.186l-.532.556c-.632.659-1.635 1.269-2.734 1.868-.893.487-1.884.984-2.852 1.508l-.728-.004zm95.523-3.927c-3.948 4.757-10.753 3.277-12.02 2.458-.726-.47-1.803-1.255-2.685-2.455l.452-.003c.812 1.035 1.764 1.726 2.43 2.157 1.174.76 7.503 2.138 11.337-2.157h.486zm-7.397 0a9.583 9.583 0 0 1-.19.296 7.3 7.3 0 0 1-.541-.3l.73.004zm-37.954 0c-.097.486-.24.98-.432 1.48a67.497 67.497 0 0 0-1.33-1.477l.485-.003c.237.256.474.517.708.78.08-.263.147-.523.202-.781h.367zm-20.352 0c.015.03.033.058.052.084.301.42.632.901.15 1.623-.48.722-.707 1.88-3.658 1.88-3.267 0-4.67-1.867-5.953-3.588h.45c.272.365.552.73.858 1.078 1.038 1.185 2.346 2.15 4.645 2.15 1.434 0 2.138-.28 2.534-.592.2-.157.34-.334.461-.523.137-.212.242-.422.364-.604.342-.513.152-.803-.144-1.216a1.55 1.55 0 0 1-.163-.293h.404zm-.7 0c-.39.29-.955.575-1.582.468-.252-.043-.47-.226-.645-.396l-.068-.068.533-.004c.087.062.167.1.24.114a1.45 1.45 0 0 0 .815-.114h.708z"/><path d="M181.775 40.99c.723-1.413 1.3-3.138 1.653-5.245l.364-.002c-.344 2.094-.908 3.82-1.613 5.248l-.404-.002zm-2.7 0c.924-1.545 1.41-3.345 1.533-5.25l.355.003c-.115 1.89-.575 3.688-1.46 5.245l-.428.001zm-4.52 0c.75-.589 1.297-1.601 1.297-2.407 0-1.81-.902-1.969-1.487-2.838l.448-.002c.06.072.125.14.189.206l.317.316c.471.478.894 1.046.894 2.318 0 .723-.443 1.71-1.12 2.405l-.538.001zm-2.176 0l.012-.01c1.233-.85 1.179-1.635.792-2.463a6.457 6.457 0 0 0-.377-.678c-.147-.236-.304-.467-.455-.697-.29-.444-.59-.922-.743-1.4l.382.001c.603 1.629 3.054 3.464.975 5.25l-.586-.004zm-2.353 0c-.61-1.393-1.386-2.736-2.515-4.354.183-.301.36-.6.526-.895l.414.002a37.09 37.09 0 0 1-.511.88c1.11 1.61 1.876 2.962 2.48 4.368l-.394-.002zm-2.984 0a31.3 31.3 0 0 0-1.758-2.722c-.45.32-.95.666-1.688 1.058-.905.479-2.154 1.016-4.081 1.643l-.073.024-1.132-.004a80.22 80.22 0 0 1 1.093-.36c3.827-1.247 4.915-2.122 5.963-2.86a31.25 31.25 0 0 1 2.088 3.22h-.412zm-1.822 0a11.97 11.97 0 0 1-.12-.758s-.165.34-.377.761l-.401-.004c.408-.817.995-2.018.995-2.018l.141 1.22c.002.013.04.334.129.801l-.367-.003zm-11.397 0c2.976-1.907 7.303-3.257 9.286-5.227l-.012-.018.432-.002.043.067-.209.209c-.649.643-1.52 1.212-2.482 1.743-.958.529-2.031 1.033-3.11 1.546-1.146.546-2.274 1.095-3.27 1.685l-.678-.004zm-4.009 0c1.417-.793 2.654-2.559 2.857-5.249l.353.002c-.17 2.503-1.19 4.283-2.505 5.246h-.705zm-5.05 0c-1.208-.655-1.81-1.453-1.81-1.453l2.363-.646s.632.797 2.108.766c2.393-.048 2.916-1.457 3.026-3.913h.36c-.109 2.504-.662 4.217-3.38 4.273-.806.016-1.397-.194-1.793-.42a2.486 2.486 0 0 1-.428-.304l-1.59.434a6.403 6.403 0 0 0 1.977 1.258l-.833.004zm-7.505 0a112.653 112.653 0 0 0-3.821-1.863c-2.593-1.214-4.2-2.299-5.082-3.386l.47.002c.872.96 2.38 1.942 4.763 3.058a105.86 105.86 0 0 1 4.455 2.19l-.785-.002zm-11.27 0c-.873-2.167-1.1-4.118-1.1-4.745 0-.146.007-.313.02-.5l.36-.002a6.261 6.261 0 0 0-.02.502c0 .624.235 2.59 1.128 4.743l-.389.001zm-12.92 0a2.572 2.572 0 0 1-.013-.262 2.183 2.183 0 0 1 .28-1.115c.41-.745 1.338-1.552 3.193-2.725.567-.36 1.194-.734 1.862-1.148l.676.003c-.852.538-1.643 1.003-2.347 1.447-3.047 1.931-3.388 2.75-3.29 3.803l-.361-.004zm-2.504 0a11.38 11.38 0 0 1-.003-.264c0-2.085 2.122-3.64 4.52-4.986l.728.003c-.224.127-.447.25-.667.374-2.387 1.353-4.221 2.796-4.221 4.61 0 .09 0 .177.004.26l-.36.002zm105.73-5.247c-.072.25-.149.526-.227.812-.243-.103-.6-.388-.996-.812h.503c.098.095.19.178.276.248.023-.084.046-.166.07-.246l.374-.002zm-8.43 0c-2.537 1.279-4.87.99-6.062 1.08-.714.055-2.351-.229-4.06-1.076l.845-.004c1.371.57 2.606.767 3.188.723.485-.038 1.157-.013 1.955-.053.776-.041 1.663-.146 2.608-.44.214-.066.431-.142.653-.23h.874zm-48.46 0c-.324.559-.746.956-1.639.832a1.278 1.278 0 0 1-1.034-.83l.399-.002a.911.911 0 0 0 .684.477c.597.083.91-.104 1.171-.48l.42.003z"/><path d="M176.678 46.216c1.867-.987 3.739-2.561 5.097-5.222l.404-.004c-1.267 2.566-2.997 4.174-4.763 5.222l-.738.004zm-7.638 0c-.606-.265-1.637-.801-2.417-1.659-.801-.882-1.22-2.578-1.403-3.564l.367-.003c.183.96.577 2.528 1.303 3.326.547.602 1.236 1.042 1.799 1.333.137.071.265.133.381.185a13.33 13.33 0 0 0-.511-1.657c-.32-.855-.8-1.93-1.517-3.188h.412c1.546 2.757 1.96 4.633 2.06 5.223l-.474.004zm-2.63 0c-1.533-1.28-2.228-2.865-2.383-4.523l-.009-.105.048-.093c.067-.13.156-.308.257-.51l.4.005c-.106.215-.224.447-.337.67.156 1.68.895 3.293 2.617 4.56l-.593-.004zm-7.99 0c-1.557-1.258-3.418-2.1-4.676-2.73.578-1.064 1.595-1.516 4.566-2.5l1.132.004c-3.416 1.117-4.576 1.549-5.181 2.352.565.278 1.22.596 1.9.969.833.457 1.714 1 2.519 1.657.1.081.2.165.297.252l-.558-.004zm-2.412 0a18.396 18.396 0 0 0-2.086-1.07c.076.339.18.649.385 1.066l-.397.004c-.278-.603-.356-1.013-.464-1.662 1.303.535 2.372 1.091 3.242 1.66l-.68.002zm-5.775 0c.12-.439.243-.816.327-1.133.086-.327.11-.515.068-.676-.006-.006-.03-.028-.105-.048-.163-.043-.461-.05-.976.022-1.598.221-2.814 1.052-3.618 1.835h-.5c.83-.888 2.196-1.932 4.068-2.19 2.04-.284 1.595.477 1.108 2.19h-.372zm-20.448 0c-1.882-1.457-3.066-3.418-3.797-5.23l.39.004c.766 1.844 2.015 3.829 4.016 5.227l-.61-.001zm49.717-5.226c-1.42 2.5-3.933 4.387-7.857 5.072-.497-2.016-.96-3.572-1.62-5.076l.394.004c.6 1.397 1.039 2.845 1.494 4.657 3.497-.688 5.803-2.398 7.16-4.661l.43.004zm-4.41 0c-.708.726-1.675 1.138-2.667.602l-.516-.278.47-.324h.586a3.72 3.72 0 0 1-.37.286c.67.36 1.376.165 1.96-.29l.537.004zm-20.59 0c-.883.528-1.662 1.089-2.256 1.712l-.123.13-.178-.02c-.331-.037-.742-.103-1.222-.125a6.126 6.126 0 0 0-1.59.125c-1.177.251-2.637.936-4.328 2.646l-.22.222-.25-.186c-2.437-1.813-3.863-2.859-7.076-4.507l.785.003c2.807 1.48 4.216 2.512 6.506 4.216 3.462-3.503 6.08-2.902 7.436-2.751.504-.53 1.133-1.013 1.837-1.464l.679-.001zm-3.983 0c-.768.562-1.635.845-2.492.832a7.004 7.004 0 0 1-3.263-.832h.833c.67.264 1.48.46 2.435.474.585.008 1.198-.152 1.782-.477l.705.003zm-37.09 0c.021.234.063.475.103.744.214 1.455-2.833 3.027-2.967-.747l.36.003c.11 3.397 2.368 1.595 2.25.796-.042-.289-.086-.548-.106-.796h.36z"/><path d="M170.135 56.688c1.38-3.344 1.685-6.736 1.382-8.428l-.06-.339.336-.074c1.32-.292 3.1-.693 4.885-1.634l.738.003c-2.014 1.19-4.073 1.656-5.545 1.982.303 1.697.013 5.108-1.353 8.493l-.383-.003zm-1.96 0c1.206-2.288 1.783-5.199 1.196-8.821-1.22-.456-2.196-1.018-2.961-1.655l.594.004c.716.531 1.601.998 2.687 1.385.643 3.725.094 6.727-1.11 9.09l-.407-.003zm-8.991 0c.792-1.5 2.074-3.286 2.074-5.133 0-2.35-1.262-4.059-2.84-5.336l.56-.003c1.471 1.292 2.64 3.014 2.64 5.339 0 1.442-.722 2.822-1.387 4.001-.22.391-.441.768-.637 1.13l-.41.002zm-1.684 0c.36-.615.704-1.14.851-1.386.113-.188.496-.688.845-1.398.34-.695.639-1.574.618-2.546-.032-1.51-.844-3.373-3.807-5.145l.68.003c6.154 4.023 2.373 8.6 1.973 9.27-.132.22-.426.67-.746 1.205l-.414-.003zm-3.3 0c1.499-1.758 2.292-3.581 2.264-4.694-.032-1.283-.13-1.748-1.43-3.816-.568-.906-.907-1.492-1.125-1.962h.398c.21.425.527.967 1.032 1.771 1.321 2.1 1.45 2.628 1.484 3.998.03 1.182-.747 2.974-2.15 4.7l-.473.003zm-1.885 0a2.56 2.56 0 0 1-.03-.664l.04-.143c.096-.18.21-.354.298-.557.078-.179.137-.38.149-.641.022-.537-.155-1.378-.885-2.85-.745-1.505-1.282-2.4-1.572-3.145-.316-.813-.358-1.482-.09-2.45a.323.323 0 0 1 .008-.025l.373.003-.034.119c-.497 1.795.16 2.355 1.638 5.338 1.477 2.983.835 3.624.433 4.377a2.05 2.05 0 0 0 .04.64l-.368-.002zm-9.664 0c-.867-1.96-.469-3.902-.217-5.384 3.949 2.277 3.772 4.074 3.804 4.698.996-.224 1.461-1.988 1.461-4.313 0-2.324-1.574-4.04-2.536-5.179.08-.096.17-.195.265-.298l.5.004c-.103.1-.2.2-.29.3.192.224.399.47.61.734.29.37.587.776.853 1.222.534.897.957 1.97.957 3.217 0 2.222-.416 4.365-1.74 4.664l-.417.094-.022-.426c-.008-.148-.002-.362-.048-.636a2.895 2.895 0 0 0-.34-.937c-.38-.678-1.159-1.559-2.792-2.566-.046.27-.09.553-.129.847-.06.472-.1.973-.088 1.489.02.802.167 1.635.565 2.47h-.396zm-3.765 0c-.797-.34-1.79-.699-3.008-1.033-5.552-1.526-8.342-.358-9.722 1.031l-.496.002c1.377-1.58 4.293-3.034 10.314-1.38 1.63.449 2.867.938 3.783 1.384l-.871-.004zm-15.582 0c.368-.516.897-1.012 1.644-1.469 6.442-3.924 13.383-.33 16.018.736-.362-2.015-.06-3.261.24-4.78-5.404-2.751-3.447-1.052-9.376-3.73-.76-.342-1.44-.76-2.045-1.23h.609c.482.34 1.01.644 1.583.902 2.933 1.325 3.915 1.568 4.833 1.82.957.261 1.842.535 4.56 1.918l.242.123-.053.267c-.148.746-.296 1.425-.363 2.166a9.047 9.047 0 0 0 .123 2.48l.115.642-.604-.245c-.656-.266-1.58-.69-2.7-1.114-1.104-.419-2.399-.839-3.812-1.105-2.812-.53-6.061-.445-9.182 1.457-.599.365-1.046.755-1.378 1.16l-.454.002zm46.21-10.472c.021.127.028.193.028.193s-.197-.062-.502-.196l.473.003z"/><path d="M170.518 56.688C168.63 61.368 164.69 66 157.433 66c-12.508 0-15.715-7.638-15.715-7.638s-.76-.784-2.832-1.673h.87c1.579.772 2.206 1.409 2.267 1.471 0 0 .219.513.687 1.191.48.691 1.248 1.62 2.402 2.55 2.297 1.857 6.147 3.739 12.321 3.739 6.99 0 10.833-4.432 12.702-8.955l.383.003zm-1.937 0c-2.703 5.31-8.705 7.393-11.925 7.202-4.88-.288-11.044-4.841-13.533-6.332a6.265 6.265 0 0 1-.472-.87h.396c.096.202.207.403.334.606 1.252.758 3.375 2.235 5.787 3.567 2.454 1.357 5.156 2.533 7.51 2.671 3.089.184 8.83-1.802 11.497-6.848l.406.004zm-8.987 0c-.099.18-.19.358-.273.532-.217.452-.35.852-.379 1.182.126-.063 1.166-.61 1.166-.61s-.709 1.202-.828 1.365a4.448 4.448 0 0 1-.499.564c-.408.386-1.064.824-1.844.647-.605-.14-.653-.716-.586-1.124.073-.434.292-.962.547-1.468.185-.368.396-.744.602-1.092l.413.004c-.787 1.315-1.744 3.136-.896 3.33 1.195.272 2.139-1.319 2.139-1.319s-.578.318-.578-.185c0-.54.254-1.154.606-1.823l.41-.003zm-4.92 0c-.294.355-.612.711-.957 1.058l-.18.181-.23-.11c-.092-.044-.2-.09-.308-.153a1.434 1.434 0 0 1-.378-.311 1.455 1.455 0 0 1-.307-.665h.37c.134.543.521.683.778.805.262-.263.508-.531.738-.802l.473-.003zm-28.517 0c-1.083 1.088-1.299 2.314-1.299 2.486 0 .39.151 3.262 2.44 3.502 2.29.242 2.844-1.653 4.11-2.135 2.82-1.073 4.802.843 4.802.843l-1.716.901s-.904-.42-1.568-.42c-2.378 0-2.602 3.502-6.02 3.502-2.113 0-4.115-2.29-4.35-5.036-.1-1.177-.091-2.464.749-3.643h.454c-.932 1.138-.948 2.404-.845 3.612.227 2.64 2.135 4.708 3.993 4.708 1.55 0 2.368-.775 3.131-1.63.196-.22.385-.442.575-.649.195-.211.4-.417.625-.597.457-.366.993-.626 1.688-.626.394 0 .83.121 1.15.229.161.055.302.11.402.153l1.07-.563a4.56 4.56 0 0 0-.818-.432c-.781-.319-1.887-.513-3.194-.016-.253.096-.484.269-.74.5-.268.244-.531.52-.825.774-.63.546-1.437 1.016-2.71.884-1.327-.14-2.022-1.055-2.374-1.918a5.667 5.667 0 0 1-.388-1.943c0-.253.22-1.399 1.162-2.482l.496-.004zM105.995.472c1.585-2.889 3.094-6.477 3.51-10.473h-.363c-.307 2.912-1.206 5.608-2.291 7.976A36.5 36.5 0 0 1 105.589.47l.406.003zm-2.179 0c.06-.077.117-.149.163-.213.39-.544.372-.95.372-.95s-.463.009-.918.488a8.21 8.21 0 0 1-.793.674h.575a5.78 5.78 0 0 0 .476-.426c-.089.119-.2.262-.334.428l.459-.001zm-7.294 0c.156-.012.315-.026.477-.043 7.467-.767 9.654-6.143 10.182-10.434l-.36.004c-.526 4.175-2.667 9.334-9.86 10.073-8.747.9-12-6.564-12.42-10.072h-.358C84.569-6.696 87.35-.064 94.586.471h1.936zm-7.193 0c-3.265-1.802-5.513-5.031-6.451-8.1a9.393 9.393 0 0 1-.41-2.37L82.104-10c.034.818.173 1.647.428 2.478.907 2.966 3.023 6.102 6.095 8l.7-.005zM103.6-10.001c-.91 4.107-4.908 6.294-8.633 6.192-2.15-.059-3.246-1.377-3.96-2.848-.367-.753-.622-1.523-.855-2.146a7.444 7.444 0 0 0-.37-.858 2.305 2.305 0 0 0-.22-.34h-.546l.065.041c1.123.674 1.188 6.381 5.877 6.51 3.873.106 8.102-2.2 9.015-6.553L103.6-10zm-2.042 0c-.634 2.506-2.183 2.811-2.78 2.863-.739.065-1.992.673-2.859-2.148a7.722 7.722 0 0 0-.255-.715h-.389c.115.265.216.541.302.82.446 1.45 1.024 2.137 1.694 2.387.328.123.64.127.904.102.234-.022.45-.072.634-.088.753-.066 2.46-.478 3.119-3.219l-.37-.002zm-14.017 0l-.016.043a.412.412 0 0 1-.022-.042h-.383c.202.492.539.842.645.938-.03-.357.01-.722.174-.943l-.398.004zm-31.991 0c-1.98 1.309-4.867 3.15-8.335 4.876C42.162-2.612 35.904-.358 29.442-.358c-6.477 0-10.702-1.56-13.36-3.177a14.721 14.721 0 0 1-2.911-2.292c-.647-.667-.99-1.168-1.115-1.318l-.141-.103c-2.047-.836-3.721-1.76-5.091-2.748L6.219-10c1.462 1.117 3.287 2.157 5.56 3.085.505.612 4.585 6.917 17.663 6.917 11.393 0 22.111-6.919 26.773-10.006L55.55-10zm-17.63 0c-5.993 2.883-12.722 5.15-17.818 4.155 3.81-.407 8.019-2.102 11.951-4.154h-.782c-4.496 2.282-9.263 4.02-13.315 3.88 5.52 2.335 13.738-.41 20.773-3.879L37.92-10zm-12.496 0c-3.168 1.39-6.918 2.423-10.893 1.644-.527-.445-1.04-.95-1.485-1.647l-.413.003c.5.84 1.1 1.442 1.738 1.98l.091.016c3.443.675 6.708.023 9.566-1.041a30.325 30.325 0 0 0 2.27-.958l-.874.003zM10.09-10c.07.167.145.337.226.506l-.373-.208a16.599 16.599 0 0 1-.5-.3L8.779-10c1.25.828 2.237 1.263 2.4 1.35a10.127 10.127 0 0 1-.697-1.35h-.392z"/><path d="M102.71 5.708c.846-1.259 2.088-3.046 3.285-5.233l-.406-.003a52.377 52.377 0 0 1-1.99 3.267c-.498.758-.951 1.418-1.317 1.968l.429.001zm-3.021 0c1.71-2.335 3.39-4.293 4.127-5.235l-.46-.001c-.83 1.041-2.468 2.974-4.115 5.239l.448-.003zm-4.202 0c.764-.446 1.545-.895 2.2-1.334 1.832-1.228 4.362-2.945 5.529-3.903h-.576c-1.242.963-3.465 2.472-5.153 3.605-.799.535-1.782 1.084-2.698 1.633l.698-.001zm-2.561 0c1.336-1.004 3.21-2.118 5.503-3.598.433-.218.763-.719.763-.719s-.493-.094-1.049.07c-3.42.887-6.396.34-8.814-.993l-.701.004c2.577 1.596 5.827 2.317 9.605 1.337-2.513 1.623-4.528 2.809-5.885 3.896l.578.003zm1.66-5.236c.613.046 1.256.047 1.936-.001h-1.936z"/><path d="M102.283 5.708a.37.37 0 0 0-.028.04c-.368.554-.664 1.021-.82 1.365l-.198.447.485.057c1.868.218 2.054 1.287 1.615 2.643-.353 1.091-1.11 2.253-1.688 3.013-.37-1.243-.893-1.821-1.684-2.611l-.395-.393-.196.52c-.792 2.093-.64 3.406-.056 4.281.283.428.653.721.997.942.203.13.406.237.586.336-.04.15-.041.3-.041.42 0 .112.004.235-.002.37a2.33 2.33 0 0 1-.052.397.564.564 0 0 1-.33.413 2.32 2.32 0 0 1-.36.14l-.278.085c-1.968-1.937-1.915-3.625-1.76-6.048.034-.418-.173-.824-.173-.824s-.369.33-.517.662c-3.708 8.794 1.936 11.209 4.153 11.209 2.108 0 4.34-1.628 4.34-3.567 0-.925-.35-1.672-.683-2.277-.16-.29-.325-.56-.454-.813-.125-.244-.196-.436-.214-.602-.09-.872.033-2.324 1.832-2.857 1.154-.342 1.505.48 1.611.998-.137.01-.3.034-.463.08-.47.132-1.031.486-1.031 1.303 0 .381.12.682.283.943.077.122.164.24.26.36.085.109.176.22.266.34.336.443.667 1.002.667 2.078 0 2.123-1.811 4.963-6.446 4.963-4.534 0-6.873-3.394-6.641-8.507.116-2.558 1.994-5.894 4.088-8.884.243-.347.488-.687.731-1.021l-.445-.001c-2.296 3.163-4.6 6.968-4.732 9.89-.237 5.231 2.18 8.882 6.999 8.882 4.816 0 6.806-2.983 6.806-5.322 0-2.341-1.477-2.534-1.477-3.72 0-1.188 1.54-1.027 1.54-1.027s-.063-2.309-2.12-1.7c-2.053.61-2.181 2.31-2.085 3.239.096.93 1.348 1.989 1.348 3.655 0 1.668-1.99 3.208-3.98 3.208-1.992 0-7.418-2.18-3.821-10.71-.162 2.5-.226 4.36 2.022 6.477.674-.224 1.253-.29 1.413-.962.16-.674-.064-1.122.224-1.412-.93-.576-3.21-1.217-1.669-5.29.898.898 1.413 1.474 1.766 3.142 1.123-1.283 4.655-6.284.288-6.798.16-.355.498-.878.947-1.548l-.428-.004zm-7.493 0a29.63 29.63 0 0 0-.916.57c-.57.372-1.09.758-1.463 1.15-.364.381-.65.836-.604 1.34.09.966.944 1.25 1.551 1.322.087.01.175.017.26.02l-.744.744c-.526-.094-2.138-.518-2.114-2.146.012-.961.642-1.815 1.983-2.855.06-.047.12-.094.183-.141l-.577-.004c-1.244.994-1.934 1.907-1.95 2.995-.033 2.277 2.602 2.533 2.602 2.533l1.54-1.539s-2.247.417-2.376-.962c-.089-.958 1.575-1.995 3.32-3.022l-.695-.005zm-7.717-1.382c-3.213-8.3-6.392-12.967-9-15.708h-.499c2.602 2.655 5.832 7.273 9.11 15.704l.389.004zm-3.937 0c-.112-1.939-.434-4.084-1.035-6.446.18 2.358.194 4.5.084 6.443l.361.003c.033-.594.055-1.207.064-1.839.076.633.13 1.247.165 1.841l.361-.002zm-3.79 0c.09-.797.133-1.611.133-2.446 0-1.551-.267-3.2-.8-4.944.193.726.291 1.671.291 2.834 0 1.653-.178 3.172-.528 4.56l.371-.004c.114-.451.207-.921.283-1.403-.023.475-.061.944-.114 1.406l.364-.003zm-8.85 0c2.68-3.188 3.847-6.973 1.63-12.187 1.832 4.754-.695 8.68-4.733 12.186l.54.001C70.437 2.1 72.359-.34 72.925-3.08c.104 2.67-.87 4.885-2.453 6.866-.147.183-.298.365-.454.543l.477-.003zm-5.657 0c3.671-2.864 6.015-6.59 5.295-13.467-.255-1.56-.668-2.043-.668-2.043s-.043 1.207-.048 2.073c-.05 2.249-1.257 8.066-7.466 13.441l.549-.004c6.012-5.362 7.225-11.115 7.277-13.43.726 6.968-1.732 10.593-5.53 13.428l.591.002zm-4.696 0c5.258-3.85 8.79-8.842 7.653-14.484a84.567 84.567 0 0 0-.236-1.224h-.322c-.045.385-.1.83-.149 1.232-.247 1.42-3.191 4.16-7.865 4.16-2.689 0-6.704.043-7.406 4.922-.602-.09-1.17-.181-1.518-.239a8.422 8.422 0 0 1 1.009-2.523c.898-1.485 2.523-3.084 5.464-3.53 1.567-.237 2.43.032 3.562-.128 3.214-.453 5.85-1.447 5.894-3.619a1.707 1.707 0 0 0-.014-.271l-.366-.004c.017.082.024.171.022.268-.04 1.826-2.289 2.805-5.587 3.27-1.134.161-1.995-.11-3.564.13-6.133.929-6.84 6.701-6.84 6.701s1.126.193 2.25.353c.513-4.907 4.3-4.971 7.094-4.971 4.758 0 7.932-2.79 8.22-4.457C68.572-4.495 64.908.498 59.52 4.327h.622zm-9.892 0a39.88 39.88 0 0 0 2.713-.593c9.053-2.309 12.424-8.69 13.58-11.031C60.83-.308 56.013 2.45 44.455 3.252c-4.21.292-7.824.678-10.828 1.075h2.92c2.352-.264 4.996-.513 7.933-.717 9.93-.689 14.964-2.824 19.816-7.823-1.964 2.725-5.423 6.068-11.422 7.599-1.697.432-3.284.72-4.838.94h2.215zm-26.765 0c.388-1.693 1.738-3.254 1.738-3.254S24.132.719 23.298.43c-1.289 1.403-1.794 2.679-1.93 3.896h.362c.13-1.096.58-2.23 1.675-3.479.425.145.884.297 1.217.406-.231.314-.552.781-.844 1.334-.266.505-.526 1.107-.66 1.74h.368zm49.635-15.708l.465.316.317-.316h-.782z"/><path d="M88.936 9.563a109.278 109.278 0 0 0-1.862-5.233l-.39-.004c.624 1.6 1.249 3.343 1.872 5.236h.38zm-1.935 0c-1.082-3.177-1.396-4.42-1.396-4.42l-.704.031s-.404 2.577-.352 4.388h.362c-.056-1.777.345-4.332.345-4.332s.306 1.22 1.365 4.334l.38-.001zm-4.1 0c.244-1.554.345-3.293.234-5.234l-.36-.003c.113 1.951.01 3.692-.238 5.24l.365-.003zm-.994 0c.304-1.564.531-3.303.64-5.237h-.362a38.314 38.314 0 0 1-.645 5.237h.367zm-1.652 0c.098-.428.178-.831.243-1.21-.145.409-.297.814-.46 1.214l.217-.004zm-2.271 0a18.659 18.659 0 0 0 1.362-5.238l-.364.001a18.33 18.33 0 0 1-1.386 5.235l.388.002zm-1.573 0c.403-.612.779-1.25 1.127-1.914.556-1.015.978-2.12 1.274-3.319l-.37-.004a13.402 13.402 0 0 1-1.22 3.153c-.382.73-.797 1.425-1.246 2.087l.435-.003zm-11.921 0c2.275-1.653 4.409-3.34 6.003-5.238l-.474.001c-1.152 1.322-2.57 2.545-4.122 3.738a83 83 0 0 1-2.031 1.502l.624-.003zm-3.66 0c1.103-.722 2.2-1.46 3.257-2.214 1.359-.966 2.667-1.97 3.847-3.02l-.54-.003c-2.125 1.843-4.67 3.57-7.215 5.24l.651-.003zm-4.494 0c.4-.24.796-.472 1.192-.7 2.41-1.394 4.724-2.64 6.698-4.078.21-.151.414-.305.613-.462l-.593.003c-2.471 1.843-5.51 3.355-8.61 5.238l.7-.001zm-1.879 0c3.345-1.598 5.977-3.394 8.043-5.236h-.547C59.815 6.18 57.083 7.98 53.6 9.561h.856zm-4.08 0c3.451-1.345 6.87-3.118 9.766-5.238l-.622.001c-3.017 2.145-6.575 3.923-10.132 5.237h.988zm-24.53 0c-.792-.486-1.293-.96-1.458-1.341C31.1 6.807 36.423 5.995 41.084 5.464c3.197-.363 6.055-.555 9.167-1.135l-2.215-.003c-2.31.327-4.551.504-6.993.782-4.672.53-10.003 1.344-16.729 2.763l-.43.09.174.404c.158.364.549.777 1.143 1.198h.647zm-2.628 0c-.41-.445-.63-.781-.692-.916l-.141-.31-.318.124c-.49.192-1.53.542-2.83 1.104l.944-.002c.916-.372 1.636-.618 2.017-.767.062.137.238.41.538.763l.482.004zm-7.254 0c1.589-.902 3.446-1.748 5.622-2.509l.278-.099-.042-.293c-.113-.776-.187-1.546-.093-2.339l-.362.003c-.09.816-.017 1.605.099 2.389-2.445.857-4.499 1.82-6.222 2.849l.72-.001zm17.66-5.237c-5.243.693-8.633 1.422-10.103 1.748-.189-.559-.17-1.16-.036-1.745l-.368-.003c-.13.613-.144 1.254.064 1.862l.103.307.315-.07c1.718-.382 6.07-1.314 12.948-2.095l-2.922-.004z"/><path d="M90.57 14.799c-.232-.734-.468-1.494-.704-2.28a138.63 138.63 0 0 0-.929-2.952l-.38-.004c.322.978.644 1.998.964 3.06.226.75.45 1.475.672 2.178l.377-.002zm-1.705 0a224.46 224.46 0 0 1-1.863-5.233l-.38-.003a218.693 218.693 0 0 0 1.859 5.234l.384.002zm-2.61 0c-.765-.267-1.118-.66-1.118-.66l-.22-4.41-.007-.161-.36-.005c.004.061.006.122.008.183l.225 4.536s.118.135.187.195a2.54 2.54 0 0 0 .447.326l.838-.004zm-4.935 0c.676-1.435 1.257-3.169 1.582-5.24l-.365.004c-.334 2.085-.93 3.817-1.618 5.237l.4-.001zm-.9 0c.172-.45.339-.922.503-1.423.369-1.13.707-2.4.984-3.817l-.369.004a30.8 30.8 0 0 1-1.504 5.238l.386-.002zm-1.815 0c.295-.75.563-1.517.802-2.302a33.11 33.11 0 0 0 .846-2.935h-.214a27.248 27.248 0 0 1-2.815 5.24l.436-.003c.481-.712.927-1.444 1.337-2.196a28.635 28.635 0 0 1-.78 2.193l.388.003zm-3.777 0a46.612 46.612 0 0 0 1.811-2.665c.52-.825.97-1.682 1.346-2.568l-.39-.003a17.78 17.78 0 0 1-1.26 2.38 45.519 45.519 0 0 1-1.956 2.855h.449zm-3.31 0a38.623 38.623 0 0 0 1.725-1.53 19.716 19.716 0 0 0 3.168-3.707h-.437A19.273 19.273 0 0 1 73 13.006a36.938 36.938 0 0 1-2.054 1.797l.573-.003zm-14.163 0c2.236-1.84 4.761-3.52 7.133-5.24l-.622.004c-1.167.84-2.365 1.672-3.54 2.52-1.215.875-2.41 1.771-3.53 2.715h.559zm-4.26 0c.624-.478 1.29-.954 1.984-1.433 1.806-1.247 3.787-2.505 5.752-3.798l-.653-.005c-2.726 1.79-5.456 3.511-7.682 5.237l.599-.001zm-3.952 0c.509-.441.926-.788 1.213-1.035 1.93-1.667 3.967-3.003 5.981-4.202h-.699c-1.856 1.128-3.73 2.387-5.519 3.93-.341.294-.87.735-1.522 1.305l.546.002zm-37.106 0c2.529-2.721 5.918-4.343 8.145-5.24l-.945.004-.432.193c-1.51.68-3.306 1.632-4.981 2.934a16.926 16.926 0 0 0-2.266 2.105l.48.004zm-2.282 0c1.358-1.81 3.34-3.613 6.21-5.24l-.72.004c-2.732 1.632-4.633 3.431-5.939 5.239l.45-.003zm43.847-5.236c-2.948 1.338-6.435 2.522-10.553 3.452-12.19 2.752-17.961-1.446-19.83-3.456l-.481.004c1.729 2.02 7.62 6.685 20.39 3.802 4.475-1.009 8.21-2.32 11.329-3.805l-.855.003zm-4.213 0c-4.184 1.543-8.369 2.444-11.676 2.54-5.45.156-9.72-1.233-11.864-2.542l-.648.002c2.094 1.485 6.711 3.065 12.522 2.898 3.526-.1 8.117-1.13 12.654-2.897l-.988-.001z"/><path d="M92.392 20.035a87.153 87.153 0 0 1-1.822-5.237h-.377a90.536 90.536 0 0 0 1.81 5.234l.39.003zm-1.553 0a376.413 376.413 0 0 1-1.974-5.236h-.384a385.834 385.834 0 0 0 1.976 5.24l.382-.004zm-5.273 0c.357-1.198 1.669-2.55 1.97-3.455.35-1.051-.35-1.488-1.184-1.751l-.097-.032-.838.002c.212.13.486.264.827.373.814.256 1.192.57.95 1.295-.071.216-.222.484-.43.804-.208.322-.454.667-.69 1.02-.351.531-.725 1.14-.882 1.747l.374-.003zm-2 0c-.283-1.01-.436-2.267-.36-3.815l-.668-.204c-.412.678-.824 1.38-1.276 2.075a16.846 16.846 0 0 1-1.445 1.944h.47c1.017-1.21 1.789-2.567 2.559-3.832-.075 1.532.07 2.8.348 3.836l.372-.004zm-6.162 0c.81-.7 2.555-2.356 3.916-5.238l-.401.002a16.148 16.148 0 0 1-1.829 2.944 28 28 0 0 0 1.33-2.946l-.388.002c-1.009 2.593-2.103 4.268-2.677 5.233l.049.003zm-1.46 0c.588-.85 1.135-1.836 1.642-2.957.372-.74.71-1.5 1.018-2.278l-.387-.001c-.29.724-.61 1.434-.956 2.125-.537 1.192-1.128 2.232-1.755 3.108l.438.003zm-2.247 0a61.652 61.652 0 0 0 3.235-4.201c.252-.34.495-.684.728-1.033l-.435-.002c-.19.28-.385.554-.585.825a60.503 60.503 0 0 1-3.416 4.41h.473zm-3.3 0a50.948 50.948 0 0 0 4.431-5.24l-.45.004a50.5 50.5 0 0 1-4.486 5.234l.505.002zm-.742 0c-.126-.336-.178-.869-.084-1.68l.095-.828-3.228 2.417.041.09h.437l2.297-1.72c-.085.729-.063 1.303.065 1.724l.377-.003zm-5.597 0c1.15-.811 2.35-1.623 3.601-2.436a37.046 37.046 0 0 0 3.859-2.803l-.573.003a36.687 36.687 0 0 1-3.48 2.498 110.524 110.524 0 0 0-4.02 2.734l.613.004zm-11.542 0c1.206-1.95 2.914-3.652 4.838-5.236h-.557c-1.873 1.577-3.533 3.284-4.702 5.237l.42-.001zm-4.313 0c.16-.297.335-.598.524-.905.903-1.456 2.453-2.885 4.368-4.335l-.599.004c-1.759 1.366-3.201 2.734-4.074 4.142-.232.374-.44.738-.627 1.093h.408zm-4.329 0a44.642 44.642 0 0 1 3.347-3.505 60.442 60.442 0 0 1 1.922-1.731h-.545c-1.387 1.21-3.327 3.009-5.191 5.232l.467.004zm-17.957 0c-1.683-1.114-3.868-1.443-6.206-1.285-1.66.112-2.902.586-3.814 1.28l.636.005c.813-.502 1.864-.836 3.203-.927 2.059-.138 3.963.104 5.493.93l.688-.003zm-16.854 0c.562-2.082 1.65-3.81 2.974-5.235l-.479-.001c-1.28 1.434-2.326 3.165-2.866 5.239l.37-.003zm-1.747 0c.051-.225.106-.45.17-.68.404-1.45 1.106-3.005 2.27-4.557h-.45c-1.29 1.792-2 3.588-2.356 5.236h.366z"/><path d="M94.875 25.271c-.874-1.444-1.686-3.188-2.482-5.234l-.39-.002c.783 2.023 1.586 3.769 2.453 5.236h.419zm-1.645 0a39.809 39.809 0 0 1-2.257-4.89l-.133-.344-.385-.002.182.475a40.875 40.875 0 0 0 2.183 4.765l.41-.004zm-18.92 0c.36-.627.74-1.274 1.13-1.942 2.184-.676 3.676-1.89 4.848-3.29l-.472-.004c-.01.014-.023.027-.033.04-1.1 1.244-2.484 2.303-4.45 2.911l-.133.042-.069.12c-.431.734-.846 1.44-1.238 2.126l.416-.003zm-2.168 0c.245-.414.508-.836.785-1.266l.315-.486-.575-.065c-.4-.046-.655-.067-.838-.084a1.821 1.821 0 0 1-.325-.046.977.977 0 0 1-.167-.065l-.326-.161-.235-.115-.181.183c-.47.468-1.312 1.237-2.205 2.105h.52c.792-.766 1.517-1.43 1.938-1.852.29.146.422.213.56.251.203.057.427.05 1.218.14-.322.497-.62.984-.901 1.462h.417zm-7.195 0a342.73 342.73 0 0 0 3.394-3.175c-.583-.485-1.069-1.163-1.457-2.036l.033-.025h-.439l.077.171c.34.762.755 1.398 1.256 1.894a331.451 331.451 0 0 1-3.4 3.174l.536-.003zm-6.73 0c1.08-1.391 2.413-2.69 4.005-3.907a90.256 90.256 0 0 1 1.836-1.328l-.614-.001c-.489.344-.968.693-1.438 1.042-1.649 1.26-3.035 2.62-4.15 4.072a4.73 4.73 0 0 0-.088.123h.45zm-7.49 0c.174-1.95.819-3.674 1.79-5.24l-.423.004c-.94 1.569-1.562 3.294-1.729 5.237h.363zm-3.926 0c-.048-1.505.315-3.223 1.402-5.24l-.407.004c-1.047 1.997-1.402 3.717-1.356 5.233l.361.003zm-3.144 0a9.272 9.272 0 0 1-.035-1.046c-.195.342-.383.692-.563 1.05l.598-.004zm-3.425 0a28.42 28.42 0 0 1 2.544-3.88c.36-.468.728-.92 1.1-1.355l-.469-.001c-1.303 1.553-2.568 3.316-3.58 5.234l.405.002zm-11.228 0c-.43-2.553-1.55-4.223-3.087-5.24l-.689.004c1.709.925 2.949 2.576 3.411 5.235l.365.001zm-1.918 0c-.896-4.151-7.196-6.79-10.17-4.09-1.757 1.596-2.005 2.996-1.63 4.092l.383-.002c-.386-1.005-.178-2.309 1.488-3.824 2.705-2.454 8.652-.074 9.56 3.822l.37.002zm-12.937 0a2.498 2.498 0 0 1-.041-.438c0-1.822.636-3.707 2.424-4.802l-.636.004c-1.568 1.189-2.148 3.032-2.148 4.798 0 .149.013.294.036.44l.365-.002zm-5.348 0c-.28-1.956-.152-3.691.262-5.232l-.371-.004c-.405 1.552-.527 3.29-.254 5.24l.363-.004zm-1.616 0a13.733 13.733 0 0 1 .13-5.237h-.367a14.176 14.176 0 0 0-.128 5.24l.365-.003zm78.009-5.236a2.21 2.21 0 0 0-.077.562c0 1.029.784 1.074 1.329.972.256-.048.537-.133.8-.199.26-.064.432-.086.535-.068.169.03.257.118.293.37.039.278-.012.658-.1 1.073-.156.736-.4 1.173-1.403.983-.746-.14-2.29-1.128-3.004-3.692l-.371-.001c.73 2.74 2.38 3.872 3.307 4.046 1.28.24 1.647-.43 1.821-1.261.176-.833.264-1.74-.481-1.873-.746-.131-2.368.964-2.368-.35 0-.182.033-.37.092-.563h-.373zm-7.84 0l-.058.097c.034-.028.069-.06.107-.093l-.05-.004zm-1.847 0c-.152.21-.307.413-.464.606-.762 1.047-1.425 1.46-1.971 1.46-.431 0-.798-.036-1.101-.102a62.495 62.495 0 0 0 1.725-1.967l-.472.003a62.271 62.271 0 0 1-1.9 2.133c.438.194 1.02.292 1.748.292.729 0 1.48-.534 2.257-1.6.21-.259.414-.533.615-.822l-.437-.003zm-5.614 0l-.162.16a1.139 1.139 0 0 1-.077-.163l-.378.003c.093.31.241.536.448.68.225-.227.451-.456.673-.684l-.504.004z"/><path d="M110.304 28.544c.027-.297.005-.482.005-.482s-1.04-.832-2.182-1.872c.03.926-.122 1.71-.442 2.35l.396.004c.205-.457.335-.98.385-1.567.675.593 1.247 1.065 1.49 1.316 0 .07-.004.154-.013.249l.361.002zm-12.796 0c-.955-.839-1.82-1.927-2.632-3.27l-.42-.003c.776 1.317 1.606 2.407 2.52 3.272h.532zm-2.211 0a30.37 30.37 0 0 1-2.068-3.27l-.41-.003a31.323 31.323 0 0 0 2.03 3.272h.448zm-1.304 0c-1.204-1.442-2.872-2.48-5.14-2.447-2.969.043-5.048 1.183-6.534 2.444l.56.003c1.412-1.107 3.326-2.05 5.979-2.089 2.003-.029 3.522.84 4.652 2.088h.483zm-21.415 0c.488-1.052 1.08-2.134 1.731-3.273h-.416c-.646 1.14-1.23 2.22-1.712 3.275l.397-.002zm-2.113 0a28.605 28.605 0 0 1 1.678-3.272h-.418a28.674 28.674 0 0 0-1.643 3.269l.383.003zm-4.57 0c.738-1.027 1.94-2.241 3.016-3.277l-.523.004c-.168.164-.337.33-.505.5-.913.908-1.84 1.905-2.425 2.77l.437.003zm-4.5 0c.32-.311.646-.617.973-.92.868-.786 1.73-1.57 2.579-2.355l-.534.002a310.32 310.32 0 0 1-2.286 2.087c-.428.395-.846.79-1.26 1.19l.528-.004zm-4.623 0a7.683 7.683 0 0 1 1.371-3.179c.023-.032.05-.063.074-.096l-.449.002a8.08 8.08 0 0 0-1.361 3.272h.365zm-5.903 0a12.891 12.891 0 0 1-.14-3.275l-.364.002a13.245 13.245 0 0 0 .14 3.274l.364-.001zm-3.314 0c-.409-.985-.716-2.059-.753-3.273h-.36c.035 1.208.33 2.288.726 3.274l.387-.001zm-3.053 0c-.419-.995-.741-2.088-.845-3.274l-.598.001a23.778 23.778 0 0 0-1.345 3.273h.373a22.72 22.72 0 0 1 1.236-2.995 11.38 11.38 0 0 0 .788 2.996l.39-.001zm-5.693 0c.372-1.127.86-2.22 1.422-3.27l-.404-.003a20.485 20.485 0 0 0-1.394 3.27l.376.003zm-9.678 0c.1-.948.077-2-.107-3.159l-.02-.119-.364.005.028.17c.182 1.14.201 2.172.097 3.104l.366-.001zm-1.977 0c.153-.9.164-1.912-.025-3.05a5.247 5.247 0 0 0-.042-.225l-.368.002c.021.091.041.186.056.282.186 1.12.17 2.114.012 2.992l.367-.001zm-7.53 0c-.636-.586-1.478-1.045-2.001-1.299-.683-.33-1.589-1.016-1.955-1.976l-.382.002c.386 1.131 1.435 1.937 2.18 2.297a9.23 9.23 0 0 1 1.605.976h.553zm-2.7 0c-.23-.163-.471-.337-.714-.528-.985-.776-1.862-1.71-2.06-2.748l-.365.003c.223 1.338 1.424 2.458 2.526 3.274l.613-.001zm-7.31 0c-.35-.93-.625-1.993-.803-3.203l-.01-.073-.363.003c.005.043.013.082.019.122.174 1.182.435 2.228.77 3.153l.386-.002zm-1.473 0a1.561 1.561 0 0 0-.07-.362 4.598 4.598 0 0 0-.26-.636l-.119-.26a1.341 1.341 0 0 1-.068-.184c-.03-.115-.266-.783-.44-1.829l-.364-.002c.178 1.1.425 1.806.456 1.924.093.342.463.905.508 1.348h.357z"/><path d="M107.533 31.816c2.259-.86 2.699-2.474 2.77-3.276l-.36.004a3.197 3.197 0 0 1-.869 1.872c-.53.562-1.405 1.107-2.852 1.397l1.31.003zm-6.618 0l-.342-.049-1.036-.151.192.2h1.186zm-2.8 0a25.328 25.328 0 0 1-2.818-3.27l-.447-.002a26.349 26.349 0 0 0 2.753 3.273h.511zm-2.277 0c-.432-1.14-1.031-2.299-1.845-3.272h-.483c.857.945 1.492 2.11 1.943 3.268l.385.004zm-1.966 0c-.13-.377-.297-.766-.497-1.172-.82-1.674-2.088-2.105-3.203-2.042-1.071.06-1.982.568-2.216.733-.635.443-1.15 1.046-1.63 1.668-.203.265-.405.54-.612.814h.452c.625-.843 1.223-1.65 1.994-2.187.402-.281 3.386-1.896 4.893 1.173.171.35.319.685.438 1.01l.381.003zm-14.12 0c.172-.171.359-.39.558-.631.227-.271.484-.584.78-.918.289-.328.616-.677.984-1.025.25-.234.516-.469.806-.696l-.561-.002c-1.598 1.351-2.509 2.846-3.1 3.271l.533.001zm-1.588 0c-.683-.289-1.189-.953-1.189-.953s.028.541-.217.956l.404-.003c.024-.06.047-.12.064-.18l.134.11c.03.024.063.05.096.073l.708-.003zm-6.735 0c.238-1.085.636-2.163 1.15-3.27l-.396-.002c-.03.062-.055.124-.082.184-.46 1.034-.82 2.053-1.04 3.085l.368.003zm-2.074 0a20.023 20.023 0 0 1 1.11-3.276l-.384.004a20.223 20.223 0 0 0-1.078 3.268l.352.004zm-2.681 0c.723-1.686-.533-2.509-1.17-2.668a5.96 5.96 0 0 1 .392-.607l-.44.003c-.098.146-.187.29-.265.429l-.23.41.455.113c.516.13 1.601.794.862 2.32h.396zm-8.509 0a77.773 77.773 0 0 1 3.23-3.275l-.527.003a78.784 78.784 0 0 0-3.185 3.268l.482.004zm-1.392 0a7.32 7.32 0 0 1-.159-1.503c0-.617.052-1.206.159-1.766l-.366-.003a9.838 9.838 0 0 0-.154 1.77c0 .493.05.993.152 1.5l.368.002zm-5.01 0a17.747 17.747 0 0 1-.894-3.273l-.364.001c.168 1.033.454 2.121.873 3.271l.384.001zm-2.508 0c-.464-.871-1.03-1.799-1.503-2.83a14.026 14.026 0 0 1-.197-.447l-.385.005c.49 1.212 1.14 2.282 1.677 3.275l.408-.003zm-2.961 0c-.595-.931-1.271-2.025-1.792-3.27l-.391-.002c.384.943.854 1.798 1.312 2.558.149.246.296.482.44.71l.43.004zm-5.024 0c.18-1.096.458-2.197.817-3.275l-.373.003a21.805 21.805 0 0 0-.8 3.272h.356zm-3.18 0c.121-1.116.371-2.208.72-3.27l-.376-.002a15.92 15.92 0 0 0-.704 3.273h.36zm-9.95 0c.5-.93.855-2.012.99-3.269l-.364-.003c-.144 1.269-.521 2.352-1.048 3.271l.422.001zm-2.382 0a7.617 7.617 0 0 0 1.397-3.275l-.367.003a7.33 7.33 0 0 1-1.482 3.276l.452-.004zm-6.577 0c1.927-1.18 1.43-2.374.445-3.275l-.554.003c.322.251.612.53.81.826.398.592.515 1.371-1.119 2.27-.208-.327-.408-.672-.5-.94.15-.136.395-.414.354-.787a.534.534 0 0 0-.158-.3 1.737 1.737 0 0 0-.19-.161c-.13-.1-.314-.222-.535-.366-.234-.155-.512-.338-.81-.544l-.614.002c1.007.746 1.93 1.237 1.95 1.41.042.38-.509.676-.509.676s.339.614.7 1.19l.73-.004zm-7.64 0c-.762-.851-1.424-1.925-1.928-3.27l-.385-.002c.477 1.327 1.104 2.405 1.825 3.272h.487zm-1.57 0a15.019 15.019 0 0 1-.598-.907l-.463-.753-.195.86a8.748 8.748 0 0 1-.225.804l.377-.004c.076-.232.143-.474.199-.72.153.25.307.489.462.716l.442.004zm-4.17 0c-.144-.857.048-1.914 1.618-2.32.602-.154.747-.564.723-.952h-.36c.029.276-.072.508-.454.605-1.81.467-2.043 1.68-1.89 2.666l.363.001zm101.884-3.272c-.734 1.47-2.363 2.183-4.763 2.101-2.133-.072-3.89-.767-5.414-2.104l-.532.003c1.644 1.557 3.56 2.38 5.935 2.46 2.596.09 4.405-.74 5.171-2.458l-.397-.002z"/><path d="M106.578 35.743c-2.32-1.307-4.897-2.414-6.055-3.62 3.347.487 5.556.245 7.01-.308h-1.31c-1.276.254-2.993.309-5.308 0H99.73l.534.556c.632.659 1.634 1.269 2.733 1.868.894.487 1.885.984 2.852 1.508l.73-.004zm-3.31 0c-.42-.264-.86-.541-1.31-.842a26.328 26.328 0 0 1-3.658-2.903l-.186-.18-.511-.002c1.746 1.757 3.463 2.96 4.99 3.926l.675.001zm-6.518 0c-.074-.963-.345-2.428-.913-3.927h-.384c.58 1.476.863 2.943.939 3.928h.358zm-3.447 0c1.008-1.243 1.067-2.486.57-3.928h-.38c.529 1.435.488 2.66-.66 3.926l.47.002zm-22.096 0a39.78 39.78 0 0 1-.027-1.708c0-.75.087-1.486.249-2.22h-.367a10.498 10.498 0 0 0-.242 2.22c0 .6.003 1.174.028 1.711l.36-.003zm-2.22 0c-.086-1.145.014-2.455.368-3.928h-.354c-.34 1.455-.443 2.769-.365 3.925l.352.003zm-4.059 0c.169-.434.124-.946-.146-1.287-.527-.662-1.49-.45-1.37-1.624.121-1.174.42-.511.633-.09.21.42.361.962.361.962s1.4-.482 1.851-1.143a4.3 4.3 0 0 0 .416-.745h-.395c-.082.17-.186.35-.318.543-.252.368-.918.695-1.328.87a5.512 5.512 0 0 0-.265-.648 8.825 8.825 0 0 0-.18-.348 1.713 1.713 0 0 0-.118-.178.715.715 0 0 0-.186-.172c-.302-.184-.564.008-.672.22-.081.16-.127.397-.158.692-.074.736.216 1.105.615 1.348.149.09.319.164.484.258.141.08.257.164.347.278.224.28.224.725.03 1.068l.4-.004zm-2.255 0a4.793 4.793 0 0 1-.294-.53c-.329-.67-.355-1.094-.385-1.619-.014-.268-.07-.658-.292-.89-.354-.368-.797-.155-1.1.141-.28.272-.512.42-.847.761-.354.36-.805.91-1.504 1.958l-.12.18h.432c1.374-2.057 1.735-2.102 2.29-2.642.555-.541.753-.03.782.512.03.54.062 1.022.422 1.758.063.13.128.255.196.374l.42-.003zm-9.05 0c-.789-1.388-1.403-2.692-1.861-3.924l-.384-.003a26.803 26.803 0 0 0 1.83 3.924l.414.003zm-3.572 0c.004-.018.01-.035.015-.052.333-1.128.002-2.21-.509-3.278a17.65 17.65 0 0 0-.302-.595l-.408-.002c.722 1.341 1.24 2.543.875 3.774-.014.05-.033.104-.052.156l.381-.003zm-2.757 0a2.59 2.59 0 0 0 .389-.949c.139-.65-.545-1.652-1.39-2.976l-.43-.002c.376.59.727 1.122.998 1.59.386.668.522 1.074.471 1.313a2.244 2.244 0 0 1-.485 1.022l.447.002zm-6.242 0a17.32 17.32 0 0 1 .218-3.925l-.357-.002a17.881 17.881 0 0 0-.217 3.923l.356.004zm-2.819 0a17.29 17.29 0 0 1-.086-.551 13.565 13.565 0 0 1-.057-3.374l-.36-.002a13.896 13.896 0 0 0 .059 3.427l.078.503.366-.003zm-14.316 0c1.57-.774 3.197-2.028 4.222-3.93l-.42.003c-1.146 2.008-2.997 3.24-4.646 3.926l.844.001zm-9.248 0c-1.514-.602-3.157-1.74-4.698-3.923l-.443-.004c1.378 2.017 2.854 3.214 4.266 3.926l.875.001zm-8.082 0c.8-.855 1.756-2.278 2.28-3.922l-.378-.005c-.58 1.75-1.651 3.198-2.405 3.927h.503zm-.848 0c-.146-.51-.274-.93-.342-1.153l.963-1.312-.118-.202A4.207 4.207 0 0 1 5.8 31.82l-.361-.005c.123.792.491 1.438.491 1.438l-.933 1.27s.163.508.369 1.218l.373.001zm79.976-3.927c-.27.364-.551.729-.857 1.077-1.039 1.185-2.348 2.15-4.645 2.15-1.434 0-2.136-.28-2.534-.592a2 2 0 0 1-.462-.523c-.136-.212-.243-.422-.364-.604-.341-.513-.151-.803.145-1.216a1.74 1.74 0 0 0 .164-.293h-.405a.933.933 0 0 1-.052.085c-.302.42-.634.901-.15 1.623.481.722.707 1.88 3.658 1.88 3.265 0 4.67-1.867 5.953-3.588h-.451zm-6.496 0a.617.617 0 0 1-.242.114 1.45 1.45 0 0 1-.814-.114h-.707c.392.29.955.575 1.582.468.252-.043.472-.226.645-.396l.07-.068-.534-.004zm-21.537 0c-.237.256-.474.517-.708.78a8.977 8.977 0 0 1-.201-.781h-.368c.097.487.24.98.43 1.48a65.08 65.08 0 0 1 1.332-1.476l-.485-.003zm-32.376 0c-.81 1.035-1.763 1.726-2.428 2.157-1.175.76-7.503 2.138-11.339-2.157h-.486c3.948 4.757 10.754 3.277 12.02 2.458.727-.47 1.804-1.255 2.685-2.455l-.452-.003zm-6.856 0c.064.103.128.201.19.296.2-.1.38-.2.541-.3l-.73.004z"/><path d="M111.093 40.99a5.73 5.73 0 0 0 .005-.264c0-2.085-2.123-3.64-4.52-4.986l-.73.003c.224.127.448.25.669.374 2.386 1.353 4.222 2.796 4.222 4.61 0 .09-.001.177-.004.26l.358.002zm-2.502 0c.008-.088.013-.176.013-.262a2.213 2.213 0 0 0-.28-1.115c-.41-.745-1.338-1.552-3.192-2.725-.569-.36-1.196-.734-1.865-1.148l-.674.003c.851.538 1.642 1.003 2.345 1.447 3.049 1.931 3.388 2.75 3.292 3.803l.36-.004zm-12.92 0c.872-2.167 1.1-4.118 1.1-4.745 0-.146-.006-.313-.02-.5l-.36-.002c.014.186.02.354.02.502 0 .624-.236 2.59-1.128 4.743l.388.001zm-11.27 0a108.25 108.25 0 0 1 3.822-1.863c2.591-1.214 4.199-2.299 5.08-3.386l-.469.002c-.872.96-2.38 1.942-4.764 3.058-1.845.865-3.274 1.566-4.454 2.19l.784-.002zm-7.504 0c1.206-.655 1.81-1.453 1.81-1.453l-2.363-.646s-.633.797-2.108.766c-2.395-.048-2.92-1.457-3.028-3.913h-.36c.11 2.504.662 4.217 3.38 4.273.807.016 1.398-.194 1.793-.42.188-.107.33-.216.428-.304l1.59.434a6.116 6.116 0 0 1-.8.636 6.458 6.458 0 0 1-1.178.622l.836.004zm-5.051 0c-1.417-.793-2.655-2.559-2.858-5.249l-.352.002c.17 2.503 1.19 4.283 2.505 5.246h.705zm-4.01 0c-2.976-1.907-7.302-3.257-9.286-5.227a.202.202 0 0 1 .013-.018l-.432-.002-.044.067.21.209c.648.643 1.52 1.212 2.482 1.743.958.529 2.03 1.033 3.11 1.546 1.145.546 2.273 1.095 3.269 1.685l.679-.004zm-4.487 0a79.303 79.303 0 0 0-1.092-.362c-3.827-1.246-4.915-2.121-5.965-2.858a31.394 31.394 0 0 0-2.087 3.218l.413.001a31.01 31.01 0 0 1 1.756-2.721c.452.32.95.666 1.69 1.058.904.479 2.153 1.016 4.08 1.643l.075.024 1.13-.004zm-6.012 0c-.408-.818-.995-2.02-.995-2.02l-.14 1.222c-.002.012-.04.333-.13.8l.366-.003c.086-.452.12-.757.12-.757s.166.34.378.761l.4-.004zm-5.702 0c.609-1.393 1.386-2.736 2.513-4.354-.183-.301-.36-.6-.526-.895l-.414.002c.163.289.334.583.512.88-1.11 1.61-1.877 2.962-2.48 4.368l.395-.002zm-2.354 0l-.013-.01c-1.231-.85-1.177-1.635-.79-2.463.105-.227.236-.454.377-.678.145-.236.303-.467.454-.697.29-.444.59-.922.742-1.4l-.382.001c-.602 1.629-3.053 3.464-.974 5.25l.586-.004zm-2.176 0c-.752-.589-1.298-1.601-1.298-2.407 0-1.81.904-1.969 1.487-2.838l-.448-.002a3.36 3.36 0 0 1-.188.206l-.317.316c-.471.478-.894 1.046-.894 2.318 0 .723.442 1.71 1.12 2.405l.538.001zm-4.52 0c-.925-1.545-1.41-3.345-1.533-5.25l-.356.003c.115 1.89.576 3.688 1.461 5.245l.429.001zm-2.7 0c-.724-1.413-1.3-3.138-1.652-5.245l-.366-.002c.345 2.094.908 3.82 1.613 5.248l.405-.002zm24.643-5.247a.911.911 0 0 1-.683.477c-.598.083-.912-.104-1.171-.48l-.42.003c.324.559.747.956 1.641.832a1.277 1.277 0 0 0 1.033-.83l-.4-.002zm-41.456 0c-1.373.57-2.606.767-3.188.723-.485-.038-1.158-.013-1.954-.053-.777-.041-1.665-.146-2.608-.44a9.047 9.047 0 0 1-.655-.23h-.874c2.539 1.279 4.87.99 6.064 1.08.713.055 2.35-.229 4.06-1.076l-.845-.004zm-16.988 0c-.096.095-.19.178-.274.248l-.071-.246-.374-.002c.072.25.15.526.227.812.243-.103.6-.388.996-.812h-.504z"/><path d="M91.875 46.216c1.882-1.457 3.065-3.418 3.797-5.23l-.39.004c-.766 1.844-2.016 3.829-4.016 5.227l.61-.001zm-15.644 0c-.83-.888-2.197-1.932-4.068-2.19-2.04-.284-1.594.477-1.11 2.19h.373c-.121-.439-.244-.816-.327-1.133-.087-.327-.108-.515-.067-.676.005-.006.029-.028.104-.048.164-.043.46-.05.977.022 1.598.221 2.812 1.052 3.617 1.835h.5zm-8.48 0c.277-.603.355-1.013.463-1.662-1.303.535-2.373 1.091-3.241 1.66l.68.002c.602-.364 1.294-.72 2.086-1.07a4.578 4.578 0 0 1-.387 1.066l.399.004zm-4.51 0c1.555-1.258 3.416-2.1 4.675-2.73-.578-1.064-1.594-1.516-4.566-2.5l-1.131.004c3.416 1.117 4.575 1.549 5.178 2.352-.563.278-1.218.596-1.897.969-.834.457-1.715 1-2.52 1.657-.1.081-.2.165-.298.252l.56-.004zm-7.99 0c1.53-1.28 2.226-2.865 2.381-4.523l.009-.105-.047-.093c-.068-.13-.156-.308-.258-.51l-.4.005c.106.215.223.447.338.67-.157 1.68-.896 3.293-2.618 4.56l.594-.004zm-2.632 0c.606-.265 1.637-.801 2.417-1.659.802-.882 1.219-2.578 1.403-3.564l-.367-.003c-.181.96-.578 2.528-1.303 3.326-.546.602-1.236 1.042-1.798 1.333a7.977 7.977 0 0 1-.382.185c.09-.385.244-.945.512-1.657.319-.855.8-1.93 1.516-3.188h-.413c-1.544 2.757-1.96 4.633-2.057 5.223l.472.004zm-7.637 0c-1.867-.987-3.739-2.561-5.097-5.222l-.404-.004c1.267 2.566 2.998 4.174 4.762 5.222l.739.004zm65.753-5.226c-.11 3.397-2.369 1.595-2.251.796.042-.289.087-.548.108-.796h-.362c-.02.234-.064.475-.103.744-.213 1.455 2.832 3.027 2.966-.747l-.358.003zm-27.119 0c-2.807 1.48-4.216 2.512-6.506 4.216-3.464-3.503-6.081-2.902-7.436-2.751-.504-.53-1.132-1.013-1.836-1.464l-.68-.001c.882.528 1.662 1.089 2.256 1.712l.123.13.177-.02c.332-.037.742-.103 1.223-.125a6.126 6.126 0 0 1 1.59.125c1.177.251 2.636.936 4.328 2.646l.22.222.25-.186c2.438-1.813 3.865-2.859 7.076-4.507l-.785.003zm-7.555 0a6.84 6.84 0 0 1-2.434.474c-.584.008-1.198-.152-1.782-.477l-.705.003c.769.562 1.637.845 2.491.832a7.013 7.013 0 0 0 3.266-.832h-.836zm-24.82 0c-.599 1.397-1.038 2.845-1.494 4.657-3.497-.688-5.803-2.398-7.162-4.661l-.428.004c1.421 2.5 3.932 4.387 7.857 5.072.497-2.016.96-3.572 1.62-5.076l-.394.004zm-2.546 0c.11.097.232.192.368.286-.668.36-1.374.165-1.958-.29l-.537.004c.708.726 1.675 1.138 2.667.602l.514-.278-.468-.324h-.586z"/><path d="M98.355 56.688c-.367-.516-.895-1.012-1.644-1.469-6.443-3.924-13.383-.33-16.017.736.361-2.015.06-3.261-.241-4.78 5.405-2.751 3.447-1.052 9.377-3.73.76-.342 1.439-.76 2.046-1.23h-.61c-.483.34-1.01.644-1.583.902-2.934 1.325-3.916 1.568-4.833 1.82-.958.261-1.842.535-4.56 1.918l-.242.123.052.267c.148.746.297 1.425.364 2.166.065.722.05 1.506-.124 2.48l-.115.642.604-.245c.657-.266 1.581-.69 2.7-1.114 1.104-.419 2.4-.839 3.811-1.105 2.814-.53 6.06-.445 9.184 1.457.6.365 1.046.755 1.377 1.16l.454.002zm-2.356 0c-1.377-1.58-4.293-3.034-10.314-1.38-1.63.449-2.866.938-3.781 1.384l.87-.004a23.53 23.53 0 0 1 3.007-1.033c5.552-1.526 8.343-.358 9.723 1.031l.495.002zm-16.991 0c.868-1.96.47-3.902.218-5.384-3.949 2.277-3.772 4.074-3.804 4.698-.996-.224-1.462-1.988-1.462-4.313 0-2.324 1.575-4.04 2.537-5.179a7.29 7.29 0 0 0-.266-.298l-.5.004c.104.1.2.2.291.3-.192.224-.4.47-.609.734-.293.37-.59.776-.854 1.222-.535.897-.957 1.97-.957 3.217 0 2.222.416 4.365 1.74 4.664l.417.094.022-.426c.007-.148.003-.362.047-.636.044-.255.135-.57.341-.937.38-.678 1.158-1.559 2.791-2.566.046.27.092.553.129.847.062.472.1.973.088 1.489-.02.802-.166 1.635-.564 2.47h.395zm-9.663 0c.037-.192.049-.412.03-.664l-.041-.143c-.097-.18-.208-.354-.298-.557a1.725 1.725 0 0 1-.148-.641c-.022-.537.155-1.378.884-2.85.745-1.505 1.283-2.4 1.572-3.145.316-.813.358-1.482.09-2.45-.003-.008-.004-.016-.006-.025l-.375.003.034.119c.498 1.795-.16 2.355-1.637 5.338s-.834 3.624-.433 4.377c.02.261.001.47-.04.64l.368-.002zm-1.886 0c-1.498-1.758-2.29-3.581-2.262-4.694.03-1.283.127-1.748 1.428-3.816.57-.906.907-1.492 1.125-1.962h-.396c-.21.425-.53.967-1.034 1.771-1.32 2.1-1.45 2.628-1.483 3.998-.03 1.182.747 2.974 2.15 4.7l.472.003zm-3.299 0c-.361-.615-.705-1.14-.852-1.386-.112-.188-.496-.688-.844-1.398-.34-.695-.639-1.574-.619-2.546.032-1.51.844-3.373 3.807-5.145l-.68.003c-6.153 4.023-2.373 8.6-1.971 9.27.132.22.425.67.745 1.205l.414-.003zm-1.685 0c-.79-1.5-2.073-3.286-2.073-5.133 0-2.35 1.262-4.059 2.84-5.336l-.56-.003c-1.47 1.292-2.64 3.014-2.64 5.339 0 1.442.72 2.822 1.387 4.001.22.391.441.768.637 1.13l.41.002zm-8.99 0c-1.207-2.288-1.782-5.199-1.196-8.821 1.22-.456 2.195-1.018 2.962-1.655l-.594.004c-.717.531-1.603.998-2.689 1.385-.643 3.725-.094 6.727 1.11 9.09l.407-.003zm-1.961 0c-1.381-3.344-1.684-6.736-1.382-8.428l.062-.339-.339-.074c-1.318-.292-3.098-.693-4.884-1.634l-.738.003c2.015 1.19 4.074 1.656 5.546 1.982-.303 1.697-.012 5.108 1.353 8.493l.382-.003zm.622-10.472c-.023.127-.029.193-.029.193s.197-.062.503-.196l-.474.003z"/><path d="M97.901 56.688c.932 1.138.947 2.404.844 3.612-.226 2.64-2.134 4.708-3.992 4.708-1.55 0-2.367-.775-3.131-1.63-.195-.22-.385-.442-.576-.649a5.788 5.788 0 0 0-.624-.597c-.457-.366-.992-.626-1.69-.626-.392 0-.83.121-1.147.229a6.83 6.83 0 0 0-.405.153l-1.068-.563a4.5 4.5 0 0 1 .818-.432c.782-.319 1.886-.513 3.194-.016.253.096.484.269.74.5.268.244.53.52.823.774.632.546 1.439 1.016 2.712.884 1.327-.14 2.023-1.055 2.374-1.918a5.682 5.682 0 0 0 .387-1.943c0-.253-.22-1.399-1.161-2.482l-.496-.004c1.082 1.088 1.299 2.314 1.299 2.486 0 .39-.151 3.262-2.44 3.502-2.29.242-2.845-1.653-4.11-2.135-2.818-1.073-4.802.843-4.802.843l1.716.901s.904-.42 1.566-.42c2.379 0 2.604 3.502 6.02 3.502 2.115 0 4.117-2.29 4.351-5.036.101-1.177.092-2.464-.748-3.643h-.454zm-15.997 0c-1.58.773-2.207 1.41-2.267 1.472 0 0-.22.513-.688 1.191-.48.691-1.248 1.62-2.4 2.55-2.3 1.857-6.148 3.739-12.324 3.739-6.987 0-10.83-4.432-12.701-8.955l-.383.003C53.03 61.368 56.968 66 64.225 66c12.51 0 15.717-7.638 15.717-7.638s.758-.784 2.833-1.673h-.871zm-3.29 0a6.186 6.186 0 0 1-.334.606c-1.254.758-3.376 2.235-5.788 3.567-2.454 1.357-5.155 2.533-7.51 2.671-3.09.184-8.832-1.802-11.497-6.848l-.406.004c2.703 5.31 8.705 7.393 11.925 7.202 4.88-.288 11.044-4.841 13.532-6.332a6.2 6.2 0 0 0 .472-.87h-.395zm-9.638 0c-.136.543-.522.683-.778.805a14.044 14.044 0 0 1-.739-.802l-.473-.003c.293.355.612.711.956 1.058l.18.181.231-.11c.092-.044.2-.09.307-.153.122-.072.26-.169.379-.311.146-.174.252-.391.306-.665h-.369zm-5.23 0c.787 1.315 1.745 3.136.896 3.33-1.194.272-2.139-1.319-2.139-1.319s.58.318.58-.185c0-.54-.255-1.154-.608-1.823l-.409-.003c.097.18.19.358.273.532.216.452.35.852.379 1.182-.125-.063-1.166-.61-1.166-.61s.71 1.202.829 1.365c.116.155.285.364.498.564.41.386 1.064.824 1.842.647.607-.14.654-.716.587-1.124-.072-.434-.293-.962-.547-1.468a17.952 17.952 0 0 0-.601-1.092l-.414.004z"/></g></svg>