<svg xmlns="http://www.w3.org/2000/svg" width="217.869" height="81.815" viewBox="0, 0, 217.869, 81.815"><g fill="#8B1713"><path d="M212.939 5.815c2.243-1.615 3.66-3.401 4.531-5.234l.399-.002c-.84 1.828-2.194 3.612-4.324 5.238l-.606-.002zm-2.617 0c.648-.405 1.4-.928 2.157-1.581 1.097-.945 2.196-2.156 3.007-3.656l.405.001c-1.276 2.46-3.306 4.172-4.906 5.234l-.663.002zm-1.039 0c.84-1.971.911-3.85.802-5.236h.361c.106 1.391.033 3.263-.772 5.234l-.391.002zm-2.566 0c.665-1.043 1.18-2.508 1.372-4.833-2.17.949-4.394 2.586-9.678-.406l.756.003c2.093 1.096 3.638 1.402 4.869 1.346.788-.036 1.466-.221 2.095-.463.647-.25 1.232-.555 1.813-.809l.169-.074h.37l-.036.432c-.185 2.243-.668 3.721-1.317 4.805l-.413-.001zm-13.253 0c-1.89-.886-3.552-1.859-4.906-2.594-1.284-.695-2.888-1.634-4.56-2.643l.702.001c1.479.889 2.883 1.705 4.028 2.327 1.519.824 3.427 1.951 5.609 2.908l-.873.001zm-5.754 0a73.576 73.576 0 0 1-2.944-1.622A108.802 108.802 0 0 1 179 .581l.644-.002c2.573 1.7 5.64 3.607 8.848 5.235l-.782.001zm-6.677 0c-3.548-1.746-6.796-3.678-9.247-5.233l.672-.003c2.541 1.594 5.833 3.522 9.385 5.232l-.81.004zm-17.484 0c-.69-.461-1.247-.834-1.654-1.088-.721-.45-2.719-2.08-5.545-4.145l.605-.003c2.606 1.922 4.447 3.416 5.131 3.844.495.309 1.215.797 2.126 1.397l-.663-.005zm-26.252 0c.076-1.83-.404-3.614-1.349-5.234l.417-.002c.904 1.625 1.368 3.402 1.293 5.236h-.361zm-2.073 0c.057-.485.061-.895.018-1.195-.098-.686-.45-2.468-1.391-4.045l.417.004c.894 1.584 1.233 3.309 1.331 3.989.045.317.042.743-.018 1.248l-.357-.001zm-2.964 0c.339-.692.384-1.793-1.7-2.777-2.893-1.365-5.049.402-6.071 2.774l-.391.003c1.041-2.529 3.384-4.628 6.616-3.102 2.221 1.05 2.271 2.275 1.929 3.105l-.383-.003zm-.435 0c-.182-.248-.516-.315-1.078.003l-.545-.003c.083-.107.181-.199.294-.267 1.006-.603 1.508-.26 1.726.267h-.397zm-13.989 0a10.365 10.365 0 0 1-.261-2.129c-.035-1.213.222-2.241.656-3.111l.407.004c-.46.859-.738 1.88-.703 3.096.024.851.123 1.557.271 2.141l-.37-.001zm-2.045 0c-.191-.913-.236-1.916-.104-3.005a9.14 9.14 0 0 1 .572-2.232l.388.001a8.653 8.653 0 0 0-.602 2.274c-.132 1.078-.081 2.068.118 2.967l-.372-.005zm-3.208 0a20.557 20.557 0 0 1 .029-5.174l.01-.063.364.001c-.007.04-.011.077-.018.114-.112.77-.321 2.793-.026 5.125l-.359-.003zm-2.324 0a19.963 19.963 0 0 1 .128-5.236h.363a19.71 19.71 0 0 0-.129 5.236h-.362zM205.868.579c-1.747.625-3.344.457-4.661 0h1.57c.475.055.973.062 1.492.003l1.599-.003zm-9.553 0c-1.447 1.537-3.634 3.33-9.384.5a37.57 37.57 0 0 1-.97-.497l.78-.003c.113.06.229.118.35.177 3.371 1.66 5.421 1.669 6.785 1.156.688-.259 1.228-.659 1.694-1.096a9.32 9.32 0 0 0 .246-.24l.499.003zm-69.897 0c-.217.088-.45.162-.698.225l-.184-.226.882.001zm-2.072 0c.003.441-.227.905-1.068 1.157-.805.241-1.514-.298-1.693-1.157h.366c.166.659.707.968 1.224.813.606-.182.793-.501.805-.808l.366-.005z"/><path d="M130.446 16.279c3.263-1.803 5.511-5.031 6.451-8.1a9.425 9.425 0 0 0 .41-2.37l.361-.003a9.726 9.726 0 0 1-.427 2.478c-.908 2.966-3.023 6.102-6.096 8l-.699-.005zm-7.193 0a16.232 16.232 0 0 1-.477-.043c-7.468-.767-9.655-6.143-10.184-10.434l.36.004c.529 4.175 2.669 9.334 9.861 10.073 8.746.899 12.001-6.564 12.421-10.072l.358-.001c-.387 3.305-3.169 9.938-10.404 10.473h-1.935zm-6.694 0a6.394 6.394 0 0 1-.477-.427c.089.118.202.262.335.428l-.459-.001a7.433 7.433 0 0 1-.163-.213c-.391-.544-.372-.95-.372-.95s.464.009.92.487c.157.165.433.397.792.675l-.576.001zm-2.78 0c-1.585-2.889-3.093-6.477-3.51-10.473h.362c.309 2.911 1.205 5.607 2.292 7.976.402.88.831 1.713 1.263 2.494l-.407.003zm99.776-10.473c-1.462 1.117-3.286 2.156-5.56 3.085-.506.611-4.586 6.917-17.663 6.917-11.392 0-22.113-6.919-26.773-10.006l.663.004c1.981 1.309 4.869 3.15 8.336 4.875 5.054 2.514 11.314 4.768 17.774 4.768 6.477 0 10.701-1.561 13.359-3.177a14.738 14.738 0 0 0 2.912-2.292c.647-.667.99-1.168 1.114-1.318l.142-.103c2.047-.836 3.723-1.76 5.09-2.748l.606-.005zm-2.559 0c-1.25.828-2.237 1.263-2.401 1.351.278-.453.507-.905.698-1.352l.39.001c-.068.167-.143.336-.223.506l.37-.209c.159-.091.327-.191.501-.3l.665.003zm-3.856 0c-.5.839-1.1 1.441-1.738 1.979l-.091.017c-3.443.675-6.708.023-9.566-1.041a30.74 30.74 0 0 1-2.272-.958l.874.003c3.171 1.39 6.92 2.423 10.895 1.644.527-.445 1.04-.951 1.485-1.647l.413.003zm-18.638 0c4.496 2.283 9.264 4.022 13.315 3.881-5.52 2.335-13.736-.411-20.773-3.879l.809-.002c5.992 2.883 12.722 5.151 17.818 4.155-3.808-.408-8.018-2.102-11.951-4.154l.782-.001zm-55.849 0a2.799 2.799 0 0 1-.645.939c.03-.357-.009-.722-.173-.943l.396.004.017.043c.008-.013.014-.027.021-.042l.384-.001zm-1.896 0a.885.885 0 0 1-.065.041c-1.124.673-1.189 6.381-5.876 6.51-3.875.106-8.101-2.199-9.015-6.553l.372.002c.911 4.106 4.907 6.294 8.633 6.192 2.15-.059 3.245-1.378 3.96-2.849.367-.753.622-1.523.855-2.145.126-.333.245-.626.371-.859.063-.117.134-.235.219-.34l.546.001zm-6.259 0a7.863 7.863 0 0 0-.302.82c-.445 1.45-1.024 2.136-1.694 2.387a2.002 2.002 0 0 1-.904.101c-.234-.022-.45-.071-.634-.087-.752-.066-2.459-.478-3.117-3.219l.368-.002c.633 2.506 2.181 2.811 2.78 2.863.738.064 1.991.673 2.858-2.149.073-.239.159-.478.255-.714h.39z"/><path d="M126.839 21.524c-1.339-1.005-3.213-2.119-5.504-3.598-.431-.218-.762-.719-.762-.719s.492-.095 1.048.07c3.418.887 6.397.339 8.815-.993l.699.003c-2.576 1.596-5.826 2.317-9.604 1.338 2.513 1.623 4.528 2.809 5.884 3.896l-.576.003zm-2.56 0c-.766-.446-1.547-.895-2.203-1.334-1.831-1.229-4.36-2.945-5.528-3.903h.576c1.243.963 3.465 2.472 5.154 3.605.797.535 1.782 1.084 2.697 1.633l-.696-.001zm-4.202 0c-1.711-2.335-3.391-4.293-4.129-5.236l.459-.001c.831 1.042 2.47 2.975 4.116 5.24l-.446-.003zm-3.025 0c-.844-1.259-2.086-3.046-3.284-5.234l.408-.003a52.048 52.048 0 0 0 1.99 3.268c.498.758.951 1.418 1.317 1.968l-.431.001zm8.127-5.237c-.613.046-1.258.047-1.936 0h1.936z"/><path d="M127.415 21.524c1.244.994 1.935 1.907 1.949 2.995.032 2.277-2.599 2.533-2.599 2.533l-1.542-1.539s2.248.417 2.378-.962c.087-.959-1.577-1.995-3.324-3.022l.698-.005c.318.191.627.381.915.57.57.372 1.09.758 1.463 1.149.365.382.652.837.604 1.341-.091.966-.942 1.249-1.552 1.322-.088.01-.174.017-.259.02l.745.744c.526-.095 2.137-.519 2.115-2.146-.014-.962-.645-1.815-1.986-2.856-.058-.047-.12-.093-.181-.14l.576-.004zm-6.891 0c2.293 3.162 4.598 6.967 4.732 9.89.236 5.231-2.184 8.882-7 8.882-4.815 0-6.806-2.983-6.806-5.323 0-2.341 1.477-2.533 1.477-3.72 0-1.187-1.542-1.026-1.542-1.026s.065-2.309 2.119-1.7c2.056.61 2.184 2.309 2.087 3.239-.096.93-1.347 1.988-1.347 3.655 0 1.668 1.991 3.208 3.981 3.208 1.989 0 7.415-2.181 3.82-10.711.16 2.501.225 4.361-2.023 6.478-.674-.225-1.252-.289-1.412-.963-.161-.673.063-1.122-.226-1.411.932-.576 3.212-1.218 1.671-5.29-.899.898-1.413 1.474-1.767 3.142-1.124-1.283-4.655-6.285-.29-6.798-.158-.355-.496-.878-.945-1.548l.429-.004.028.041c.366.553.663 1.02.818 1.364l.201.447-.488.057c-1.866.218-2.052 1.286-1.614 2.643.354 1.091 1.11 2.253 1.688 3.013.369-1.243.894-1.821 1.686-2.611l.393-.393.197.519c.792 2.094.638 3.406.055 4.282-.285.428-.653.721-.998.942-.202.13-.405.237-.585.336.04.15.043.299.043.42 0 .111-.005.235 0 .371.005.12.019.252.053.396a.563.563 0 0 0 .328.412c.098.05.214.093.362.14l.279.086c1.968-1.937 1.914-3.626 1.759-6.048-.036-.418.172-.824.172-.824s.369.329.517.662c3.707 8.794-1.934 11.209-4.151 11.209-2.108 0-4.342-1.628-4.342-3.567 0-.926.351-1.673.684-2.277.16-.291.323-.559.454-.813.124-.244.195-.437.213-.602.09-.872-.033-2.324-1.831-2.858-1.155-.342-1.505.481-1.612.999.136.011.298.034.462.079.471.133 1.034.487 1.034 1.304 0 .381-.123.681-.287.943a4.219 4.219 0 0 1-.257.36c-.085.108-.177.22-.269.34-.333.443-.666 1.002-.666 2.077 0 2.124 1.813 4.964 6.448 4.964 4.534 0 6.872-3.394 6.642-8.507-.118-2.559-1.996-5.894-4.089-8.884a57.198 57.198 0 0 0-.733-1.021l.448-.001zm33.025-17.091c.112-.826.818-1.24 1.398-1.437a2.634 2.634 0 0 1-.635-.614l-.255-.343.343-.172c-1.556-.023-3.905.04-4.743.572a144.1 144.1 0 0 0-3.015 1.994h-.781l-.531-.53.249-.253c.01-.012.748-.764 1.984-1.575.907-.595 2.094-1.228 3.468-1.62a8.275 8.275 0 0 0-.734-.081 7.256 7.256 0 0 0-4.141.96c-.989.573-2.357 1.461-3.966 3.102l-.497-.003c1.731-1.82 3.212-2.789 4.282-3.41 3.152-1.826 6.218-.683 6.656-.528-3.927.475-6.795 3.405-6.795 3.405l.384.385s1.831-1.251 3.244-2.148c1.412-.899 6.42-.578 6.42-.578s-.513.224-1.284.609c.642.866 1.638.962 1.638.962s-2.087.029-2.323 1.3l-.366.003zm-1.345 0l.204-1.018s.051.446.12 1.015l-.324.003z"/><path d="M198.034 20.142c-.13-1.096-.578-2.23-1.676-3.479-.424.145-.883.296-1.217.406.232.313.552.781.845 1.334.267.504.525 1.107.659 1.74l-.368-.001c-.387-1.694-1.736-3.254-1.736-3.254s1.09-.353 1.926-.643c1.288 1.404 1.793 2.679 1.929 3.897h-.362zm-14.818 0c-2.35-.263-4.995-.513-7.932-.716-9.931-.689-14.965-2.825-19.817-7.823 1.966 2.724 5.425 6.068 11.422 7.599 1.699.431 3.284.72 4.838.94h-2.214a40.493 40.493 0 0 1-2.713-.593c-9.053-2.309-12.424-8.69-13.581-11.031 5.715 6.99 10.53 9.748 22.09 10.55 4.209.292 7.824.678 10.829 1.075l-2.922-.001zm-23.596 0c-5.257-3.851-8.79-8.843-7.652-14.485.051-.291.147-.778.236-1.224h.322l.148 1.233c.248 1.42 3.193 4.16 7.866 4.16 2.688 0 6.704.043 7.407 4.921.602-.09 1.168-.18 1.517-.238a8.193 8.193 0 0 0-1.008-2.523c-.9-1.486-2.524-3.084-5.465-3.53-1.568-.238-2.429.032-3.561-.128-3.215-.454-5.85-1.447-5.895-3.619a1.603 1.603 0 0 1 .014-.272l.366-.004a1.269 1.269 0 0 0-.022.269c.038 1.826 2.29 2.804 5.588 3.27 1.132.161 1.995-.11 3.563.129 6.133.929 6.839 6.702 6.839 6.702s-1.124.193-2.247.353c-.514-4.907-4.303-4.972-7.096-4.972-4.759 0-7.931-2.788-8.219-4.456-1.129 5.592 2.536 10.586 7.921 14.415l-.622-.001zm-2.357 0c-6.012-5.362-7.225-11.116-7.276-13.43-.727 6.968 1.732 10.593 5.53 13.428l-.592.002c-3.671-2.864-6.013-6.59-5.295-13.467.254-1.559.668-2.043.668-2.043s.043 1.207.049 2.072c.047 2.25 1.255 8.067 7.465 13.442l-.549-.004zm-5.433 0c-2.502-2.227-4.424-4.668-4.99-7.406-.105 2.671.868 4.885 2.452 6.865.146.184.299.365.454.544l-.477-.003c-2.68-3.189-3.847-6.974-1.632-12.187-1.832 4.754.695 8.68 4.735 12.186l-.542.001zm-10.88 0a15.894 15.894 0 0 1-.281-1.403c.022.474.06.943.113 1.406l-.362-.003a21.784 21.784 0 0 1-.136-2.447c0-1.55.268-3.199.802-4.943-.194.726-.292 1.671-.292 2.834 0 1.653.177 3.172.527 4.56l-.371-.004zm-3.732 0a42.957 42.957 0 0 1-.064-1.839 28.21 28.21 0 0 0-.164 1.841l-.362-.002c.112-1.939.434-4.084 1.035-6.446-.18 2.358-.194 4.5-.085 6.443l-.36.003zm-4.526 0c3.212-8.3 6.392-12.968 9-15.709h.497c-2.6 2.655-5.832 7.273-9.109 15.705l-.388.004zm13.95-15.709l-.465.317-.317-.317h.782z"/><path d="M203.799 25.378c-1.587-.901-3.447-1.747-5.621-2.508l-.28-.099.043-.293c.115-.776.188-1.546.093-2.339l.362.003c.091.816.016 1.605-.1 2.389 2.446.856 4.5 1.819 6.224 2.848l-.721-.001zm-4.216 0c-.917-.371-1.636-.617-2.018-.767-.063.138-.237.41-.539.763l-.481.004c.409-.445.631-.781.693-.915l.141-.311.317.125c.491.192 1.531.542 2.83 1.103l-.943-.002zm-5.667 0c.793-.485 1.295-.959 1.46-1.34-6.714-1.416-12.034-2.227-16.696-2.758-3.198-.363-6.054-.556-9.167-1.135l2.214-.003c2.311.327 4.552.504 6.994.782 4.671.531 10.003 1.343 16.728 2.763l.431.09-.174.403c-.158.364-.548.777-1.142 1.198h-.648zm-24.529 0c-3.45-1.344-6.87-3.118-9.767-5.237l.622.001c3.018 2.144 6.575 3.923 10.133 5.236h-.988zm-4.079 0c-3.346-1.598-5.978-3.393-8.043-5.235l.547-.001c2.138 1.855 4.869 3.653 8.35 5.235l-.854.001zm-1.881 0a91.602 91.602 0 0 0-1.192-.7c-2.409-1.393-4.725-2.639-6.698-4.077a22.247 22.247 0 0 1-.612-.462l.592.003c2.473 1.843 5.511 3.355 8.61 5.237l-.7-.001zm-4.494 0a100.442 100.442 0 0 1-3.257-2.213c-1.356-.966-2.666-1.971-3.846-3.021l.542-.002c2.124 1.843 4.667 3.571 7.213 5.239l-.652-.003zm-3.656 0c-2.277-1.652-4.411-3.339-6.008-5.237l.477.001c1.15 1.322 2.569 2.544 4.122 3.738a76.876 76.876 0 0 0 2.031 1.501l-.622-.003zm-11.924 0a21.613 21.613 0 0 1-1.128-1.914 13.821 13.821 0 0 1-1.275-3.318l.372-.004a13.313 13.313 0 0 0 1.221 3.153c.381.73.797 1.425 1.247 2.086l-.437-.003zm-1.574 0a18.66 18.66 0 0 1-1.359-5.237l.362.001a18.269 18.269 0 0 0 1.386 5.234l-.389.002zm-2.268 0c-.1-.428-.183-.831-.245-1.21.144.409.297.814.46 1.214l-.215-.004zm-1.654 0a38.858 38.858 0 0 1-.639-5.236h.36c.11 1.938.34 3.679.647 5.236h-.368zm-.995 0c-.244-1.554-.344-3.292-.234-5.233l.362-.003c-.114 1.951-.01 3.691.237 5.239l-.365-.003zm-2.008 0c.055-1.777-.346-4.332-.346-4.332s-.307 1.22-1.365 4.333l-.38-.001c1.083-3.176 1.396-4.42 1.396-4.42l.705.032s.403 2.577.35 4.387l-.36.001zm-4.027 0c.62-1.886 1.244-3.626 1.865-5.232l.388-.004c-.624 1.6-1.249 3.342-1.872 5.235l-.381.001zm65.818-5.236c.131.612.145 1.254-.062 1.862l-.104.306-.316-.069c-1.718-.382-6.069-1.314-12.947-2.095l2.922-.004c5.244.693 8.634 1.421 10.104 1.747.189-.558.17-1.159.035-1.744l.368-.003z"/><path d="M210.008 30.614c-1.356-1.809-3.338-3.612-6.209-5.239l.72.003c2.733 1.633 4.633 3.432 5.937 5.239l-.448-.003zm-2.282 0c-2.528-2.72-5.916-4.342-8.143-5.239l.943.003.434.194c1.508.679 3.304 1.631 4.981 2.934a16.952 16.952 0 0 1 2.266 2.104l-.481.004zm-37.105 0c-.509-.44-.926-.788-1.211-1.034-1.932-1.667-3.97-3.003-5.983-4.203l.7.001c1.855 1.127 3.731 2.387 5.518 3.93.342.294.87.735 1.522 1.304l-.546.002zm-3.951 0a53.135 53.135 0 0 0-1.985-1.432c-1.806-1.248-3.787-2.505-5.751-3.799l.652-.005c2.727 1.792 5.458 3.512 7.682 5.237l-.598-.001zm-4.261 0c-2.234-1.839-4.761-3.519-7.133-5.239l.622.003c1.166.841 2.364 1.673 3.541 2.522 1.213.873 2.409 1.77 3.529 2.713l-.559.001zm-14.163 0a38.483 38.483 0 0 1-1.726-1.53 19.747 19.747 0 0 1-3.167-3.707l.436.001a19.277 19.277 0 0 0 2.976 3.443 36.119 36.119 0 0 0 2.055 1.796l-.574-.003zm-3.305 0a44.133 44.133 0 0 1-1.817-2.665 17.996 17.996 0 0 1-1.345-2.568l.39-.003c.357.82.777 1.614 1.26 2.381a45.009 45.009 0 0 0 1.957 2.854l-.445.001zm-2.838 0a27.212 27.212 0 0 1-1.336-2.195c.232.746.492 1.477.779 2.192l-.385.003a29.486 29.486 0 0 1-.804-2.302 33.68 33.68 0 0 1-.847-2.935l.215.001a27.311 27.311 0 0 0 2.815 5.24l-.437-.004zm-2.759 0a31.23 31.23 0 0 1-.503-1.422 32.196 32.196 0 0 1-.984-3.818l.368.004c.405 2.056.943 3.79 1.507 5.238l-.388-.002zm-.9 0c-.675-1.434-1.257-3.168-1.582-5.24l.365.004c.334 2.086.931 3.818 1.618 5.237l-.401-.001zm-4.936 0c.767-.266 1.12-.659 1.12-.659l.219-4.41a8.41 8.41 0 0 0 .007-.162l.36-.005-.008.184-.225 4.536s-.118.134-.185.194a2.839 2.839 0 0 1-.449.326l-.839-.004zm-2.608 0a234.994 234.994 0 0 0 1.863-5.233l.38-.003a216.28 216.28 0 0 1-1.86 5.234l-.383.002zm-1.705 0c.232-.734.466-1.494.704-2.279.308-1.023.618-2.006.928-2.953l.381-.004c-.323.979-.644 1.999-.966 3.06-.224.75-.448 1.475-.672 2.178l-.375-.002zm67.83-5.236c-1.728 2.02-7.618 6.686-20.389 3.803-4.474-1.009-8.211-2.321-11.328-3.806l.854.003c2.948 1.339 6.434 2.523 10.553 3.453 12.19 2.752 17.962-1.446 19.83-3.457l.48.004zm-2.461 0c-2.094 1.485-6.713 3.066-12.523 2.899-3.526-.101-8.117-1.129-12.653-2.898l.986-.001c4.184 1.544 8.369 2.445 11.678 2.541 5.449.156 9.719-1.233 11.864-2.543l.648.002z"/><path d="M212.447 35.851a13.22 13.22 0 0 0-.169-.68c-.405-1.45-1.107-3.006-2.27-4.558l.449.001c1.292 1.792 2.001 3.588 2.358 5.236l-.368.001zm-1.747 0c-.561-2.082-1.649-3.809-2.974-5.236l.48-.001c1.281 1.435 2.326 3.166 2.866 5.24l-.372-.003zm-7.47 0c-.812-.502-1.864-.836-3.201-.927-2.059-.139-3.964.104-5.493.93l-.689-.003c1.682-1.114 3.867-1.444 6.206-1.285 1.659.112 2.903.585 3.815 1.281l-.638.004zm-27.34 0a44.508 44.508 0 0 0-3.348-3.505 60.287 60.287 0 0 0-1.921-1.732h.546c1.386 1.211 3.326 3.009 5.19 5.233l-.467.004zm-4.329 0a15.752 15.752 0 0 0-.525-.905c-.902-1.456-2.451-2.885-4.367-4.336l.599.004c1.759 1.367 3.201 2.735 4.074 4.142.231.375.44.739.627 1.094l-.408.001zm-4.313 0c-1.206-1.95-2.914-3.653-4.838-5.237h.558c1.873 1.577 3.533 3.285 4.702 5.238l-.422-.001zm-11.542 0c-1.15-.811-2.35-1.623-3.602-2.436a37.07 37.07 0 0 1-3.858-2.804l.574.003a36.344 36.344 0 0 0 3.478 2.499 110 110 0 0 1 4.022 2.734l-.614.004zm-2.859 0l-2.296-1.721c.084.728.063 1.303-.064 1.724l-.377-.003c.126-.337.178-.869.084-1.68l-.096-.829 3.228 2.418-.041.091h-.438zm-3.48 0a50.97 50.97 0 0 1-4.426-5.234l.445-.003a50.525 50.525 0 0 0 4.485 5.235l-.504.002zm-3.299 0a61.479 61.479 0 0 1-3.236-4.201c-.251-.34-.494-.685-.729-1.034l.437-.002c.188.281.384.555.584.825a61.197 61.197 0 0 0 3.416 4.412h-.472zm-2.247 0c-.588-.85-1.136-1.837-1.643-2.958-.371-.74-.711-1.5-1.017-2.278l.385-.001c.292.725.611 1.435.957 2.126.539 1.192 1.127 2.232 1.754 3.108l-.436.003zm-1.461 0c-.812-.7-2.555-2.356-3.915-5.239l.4.002a16.205 16.205 0 0 0 1.829 2.945 28.231 28.231 0 0 1-1.33-2.947l.388.002c1.008 2.594 2.103 4.269 2.678 5.234l-.05.003zm-2.883 0c-1.015-1.211-1.789-2.568-2.559-3.832.075 1.532-.071 2.799-.349 3.836l-.371-.004c.283-1.011.436-2.267.361-3.815l.666-.204c.413.677.825 1.381 1.277 2.075.439.674.908 1.331 1.445 1.944h-.47zm-5.279 0c-.358-1.198-1.668-2.55-1.971-3.455-.35-1.052.353-1.488 1.186-1.752l.095-.032.839.002a3.671 3.671 0 0 1-.827.373c-.813.257-1.193.57-.951 1.296.072.215.223.484.43.804.209.322.456.667.69 1.02.353.531.726 1.14.882 1.747l-.373-.003zm-5.274 0a375.487 375.487 0 0 0 1.976-5.237h.383a393.6 393.6 0 0 1-1.974 5.241l-.385-.004zm-1.552 0a87.89 87.89 0 0 0 1.823-5.238l.376.001a90.58 90.58 0 0 1-1.81 5.234l-.389.003z"/><path d="M212.58 41.087a13.716 13.716 0 0 0-.133-5.237l.369.001c.451 2.087.338 3.938.128 5.238l-.364-.002zm-1.617 0c.28-1.956.153-3.691-.262-5.232l.371-.004c.405 1.552.526 3.29.254 5.239l-.363-.003zm-5.349 0a2.32 2.32 0 0 0 .042-.438c0-1.822-.636-3.707-2.425-4.802l.636.004c1.568 1.188 2.148 3.032 2.148 4.798 0 .149-.013.294-.037.439l-.364-.001zm-1.517 0c.384-1.006.177-2.309-1.49-3.824-2.705-2.455-8.653-.074-9.561 3.822l-.369.002c.897-4.151 7.197-6.79 10.171-4.089 1.756 1.594 2.005 2.995 1.631 4.091l-.382-.002zm-13.337 0c.431-2.553 1.549-4.223 3.087-5.239l.689.003c-1.709.925-2.948 2.576-3.412 5.235l-.364.001zm-11.228 0a28.554 28.554 0 0 0-2.544-3.881c-.36-.468-.727-.92-1.098-1.354l.466-.001c1.305 1.553 2.57 3.316 3.581 5.234l-.405.002zm-3.424 0c.03-.341.043-.69.034-1.046.196.342.382.692.563 1.049l-.597-.003zm-3.146 0c.049-1.505-.314-3.224-1.402-5.239l.409.003c1.046 1.996 1.4 3.717 1.354 5.233l-.361.003zm-3.926 0c-.173-1.95-.818-3.675-1.789-5.239l.423.003c.939 1.568 1.563 3.294 1.729 5.237l-.363-.001zm-7.488 0c-1.082-1.392-2.414-2.691-4.006-3.907a89.126 89.126 0 0 0-1.836-1.328l.614-.001c.489.344.969.693 1.439 1.042 1.65 1.261 3.035 2.619 4.149 4.072.03.041.06.082.088.123l-.448-.001zm-6.731 0a379.012 379.012 0 0 1-3.393-3.175c.584-.486 1.067-1.164 1.457-2.036l-.033-.025h.437l-.076.171c-.34.762-.757 1.397-1.257 1.894a341.681 341.681 0 0 0 3.4 3.174l-.535-.003zm-3.963 0c-.792-.766-1.516-1.43-1.939-1.852-.291.145-.421.213-.559.251-.205.057-.426.05-1.217.141.322.495.621.983.899 1.461l-.417-.001a34.698 34.698 0 0 0-.785-1.266l-.314-.487.576-.064c.399-.046.655-.067.837-.084.183-.017.259-.027.325-.046.052-.014.102-.035.168-.065l.327-.161.231-.115.184.182c.468.469 1.31 1.238 2.205 2.106h-.521zm-5.4 0c-.36-.628-.74-1.274-1.13-1.942-2.183-.676-3.676-1.89-4.847-3.29l.47-.004.035.04c1.1 1.243 2.483 2.302 4.449 2.911l.133.042.071.119c.429.734.844 1.441 1.235 2.127l-.416-.003zm-18.919 0a39.79 39.79 0 0 0 2.256-4.89l.133-.344.384-.002c-.06.159-.119.316-.181.474a40.871 40.871 0 0 1-2.182 4.766l-.41-.004zm-1.646 0c.874-1.444 1.686-3.188 2.483-5.234l.389-.002c-.783 2.022-1.586 3.769-2.453 5.236h-.419zm25.598-5.236c-.092.31-.241.536-.446.679a86.469 86.469 0 0 1-.674-.683l.505.004c.053.051.107.106.161.16.028-.048.054-.102.077-.163l.377.003zm-3.947 0a63.216 63.216 0 0 0 1.899 2.133c-.436.193-1.018.291-1.747.291-.728 0-1.48-.533-2.257-1.6a13.595 13.595 0 0 1-.614-.821l.436-.003c.152.21.307.413.463.606.762 1.046 1.425 1.459 1.972 1.459a5.23 5.23 0 0 0 1.101-.102 62.335 62.335 0 0 1-1.725-1.966l.472.003zm-4.131 0c.021.031.041.064.06.096l-.108-.092.048-.004zm-5.84 0c-.732 2.74-2.382 3.871-3.308 4.046-1.279.24-1.647-.431-1.822-1.262-.175-.833-.264-1.74.482-1.872.746-.131 2.367.964 2.367-.35 0-.182-.034-.371-.091-.563l.375.001a2.3 2.3 0 0 1 .076.562c0 1.028-.784 1.073-1.329.972-.257-.048-.537-.133-.8-.199-.263-.065-.434-.087-.535-.069-.169.03-.258.119-.294.37-.039.279.013.659.101 1.073.155.737.399 1.173 1.403.984.747-.141 2.29-1.128 3.005-3.692l.37-.001z"/><path d="M211.623 44.359c.008-.125.034-.25.069-.362.063-.21.164-.429.26-.635l.12-.26a1.51 1.51 0 0 0 .069-.185c.031-.114.265-.783.439-1.828l.363-.002c-.176 1.1-.423 1.805-.455 1.924-.092.342-.463.905-.507 1.347l-.358.001zm-1.473 0c.35-.929.625-1.992.802-3.202l.011-.073.363.003-.017.122a16.267 16.267 0 0 1-.772 3.152l-.387-.002zm-7.31 0c.231-.162.472-.337.714-.527.984-.776 1.862-1.711 2.06-2.748l.365.003c-.223 1.338-1.425 2.458-2.526 3.273l-.613-.001zm-2.7 0c.637-.585 1.479-1.045 2.001-1.298.683-.331 1.59-1.016 1.956-1.976l.382.002c-.388 1.131-1.436 1.937-2.181 2.297a9.34 9.34 0 0 0-1.606.975h-.552zm-7.531 0c-.151-.9-.164-1.911.026-3.049.012-.076.027-.151.042-.225l.369.002a3.58 3.58 0 0 0-.056.281c-.187 1.121-.171 2.115-.013 2.992l-.368-.001zm-1.975 0c-.102-.947-.078-1.999.107-3.158l.019-.119.364.005c-.009.055-.019.113-.027.17-.182 1.14-.203 2.172-.097 3.103l-.366-.001zm-9.679 0a20.719 20.719 0 0 0-1.422-3.27l.404-.002a20.353 20.353 0 0 1 1.393 3.269l-.375.003zm-3.277 0a23.116 23.116 0 0 0-1.237-2.995 11.293 11.293 0 0 1-.788 2.996l-.39-.001c.418-.994.74-2.087.845-3.273l.597.001a23.488 23.488 0 0 1 1.345 3.272h-.372zm-5.469 0c.41-.984.715-2.058.753-3.272h.361c-.037 1.208-.33 2.288-.728 3.273l-.386-.001zm-3.314 0c.192-1.16.233-2.249.141-3.274l.363.002a13.222 13.222 0 0 1-.139 3.273l-.365-.001zm-5.903 0a7.701 7.701 0 0 0-1.372-3.178l-.072-.096.448.002a8.105 8.105 0 0 1 1.361 3.271l-.365.001zm-4.622 0a60.536 60.536 0 0 0-.975-.92 356.39 356.39 0 0 1-2.578-2.354l.534.002c.756.697 1.518 1.392 2.286 2.087.426.395.846.791 1.259 1.189l-.526-.004zm-4.502 0c-.737-1.026-1.938-2.241-3.014-3.276l.521.004c.168.164.338.33.507.499.911.908 1.841 1.906 2.425 2.77l-.439.003zm-4.568 0a28.435 28.435 0 0 0-1.679-3.271l.418-.001a28.81 28.81 0 0 1 1.643 3.269l-.382.003zm-2.114 0c-.488-1.052-1.079-2.133-1.732-3.272h.416c.648 1.139 1.232 2.219 1.712 3.274l-.396-.002zm-10.302 0c-1.411-1.107-3.325-2.049-5.978-2.088-2.003-.029-3.521.84-4.652 2.087l-.485.001c1.204-1.442 2.874-2.48 5.142-2.446 2.969.043 5.049 1.183 6.535 2.443l-.562.003zm-12.416 0a30.444 30.444 0 0 0 2.067-3.269l.41-.003a31.073 31.073 0 0 1-2.031 3.271l-.446.001zm-2.212 0c.955-.838 1.82-1.926 2.633-3.27l.419-.002c-.778 1.317-1.606 2.407-2.519 3.271l-.533.001zm-10.574 0a4.826 4.826 0 0 1-.385-1.566c-.676.593-1.246 1.065-1.49 1.316 0 .07.004.154.014.248l-.361.002c-.026-.297-.004-.481-.004-.481s1.04-.832 2.18-1.872c-.029.925.123 1.71.442 2.35l-.396.003z"/><path d="M213.963 47.632c.142-.858-.048-1.914-1.618-2.32-.603-.154-.747-.564-.722-.952h.358c-.028.276.074.507.455.605 1.81.467 2.042 1.68 1.889 2.666l-.362.001zm-3.066 0a8.183 8.183 0 0 1-.199-.72c-.153.249-.307.489-.463.716l-.442.004c.201-.282.401-.585.598-.908l.462-.753.195.861c.063.274.139.543.226.804l-.377-.004zm-2.672 0c.758-.852 1.42-1.925 1.925-3.27l.387-.002c-.48 1.327-1.105 2.404-1.826 3.272h-.486zm-7.644 0c-1.924-1.181-1.428-2.375-.442-3.275l.553.003c-.322.251-.613.53-.811.826-.396.592-.514 1.371 1.12 2.271.206-.329.407-.674.498-.942-.147-.136-.393-.413-.351-.786.017-.158.122-.265.157-.301.053-.055.121-.109.189-.161.131-.098.316-.221.535-.366.236-.154.514-.337.81-.543l.613.002c-1.005.746-1.928 1.236-1.947 1.409-.043.381.507.677.507.677s-.337.614-.699 1.189l-.732-.003zm-6.575 0a7.6 7.6 0 0 1-1.396-3.275l.366.003a7.335 7.335 0 0 0 1.481 3.276l-.451-.004zm-2.381 0a8.81 8.81 0 0 1-.991-3.269l.365-.003a8.47 8.47 0 0 0 1.045 3.271l-.419.001zm-9.952 0a15.862 15.862 0 0 0-.719-3.27l.377-.002c.342 1.059.587 2.153.704 3.273l-.362-.001zm-3.179 0a21.599 21.599 0 0 0-.817-3.275l.373.003c.35 1.074.621 2.173.8 3.272h-.356zm-5.023 0c.595-.931 1.269-2.026 1.791-3.27l.391-.002a18.562 18.562 0 0 1-1.312 2.558c-.148.245-.296.482-.441.71l-.429.004zm-2.961 0c.463-.872 1.028-1.799 1.502-2.83.067-.147.133-.296.197-.447l.385.005c-.489 1.211-1.14 2.282-1.678 3.275l-.406-.003zm-2.508 0c.428-1.151.722-2.241.892-3.273l.366.001a17.93 17.93 0 0 1-.874 3.271l-.384.001zm-5.009 0a7.45 7.45 0 0 0 .158-1.503c0-.617-.053-1.206-.158-1.766l.363-.003a9.82 9.82 0 0 1 .154 1.769c0 .494-.05.993-.15 1.5l-.367.003zm-1.395 0a77.563 77.563 0 0 0-3.227-3.275l.525.003a78.028 78.028 0 0 1 3.186 3.268l-.484.004zm-8.507 0c-.724-1.687.534-2.509 1.168-2.668a6.117 6.117 0 0 0-.391-.607l.438.003c.1.145.19.29.268.429l.228.409-.455.114c-.514.129-1.601.794-.861 2.319l-.395.001zm-2.681 0a20.088 20.088 0 0 0-1.11-3.276l.383.004a20.2 20.2 0 0 1 1.079 3.268l-.352.004zm-2.074 0c-.238-1.085-.637-2.163-1.15-3.27l.396-.002c.027.062.056.123.082.184.458 1.033.818 2.053 1.039 3.085l-.367.003zm-5.732 0a1.794 1.794 0 0 1-.067-.179l-.133.108c-.03.025-.063.05-.095.074l-.708-.003c.682-.289 1.187-.953 1.187-.953s-.026.541.219.956l-.403-.003zm-2.592 0a9.826 9.826 0 0 1-.558-.631c-.227-.272-.484-.585-.779-.918a15.824 15.824 0 0 0-.983-1.025c-.25-.235-.519-.469-.808-.696l.563-.002c1.595 1.351 2.507 2.846 3.099 3.271l-.534.001zm-6.413 0c-.627-.843-1.224-1.649-1.996-2.186-.401-.281-3.387-1.896-4.891 1.173-.171.349-.321.685-.44 1.009l-.381.004c.13-.377.298-.766.497-1.172.824-1.674 2.088-2.105 3.203-2.042 1.074.059 1.983.568 2.218.733.635.442 1.149 1.046 1.629 1.668.202.264.404.539.61.814l-.449-.001zm-9.673 0c.431-1.14 1.033-2.299 1.845-3.272h.484c-.858.945-1.492 2.11-1.945 3.268l-.384.004zm-2.276 0a25.397 25.397 0 0 0 2.819-3.27l.446-.002a26.424 26.424 0 0 1-2.754 3.273l-.511-.001zm-2.801 0l.34-.049 1.037-.151-.192.2h-1.185zm-6.616 0c-2.261-.861-2.7-2.474-2.773-3.276l.36.004a3.186 3.186 0 0 0 .869 1.872c.53.561 1.406 1.107 2.853 1.397l-1.309.003zm10.555-3.272c-1.645 1.557-3.56 2.379-5.934 2.459-2.597.09-4.406-.74-5.172-2.457l.396-.002c.737 1.469 2.364 2.183 4.763 2.101 2.133-.073 3.889-.767 5.416-2.104l.531.003z"/><path d="M214.024 51.559c.147-.509.275-.93.344-1.154l-.963-1.311.116-.203c.038-.067.334-.605.442-1.254l.362-.005a4.697 4.697 0 0 1-.491 1.438l.932 1.269s-.163.509-.367 1.219l-.375.001zm-.848 0c-.797-.856-1.754-2.278-2.279-3.922l.377-.005c.58 1.75 1.652 3.198 2.406 3.927h-.504zm-8.08 0c1.513-.602 3.156-1.741 4.697-3.923l.442-.004c-1.377 2.016-2.853 3.214-4.264 3.926l-.875.001zm-9.249 0c-1.569-.775-3.197-2.028-4.222-3.929l.419.002c1.148 2.007 2.997 3.239 4.648 3.926l-.845.001zm-14.316 0c.031-.18.059-.364.086-.551.165-1.143.174-2.27.056-3.374l.362-.002a13.878 13.878 0 0 1-.061 3.427c-.025.17-.051.338-.078.503l-.365-.003zm-2.82 0a17.404 17.404 0 0 0-.216-3.925l.355-.002a17.85 17.85 0 0 1 .218 3.923l-.357.004zm-6.242 0a2.635 2.635 0 0 1-.388-.949c-.138-.651.546-1.652 1.39-2.976l.429-.002c-.375.589-.727 1.122-.997 1.589-.387.669-.522 1.075-.471 1.314a2.236 2.236 0 0 0 .485 1.022l-.448.002zm-2.756 0a2.691 2.691 0 0 1-.016-.053c-.333-1.128-.002-2.209.51-3.277.094-.197.195-.394.303-.595l.406-.002c-.721 1.341-1.238 2.543-.874 3.774.016.05.033.103.052.156l-.381-.003zm-3.571 0c.788-1.388 1.401-2.693 1.86-3.924l.384-.003a26.868 26.868 0 0 1-1.831 3.924l-.413.003zm-4.94 0c-1.376-2.056-1.736-2.101-2.29-2.641-.557-.541-.753-.03-.783.512-.031.54-.061 1.022-.421 1.758a7.268 7.268 0 0 1-.198.374l-.42-.003c.102-.152.195-.328.294-.529.329-.672.356-1.096.386-1.62.014-.268.07-.658.293-.891.352-.367.796-.154 1.1.142.279.272.51.42.845.761.355.36.806.91 1.506 1.958l.119.179h-.431zm-6.365 0c-.169-.435-.124-.946.145-1.287.526-.663 1.49-.451 1.369-1.624-.12-1.174-.421-.512-.632-.091-.211.421-.361.963-.361.963s-1.399-.482-1.852-1.143a4.476 4.476 0 0 1-.416-.745h.396c.082.169.187.351.318.543.251.368.916.694 1.328.87.067-.196.16-.436.266-.648.055-.112.117-.24.18-.349.039-.066.079-.126.118-.177a.695.695 0 0 1 .185-.173c.301-.183.565.008.672.221.08.159.126.397.157.692.075.736-.214 1.105-.614 1.347-.149.091-.318.165-.484.259-.143.08-.256.163-.347.278-.223.279-.223.725-.03 1.068l-.398-.004zm-4.061 0c.087-1.145-.014-2.455-.366-3.928l.352.001c.341 1.454.445 2.767.366 3.924l-.352.003zm-2.221 0c.024-.522.029-1.093.029-1.708 0-.75-.088-1.486-.248-2.219h.367c.156.728.241 1.465.241 2.219 0 .6-.003 1.174-.027 1.711l-.362-.003zm-22.094 0c-1.007-1.244-1.069-2.486-.57-3.928l.381.001c-.529 1.434-.488 2.66.658 3.925l-.469.002zm-3.447 0c.072-.963.345-2.428.912-3.927h.384c-.578 1.476-.861 2.943-.937 3.928l-.359-.001zm-6.518 0c.421-.264.859-.541 1.311-.843a26.376 26.376 0 0 0 3.658-2.902l.185-.18.511-.002c-1.746 1.757-3.463 2.96-4.99 3.926l-.675.001zm-3.308 0c2.317-1.307 4.895-2.414 6.054-3.62-3.349.486-5.555.245-7.01-.308l1.31.001c1.273.253 2.992.308 5.306-.001l1.186.001-.532.555c-.633.658-1.635 1.269-2.735 1.868-.892.487-1.884.984-2.851 1.508l-.728-.004zm95.523-3.927c-3.949 4.757-10.754 3.277-12.02 2.458-.726-.47-1.804-1.256-2.685-2.455l.451-.003c.813 1.035 1.765 1.726 2.43 2.157 1.174.76 7.503 2.137 11.338-2.157h.486zm-7.398 0c-.063.102-.126.201-.189.296-.199-.1-.379-.2-.542-.299l.731.003zm-37.954 0c-.097.485-.24.979-.431 1.48a67.627 67.627 0 0 0-1.33-1.477l.484-.003c.238.256.474.517.708.779.08-.262.148-.522.203-.78l.366.001zm-20.352 0c.015.03.033.057.052.083.302.421.632.902.151 1.624-.481.722-.707 1.879-3.659 1.879-3.266 0-4.67-1.866-5.952-3.587l.45.001c.272.364.551.729.858 1.077 1.037 1.185 2.345 2.15 4.644 2.15 1.434 0 2.138-.281 2.534-.592.2-.157.341-.335.462-.523.137-.212.241-.422.363-.604.343-.513.152-.803-.143-1.216a1.579 1.579 0 0 1-.163-.293l.403.001zm-.699 0c-.391.29-.955.575-1.583.467-.251-.043-.47-.225-.645-.396l-.068-.067.534-.004c.087.061.166.1.24.113.285.049.562-.007.814-.113h.708z"/><path d="M179.879 56.805c.723-1.412 1.301-3.138 1.653-5.244l.365-.002c-.345 2.093-.908 3.82-1.613 5.248l-.405-.002zm-2.7 0c.925-1.545 1.41-3.344 1.533-5.249l.356.003c-.115 1.89-.576 3.687-1.461 5.245l-.428.001zm-4.519 0c.75-.588 1.297-1.601 1.297-2.406 0-1.811-.903-1.969-1.487-2.838l.447-.002c.061.072.125.14.189.205l.318.317c.471.477.893 1.046.893 2.318 0 .723-.442 1.709-1.12 2.405l-.537.001zm-2.176 0l.012-.009c1.232-.851 1.178-1.636.792-2.463a6.464 6.464 0 0 0-.378-.679c-.147-.235-.303-.466-.454-.697-.291-.444-.591-.921-.743-1.4l.381.002c.603 1.629 3.054 3.464.976 5.249l-.586-.003zm-2.354 0c-.609-1.392-1.386-2.736-2.514-4.353.182-.302.359-.601.526-.895l.413.002c-.162.288-.332.582-.511.88 1.11 1.61 1.876 2.962 2.48 4.368l-.394-.002zm-2.984 0a31.27 31.27 0 0 0-1.757-2.722c-.451.32-.951.667-1.689 1.059-.904.478-2.154 1.016-4.081 1.642l-.073.025-1.131-.004a79.26 79.26 0 0 1 1.092-.361c3.828-1.247 4.915-2.121 5.964-2.858a31.397 31.397 0 0 1 2.088 3.218l-.413.001zm-1.821 0a11.98 11.98 0 0 1-.12-.757s-.166.339-.377.761l-.402-.004c.409-.818.996-2.019.996-2.019l.141 1.221c.002.012.04.333.128.801l-.366-.003zm-11.398 0c2.977-1.906 7.304-3.256 9.287-5.226l-.012-.018.431-.002.043.067-.208.208c-.65.644-1.52 1.213-2.483 1.744-.958.528-2.031 1.033-3.111 1.546-1.145.546-2.272 1.095-3.268 1.685l-.679-.004zm-4.008 0c1.417-.793 2.653-2.558 2.857-5.248l.352.002c-.17 2.502-1.19 4.283-2.504 5.246h-.705zm-5.051 0c-1.207-.654-1.809-1.452-1.809-1.452l2.362-.646s.632.797 2.108.766c2.394-.048 2.916-1.457 3.027-3.913l.36-.001c-.109 2.504-.663 4.218-3.381 4.274-.806.016-1.397-.195-1.792-.42a2.549 2.549 0 0 1-.429-.304l-1.589.433c.192.184.46.409.799.637.326.218.718.437 1.178.622l-.834.004zm-7.504 0a113.929 113.929 0 0 0-3.822-1.862c-2.592-1.215-4.199-2.299-5.082-3.386l.471.002c.871.959 2.379 1.942 4.763 3.058a107.39 107.39 0 0 1 4.455 2.189l-.785-.001zm-11.271 0c-.872-2.166-1.1-4.117-1.1-4.744 0-.146.007-.314.021-.5l.36-.002a6.262 6.262 0 0 0-.021.502c0 .624.235 2.589 1.128 4.743l-.388.001zm-12.92 0a2.562 2.562 0 0 1-.013-.261 2.18 2.18 0 0 1 .281-1.115c.409-.745 1.338-1.552 3.192-2.725.567-.361 1.194-.734 1.862-1.148l.676.003c-.851.538-1.642 1.002-2.346 1.447-3.048 1.931-3.388 2.749-3.291 3.803l-.361-.004zm-2.503 0a11.336 11.336 0 0 1-.003-.263c0-2.086 2.122-3.641 4.519-4.986l.728.003c-.224.127-.446.249-.667.374-2.387 1.352-4.221 2.796-4.221 4.609 0 .091.001.177.004.261l-.36.002zm105.729-5.246c-.072.25-.148.526-.226.812-.244-.103-.601-.388-.997-.812h.503c.098.095.191.178.276.247l.07-.245.374-.002zm-8.429 0c-2.537 1.279-4.87.989-6.062 1.08-.714.055-2.352-.229-4.06-1.076l.844-.004c1.372.57 2.607.767 3.188.723.485-.038 1.157-.013 1.955-.054.776-.041 1.664-.145 2.608-.439.214-.066.432-.142.654-.23h.873zm-48.46 0c-.324.559-.747.955-1.64.832a1.278 1.278 0 0 1-1.034-.83l.399-.002a.914.914 0 0 0 .684.477c.598.083.911-.104 1.172-.481l.419.004z"/><path d="M174.783 62.032c1.866-.987 3.738-2.562 5.096-5.223l.405-.004c-1.267 2.567-2.998 4.174-4.763 5.223l-.738.004zm-7.639 0c-.606-.266-1.636-.801-2.416-1.659-.802-.883-1.22-2.578-1.403-3.565l.366-.003c.183.96.578 2.529 1.304 3.327.547.602 1.236 1.042 1.798 1.333.138.071.266.133.381.185a13.1 13.1 0 0 0-.511-1.657c-.319-.855-.8-1.931-1.517-3.189l.413.001c1.546 2.757 1.96 4.633 2.059 5.223l-.474.004zm-2.63 0c-1.533-1.281-2.228-2.865-2.382-4.523l-.009-.105.048-.093.256-.51.401.004c-.106.216-.224.448-.338.671.157 1.679.896 3.293 2.617 4.56l-.593-.004zm-7.99 0c-1.556-1.258-3.418-2.101-4.676-2.73.578-1.064 1.595-1.516 4.567-2.501l1.131.004c-3.416 1.117-4.575 1.549-5.181 2.353.566.277 1.221.596 1.9.969.834.456 1.714 1 2.519 1.656.1.082.2.166.298.253l-.558-.004zm-2.412 0a18.363 18.363 0 0 0-2.086-1.07c.077.339.18.649.385 1.066l-.397.004c-.278-.603-.356-1.014-.463-1.662 1.303.535 2.371 1.091 3.241 1.661l-.68.001zm-5.775 0c.121-.439.244-.816.328-1.133.086-.328.109-.515.068-.677-.006-.006-.03-.028-.105-.048-.164-.042-.462-.048-.977.022-1.598.222-2.814 1.053-3.618 1.836h-.5c.83-.888 2.197-1.932 4.068-2.191 2.04-.283 1.595.478 1.109 2.191h-.373zm-20.448 0c-1.881-1.458-3.065-3.418-3.796-5.231l.389.004c.766 1.844 2.015 3.829 4.016 5.228l-.609-.001zm49.718-5.227c-1.42 2.501-3.934 4.388-7.857 5.073-.498-2.017-.961-3.573-1.62-5.077l.394.004c.599 1.398 1.038 2.846 1.493 4.658 3.497-.688 5.803-2.399 7.161-4.662l.429.004zm-4.41 0c-.708.726-1.676 1.138-2.667.603l-.517-.278.471-.325h.586c-.11.098-.234.193-.371.287.67.361 1.376.165 1.961-.291l.537.004zm-20.591 0c-.883.529-1.662 1.089-2.256 1.713l-.122.13-.178-.02c-.332-.037-.742-.103-1.223-.125a6.105 6.105 0 0 0-1.589.125c-1.178.251-2.637.936-4.328 2.646l-.22.222-.25-.187c-2.438-1.813-3.864-2.858-7.076-4.507l.785.003c2.807 1.48 4.216 2.513 6.505 4.216 3.462-3.503 6.081-2.901 7.437-2.751.503-.529 1.132-1.012 1.836-1.464l.679-.001zm-3.982 0c-.768.563-1.636.846-2.493.833a7.002 7.002 0 0 1-3.263-.833h.834a6.84 6.84 0 0 0 2.434.475c.585.008 1.199-.152 1.783-.478l.705.003zm-37.091 0c.021.235.063.476.103.744.214 1.456-2.833 3.027-2.966-.747l.36.003c.109 3.397 2.368 1.596 2.25.796-.042-.288-.087-.547-.107-.796h.36z"/><path d="M168.24 72.504c1.38-3.344 1.684-6.736 1.382-8.428l-.061-.339.336-.075c1.32-.291 3.1-.692 4.885-1.633l.738.003c-2.014 1.189-4.073 1.655-5.545 1.981.304 1.698.013 5.109-1.353 8.494l-.382-.003zm-1.961 0c1.207-2.288 1.783-5.199 1.197-8.822-1.221-.456-2.196-1.017-2.962-1.654l.594.004c.716.531 1.602.998 2.687 1.385.643 3.725.094 6.727-1.109 9.09l-.407-.003zm-8.991 0c.792-1.501 2.074-3.286 2.074-5.133 0-2.35-1.262-4.059-2.839-5.336l.559-.003c1.471 1.292 2.64 3.014 2.64 5.339 0 1.442-.721 2.822-1.386 4.001-.221.391-.442.768-.637 1.13l-.411.002zm-1.683 0c.36-.615.704-1.14.85-1.386.113-.188.497-.689.845-1.399.341-.694.639-1.574.618-2.545-.032-1.511-.843-3.373-3.806-5.145l.68.003c6.153 4.023 2.372 8.599 1.972 9.269-.132.222-.425.671-.746 1.206l-.413-.003zm-3.301 0c1.499-1.758 2.292-3.582 2.264-4.695-.032-1.282-.129-1.747-1.429-3.816-.569-.905-.908-1.492-1.125-1.961h.397c.21.424.527.967 1.033 1.771 1.321 2.1 1.45 2.628 1.484 3.997.03 1.182-.747 2.975-2.15 4.7l-.474.004zm-1.885 0a2.557 2.557 0 0 1-.03-.664l.041-.143c.096-.18.209-.354.298-.557.077-.179.136-.379.148-.642.022-.536-.154-1.377-.884-2.85-.745-1.504-1.283-2.399-1.572-3.144-.317-.813-.359-1.482-.09-2.45a.324.324 0 0 1 .007-.025l.373.003a6.192 6.192 0 0 0-.033.118c-.498 1.796.16 2.356 1.637 5.339 1.477 2.982.835 3.624.434 4.377-.019.261-.002.469.04.64l-.369-.002zm-9.663 0c-.868-1.961-.47-3.903-.218-5.384 3.949 2.277 3.773 4.073 3.805 4.698.995-.225 1.461-1.988 1.461-4.313 0-2.325-1.574-4.04-2.537-5.179.081-.096.17-.196.266-.298l.5.004c-.104.1-.201.2-.291.299.192.225.399.471.61.735.291.369.588.776.853 1.222.535.896.957 1.97.957 3.217 0 2.221-.415 4.365-1.74 4.664l-.417.094-.022-.426c-.008-.148-.002-.362-.048-.637a2.91 2.91 0 0 0-.34-.936c-.379-.678-1.159-1.559-2.791-2.566-.046.27-.091.553-.129.846a9.85 9.85 0 0 0-.089 1.489c.02.802.168 1.636.565 2.47l-.395.001zm-3.766 0a23.288 23.288 0 0 0-3.008-1.033c-5.552-1.526-8.342-.358-9.722 1.031l-.495.002c1.376-1.581 4.293-3.034 10.313-1.38 1.631.448 2.867.938 3.784 1.384l-.872-.004zm-15.582 0c.369-.517.897-1.012 1.645-1.469 6.442-3.924 13.383-.33 16.017.736-.361-2.016-.06-3.262.241-4.78-5.404-2.751-3.447-1.053-9.377-3.731-.76-.342-1.439-.76-2.045-1.228h.609c.483.339 1.01.643 1.583.901 2.934 1.325 3.915 1.568 4.833 1.819.958.262 1.842.536 4.561 1.918l.241.124-.053.266c-.147.746-.295 1.426-.362 2.167a9.03 9.03 0 0 0 .123 2.48l.115.641-.605-.244c-.656-.266-1.58-.69-2.7-1.114-1.103-.419-2.398-.839-3.811-1.105-2.812-.531-6.062-.445-9.182 1.457-.599.365-1.047.755-1.378 1.16l-.455.002zm46.21-10.472c.022.126.029.193.029.193s-.197-.063-.503-.196l.474.003z"/><path d="M168.622 72.504c-1.887 4.681-5.827 9.311-13.084 9.311-12.509 0-15.715-7.637-15.715-7.637s-.76-.784-2.832-1.673l.869-.001c1.579.773 2.207 1.409 2.267 1.472 0 0 .219.513.687 1.191.481.691 1.249 1.62 2.402 2.55 2.298 1.856 6.147 3.738 12.322 3.738 6.989 0 10.832-4.431 12.702-8.954l.382.003zm-1.936 0c-2.703 5.309-8.706 7.392-11.925 7.202-4.881-.288-11.045-4.841-13.533-6.332a6.208 6.208 0 0 1-.472-.871l.395.001c.097.201.208.403.335.605 1.252.758 3.375 2.235 5.786 3.568 2.455 1.356 5.156 2.532 7.511 2.671 3.088.183 8.83-1.802 11.496-6.848l.407.004zm-8.988 0c-.098.179-.19.358-.272.532-.218.451-.351.851-.38 1.181.126-.062 1.167-.61 1.167-.61s-.709 1.203-.829 1.365a4.52 4.52 0 0 1-.498.565c-.409.386-1.065.824-1.845.646-.605-.138-.653-.715-.586-1.124.073-.434.293-.961.547-1.467.185-.368.397-.744.602-1.092l.414.004c-.788 1.314-1.745 3.136-.897 3.329 1.195.272 2.139-1.318 2.139-1.318s-.578.318-.578-.185c0-.539.255-1.154.606-1.823l.41-.003zm-4.921 0c-.292.355-.611.711-.955 1.058l-.18.181-.231-.11c-.091-.044-.2-.091-.307-.154a1.412 1.412 0 0 1-.379-.311 1.46 1.46 0 0 1-.306-.664h.369c.134.543.522.683.778.805.263-.263.508-.532.738-.802l.473-.003zm-28.516 0c-1.082 1.088-1.298 2.314-1.298 2.485 0 .391.151 3.263 2.439 3.503 2.29.242 2.844-1.653 4.111-2.135 2.819-1.073 4.802.843 4.802.843l-1.717.901s-.904-.421-1.568-.421c-2.377 0-2.602 3.503-6.019 3.503-2.114 0-4.115-2.29-4.35-5.037-.101-1.177-.092-2.463.748-3.642h.454c-.931 1.138-.947 2.404-.844 3.611.226 2.64 2.135 4.709 3.992 4.709 1.55 0 2.369-.775 3.132-1.631.195-.22.384-.442.575-.648.194-.211.399-.417.625-.597.456-.366.992-.627 1.687-.627.395 0 .831.122 1.15.23.162.055.302.11.402.152l1.07-.562a4.59 4.59 0 0 0-.817-.432c-.782-.319-1.887-.514-3.195-.016-.252.096-.484.268-.74.5-.267.244-.531.52-.824.774-.631.546-1.437 1.016-2.711.883-1.327-.139-2.022-1.054-2.373-1.918a5.655 5.655 0 0 1-.389-1.943c0-.252.221-1.398 1.163-2.481l.495-.004zM107.609 5.815c.176-1.68.158-3.433-.128-5.236h-.363a19.71 19.71 0 0 1 .129 5.236h.362zm-2.323 0a20.541 20.541 0 0 0-.03-5.174c-.003-.021-.008-.042-.01-.063l-.362.001.016.114c.112.77.32 2.793.025 5.125l.361-.003zm-3.209 0a9.182 9.182 0 0 0 .104-3.005 9.009 9.009 0 0 0-.573-2.232l-.386.001a8.81 8.81 0 0 1 .602 2.274 8.72 8.72 0 0 1-.12 2.967l.373-.005zm-2.045 0c.145-.592.237-1.296.261-2.129.034-1.213-.221-2.241-.656-3.111l-.406.004c.46.859.738 1.88.702 3.096-.024.851-.123 1.557-.27 2.141l.369-.001zm-6.261 0c-1.04-2.529-3.384-4.628-6.615-3.102-2.222 1.05-2.272 2.275-1.931 3.105l.383-.003c-.34-.692-.383-1.793 1.7-2.777 2.893-1.365 5.051.402 6.072 2.774l.391.003zm-6.105 0a1.067 1.067 0 0 0-.294-.267c-1.005-.603-1.506-.26-1.725.267h.397c.181-.248.516-.315 1.077.003l.545-.003zm-5.021 0c-.058-.485-.062-.895-.018-1.195.096-.686.45-2.468 1.39-4.045L83.6.579c-.894 1.584-1.231 3.309-1.331 3.989-.045.317-.042.743.019 1.248l.357-.001zm-2.072 0c-.076-1.83.402-3.614 1.347-5.234l-.416-.002c-.906 1.625-1.369 3.402-1.294 5.236h.363zm-26.253 0c.69-.461 1.246-.834 1.653-1.088.72-.45 2.722-2.08 5.545-4.145l-.603-.003c-2.609 1.922-4.449 3.416-5.131 3.844-.497.309-1.218.797-2.128 1.397l.664-.005zm-17.486 0c3.549-1.746 6.798-3.678 9.249-5.233L45.41.579c-2.541 1.594-5.834 3.522-9.384 5.232l.808.004zm-6.676 0a72.888 72.888 0 0 0 2.944-1.622A108.04 108.04 0 0 0 38.869.581l-.643-.002c-2.574 1.7-5.642 3.607-8.85 5.235l.782.001zm-5.754 0c1.891-.886 3.553-1.859 4.907-2.594 1.283-.695 2.888-1.634 4.559-2.643l-.702.001a111.128 111.128 0 0 1-4.028 2.327c-1.519.824-3.427 1.951-5.61 2.908l.874.001zm-13.252 0C10.486 4.772 9.973 3.307 9.78.982c2.169.949 4.395 2.586 9.679-.406L18.7.579c-2.091 1.096-3.636 1.402-4.867 1.346-.79-.036-1.467-.221-2.095-.463-.648-.25-1.233-.555-1.814-.809L9.755.579h-.369l.036.432c.185 2.243.668 3.721 1.317 4.805l.413-.001zm-2.566 0c-.84-1.971-.912-3.85-.803-5.236h-.361c-.104 1.391-.034 3.263.773 5.234l.391.002zm-1.04 0a17.609 17.609 0 0 1-2.157-1.581C4.293 3.289 3.194 2.078 2.383.578l-.406.001c1.276 2.46 3.306 4.172 4.906 5.234l.663.002zm-2.617 0C2.686 4.2 1.269 2.414.397.581L0 .579c.838 1.828 2.195 3.612 4.324 5.238l.605-.002zM95.917.579c-.166.659-.706.968-1.224.813-.605-.182-.793-.501-.806-.808l-.364-.005c-.002.441.226.905 1.067 1.157.805.241 1.514-.298 1.694-1.157h-.367zm-4.466 0c.217.088.449.162.698.225.065-.08.128-.156.182-.226l-.88.001zm-60.323 0c-.113.06-.229.118-.349.177-3.373 1.66-5.423 1.669-6.785 1.156-.689-.259-1.229-.659-1.697-1.096a6.968 6.968 0 0 1-.245-.24l-.499.003c1.448 1.537 3.634 3.33 9.384.5.357-.177.679-.342.97-.497l-.779-.003zm-16.035 0a6.54 6.54 0 0 1-1.494.003L12 .579c1.747.625 3.345.457 4.662 0h-1.569z"/><path d="M104.099 16.287c1.585-2.888 3.094-6.476 3.511-10.472h-.363c-.308 2.911-1.206 5.607-2.292 7.976-.402.88-.83 1.713-1.262 2.494l.406.002zm-2.179 0c.061-.076.117-.148.163-.212.391-.545.373-.95.373-.95s-.464.009-.919.487a8.085 8.085 0 0 1-.793.674l.575.001c.204-.168.367-.312.477-.426-.089.118-.201.262-.335.427l.459-.001zm-7.293 0c.156-.011.314-.025.476-.042 7.468-.767 9.654-6.143 10.183-10.434l-.361.004c-.526 4.175-2.667 9.334-9.86 10.073-8.746.899-12-6.564-12.42-10.072l-.358-.001c.387 3.305 3.168 9.938 10.404 10.472h1.936zm-7.194 0c-3.264-1.802-5.512-5.03-6.451-8.099a9.425 9.425 0 0 1-.41-2.37l-.363-.003c.034.818.173 1.647.429 2.478.906 2.966 3.022 6.101 6.094 7.999l.701-.005zm14.273-10.472c-.911 4.106-4.908 6.294-8.634 6.192-2.15-.059-3.245-1.378-3.96-2.849-.367-.753-.621-1.523-.854-2.145a7.501 7.501 0 0 0-.371-.859 2.35 2.35 0 0 0-.22-.34l-.546.001a1.7 1.7 0 0 0 .065.041c1.124.673 1.189 6.381 5.877 6.51 3.874.106 8.103-2.199 9.015-6.553l-.372.002zm-2.042 0c-.634 2.506-2.183 2.811-2.78 2.863-.739.064-1.993.673-2.859-2.149a7.712 7.712 0 0 0-.256-.714h-.388c.114.264.215.541.301.82.447 1.45 1.025 2.136 1.695 2.387.327.122.64.126.903.101.234-.022.45-.071.635-.087.753-.066 2.459-.478 3.118-3.219l-.369-.002zm-14.017 0l-.016.043a.413.413 0 0 1-.022-.042l-.384-.001c.203.493.539.843.645.939-.029-.357.01-.722.174-.943l-.397.004zm-31.992 0c-1.98 1.309-4.867 3.15-8.334 4.875-5.055 2.514-11.313 4.768-17.775 4.768-6.477 0-10.702-1.561-13.359-3.177a14.738 14.738 0 0 1-2.912-2.292c-.647-.667-.989-1.168-1.114-1.318l-.142-.103C7.972 7.732 6.298 6.807 4.928 5.82l-.605-.005C5.785 6.932 7.61 7.971 9.883 8.9c.506.611 4.586 6.917 17.663 6.917 11.393 0 22.112-6.919 26.773-10.006l-.664.004zm-17.63 0c-5.992 2.883-12.722 5.151-17.818 4.155 3.81-.408 8.019-2.102 11.951-4.154l-.781-.001c-4.497 2.283-9.263 4.022-13.316 3.881 5.52 2.335 13.738-.411 20.773-3.879l-.809-.002zm-12.495 0c-3.169 1.39-6.918 2.423-10.894 1.644-.527-.445-1.04-.951-1.485-1.647l-.413.003c.5.839 1.1 1.441 1.739 1.979l.09.017c3.444.675 6.709.023 9.567-1.041a30.689 30.689 0 0 0 2.27-.958l-.874.003zm-15.335 0c.07.167.144.336.225.506l-.372-.209a13.759 13.759 0 0 1-.5-.3l-.664.003c1.249.828 2.236 1.263 2.4 1.351a10.238 10.238 0 0 1-.698-1.352l-.391.001z"/><path d="M100.815 21.524c.846-1.259 2.087-3.046 3.284-5.234l-.406-.003a52.527 52.527 0 0 1-1.99 3.268c-.498.758-.951 1.418-1.316 1.968l.428.001zm-3.022 0c1.711-2.335 3.391-4.293 4.127-5.236l-.459-.001c-.831 1.042-2.468 2.975-4.116 5.24l.448-.003zm-4.202 0c.764-.446 1.545-.895 2.201-1.334 1.832-1.229 4.361-2.945 5.528-3.903h-.576c-1.241.963-3.465 2.472-5.153 3.605-.798.535-1.782 1.084-2.698 1.633l.698-.001zm-2.561 0c1.336-1.005 3.211-2.119 5.503-3.598.434-.218.763-.719.763-.719s-.492-.095-1.048.07c-3.42.887-6.396.339-8.815-.993l-.701.003c2.577 1.596 5.828 2.317 9.605 1.338-2.513 1.623-4.527 2.809-5.884 3.896l.577.003zm1.661-5.237c.613.046 1.256.047 1.936 0h-1.936z"/><path d="M100.387 21.524a.371.371 0 0 0-.028.041c-.367.553-.663 1.02-.819 1.364l-.199.447.486.057c1.867.218 2.054 1.286 1.614 2.643-.353 1.091-1.11 2.253-1.687 3.013-.37-1.243-.894-1.821-1.685-2.611l-.394-.393-.197.519c-.792 2.094-.639 3.406-.056 4.282.284.428.653.721.998.942.202.13.405.237.586.336a1.61 1.61 0 0 0-.042.42c0 .111.004.235-.002.371-.006.12-.019.252-.052.396a.563.563 0 0 1-.33.412c-.096.05-.213.093-.36.14l-.278.086c-1.968-1.937-1.915-3.626-1.76-6.048.035-.418-.173-.824-.173-.824s-.368.329-.516.662c-3.709 8.794 1.935 11.209 4.152 11.209 2.108 0 4.34-1.628 4.34-3.567 0-.926-.35-1.673-.682-2.277-.16-.291-.326-.559-.455-.813-.124-.244-.195-.437-.213-.602-.09-.872.033-2.324 1.831-2.858 1.155-.342 1.505.481 1.612.999-.138.011-.3.034-.463.079-.471.133-1.032.487-1.032 1.304 0 .381.121.681.284.943.076.121.163.239.259.36.085.108.176.22.267.34.335.443.667 1.002.667 2.077 0 2.124-1.812 4.964-6.447 4.964-4.534 0-6.872-3.394-6.641-8.507.116-2.559 1.995-5.894 4.089-8.884.242-.347.487-.687.731-1.021l-.446-.001c-2.295 3.162-4.6 6.967-4.732 9.89-.237 5.231 2.181 8.882 6.999 8.882 4.816 0 6.806-2.983 6.806-5.323 0-2.341-1.477-2.533-1.477-3.72 0-1.187 1.54-1.026 1.54-1.026s-.063-2.309-2.12-1.7c-2.053.61-2.181 2.309-2.085 3.239.096.93 1.348 1.988 1.348 3.655 0 1.668-1.99 3.208-3.98 3.208-1.991 0-7.417-2.181-3.821-10.711-.161 2.501-.225 4.361 2.023 6.478.674-.225 1.253-.289 1.413-.963.159-.673-.064-1.122.223-1.411-.93-.576-3.21-1.218-1.668-5.29.897.898 1.413 1.474 1.765 3.142 1.123-1.283 4.655-6.285.289-6.798.159-.355.497-.878.946-1.548l-.428-.004zm-7.492 0c-.318.191-.627.381-.916.57-.57.372-1.091.758-1.464 1.149-.364.382-.65.837-.603 1.341.09.966.943 1.249 1.551 1.322.087.01.174.017.26.02l-.745.744c-.526-.095-2.138-.519-2.114-2.146.012-.962.642-1.815 1.984-2.856.059-.047.119-.093.182-.14l-.577-.004c-1.243.994-1.933 1.907-1.949 2.995-.033 2.277 2.601 2.533 2.601 2.533l1.54-1.539s-2.247.417-2.376-.962c-.089-.959 1.575-1.995 3.321-3.022l-.695-.005zM76.175 4.433c-1.73-1.82-3.212-2.789-4.282-3.41-3.15-1.826-6.217-.683-6.655-.528C69.164.97 72.033 3.9 72.033 3.9l-.385.385s-1.829-1.251-3.242-2.148c-1.413-.899-6.423-.578-6.423-.578s.515.224 1.285.609c-.64.866-1.637.962-1.637.962s2.088.029 2.324 1.3l.365.003c-.113-.826-.818-1.24-1.397-1.437.219-.152.441-.352.633-.614l.255-.343-.342-.172c1.556-.023 3.905.04 4.743.572.995.633 2.323 1.526 3.015 1.994h.779l.531-.53-.247-.253c-.01-.012-.748-.764-1.985-1.575-.906-.595-2.093-1.228-3.468-1.62.226-.035.471-.064.734-.081a7.257 7.257 0 0 1 4.142.96c.988.573 2.356 1.461 3.967 3.102l.495-.003zm-10.51 0l-.205-1.018s-.05.446-.119 1.015l.324.003z"/><path d="M85.177 20.142c-3.212-8.3-6.392-12.968-9-15.709h-.498c2.602 2.655 5.831 7.273 9.109 15.705l.389.004zm-3.936 0c-.112-1.939-.435-4.084-1.036-6.446.18 2.358.195 4.5.084 6.443l.361.003c.033-.594.055-1.208.064-1.839.076.633.13 1.247.165 1.841l.362-.002zm-3.791 0c.09-.797.134-1.612.134-2.447 0-1.55-.268-3.199-.801-4.943.194.726.292 1.671.292 2.834 0 1.653-.178 3.172-.529 4.56l.372-.004c.114-.452.207-.922.282-1.403a22.27 22.27 0 0 1-.113 1.406l.363-.003zm-8.85 0c2.68-3.189 3.847-6.974 1.631-12.187 1.832 4.754-.696 8.68-4.734 12.186l.54.001c2.505-2.227 4.426-4.668 4.992-7.406.104 2.671-.87 4.885-2.452 6.865-.147.184-.299.365-.455.544l.478-.003zm-5.656 0c3.67-2.864 6.014-6.59 5.294-13.467-.255-1.559-.668-2.043-.668-2.043s-.043 1.207-.048 2.072c-.049 2.25-1.256 8.067-7.465 13.442l.548-.004c6.012-5.362 7.226-11.116 7.278-13.43.726 6.968-1.733 10.593-5.532 13.428l.593.002zm-4.697 0c5.259-3.851 8.791-8.843 7.653-14.485a72.149 72.149 0 0 0-.235-1.224h-.323c-.045.385-.1.831-.149 1.233-.246 1.42-3.191 4.16-7.864 4.16-2.69 0-6.705.043-7.407 4.921-.602-.09-1.169-.18-1.518-.238a8.455 8.455 0 0 1 1.009-2.523c.899-1.486 2.523-3.084 5.464-3.53 1.568-.238 2.431.032 3.562-.128 3.214-.454 5.85-1.447 5.895-3.619a1.714 1.714 0 0 0-.014-.272l-.367-.004c.017.082.024.172.022.269-.039 1.826-2.289 2.804-5.587 3.27-1.133.161-1.995-.11-3.564.129-6.132.929-6.839 6.702-6.839 6.702s1.125.193 2.249.353c.513-4.907 4.301-4.972 7.095-4.972 4.758 0 7.931-2.788 8.219-4.456 1.128 5.592-2.535 10.586-7.923 14.415l.622-.001zm-9.892 0c.88-.161 1.779-.355 2.714-.593 9.053-2.309 12.424-8.69 13.579-11.031-5.714 6.99-10.531 9.748-22.088 10.55-4.21.292-7.824.678-10.829 1.075l2.921-.001c2.352-.263 4.996-.513 7.933-.716 9.929-.689 14.963-2.825 19.815-7.823-1.964 2.724-5.423 6.068-11.421 7.599-1.698.431-3.285.72-4.838.94h2.214zm-26.765 0c.389-1.694 1.738-3.254 1.738-3.254s-1.092-.353-1.925-.643c-1.289 1.404-1.795 2.679-1.931 3.897h.363c.129-1.096.579-2.23 1.675-3.479.425.145.883.296 1.217.406a10.69 10.69 0 0 0-.845 1.334c-.266.504-.525 1.107-.66 1.74l.368-.001zM71.226 4.433l.464.317.318-.317h-.782z"/><path d="M87.041 25.378a110.451 110.451 0 0 0-1.863-5.232l-.39-.004c.625 1.6 1.249 3.342 1.872 5.235l.381.001zm-1.936 0c-1.081-3.176-1.396-4.42-1.396-4.42l-.704.032s-.403 2.577-.351 4.387l.361.001c-.056-1.777.346-4.332.346-4.332s.305 1.22 1.365 4.333l.379-.001zm-4.099 0c.244-1.554.345-3.292.234-5.233l-.361-.003c.113 1.951.011 3.691-.237 5.239l.364-.003zm-.994 0c.303-1.564.531-3.302.639-5.236h-.362a38.268 38.268 0 0 1-.645 5.236h.368zm-1.653 0c.099-.428.179-.831.244-1.21-.145.409-.298.814-.46 1.214l.216-.004zm-2.271 0a18.629 18.629 0 0 0 1.362-5.237l-.363.001a18.334 18.334 0 0 1-1.386 5.234l.387.002zm-1.573 0a21.86 21.86 0 0 0 1.128-1.914c.555-1.014.977-2.12 1.273-3.318l-.369-.004a13.4 13.4 0 0 1-1.221 3.153c-.381.73-.797 1.425-1.246 2.086l.435-.003zm-11.921 0c2.275-1.652 4.409-3.339 6.004-5.237l-.475.001c-1.152 1.322-2.57 2.544-4.122 3.738a80.329 80.329 0 0 1-2.031 1.501l.624-.003zm-3.659 0a99.357 99.357 0 0 0 3.257-2.213c1.358-.966 2.666-1.971 3.846-3.021l-.54-.002c-2.125 1.843-4.669 3.571-7.215 5.239l.652-.003zm-4.494 0c.399-.239.796-.472 1.191-.7 2.411-1.393 4.725-2.639 6.699-4.077.209-.152.413-.305.613-.462l-.593.003c-2.472 1.843-5.511 3.355-8.61 5.237l.7-.001zm-1.879 0c3.345-1.598 5.976-3.393 8.042-5.235l-.547-.001c-2.138 1.855-4.869 3.653-8.351 5.235l.856.001zm-4.081 0c3.451-1.344 6.871-3.118 9.767-5.237l-.623.001c-3.016 2.144-6.574 3.923-10.131 5.236h.987zm-24.529 0c-.793-.485-1.294-.959-1.459-1.34 6.712-1.416 12.034-2.227 16.696-2.758 3.196-.363 6.054-.556 9.167-1.135l-2.215-.003c-2.31.327-4.552.504-6.993.782-4.673.531-10.003 1.343-16.73 2.763l-.429.09.174.403c.158.364.548.777 1.142 1.198h.647zm-2.629 0c-.409-.445-.63-.781-.692-.915l-.141-.311-.317.125c-.491.192-1.531.542-2.831 1.103l.944-.002c.916-.371 1.636-.617 2.017-.767.062.138.238.41.539.763l.481.004zm-7.254 0c1.589-.901 3.446-1.747 5.622-2.508l.279-.099-.043-.293c-.113-.776-.187-1.546-.093-2.339l-.361.003c-.091.816-.017 1.605.098 2.389-2.445.856-4.498 1.819-6.222 2.848l.72-.001zm17.661-5.236c-5.243.693-8.634 1.421-10.103 1.747-.189-.558-.171-1.159-.036-1.744l-.369-.003c-.13.612-.144 1.254.064 1.862l.104.306.314-.069c1.718-.382 6.07-1.314 12.948-2.095l-2.922-.004z"/><path d="M88.674 30.614c-.232-.734-.467-1.494-.704-2.279a134.402 134.402 0 0 0-.929-2.953l-.38-.004c.322.979.644 1.999.965 3.06.225.75.449 1.475.672 2.178l.376-.002zm-1.704 0a221.27 221.27 0 0 1-1.864-5.233l-.38-.003a215.596 215.596 0 0 0 1.859 5.234l.385.002zm-2.611 0c-.765-.266-1.117-.659-1.117-.659l-.22-4.41c-.004-.054-.005-.107-.008-.162l-.359-.005c.004.062.006.123.008.184l.224 4.536s.118.134.187.194a2.544 2.544 0 0 0 .447.326l.838-.004zm-4.935 0c.676-1.434 1.257-3.168 1.582-5.24l-.364.004c-.335 2.086-.931 3.818-1.618 5.237l.4-.001zm-.899 0c.171-.448.338-.921.503-1.422.368-1.131.707-2.4.983-3.818l-.368.004a30.852 30.852 0 0 1-1.505 5.238l.387-.002zm-1.816 0c.296-.75.563-1.517.802-2.302.359-1.077.642-2.056.847-2.935l-.215.001a27.256 27.256 0 0 1-2.815 5.24l.436-.004c.482-.712.927-1.444 1.338-2.195a29.017 29.017 0 0 1-.78 2.192l.387.003zm-3.777 0a45.695 45.695 0 0 0 1.812-2.665c.52-.824.97-1.681 1.345-2.568l-.389-.003c-.358.82-.777 1.614-1.26 2.381a45.431 45.431 0 0 1-1.957 2.854l.449.001zm-3.31 0a37.937 37.937 0 0 0 1.726-1.53 19.674 19.674 0 0 0 3.167-3.707l-.436.001a19.277 19.277 0 0 1-2.976 3.443 36.447 36.447 0 0 1-2.054 1.796l.573-.003zm-14.163 0c2.236-1.839 4.762-3.519 7.133-5.239l-.622.003c-1.166.841-2.365 1.673-3.54 2.522-1.214.873-2.411 1.77-3.529 2.713l.558.001zm-4.26 0a50.763 50.763 0 0 1 1.985-1.432c1.805-1.248 3.786-2.505 5.751-3.799l-.653-.005c-2.726 1.792-5.456 3.512-7.682 5.237l.599-.001zm-3.952 0c.509-.44.927-.788 1.213-1.034 1.93-1.667 3.968-3.003 5.982-4.203l-.699.001c-1.857 1.127-3.731 2.387-5.519 3.93-.342.294-.871.735-1.522 1.304l.545.002zm-37.105 0c2.528-2.72 5.917-4.342 8.144-5.239l-.945.003-.432.194c-1.509.679-3.305 1.631-4.981 2.934a16.952 16.952 0 0 0-2.266 2.104l.48.004zm-2.282 0c1.357-1.809 3.339-3.612 6.209-5.239l-.72.003c-2.732 1.633-4.632 3.432-5.938 5.239l.449-.003zm43.847-5.236c-2.948 1.339-6.435 2.523-10.553 3.453-12.191 2.752-17.962-1.446-19.83-3.457l-.482.004c1.729 2.02 7.62 6.686 20.391 3.803 4.474-1.009 8.21-2.321 11.328-3.806l-.854.003zm-4.213 0c-4.184 1.544-8.369 2.445-11.677 2.541-5.45.156-9.719-1.233-11.864-2.543l-.648.002c2.094 1.485 6.711 3.066 12.522 2.899 3.526-.101 8.118-1.129 12.654-2.898l-.987-.001z"/><path d="M90.497 35.851a87.184 87.184 0 0 1-1.823-5.238l-.376.001a90.613 90.613 0 0 0 1.809 5.234l.39.003zm-1.553 0a373.221 373.221 0 0 1-1.974-5.237h-.385a396.145 396.145 0 0 0 1.976 5.241l.383-.004zm-5.274 0c.358-1.198 1.669-2.55 1.971-3.455.35-1.052-.351-1.488-1.185-1.752l-.097-.032-.837.002c.211.131.486.265.826.373.814.257 1.193.57.951 1.296-.072.215-.223.484-.43.804-.209.322-.455.667-.69 1.02-.352.531-.725 1.14-.882 1.747l.373-.003zm-2 0c-.282-1.011-.435-2.267-.36-3.815l-.667-.204c-.413.677-.824 1.381-1.276 2.075a17.021 17.021 0 0 1-1.445 1.944h.469c1.017-1.211 1.789-2.568 2.559-3.832-.075 1.532.071 2.799.349 3.836l.371-.004zm-6.162 0c.811-.7 2.555-2.356 3.916-5.239l-.401.002a16.15 16.15 0 0 1-1.828 2.945c.427-.819.887-1.796 1.33-2.947l-.389.002c-1.008 2.594-2.103 4.269-2.677 5.234l.049.003zm-1.46 0c.588-.85 1.135-1.837 1.643-2.958.371-.74.71-1.5 1.017-2.278l-.386-.001a28.275 28.275 0 0 1-.957 2.126c-.537 1.192-1.127 2.232-1.754 3.108l.437.003zm-2.247 0a61.8 61.8 0 0 0 3.236-4.201c.251-.34.494-.685.728-1.034l-.436-.002c-.19.281-.384.555-.585.825a60.618 60.618 0 0 1-3.415 4.412h.472zm-3.3 0a50.874 50.874 0 0 0 4.432-5.241l-.45.004a50.537 50.537 0 0 1-4.486 5.235l.504.002zm-.742 0c-.126-.337-.178-.869-.084-1.68l.095-.829-3.227 2.418.041.091h.437l2.297-1.721c-.085.728-.063 1.303.065 1.724l.376-.003zm-5.597 0a114.74 114.74 0 0 1 3.602-2.436 36.963 36.963 0 0 0 3.858-2.804l-.573.003a36.612 36.612 0 0 1-3.479 2.499 109.088 109.088 0 0 0-4.021 2.734l.613.004zm-11.542 0c1.207-1.95 2.914-3.653 4.838-5.237h-.557c-1.873 1.577-3.533 3.285-4.702 5.238l.421-.001zm-4.313 0c.16-.298.335-.598.525-.905.902-1.456 2.452-2.885 4.368-4.336l-.6.004c-1.758 1.367-3.201 2.735-4.074 4.142-.231.375-.44.739-.627 1.094l.408.001zm-4.328 0a44.326 44.326 0 0 1 3.347-3.505 61.403 61.403 0 0 1 1.921-1.732h-.544c-1.387 1.211-3.327 3.009-5.192 5.233l.468.004zm-17.958 0c-1.682-1.114-3.867-1.444-6.206-1.285-1.659.112-2.902.585-3.814 1.281l.636.004c.813-.502 1.865-.836 3.203-.927 2.059-.139 3.963.104 5.493.93l.688-.003zm-16.854 0c.562-2.082 1.651-3.809 2.975-5.236l-.479-.001c-1.28 1.435-2.326 3.166-2.866 5.24l.37-.003zm-1.746 0c.051-.225.105-.45.169-.68.405-1.45 1.107-3.006 2.27-4.558l-.449.001c-1.291 1.792-2 3.588-2.357 5.236l.367.001z"/><path d="M92.979 41.087c-.873-1.444-1.685-3.188-2.482-5.234l-.389-.002c.782 2.022 1.585 3.769 2.452 5.236h.419zm-1.644 0a39.783 39.783 0 0 1-2.258-4.89c-.045-.116-.088-.231-.133-.344l-.384-.002.181.474a41.034 41.034 0 0 0 2.183 4.766l.411-.004zm-18.921 0c.36-.628.74-1.274 1.13-1.942 2.184-.676 3.677-1.89 4.848-3.29l-.471-.004-.033.04c-1.101 1.243-2.485 2.302-4.45 2.911l-.134.042-.068.119c-.432.734-.846 1.441-1.239 2.127l.417-.003zm-2.167 0c.244-.414.507-.836.785-1.266l.314-.487-.575-.064c-.4-.046-.655-.067-.838-.084a1.805 1.805 0 0 1-.324-.046.978.978 0 0 1-.167-.065l-.327-.161-.234-.115-.182.182c-.469.469-1.311 1.238-2.205 2.106h.521c.791-.766 1.516-1.43 1.938-1.852.29.145.421.213.559.251.204.057.427.05 1.218.141-.321.495-.62.983-.901 1.461l.418-.001zm-7.196 0a342.26 342.26 0 0 0 3.394-3.175c-.583-.486-1.068-1.164-1.457-2.036l.033-.025h-.438l.077.171c.339.762.755 1.397 1.256 1.894a330.98 330.98 0 0 1-3.4 3.174l.535-.003zm-6.729 0c1.08-1.392 2.412-2.691 4.005-3.907a86.398 86.398 0 0 1 1.835-1.328l-.614-.001a74.96 74.96 0 0 0-1.438 1.042c-1.648 1.261-3.035 2.619-4.149 4.072-.031.041-.06.082-.089.123l.45-.001zm-7.49 0c.173-1.95.818-3.675 1.789-5.239l-.423.003c-.939 1.568-1.562 3.294-1.728 5.237l.362-.001zm-3.926 0c-.048-1.505.314-3.224 1.402-5.239l-.408.003c-1.046 1.996-1.402 3.717-1.356 5.233l.362.003zm-3.145 0a9.255 9.255 0 0 1-.035-1.046c-.194.342-.382.692-.563 1.049l.598-.003zm-3.425 0a28.373 28.373 0 0 1 2.545-3.881c.359-.468.727-.92 1.099-1.354l-.468-.001c-1.304 1.553-2.569 3.316-3.58 5.234l.404.002zm-11.228 0c-.43-2.553-1.549-4.223-3.087-5.239l-.689.003c1.709.925 2.949 2.576 3.412 5.235l.364.001zm-1.917 0c-.897-4.151-7.197-6.79-10.171-4.089-1.756 1.594-2.005 2.995-1.629 4.091l.382-.002c-.385-1.006-.178-2.309 1.489-3.824 2.704-2.455 8.652-.074 9.56 3.822l.369.002zm-12.938 0a2.497 2.497 0 0 1-.041-.438c0-1.822.636-3.707 2.425-4.802l-.636.004c-1.568 1.188-2.148 3.032-2.148 4.798 0 .149.013.294.036.439l.364-.001zm-5.347 0c-.28-1.956-.153-3.691.261-5.232l-.371-.004c-.404 1.552-.526 3.29-.254 5.239l.364-.003zm-1.617 0a10.86 10.86 0 0 1-.087-.612 13.71 13.71 0 0 1 .218-4.625l-.368.001a14.173 14.173 0 0 0-.127 5.238l.364-.002zm78.009-5.236a2.21 2.21 0 0 0-.077.562c0 1.028.784 1.073 1.329.972.256-.048.538-.133.8-.199.261-.065.433-.087.536-.069.168.03.256.119.292.37.039.279-.012.659-.1 1.073-.156.737-.4 1.173-1.403.984-.746-.141-2.289-1.128-3.003-3.692l-.372-.001c.731 2.74 2.381 3.871 3.307 4.046 1.28.24 1.647-.431 1.822-1.262.176-.833.263-1.74-.482-1.872-.745-.131-2.367.964-2.367-.35 0-.182.033-.371.092-.563l-.374.001zm-7.84 0a8.109 8.109 0 0 0-.058.096l.107-.092-.049-.004zm-1.847 0c-.152.21-.307.413-.463.606-.762 1.046-1.425 1.459-1.972 1.459-.431 0-.797-.036-1.101-.102a63.677 63.677 0 0 0 1.726-1.966l-.473.003a62.137 62.137 0 0 1-1.899 2.133c.437.193 1.019.291 1.747.291.729 0 1.481-.533 2.257-1.6.21-.258.415-.532.615-.821l-.437-.003zm-5.614 0a12.07 12.07 0 0 0-.162.16 1.181 1.181 0 0 1-.077-.163l-.377.003c.093.31.241.536.447.679.226-.227.452-.455.673-.683l-.504.004z"/><path d="M108.409 44.359c.027-.297.005-.481.005-.481s-1.041-.832-2.182-1.872c.029.925-.123 1.71-.443 2.35l.397.003a4.8 4.8 0 0 0 .384-1.566c.675.593 1.248 1.065 1.49 1.316 0 .07-.004.154-.013.248l.362.002zm-12.796 0c-.956-.838-1.82-1.926-2.632-3.27l-.421-.002c.776 1.317 1.606 2.407 2.52 3.271l.533.001zm-2.212 0a30.289 30.289 0 0 1-2.068-3.269l-.409-.003a31.239 31.239 0 0 0 2.03 3.271l.447.001zm-1.303 0c-1.204-1.442-2.873-2.48-5.14-2.446-2.97.043-5.049 1.183-6.534 2.443l.56.003c1.412-1.107 3.325-2.049 5.978-2.088 2.003-.029 3.522.84 4.653 2.087l.483.001zm-21.416 0c.489-1.052 1.08-2.133 1.732-3.272h-.417c-.646 1.139-1.23 2.219-1.711 3.274l.396-.002zm-2.113 0a28.741 28.741 0 0 1 1.678-3.271l-.417-.001a28.645 28.645 0 0 0-1.643 3.269l.382.003zm-4.569 0c.738-1.026 1.939-2.241 3.016-3.276l-.524.004c-.167.164-.336.33-.505.499-.913.908-1.84 1.906-2.425 2.77l.438.003zm-4.501 0c.321-.311.646-.616.974-.92.868-.785 1.729-1.57 2.578-2.354l-.534.002c-.756.697-1.518 1.392-2.286 2.087a84.76 84.76 0 0 0-1.259 1.189l.527-.004zm-4.622 0a7.686 7.686 0 0 1 1.371-3.178c.023-.032.049-.063.074-.096l-.45.002a8.09 8.09 0 0 0-1.361 3.271l.366.001zm-5.904 0a12.915 12.915 0 0 1-.14-3.274l-.363.002a13.222 13.222 0 0 0 .139 3.273l.364-.001zm-3.313 0c-.41-.984-.716-2.058-.754-3.272h-.361c.036 1.208.331 2.288.727 3.273l.388-.001zm-3.054 0c-.418-.994-.741-2.087-.845-3.273l-.598.001a23.86 23.86 0 0 0-1.345 3.272h.374c.34-1.027.756-2.031 1.236-2.995.123 1.08.415 2.08.788 2.996l.39-.001zm-5.693 0c.373-1.127.86-2.22 1.422-3.27l-.403-.002a20.448 20.448 0 0 0-1.394 3.269l.375.003zm-9.678 0c.101-.947.077-1.999-.107-3.158l-.019-.119-.364.005.028.17c.181 1.14.2 2.172.097 3.103l.365-.001zm-1.976 0c.153-.9.164-1.911-.026-3.049a5.267 5.267 0 0 0-.042-.225l-.367.002c.02.091.04.186.055.281.186 1.121.17 2.115.012 2.992l.368-.001zm-7.53 0c-.636-.585-1.478-1.045-2.002-1.298-.683-.331-1.588-1.016-1.955-1.976l-.381.002c.385 1.131 1.435 1.937 2.18 2.297.44.212 1.067.556 1.604.975h.554zm-2.701 0a18.46 18.46 0 0 1-.714-.527c-.984-.776-1.862-1.711-2.06-2.748l-.364.003c.223 1.338 1.424 2.458 2.525 3.273l.613-.001zm-7.31 0c-.35-.929-.624-1.992-.803-3.202a14.736 14.736 0 0 0-.009-.073l-.363.003c.004.043.012.082.018.122a16.2 16.2 0 0 0 .77 3.152l.387-.002zm-1.472 0a1.569 1.569 0 0 0-.07-.362 4.641 4.641 0 0 0-.261-.635l-.118-.26a1.346 1.346 0 0 1-.068-.185c-.031-.114-.267-.783-.441-1.828l-.363-.002c.178 1.1.424 1.805.455 1.924.093.342.463.905.508 1.347l.358.001z"/><path d="M105.637 47.632c2.259-.861 2.699-2.474 2.771-3.276l-.36.004a3.203 3.203 0 0 1-.869 1.872c-.53.561-1.406 1.107-2.853 1.397l1.311.003zm-6.617 0l-.343-.049-1.035-.151.191.2h1.187zm-2.801 0a25.314 25.314 0 0 1-2.817-3.27l-.448-.002a26.51 26.51 0 0 0 2.753 3.273l.512-.001zm-2.276 0c-.432-1.14-1.032-2.299-1.845-3.272h-.484c.857.945 1.492 2.11 1.943 3.268l.386.004zm-1.966 0c-.13-.377-.298-.766-.498-1.172-.82-1.674-2.088-2.105-3.203-2.042-1.071.059-1.981.568-2.216.733-.635.442-1.149 1.046-1.63 1.668-.202.264-.405.539-.612.814l.453-.001c.625-.843 1.223-1.649 1.994-2.186.401-.281 3.385-1.896 4.893 1.173.171.349.318.685.437 1.009l.382.004zm-14.12 0c.172-.171.358-.391.557-.631.228-.272.484-.585.78-.918.289-.328.616-.677.984-1.025.25-.235.517-.469.806-.696l-.561-.002c-1.598 1.351-2.508 2.846-3.1 3.271l.534.001zm-1.589 0c-.683-.289-1.188-.953-1.188-.953s.028.541-.218.956l.404-.003c.024-.061.047-.12.064-.179l.134.108c.03.025.063.05.096.074l.708-.003zm-6.734 0c.237-1.085.636-2.163 1.149-3.27l-.395-.002c-.03.062-.055.123-.082.184-.461 1.033-.821 2.053-1.04 3.085l.368.003zm-2.074 0a19.993 19.993 0 0 1 1.11-3.276l-.384.004a20.2 20.2 0 0 0-1.079 3.268l.353.004zm-2.682 0c.723-1.687-.533-2.509-1.169-2.668.107-.192.238-.396.391-.607l-.439.003c-.099.145-.188.29-.266.429l-.229.409.454.114c.516.129 1.602.794.863 2.319l.395.001zm-8.509 0a77.653 77.653 0 0 1 3.23-3.275l-.526.003a78.66 78.66 0 0 0-3.186 3.268l.482.004zm-1.392 0a7.378 7.378 0 0 1-.158-1.503c0-.617.052-1.206.158-1.766l-.365-.003a9.819 9.819 0 0 0-.155 1.769c0 .494.05.993.153 1.5l.367.003zm-5.01 0a17.724 17.724 0 0 1-.893-3.273l-.365.001c.168 1.033.455 2.121.873 3.271l.385.001zm-2.508 0c-.463-.872-1.029-1.799-1.503-2.83a12.84 12.84 0 0 1-.196-.447l-.386.005c.49 1.211 1.14 2.282 1.678 3.275l.407-.003zm-2.961 0c-.595-.931-1.271-2.026-1.791-3.27l-.392-.002c.385.943.854 1.798 1.313 2.558.148.245.295.482.44.71l.43.004zm-5.024 0c.181-1.096.459-2.197.817-3.275l-.372.003a21.77 21.77 0 0 0-.8 3.272h.355zm-3.179 0a15.93 15.93 0 0 1 .72-3.27l-.377-.002a15.959 15.959 0 0 0-.704 3.273l.361-.001zm-9.951 0c.5-.93.856-2.013.99-3.269l-.364-.003c-.144 1.268-.521 2.351-1.047 3.271l.421.001zm-2.382 0a7.613 7.613 0 0 0 1.398-3.275l-.368.003a7.336 7.336 0 0 1-1.482 3.276l.452-.004zm-6.576 0c1.926-1.181 1.43-2.375.444-3.275l-.554.003c.323.251.612.53.811.826.397.592.514 1.371-1.12 2.271-.207-.329-.408-.674-.499-.942.149-.136.395-.413.354-.786a.531.531 0 0 0-.158-.301 1.74 1.74 0 0 0-.191-.161c-.13-.098-.313-.221-.534-.366a38.922 38.922 0 0 1-.81-.543l-.614.002c1.006.746 1.93 1.236 1.949 1.409.042.381-.508.677-.508.677s.338.614.7 1.189l.73-.003zm-7.641 0c-.761-.852-1.423-1.925-1.928-3.27l-.385-.002c.477 1.327 1.104 2.404 1.825 3.272h.488zm-1.57 0a14.292 14.292 0 0 1-.597-.908l-.464-.753-.194.861a8.738 8.738 0 0 1-.226.804l.377-.004c.076-.232.143-.475.199-.72.153.249.308.489.463.716l.442.004zm-4.169 0c-.145-.858.048-1.914 1.618-2.32.602-.154.746-.564.723-.952h-.36c.028.276-.073.507-.454.605-1.811.467-2.043 1.68-1.89 2.666l.363.001zm101.883-3.272c-.734 1.469-2.363 2.183-4.762 2.101-2.133-.073-3.89-.767-5.414-2.104l-.533.003c1.644 1.557 3.561 2.379 5.936 2.459 2.595.09 4.405-.74 5.171-2.457l-.398-.002z"/><path d="M104.683 51.559c-2.32-1.307-4.898-2.414-6.056-3.62 3.347.486 5.556.245 7.01-.308l-1.31.001c-1.275.253-2.993.308-5.307-.001l-1.187.001.535.555c.632.658 1.633 1.269 2.733 1.868.893.487 1.884.984 2.852 1.508l.73-.004zm-3.311 0c-.42-.264-.86-.541-1.309-.843a26.38 26.38 0 0 1-3.659-2.902l-.185-.18-.512-.002c1.747 1.757 3.463 2.96 4.991 3.926l.674.001zm-6.517 0c-.074-.963-.346-2.428-.913-3.927h-.385c.58 1.476.863 2.943.939 3.928l.359-.001zm-3.448 0c1.008-1.244 1.068-2.486.57-3.928l-.38.001c.529 1.434.488 2.66-.659 3.925l.469.002zm-22.095 0a39.693 39.693 0 0 1-.027-1.708c0-.75.087-1.486.248-2.219h-.367a10.482 10.482 0 0 0-.242 2.219c0 .6.003 1.174.028 1.711l.36-.003zm-2.22 0c-.087-1.145.014-2.455.367-3.928l-.353.001c-.341 1.454-.443 2.767-.366 3.924l.352.003zm-4.059 0c.168-.435.124-.946-.146-1.287-.527-.663-1.491-.451-1.371-1.624.122-1.174.421-.512.633-.091.211.421.361.963.361.963s1.4-.482 1.852-1.143c.181-.265.317-.514.415-.745h-.394a4.196 4.196 0 0 1-.319.543c-.251.368-.917.694-1.328.87a5.598 5.598 0 0 0-.264-.648c-.056-.112-.12-.24-.181-.349a1.811 1.811 0 0 0-.118-.177.716.716 0 0 0-.186-.173c-.301-.183-.564.008-.672.221-.081.159-.127.397-.158.692-.074.736.216 1.105.616 1.347.148.091.318.165.484.259.141.08.256.163.346.278.224.279.224.725.03 1.068l.4-.004zm-2.255 0a4.767 4.767 0 0 1-.295-.529c-.328-.672-.354-1.096-.384-1.62-.014-.268-.071-.658-.293-.891-.353-.367-.797-.154-1.099.142-.281.272-.512.42-.848.761-.353.36-.805.91-1.504 1.958l-.12.179h.433c1.374-2.056 1.734-2.101 2.29-2.641.555-.541.752-.03.781.512.03.54.062 1.022.423 1.758.063.129.128.255.196.374l.42-.003zm-9.051 0c-.788-1.388-1.402-2.693-1.861-3.924l-.384-.003a26.763 26.763 0 0 0 1.831 3.924l.414.003zm-3.571 0c.004-.019.01-.036.015-.053.332-1.128.002-2.209-.509-3.277a16.739 16.739 0 0 0-.303-.595l-.407-.002c.722 1.341 1.239 2.543.874 3.774-.014.05-.033.103-.052.156l.382-.003zm-2.757 0c.165-.242.302-.541.388-.949.139-.651-.545-1.652-1.389-2.976l-.431-.002c.376.589.728 1.122.998 1.589.387.669.523 1.075.472 1.314a2.236 2.236 0 0 1-.486 1.022l.448.002zm-6.242 0a17.348 17.348 0 0 1 .217-3.925l-.356-.002a17.85 17.85 0 0 0-.218 3.923l.357.004zm-2.819 0c-.032-.18-.059-.364-.086-.551a13.545 13.545 0 0 1-.057-3.374l-.361-.002a13.975 13.975 0 0 0 .059 3.427l.078.503.367-.003zm-14.317 0c1.57-.775 3.197-2.028 4.222-3.929l-.419.002c-1.147 2.007-2.997 3.239-4.647 3.926l.844.001zm-9.248 0c-1.514-.602-3.156-1.741-4.697-3.923l-.444-.004c1.378 2.016 2.854 3.214 4.266 3.926l.875.001zm-8.081 0c.798-.856 1.755-2.278 2.279-3.922l-.377-.005c-.581 1.75-1.652 3.198-2.406 3.927h.504zm-.848 0c-.147-.509-.275-.93-.343-1.154l.963-1.311-.118-.203a4.212 4.212 0 0 1-.441-1.254l-.362-.005c.123.791.492 1.438.492 1.438l-.933 1.269s.163.509.368 1.219l.374.001zm79.975-3.927c-.27.364-.551.729-.857 1.077-1.038 1.185-2.347 2.15-4.645 2.15-1.434 0-2.136-.281-2.533-.592a2.016 2.016 0 0 1-.463-.523c-.136-.212-.242-.422-.363-.604-.342-.513-.152-.803.145-1.216a1.85 1.85 0 0 0 .163-.293l-.404.001c-.018.03-.034.057-.053.083-.302.421-.633.902-.15 1.624.482.722.707 1.879 3.658 1.879 3.265 0 4.67-1.866 5.954-3.587l-.452.001zm-6.496 0a.618.618 0 0 1-.241.113 1.456 1.456 0 0 1-.814-.113h-.707c.391.29.955.575 1.582.467.251-.043.471-.225.645-.396l.069-.067-.534-.004zm-21.537 0a66.97 66.97 0 0 0-.708.779 8.948 8.948 0 0 1-.201-.78l-.367.001c.097.485.239.979.43 1.48.434-.496.877-.989 1.331-1.477l-.485-.003zm-32.376 0c-.81 1.035-1.762 1.726-2.428 2.157-1.175.76-7.503 2.137-11.338-2.157h-.487c3.949 4.757 10.754 3.277 12.02 2.458.727-.47 1.805-1.256 2.685-2.455l-.452-.003zm-6.855 0c.064.102.128.201.19.296.199-.1.379-.2.541-.299l-.731.003z"/><path d="M109.198 56.805c.004-.087.005-.173.005-.263 0-2.086-2.123-3.641-4.521-4.986l-.73.003c.225.127.448.249.669.374 2.387 1.352 4.222 2.796 4.222 4.609 0 .091-.001.177-.004.261l.359.002zm-2.503 0c.008-.088.013-.175.013-.261a2.22 2.22 0 0 0-.28-1.115c-.41-.745-1.338-1.552-3.192-2.725-.568-.361-1.195-.734-1.864-1.148l-.674.003c.85.538 1.641 1.002 2.344 1.447 3.049 1.931 3.389 2.749 3.293 3.803l.36-.004zm-12.919 0c.871-2.166 1.099-4.117 1.099-4.744 0-.146-.006-.314-.02-.5l-.359-.002c.013.186.019.354.019.502 0 .624-.235 2.589-1.128 4.743l.389.001zm-11.271 0c1.049-.541 2.29-1.146 3.822-1.862 2.591-1.215 4.199-2.299 5.081-3.386l-.469.002c-.872.959-2.381 1.942-4.765 3.058-1.845.865-3.274 1.566-4.453 2.189l.784-.001zm-7.504 0c1.207-.654 1.81-1.452 1.81-1.452l-2.363-.646s-.632.797-2.108.766c-2.395-.048-2.919-1.457-3.028-3.913l-.36-.001c.11 2.504.663 4.218 3.38 4.274.808.016 1.398-.195 1.793-.42.188-.107.33-.217.429-.304l1.59.433a6.18 6.18 0 0 1-.8.637 6.454 6.454 0 0 1-1.179.622l.836.004zm-5.051 0c-1.417-.793-2.655-2.558-2.858-5.248l-.352.002c.171 2.502 1.19 4.283 2.505 5.246h.705zm-4.009 0c-2.977-1.906-7.303-3.256-9.287-5.226l.013-.018-.431-.002-.045.067.21.208c.649.644 1.52 1.213 2.482 1.744.959.528 2.03 1.033 3.111 1.546 1.144.546 2.272 1.095 3.268 1.685l.679-.004zm-4.488 0a79.26 79.26 0 0 0-1.092-.361c-3.827-1.247-4.915-2.121-5.965-2.858a31.715 31.715 0 0 0-2.087 3.218l.414.001a30.979 30.979 0 0 1 1.755-2.722c.453.32.951.667 1.69 1.059.905.478 2.154 1.016 4.081 1.642l.074.025 1.13-.004zm-6.012 0c-.407-.818-.995-2.019-.995-2.019l-.14 1.221c-.001.012-.04.333-.129.801l.365-.003c.086-.453.121-.757.121-.757s.166.339.378.761l.4-.004zm-5.702 0c.609-1.392 1.386-2.736 2.514-4.353a36.96 36.96 0 0 1-.527-.895l-.413.002c.163.288.333.582.511.88-1.109 1.61-1.876 2.962-2.479 4.368l.394-.002zm-2.354 0l-.013-.009c-1.231-.851-1.177-1.636-.79-2.463a6.11 6.11 0 0 1 .377-.679c.146-.235.304-.466.454-.697.291-.444.591-.921.742-1.4l-.381.002c-.602 1.629-3.054 3.464-.975 5.249l.586-.003zm-2.175 0c-.752-.588-1.299-1.601-1.299-2.406 0-1.811.904-1.969 1.487-2.838l-.447-.002c-.06.072-.124.14-.189.205l-.316.317c-.472.477-.894 1.046-.894 2.318 0 .723.441 1.709 1.119 2.405l.539.001zm-4.52 0c-.926-1.545-1.411-3.344-1.534-5.249l-.355.003c.114 1.89.576 3.687 1.461 5.245l.428.001zm-2.7 0c-.724-1.412-1.301-3.138-1.653-5.244l-.365-.002c.344 2.093.907 3.82 1.612 5.248l.406-.002zm24.643-5.246a.914.914 0 0 1-.683.477c-.598.083-.913-.104-1.172-.481l-.42.004c.325.559.747.955 1.642.832a1.277 1.277 0 0 0 1.032-.83l-.399-.002zm-41.456 0c-1.373.57-2.607.767-3.189.723-.484-.038-1.157-.013-1.954-.054-.777-.041-1.665-.145-2.607-.439a8.412 8.412 0 0 1-.655-.23h-.874c2.538 1.279 4.869.989 6.063 1.08.713.055 2.351-.229 4.061-1.076l-.845-.004zm-16.988 0a4.263 4.263 0 0 1-.275.247l-.071-.245-.373-.002c.072.25.149.526.227.812.242-.103.599-.388.995-.812h-.503z"/><path d="M89.98 62.032c1.881-1.458 3.064-3.418 3.796-5.231l-.389.004c-.767 1.844-2.016 3.829-4.016 5.228l.609-.001zm-15.645 0c-.829-.888-2.197-1.932-4.067-2.191-2.04-.283-1.595.478-1.111 2.191h.374c-.122-.439-.245-.816-.328-1.133-.087-.328-.107-.515-.067-.677.005-.006.029-.028.104-.048.164-.042.461-.048.978.022 1.598.222 2.812 1.053 3.617 1.836h.5zm-8.48 0c.278-.603.356-1.014.463-1.662-1.303.535-2.372 1.091-3.241 1.661l.68.001a18.279 18.279 0 0 1 2.086-1.07 4.604 4.604 0 0 1-.386 1.066l.398.004zm-4.509 0c1.554-1.258 3.416-2.101 4.675-2.73-.578-1.064-1.595-1.516-4.567-2.501l-1.131.004c3.416 1.117 4.575 1.549 5.179 2.353-.564.277-1.219.596-1.898.969-.833.456-1.714 1-2.519 1.656-.1.082-.201.166-.299.253l.56-.004zm-7.991 0c1.531-1.281 2.227-2.865 2.381-4.523l.009-.105-.046-.093c-.068-.131-.156-.308-.258-.51l-.401.004c.106.216.223.448.338.671-.157 1.679-.896 3.293-2.617 4.56l.594-.004zm-2.631 0c.606-.266 1.636-.801 2.416-1.659.802-.883 1.219-2.578 1.403-3.565l-.366-.003c-.182.96-.578 2.529-1.303 3.327-.547.602-1.237 1.042-1.799 1.333a8.466 8.466 0 0 1-.381.185c.09-.385.243-.945.512-1.657.318-.855.799-1.931 1.516-3.189l-.414.001c-1.543 2.757-1.959 4.633-2.057 5.223l.473.004zm-7.638 0c-1.867-.987-3.738-2.562-5.096-5.223l-.405-.004c1.267 2.567 2.998 4.174 4.763 5.223l.738.004zm65.753-5.227c-.11 3.397-2.369 1.596-2.251.796.042-.288.087-.547.108-.796h-.361c-.021.235-.064.476-.103.744-.214 1.456 2.832 3.027 2.966-.747l-.359.003zm-27.118 0c-2.807 1.48-4.216 2.513-6.506 4.216-3.464-3.503-6.082-2.901-7.437-2.751-.504-.529-1.132-1.012-1.836-1.464l-.68-.001c.883.529 1.663 1.089 2.257 1.713l.123.13.176-.02c.333-.037.742-.103 1.224-.125a6.105 6.105 0 0 1 1.589.125c1.178.251 2.637.936 4.328 2.646l.22.222.251-.187c2.437-1.813 3.864-2.858 7.075-4.507l-.784.003zm-7.556 0a6.825 6.825 0 0 1-2.433.475c-.584.008-1.199-.152-1.783-.478l-.705.003c.769.563 1.637.846 2.492.833a7.01 7.01 0 0 0 3.265-.833h-.836zm-24.82 0c-.599 1.398-1.038 2.846-1.493 4.658-3.497-.688-5.804-2.399-7.162-4.662l-.429.004c1.421 2.501 3.933 4.388 7.857 5.073.498-2.017.961-3.573 1.621-5.077l-.394.004zm-2.546 0c.11.098.233.193.369.287-.668.361-1.374.165-1.959-.291l-.537.004c.708.726 1.676 1.138 2.667.603l.515-.278-.469-.325h-.586z"/><path d="M96.46 72.504c-.368-.517-.896-1.012-1.645-1.469-6.443-3.924-13.383-.33-16.017.736.362-2.016.061-3.262-.241-4.78 5.406-2.751 3.447-1.053 9.377-3.731.761-.342 1.439-.76 2.046-1.228h-.61a9.602 9.602 0 0 1-1.583.901c-2.934 1.325-3.915 1.568-4.833 1.819-.958.262-1.841.536-4.56 1.918l-.242.124.053.266c.148.746.296 1.426.363 2.167a9.07 9.07 0 0 1-.123 2.48l-.115.641.604-.244c.657-.266 1.581-.69 2.699-1.114 1.104-.419 2.401-.839 3.812-1.105 2.814-.531 6.06-.445 9.184 1.457.599.365 1.045.755 1.377 1.16l.454.002zm-2.357 0c-1.377-1.581-4.293-3.034-10.313-1.38-1.631.448-2.867.938-3.782 1.384l.87-.004c.798-.341 1.79-.699 3.008-1.033 5.552-1.526 8.343-.358 9.722 1.031l.495.002zm-16.991 0c.868-1.961.471-3.903.218-5.384-3.948 2.277-3.772 4.073-3.803 4.698-.996-.225-1.462-1.988-1.462-4.313 0-2.325 1.574-4.04 2.536-5.179a6.694 6.694 0 0 0-.266-.298l-.5.004c.105.1.201.2.292.299-.192.225-.4.471-.609.735-.294.369-.59.776-.854 1.222-.535.896-.958 1.97-.958 3.217 0 2.221.417 4.365 1.741 4.664l.416.094.022-.426c.007-.148.003-.362.048-.637a2.91 2.91 0 0 1 .34-.936c.38-.678 1.159-1.559 2.791-2.566.046.27.092.553.129.846a9.6 9.6 0 0 1 .088 1.489c-.019.802-.166 1.636-.564 2.47l.395.001zm-9.663 0c.037-.193.049-.412.031-.664l-.042-.143c-.097-.18-.208-.354-.297-.557a1.725 1.725 0 0 1-.148-.642c-.022-.536.155-1.377.884-2.85.744-1.504 1.283-2.399 1.571-3.144.317-.813.359-1.482.09-2.45-.003-.008-.004-.016-.006-.025l-.374.003c.012.038.023.077.034.118.497 1.796-.161 2.356-1.638 5.339-1.477 2.982-.834 3.624-.432 4.377a2.05 2.05 0 0 1-.041.64l.368-.002zm-1.885 0c-1.499-1.758-2.291-3.582-2.263-4.695.031-1.282.128-1.747 1.428-3.816.57-.905.908-1.492 1.125-1.961h-.396c-.21.424-.529.967-1.034 1.771-1.32 2.1-1.449 2.628-1.482 3.997-.031 1.182.746 2.975 2.149 4.7l.473.004zm-3.299 0c-.362-.615-.705-1.14-.852-1.386-.112-.188-.497-.689-.844-1.399-.341-.694-.639-1.574-.619-2.545.032-1.511.844-3.373 3.806-5.145l-.679.003c-6.154 4.023-2.373 8.599-1.972 9.269.132.222.426.671.745 1.206l.415-.003zm-1.685 0c-.791-1.501-2.073-3.286-2.073-5.133 0-2.35 1.261-4.059 2.839-5.336l-.56-.003c-1.47 1.292-2.64 3.014-2.64 5.339 0 1.442.721 2.822 1.387 4.001.22.391.442.768.637 1.13l.41.002zm-8.99 0c-1.208-2.288-1.783-5.199-1.197-8.822 1.221-.456 2.195-1.017 2.962-1.654l-.594.004c-.717.531-1.603.998-2.688 1.385-.643 3.725-.095 6.727 1.11 9.09l.407-.003zm-1.962 0c-1.381-3.344-1.683-6.736-1.382-8.428l.062-.339-.338-.075c-1.318-.291-3.099-.692-4.884-1.633l-.738.003c2.014 1.189 4.073 1.655 5.545 1.981-.303 1.698-.012 5.109 1.353 8.494l.382-.003zm.623-10.472c-.023.126-.029.193-.029.193s.196-.063.503-.196l-.474.003z"/><path d="M96.005 72.504c.932 1.138.947 2.404.844 3.611-.225 2.64-2.134 4.709-3.992 4.709-1.549 0-2.367-.775-3.131-1.631-.194-.22-.385-.442-.576-.648a5.77 5.77 0 0 0-.624-.597c-.456-.366-.991-.627-1.689-.627-.393 0-.83.122-1.148.23-.163.055-.301.11-.404.152l-1.069-.562c.205-.137.482-.296.818-.432.782-.319 1.886-.514 3.195-.016.252.096.484.268.739.5.268.244.531.52.823.774.632.546 1.439 1.016 2.712.883 1.328-.139 2.024-1.054 2.374-1.918a5.67 5.67 0 0 0 .388-1.943c0-.252-.221-1.398-1.162-2.481l-.495-.004c1.081 1.088 1.298 2.314 1.298 2.485 0 .391-.151 3.263-2.441 3.503-2.288.242-2.843-1.653-4.109-2.135-2.818-1.073-4.802.843-4.802.843l1.717.901s.903-.421 1.566-.421c2.378 0 2.604 3.503 6.02 3.503 2.114 0 4.116-2.29 4.351-5.037.101-1.177.092-2.463-.748-3.642h-.455zm-15.997 0c-1.58.773-2.207 1.409-2.267 1.472 0 0-.219.513-.688 1.191a12.36 12.36 0 0 1-2.4 2.55c-2.299 1.856-6.147 3.738-12.324 3.738-6.987 0-10.83-4.431-12.701-8.954l-.382.003c1.888 4.681 5.827 9.311 13.083 9.311 12.511 0 15.717-7.637 15.717-7.637s.759-.784 2.833-1.673l-.871-.001zm-3.29 0a6.178 6.178 0 0 1-.334.605c-1.254.758-3.376 2.235-5.787 3.568-2.455 1.356-5.155 2.532-7.511 2.671-3.089.183-8.831-1.802-11.496-6.848l-.407.004c2.703 5.309 8.706 7.392 11.925 7.202 4.88-.288 11.045-4.841 13.532-6.332.189-.29.345-.581.472-.871l-.394.001zm-9.637 0c-.136.543-.523.683-.778.805a13.668 13.668 0 0 1-.739-.802l-.474-.003c.293.355.613.711.956 1.058l.181.181.23-.11c.092-.044.2-.091.307-.154.123-.071.26-.168.379-.311a1.44 1.44 0 0 0 .306-.664h-.368zm-5.231 0c.788 1.314 1.746 3.136.897 3.329-1.195.272-2.139-1.318-2.139-1.318s.579.318.579-.185c0-.539-.255-1.154-.607-1.823l-.41-.003c.097.179.19.358.273.532.217.451.351.851.379 1.181-.124-.062-1.166-.61-1.166-.61s.71 1.203.829 1.365c.117.156.286.364.498.565.41.386 1.065.824 1.843.646.607-.138.654-.715.587-1.124-.072-.434-.294-.961-.547-1.467a17.925 17.925 0 0 0-.602-1.092l-.414.004z"/></g></svg>