<svg xmlns:xlink="http://www.w3.org/1999/xlink" width="168" height="37" viewBox="0 0 168 37"><defs><path id="a" d="M0 .154v30.737h44.544V.154H0z"/></defs><g fill="none" fill-rule="evenodd"><path fill="#FFF" d="M48.263 26.521c-1.476 2.64 1.737 4.119 3.84 4.686 5.011 1.352 11.543-2.308 17.17-12.653 3.975-7.31 8.978-10.691 10.892-11.783-2.326-.63-8.952-2.258-12.82-1.518-4.85.93-12.14 6.392-12.767 11.566-.079.654-.255 3.137.812 3.581.219.54-.409 1.457-.409 1.457-3.928-3.113-.392-9.045 1.91-11.768 6.173-7.307 15.458-7.508 21.402-6.384 3.827.72 5.203 1.054 5.582 1.154 3.289-1.284 11.763-3.94 14.412-.593 1.434 1.814-2.425 2.877-3.388 3.11-2.454.597-5.74.843-8.258.488-2.637-.37-4.284-.7-4.692-.785-4.256 1.645-7.745 7.527-9.299 11.276-4.414 10.65-11.361 13.42-16.473 14.034-4.305.515-10.378-1.252-9.32-5.767.23-.985.747-1.299 1.516-1.79 0 0-.123.496-.058.935.027.185.113.5.113.5s-.12.173-.165.254zM87.685 4.728c-.717.21-1.335.422-1.809.597 2.637.579 9.231 1.755 11.282.086 1.111-.905-1.863-1.507-3.39-1.564-2.163-.08-4.388.388-6.083.881z"/><path fill="#FFF" d="M73.72 28.725c1.054 0 2.727-.795 4.545-2.479l2.675-4.648c-.45-.755-1.12-1.107-1.817-1.107-2.474 0-5.885 2.742-6.771 5.677-.506 1.67.219 2.557 1.369 2.557m3.747-.502c.083-.284.17-.564.303-.845l.545.412c-1.774 1.534-3.6 2.383-5.354 2.383-2.178 0-3.51-1.81-2.747-4.34 1.033-3.416 5.364-6.704 9.021-6.704.948 0 1.773.377 2.496 1.086l.432-.782 2.51-.486-4.678 8.133c-.274.478-.496.939-.618 1.344-.036.117-.039.16-.034.168.783 0 3.782-2.53 4.178-3.445l-.012 1.744c-.875.922-3.174 3.282-4.833 3.282-1.12 0-1.517-.934-1.209-1.95m33.732.472c1.053 0 2.727-.794 4.545-2.478l2.674-4.65c-.45-.754-1.12-1.106-1.817-1.106-2.473 0-5.884 2.743-6.77 5.677-.507 1.67.218 2.557 1.368 2.557m3.747-.503a5.69 5.69 0 0 1 .304-.843l.544.412c-1.775 1.533-3.599 2.382-5.352 2.382-2.18 0-3.512-1.81-2.748-4.339 1.033-3.417 5.364-6.704 9.02-6.704.948 0 1.773.376 2.496 1.085l.433-.781 2.51-.487-4.678 8.134c-.275.477-.497.938-.619 1.343-.035.118-.038.16-.033.168.782 0 2.881-2.123 3.281-2.525l.885.825c-.874.922-3.174 3.281-4.833 3.281-1.12 0-1.517-.934-1.21-1.95m36.85.351c1.053 0 2.727-.795 4.544-2.479l2.675-4.647c-.45-.756-1.12-1.108-1.817-1.108-2.473 0-5.885 2.743-6.77 5.677-.507 1.67.218 2.557 1.368 2.557m3.747-.502c.084-.283.171-.563.303-.844l.545.411c-1.775 1.534-3.6 2.384-5.353 2.384-2.179 0-3.511-1.81-2.747-4.34 1.033-3.416 5.363-6.704 9.02-6.704.948 0 1.773.376 2.496 1.086l.433-.782 2.508-.486-4.677 8.132c-.274.478-.496.94-.618 1.344-.037.118-.038.16-.034.168.783 0 2.882-2.123 3.282-2.524l.885.825c-.875.92-3.174 3.281-4.833 3.281-1.12 0-1.518-.934-1.21-1.951"/><g transform="translate(0 .739)"><mask id="b" fill="#fff"><use xlink:href="#a"/></mask><path fill="#FFF" d="M38.135 25.42c-1.817 1.684-3.49 2.48-4.544 2.48-1.15 0-1.874-.888-1.368-2.558.887-2.934 4.298-5.678 6.772-5.678.696 0 1.365.352 1.816 1.108l-2.676 4.648zm-30.83 2.203c-.55 0-6.242.024-6.242-1.325 0-.442.5-.893 2.464-.893 1.57 0 4.46.63 8.703 1.92a37.984 37.984 0 0 1-4.926.298zm29.849-23.36c1.865-2.176 3.217-3.112 4.092-3.112.06 0 .131.028.155.035l.01.088c0 .728-.997 2.367-3.265 5.022a55.371 55.371 0 0 1-5.744 5.802c1.74-3.556 3.325-6.162 4.752-7.834zm2.06 23.503c-.004-.008-.002-.051.034-.169.122-.404.345-.865.62-1.343l4.676-8.134-2.508.486-.434.782c-.722-.708-1.548-1.084-2.495-1.084-3.656 0-7.988 3.287-9.021 6.703-.639 2.117.194 3.727 1.758 4.196a5.459 5.459 0 0 1-.538.026c-1.006 0-2.061-.126-3.166-.376-1.032-.226-4.026-.994-8.976-2.308 2.71-.842 4.924-2.066 6.63-3.678 1.935-1.832 3.793-4.705 5.576-8.595 2.366-1.743 4.786-4.05 7.264-6.922 2.47-2.845 3.842-4.903 3.842-6.076 0-.749-.494-1.12-1.23-1.12-1.574 0-3.699 1.514-6.327 4.265-1.371 1.439-2.551 2.867-3.534 4.283-1.014 1.456-2.641 4.052-4.879 7.793-2.661 2.243-4.89 3.802-6.69 4.693-1.787.894-3.582 1.335-5.383 1.335-2.102 0-3.714-.533-4.877-1.562-.62-.553-1.307-1.016-1.681-1.137-.174-.056-.56.296-.574.603.095.2.336.482.703.848 1.58 1.564 3.686 2.33 6.277 2.33 3.26 0 6.698-1.392 10.302-4.119-1.256 1.768-2.33 3.09-3.224 3.974a11.882 11.882 0 0 1-3.966 2.601c-5.23-1.353-9.202-2.038-11.891-2.038-3.296 0-5.502.586-5.502 2.275 0 1.798 2.79 2.408 7.09 2.408 2.526 0 4.98-.233 7.365-.697 3.694 1.175 6.447 1.947 8.26 2.318 1.838.376 3.75.564 5.736.564 2.71 0 4.832-.485 6.317-1.498.222-.155.592-.383.97-.702.548-.34 1.05-.658 1.538-1.012-.158.9.257 1.668 1.27 1.668 1.66 0 3.96-2.36 4.836-3.282l-.885-.823c-.4.4-2.5 2.524-3.283 2.524z" mask="url(#b)"/></g><path fill="#FFF" d="M135.515 20.388c-1.646 0-3.89 1.466-5.4 4.061 3.573-.407 5.61-1.769 6.025-3.139.18-.596-.086-.922-.625-.922m-5.968 5.406a.747.747 0 0 0-.247.286c-.433 1.432-.61 2.454 1.37 2.454 1.656 0 3.206-.984 4.51-1.857l.705 1.01c-1.64 1.148-3.843 2.384-5.956 2.384-2.522 0-3.612-1.623-2.858-4.12.947-3.129 5.233-6.924 8.955-6.924 1.54 0 2.4 1.09 1.98 2.483-.652 2.148-3.69 3.773-8.46 4.284m-39.597 2.62c-1.411.91-2.774 1.405-4.042 1.405-2.327 0-3.324-1.695-2.62-4.031 1.05-3.466 5.594-6.703 9.067-6.703.912 0 1.73.378 2.451 1.086l.433-.787 2.448-.422-5.58 9.492c-2.868 4.83-5.241 7.733-8.656 7.733-1.669 0-2.568-1.263-2.173-2.572.257-.846.95-1.486 1.684-1.486.895 0 1.024.647.788 1.433-.38.096-.821.228-.95.652-.076.252.067.656.837.656 2.326 0 3.862-2.226 6.313-6.456m1.666-2.834l2.353-4.03c-.448-.75-1.12-1.106-1.86-1.106-2.214 0-5.715 2.616-6.612 5.59-.47 1.546.068 2.205 1.167 2.205 1.36 0 2.895-.756 4.952-2.659m16.13-22.504c-.942.46-1.81 1.22-2.6 1.888l-.842-.912c.786-.658 3.244-2.792 4.574-2.792 1.068 0 1.324.846 1.03 1.82a4.38 4.38 0 0 1-.345.818L97.014 26.936c-.23.414-.516.847-.653 1.304-.073.24-.054.322-.049.332.984.015 3.166-1.892 3.668-2.337l.843.914c-1.157 1.006-3.349 2.974-5.158 2.974-1.206 0-1.605-.934-1.27-2.042.172-.566.52-1.261.938-2.052l12.045-22.247a7.72 7.72 0 0 0 .368-.706"/><path fill="#FFF" d="M111.129 11.993c-.802 0-1.251-.79-1.047-1.466.19-.617.96-1.265 1.662-1.265.803 0 1.334.662 1.09 1.468-.22.725-.979 1.263-1.705 1.263m-4.702 10.964l-2.227 3.985c-.37.629-.64 1.125-.733 1.43-.026.088-.007.16-.006.189a.774.774 0 0 0 .223.026c.723 0 3.984-2.578 4.125-3.106l.158 1.669c-1.148.997-3.316 2.973-5.112 2.973-1.233 0-1.818-.956-1.493-2.043.218-.709.723-1.405 1.075-2.054l2.136-3.845c.221-.415.516-.855.653-1.306.046-.152.006-.208.003-.214-.758 0-2.848 2.134-3.237 2.523l-.89-.822c1.104-1.146 3.107-3.283 5.015-3.283 1.097 0 1.568.913 1.253 1.954-.212.695-.598 1.294-.943 1.924m22.222-8.79c-.826.35-1.88 1.508-2.424 2.137l-1.1-.707c.977-.982 2.89-3.06 4.545-3.06 1.071 0 1.29.805.996 1.774a5.72 5.72 0 0 1-.46 1.046l-2.28 3.81h2.111l-.435 1.45h-2.498l-3.771 6.331c-.357.585-.61 1.033-.704 1.335-.073.243-.038.304.238.304.72 0 4.157-2.432 4.29-2.893l-.01 1.456c-1.16 1.008-3.346 2.973-5.157 2.973-1.21 0-1.631-.984-1.285-2.129.205-.691.652-1.35 1.005-1.974l3.167-5.403h-2.075l.439-1.45h2.494l2.35-3.98c.302-.545.485-.871.564-1.02m20.822-11.091c-.943.46-1.811 1.22-2.601 1.888l-.843-.912c.788-.66 3.245-2.792 4.576-2.792 1.065 0 1.324.842 1.028 1.818a3.913 3.913 0 0 1-.343.82l-12.551 23.038c-.121.22-.819 1.397-.7 1.638.982.013 3.164-1.893 3.667-2.34l.84.916c-1.16 1.007-3.345 2.973-5.156 2.973-1.204 0-1.603-.934-1.27-2.042.171-.566.524-1.262.939-2.052L149.1 3.782a7.86 7.86 0 0 0 .37-.706m6.102 0c-.944.46-1.812 1.22-2.602 1.888l-.845-.911c.788-.66 3.247-2.793 4.578-2.793 1.064 0 1.323.845 1.028 1.82a4.229 4.229 0 0 1-.344.818l-12.55 23.037c-.12.222-.819 1.396-.7 1.637.981.015 4.135-2.412 4.22-2.807l.29 1.384c-1.156 1.006-3.349 2.974-5.156 2.974-1.207 0-1.607-.932-1.272-2.042.173-.566.524-1.261.938-2.052l12.046-22.247a8.25 8.25 0 0 0 .369-.706m9.188 9.413a.813.813 0 0 0-.342.062v1.226a.99.99 0 0 0 .249.032c.489 0 .738-.24.738-.669 0-.427-.21-.651-.645-.651zm.653 2.933l-.98-1.504h-.015v1.504h-.444v-3.034c.172-.092.451-.162.794-.162.723 0 1.08.349 1.08.892 0 .489-.357.838-.918.861l1.004 1.443h-.521zm-.583-3.918c-1.307 0-2.31 1.078-2.31 2.382s1.003 2.383 2.31 2.383c1.306 0 2.31-1.08 2.31-2.383 0-1.304-1.004-2.382-2.31-2.382zm0 5.146a2.755 2.755 0 1 1 0-5.512 2.759 2.759 0 0 1 2.76 2.756 2.754 2.754 0 0 1-2.76 2.756z"/></g></svg>