<svg xmlns:xlink="http://www.w3.org/1999/xlink" width="168" height="52" viewBox="0 0 168 52"><defs><path id="a" d="M0 .154v30.737h44.544V.154H0z"/><path id="c" d="M0 64.662h167.591V0H0z"/></defs><g fill="none" fill-rule="evenodd" transform="translate(0 -13)"><path fill="#FFF" d="M48.263 39.521c-1.476 2.64 1.737 4.119 3.84 4.686 5.011 1.352 11.543-2.308 17.17-12.653 3.975-7.31 8.978-10.691 10.892-11.783-2.326-.63-8.952-2.258-12.82-1.518-4.85.93-12.14 6.392-12.767 11.566-.079.654-.255 3.137.812 3.581.219.54-.409 1.457-.409 1.457-3.928-3.113-.392-9.045 1.91-11.768 6.173-7.307 15.458-7.508 21.402-6.384 3.827.72 5.203 1.054 5.582 1.154 3.289-1.284 11.763-3.94 14.412-.593 1.434 1.814-2.425 2.877-3.388 3.11-2.454.597-5.74.843-8.258.488-2.637-.37-4.284-.7-4.692-.785-4.256 1.645-7.745 7.527-9.299 11.276-4.414 10.65-11.361 13.42-16.473 14.034-4.305.515-10.378-1.252-9.32-5.767.23-.985.747-1.299 1.516-1.79 0 0-.123.496-.058.935.027.185.113.5.113.5s-.12.173-.165.254zm39.422-21.793c-.717.21-1.335.422-1.809.597 2.637.579 9.231 1.755 11.282.086 1.111-.905-1.863-1.507-3.39-1.564-2.163-.08-4.388.388-6.083.881z"/><path fill="#FFF" d="M73.72 41.725c1.054 0 2.727-.795 4.545-2.479l2.675-4.648c-.45-.755-1.12-1.107-1.817-1.107-2.474 0-5.885 2.742-6.771 5.677-.506 1.67.219 2.557 1.369 2.557m3.747-.502c.083-.284.17-.564.303-.845l.545.412c-1.774 1.534-3.6 2.383-5.354 2.383-2.178 0-3.51-1.81-2.747-4.34 1.033-3.416 5.364-6.704 9.021-6.704.948 0 1.773.377 2.496 1.086l.432-.782 2.51-.486-4.678 8.133c-.274.478-.496.939-.618 1.344-.036.117-.039.16-.034.168.783 0 3.782-2.53 4.178-3.445l-.012 1.744c-.875.922-3.174 3.282-4.833 3.282-1.12 0-1.517-.934-1.209-1.95m33.732.472c1.053 0 2.727-.794 4.545-2.478l2.674-4.65c-.45-.754-1.12-1.106-1.817-1.106-2.473 0-5.884 2.743-6.77 5.677-.507 1.67.218 2.557 1.368 2.557m3.747-.503a5.69 5.69 0 0 1 .304-.843l.544.412c-1.775 1.533-3.599 2.382-5.352 2.382-2.18 0-3.512-1.81-2.748-4.339 1.033-3.417 5.364-6.704 9.02-6.704.948 0 1.773.376 2.496 1.085l.433-.781 2.51-.487-4.678 8.134c-.275.477-.497.938-.619 1.343-.035.118-.038.16-.033.168.782 0 2.881-2.123 3.281-2.525l.885.825c-.874.922-3.174 3.281-4.833 3.281-1.12 0-1.517-.934-1.21-1.95m36.85.351c1.053 0 2.727-.795 4.544-2.479l2.675-4.647c-.45-.756-1.12-1.108-1.817-1.108-2.473 0-5.885 2.743-6.77 5.677-.507 1.67.218 2.557 1.368 2.557m3.747-.502c.084-.283.171-.563.303-.844l.545.411c-1.775 1.534-3.6 2.384-5.353 2.384-2.179 0-3.511-1.81-2.747-4.34 1.033-3.416 5.363-6.704 9.02-6.704.948 0 1.773.376 2.496 1.086l.433-.782 2.508-.486-4.677 8.132c-.274.478-.496.94-.618 1.344-.037.118-.038.16-.034.168.783 0 2.882-2.123 3.282-2.524l.885.825c-.875.92-3.174 3.281-4.833 3.281-1.12 0-1.518-.934-1.21-1.951"/><g transform="translate(0 13.739)"><mask id="b" fill="#fff"><use xlink:href="#a"/></mask><path fill="#FFF" d="M38.135 25.42c-1.817 1.684-3.49 2.48-4.544 2.48-1.15 0-1.874-.888-1.368-2.558.887-2.934 4.298-5.678 6.772-5.678.696 0 1.365.352 1.816 1.108l-2.676 4.648zm-30.83 2.203c-.55 0-6.242.024-6.242-1.325 0-.442.5-.893 2.464-.893 1.57 0 4.46.63 8.703 1.92a37.984 37.984 0 0 1-4.926.298zm29.849-23.36c1.865-2.176 3.217-3.112 4.092-3.112.06 0 .131.028.155.035l.01.088c0 .728-.997 2.367-3.265 5.022a55.371 55.371 0 0 1-5.744 5.802c1.74-3.556 3.325-6.162 4.752-7.834zm2.06 23.503c-.004-.008-.002-.051.034-.169.122-.404.345-.865.62-1.343l4.676-8.134-2.508.486-.434.782c-.722-.708-1.548-1.084-2.495-1.084-3.656 0-7.988 3.287-9.021 6.703-.639 2.117.194 3.727 1.758 4.196a5.459 5.459 0 0 1-.538.026c-1.006 0-2.061-.126-3.166-.376-1.032-.226-4.026-.994-8.976-2.308 2.71-.842 4.924-2.066 6.63-3.678 1.935-1.832 3.793-4.705 5.576-8.595 2.366-1.743 4.786-4.05 7.264-6.922 2.47-2.845 3.842-4.903 3.842-6.076 0-.749-.494-1.12-1.23-1.12-1.574 0-3.699 1.514-6.327 4.265-1.371 1.439-2.551 2.867-3.534 4.283-1.014 1.456-2.641 4.052-4.879 7.793-2.661 2.243-4.89 3.802-6.69 4.693-1.787.894-3.582 1.335-5.383 1.335-2.102 0-3.714-.533-4.877-1.562-.62-.553-1.307-1.016-1.681-1.137-.174-.056-.56.296-.574.603.095.2.336.482.703.848 1.58 1.564 3.686 2.33 6.277 2.33 3.26 0 6.698-1.392 10.302-4.119-1.256 1.768-2.33 3.09-3.224 3.974a11.882 11.882 0 0 1-3.966 2.601c-5.23-1.353-9.202-2.038-11.891-2.038-3.296 0-5.502.586-5.502 2.275 0 1.798 2.79 2.408 7.09 2.408 2.526 0 4.98-.233 7.365-.697 3.694 1.175 6.447 1.947 8.26 2.318 1.838.376 3.75.564 5.736.564 2.71 0 4.832-.485 6.317-1.498.222-.155.592-.383.97-.702.548-.34 1.05-.658 1.538-1.012-.158.9.257 1.668 1.27 1.668 1.66 0 3.96-2.36 4.836-3.282l-.885-.823c-.4.4-2.5 2.524-3.283 2.524z" mask="url(#b)"/></g><path fill="#FFF" d="M135.515 33.388c-1.646 0-3.89 1.466-5.4 4.061 3.573-.407 5.61-1.769 6.025-3.139.18-.596-.086-.922-.625-.922m-5.968 5.406a.747.747 0 0 0-.247.286c-.433 1.432-.61 2.454 1.37 2.454 1.656 0 3.206-.984 4.51-1.857l.705 1.01c-1.64 1.148-3.843 2.384-5.956 2.384-2.522 0-3.612-1.623-2.858-4.12.947-3.129 5.233-6.924 8.955-6.924 1.54 0 2.4 1.09 1.98 2.483-.652 2.148-3.69 3.773-8.46 4.284m-39.597 2.62c-1.411.91-2.774 1.405-4.042 1.405-2.327 0-3.324-1.695-2.62-4.031 1.05-3.466 5.594-6.703 9.067-6.703.912 0 1.73.378 2.451 1.086l.433-.787 2.448-.422-5.58 9.492c-2.868 4.83-5.241 7.733-8.656 7.733-1.669 0-2.568-1.263-2.173-2.572.257-.846.95-1.486 1.684-1.486.895 0 1.024.647.788 1.433-.38.096-.821.228-.95.652-.076.252.067.656.837.656 2.326 0 3.862-2.226 6.313-6.456m1.666-2.834l2.353-4.03c-.448-.75-1.12-1.106-1.86-1.106-2.214 0-5.715 2.616-6.612 5.59-.47 1.546.068 2.205 1.167 2.205 1.36 0 2.895-.756 4.952-2.659m16.13-22.504c-.942.46-1.81 1.22-2.6 1.888l-.842-.912c.786-.658 3.244-2.792 4.574-2.792 1.068 0 1.324.846 1.03 1.82a4.38 4.38 0 0 1-.345.818L97.014 39.936c-.23.414-.516.847-.653 1.304-.073.24-.054.322-.049.332.984.015 3.166-1.892 3.668-2.337l.843.914c-1.157 1.006-3.349 2.974-5.158 2.974-1.206 0-1.605-.934-1.27-2.042.172-.566.52-1.261.938-2.052l12.045-22.247a7.72 7.72 0 0 0 .368-.706"/><path fill="#FFF" d="M111.129 24.993c-.802 0-1.251-.79-1.047-1.466.19-.617.96-1.265 1.662-1.265.803 0 1.334.662 1.09 1.468-.22.725-.979 1.263-1.705 1.263m-4.702 10.964l-2.227 3.985c-.37.629-.64 1.125-.733 1.43-.026.088-.007.16-.006.189a.774.774 0 0 0 .223.026c.723 0 3.984-2.578 4.125-3.106l.158 1.669c-1.148.997-3.316 2.973-5.112 2.973-1.233 0-1.818-.956-1.493-2.043.218-.709.723-1.405 1.075-2.054l2.136-3.845c.221-.415.516-.855.653-1.306.046-.152.006-.208.003-.214-.758 0-2.848 2.134-3.237 2.523l-.89-.822c1.104-1.146 3.107-3.283 5.015-3.283 1.097 0 1.568.913 1.253 1.954-.212.695-.598 1.294-.943 1.924m22.222-8.79c-.826.35-1.88 1.508-2.424 2.137l-1.1-.707c.977-.982 2.89-3.06 4.545-3.06 1.071 0 1.29.805.996 1.774a5.72 5.72 0 0 1-.46 1.046l-2.28 3.81h2.111l-.435 1.45h-2.498l-3.771 6.331c-.357.585-.61 1.033-.704 1.335-.073.243-.038.304.238.304.72 0 4.157-2.432 4.29-2.893l-.01 1.456c-1.16 1.008-3.346 2.973-5.157 2.973-1.21 0-1.631-.984-1.285-2.129.205-.691.652-1.35 1.005-1.974l3.167-5.403h-2.075l.439-1.45h2.494l2.35-3.98c.302-.545.485-.871.564-1.02m20.822-11.091c-.943.46-1.811 1.22-2.601 1.888l-.843-.912c.788-.66 3.245-2.792 4.576-2.792 1.065 0 1.324.842 1.028 1.818a3.913 3.913 0 0 1-.343.82l-12.551 23.038c-.121.22-.819 1.397-.7 1.638.982.013 3.164-1.893 3.667-2.34l.84.916c-1.16 1.007-3.345 2.973-5.156 2.973-1.204 0-1.603-.934-1.27-2.042.171-.566.524-1.262.939-2.052L149.1 16.782a7.86 7.86 0 0 0 .37-.706m6.102 0c-.944.46-1.812 1.22-2.602 1.888l-.845-.911c.788-.66 3.247-2.793 4.578-2.793 1.064 0 1.323.845 1.028 1.82a4.229 4.229 0 0 1-.344.818l-12.55 23.037c-.12.222-.819 1.396-.7 1.637.981.015 4.135-2.412 4.22-2.807l.29 1.384c-1.156 1.006-3.349 2.974-5.156 2.974-1.207 0-1.607-.932-1.272-2.042.173-.566.524-1.261.938-2.052l12.046-22.247a8.25 8.25 0 0 0 .369-.706m9.188 9.413a.813.813 0 0 0-.342.062v1.226a.99.99 0 0 0 .249.032c.489 0 .738-.24.738-.669 0-.427-.21-.651-.645-.651zm.653 2.933l-.98-1.504h-.015v1.504h-.444v-3.034c.172-.092.451-.162.794-.162.723 0 1.08.349 1.08.892 0 .489-.357.838-.918.861l1.004 1.443h-.521zm-.583-3.918c-1.307 0-2.31 1.078-2.31 2.382s1.003 2.383 2.31 2.383c1.306 0 2.31-1.08 2.31-2.383 0-1.304-1.004-2.382-2.31-2.382zm0 5.146a2.755 2.755 0 1 1 0-5.512 2.759 2.759 0 0 1 2.76 2.756 2.754 2.754 0 0 1-2.76 2.756z"/><mask id="d" fill="#fff"><use xlink:href="#c"/></mask><path fill="#FFF" d="M20.426 58.369c0-1.08-.202-1.928-.61-2.544-.404-.615-1.009-.922-1.813-.922-.22 0-.44.017-.657.05-.22.033-.39.078-.516.138v6.558c.126.058.297.105.516.138.216.032.437.049.657.049.804 0 1.41-.307 1.813-.923.408-.615.61-1.462.61-2.544m.651.012c0 .61-.067 1.157-.204 1.64-.135.48-.335.89-.596 1.224a2.666 2.666 0 0 1-.962.772c-.38.181-.81.272-1.29.272a4.76 4.76 0 0 1-.946-.099 3.683 3.683 0 0 1-.88-.298V54.87c.266-.134.559-.234.88-.3.32-.065.637-.1.946-.1.48 0 .91.092 1.29.271.378.183.699.439.962.773.261.335.46.746.596 1.232.137.486.204 1.03.204 1.634m5.214.795a5.9 5.9 0 0 0-.083-1.01 3.011 3.011 0 0 0-.264-.846 1.58 1.58 0 0 0-.491-.585 1.274 1.274 0 0 0-.754-.22c-.303 0-.556.07-.758.216a1.53 1.53 0 0 0-.487.584c-.121.247-.209.53-.265.85a6.165 6.165 0 0 0 0 2.026c.056.324.144.61.265.855.122.246.285.444.487.591.202.146.455.222.758.222.294 0 .545-.076.754-.222.204-.147.37-.345.49-.59.123-.247.21-.532.265-.856.056-.324.083-.662.083-1.015m.598.02c0 .444-.041.853-.127 1.232a3.024 3.024 0 0 1-.393.982 1.89 1.89 0 0 1-.68.646c-.277.155-.607.233-.99.233-.385 0-.713-.078-.99-.233a1.903 1.903 0 0 1-.681-.646 3.014 3.014 0 0 1-.392-.982 5.589 5.589 0 0 1-.127-1.231c0-.441.042-.85.127-1.224.085-.376.215-.703.392-.978.177-.276.405-.49.681-.646.277-.154.605-.232.99-.232.383 0 .713.078.99.232.276.155.504.37.68.646.177.275.308.602.393.978.086.375.127.783.127 1.224m3.532 2.982h-.487l-1.98-5.951h.642l1.438 4.669a6.287 6.287 0 0 1 .154.685h.023c.014-.095.035-.208.061-.337.025-.128.057-.244.094-.348l1.483-4.67h.553L30.42 62.18zm6.828-3.578c-.014-.67-.144-1.182-.387-1.54-.243-.357-.63-.536-1.161-.536-.281 0-.528.063-.742.188a1.578 1.578 0 0 0-.536.53c-.144.228-.25.499-.32.811-.07.314-.105.662-.105 1.044l3.25-.497zm-3.241.883c.037.714.221 1.285.553 1.713.332.425.815.638 1.449.638.273 0 .538-.034.796-.104a2.29 2.29 0 0 0 .63-.26l.19.409a2.686 2.686 0 0 1-.708.287c-.295.08-.602.122-.918.122-.805 0-1.431-.266-1.881-.795-.45-.53-.675-1.299-.675-2.308 0-.464.052-.885.154-1.264.104-.379.251-.702.443-.972a1.97 1.97 0 0 1 .708-.617c.28-.143.597-.216.952-.216.657 0 1.176.223 1.56.668.383.445.575 1.15.575 2.115l-3.828.584zm15.41 2.695l-.685-6.349a3.585 3.585 0 0 1-.04-.425 7.936 7.936 0 0 0-.016-.243 2.296 2.296 0 0 1-.011-.204h-.022l-.039.21c-.01.06-.024.12-.039.181l-.05.205c-.019.074-.042.165-.072.276l-1.792 6.349h-.53L44.34 55.83a7.119 7.119 0 0 1-.12-.486 6.84 6.84 0 0 1-.078-.386h-.022a15.67 15.67 0 0 0-.023.347c-.007.13-.023.305-.045.525l-.695 6.349h-.554l.952-7.598h.74l1.715 6.095c.052.178.09.334.116.47.026.137.053.289.083.459h.022l.078-.438a5.25 5.25 0 0 1 .121-.49l1.715-6.096h.74l.953 7.598h-.62zm5.434-3.49c-.427.052-.81.12-1.15.204-.34.086-.626.2-.863.343a1.54 1.54 0 0 0-.541.53 1.45 1.45 0 0 0-.188.757c0 .44.13.783.392 1.027.262.242.658.364 1.19.364.213 0 .426-.023.635-.067.21-.044.386-.104.525-.176v-2.982zm.564 3.19a3.404 3.404 0 0 1-.817.3c-.31.073-.638.11-.986.11-.647 0-1.158-.151-1.531-.453-.373-.302-.559-.74-.559-1.313 0-.355.082-.658.244-.912a1.98 1.98 0 0 1 .68-.64 3.92 3.92 0 0 1 1.051-.413c.41-.104.86-.181 1.354-.233v-.407c0-.473-.115-.818-.348-1.04-.232-.22-.581-.33-1.045-.33a2.989 2.989 0 0 0-1.437.388l-.167-.389c.228-.124.485-.227.769-.309a3.07 3.07 0 0 1 .845-.121c.613 0 1.092.15 1.433.453.344.303.514.754.514 1.358v3.952zm5.226.3v-4.152c0-.515-.115-.895-.344-1.142-.229-.248-.623-.37-1.183-.37-.465 0-.874.077-1.228.232v5.432h-.597v-5.654a3.87 3.87 0 0 1 .85-.297c.318-.075.643-.111.975-.111.737 0 1.276.162 1.614.485.34.325.51.8.51 1.425v4.152h-.597zm5.777-5.476a1.748 1.748 0 0 0-.459-.15 2.962 2.962 0 0 0-.549-.049 1.8 1.8 0 0 0-.877.203c-.248.137-.45.33-.61.575-.158.247-.274.54-.347.883a5.35 5.35 0 0 0-.111 1.132c0 .81.147 1.438.442 1.888.295.449.763.674 1.405.674a2.246 2.246 0 0 0 1.106-.288v-4.868zm.575 5.64c0 .354-.046.673-.138.956a2.018 2.018 0 0 1-.41.727 1.83 1.83 0 0 1-.669.472c-.265.108.031.164-.309.164-.31 0-1.21-.037-1.505-.11a2.835 2.835 0 0 1-.741-.287l.22-.409c.163.096.366.177.61.243.242.066.486.099.73.099.295 0 .546-.044.752-.132a1.342 1.342 0 0 0 .797-.933c.059-.217.088-.452.088-.7v-.464a2.08 2.08 0 0 1-.542.214 2.835 2.835 0 0 1-.72.083 2.039 2.039 0 0 1-1.68-.806 2.74 2.74 0 0 1-.455-.933 4.523 4.523 0 0 1-.155-1.23c0-.463.054-.89.162-1.28a2.88 2.88 0 0 1 .48-1.006c.215-.28.478-.499.791-.657a2.431 2.431 0 0 1 1.101-.236c.324 0 .627.035.907.11.28.073.51.169.686.287v5.829zm1.95-.164h.597v-5.951h-.597v5.95zm.708-7.618c0 .11-.04.206-.122.286a.39.39 0 0 1-.285.123.394.394 0 0 1-.29-.123.387.387 0 0 1-.121-.286.39.39 0 0 1 .121-.288.4.4 0 0 1 .575 0 .39.39 0 0 1 .122.288zm4.86 4.128c-.428.052-.811.12-1.15.204-.34.086-.628.2-.863.343-.237.143-.418.32-.543.53a1.45 1.45 0 0 0-.187.757c0 .44.13.783.391 1.027.263.242.66.364 1.19.364.215 0 .426-.023.636-.067.211-.044.386-.104.525-.176v-2.982zm.562 3.19a3.43 3.43 0 0 1-.816.3 4.29 4.29 0 0 1-.985.11c-.649 0-1.16-.151-1.532-.453-.373-.302-.558-.74-.558-1.313 0-.355.08-.658.243-.912.16-.253.39-.467.68-.64a3.91 3.91 0 0 1 1.05-.413 9.644 9.644 0 0 1 1.355-.233v-.407c0-.473-.115-.818-.348-1.04-.232-.22-.58-.33-1.045-.33a2.984 2.984 0 0 0-1.438.388l-.166-.389c.228-.124.485-.227.768-.309a3.06 3.06 0 0 1 .846-.121c.613 0 1.091.15 1.433.453.343.303.513.754.513 1.358v3.952zm3.944-5.233a2.046 2.046 0 0 0-.598-.077 2.28 2.28 0 0 0-.448.045 1.624 1.624 0 0 0-.426.143v5.421h-.597v-5.653c.243-.125.515-.221.819-.292a4.51 4.51 0 0 1 1.016-.104c.082 0 .154.002.216.004.063.005.124.01.183.017l-.165.496zm4.87 1.955c-.014-.67-.144-1.182-.388-1.54-.243-.357-.63-.536-1.16-.536a1.44 1.44 0 0 0-.742.188 1.558 1.558 0 0 0-.537.53c-.142.228-.25.499-.32.811a4.8 4.8 0 0 0-.107 1.044l3.253-.497zm-3.242.883c.037.714.223 1.285.554 1.713.331.425.814.638 1.45.638.272 0 .537-.034.796-.104.257-.07.468-.157.63-.26l.187.409a2.684 2.684 0 0 1-.706.287c-.296.08-.602.122-.92.122-.804 0-1.43-.266-1.879-.795-.45-.53-.676-1.299-.676-2.308 0-.464.053-.885.156-1.264a3.03 3.03 0 0 1 .442-.972c.192-.267.428-.475.708-.617.28-.143.597-.216.951-.216.657 0 1.176.223 1.56.668.384.445.575 1.15.575 2.115l-3.828.584zm10.986-3.93l-1.173-1.424a.3.3 0 0 1 .133-.15.398.398 0 0 1 .198-.048c.141 0 .267.046.378.143l.84 1.479h-.376zm1.56 3.047c-.015-.67-.144-1.182-.387-1.54-.244-.357-.63-.536-1.162-.536-.28 0-.527.063-.742.188a1.569 1.569 0 0 0-.536.53 2.556 2.556 0 0 0-.32.811 4.81 4.81 0 0 0-.106 1.044l3.253-.497zm-3.241.884c.036.713.221 1.284.553 1.711.332.426.814.64 1.448.64.273 0 .54-.035.797-.105.258-.07.468-.157.63-.26l.188.409a2.698 2.698 0 0 1-.707.287 3.5 3.5 0 0 1-.919.122c-.803 0-1.43-.266-1.88-.795-.45-.531-.675-1.299-.675-2.308 0-.464.052-.885.156-1.264.103-.379.25-.702.441-.972.192-.267.429-.475.709-.617.28-.144.597-.216.95-.216.657 0 1.177.223 1.56.669.383.445.576 1.149.576 2.114l-3.827.585zm12.81 2.362c-.199.118-.468.22-.808.31a4.15 4.15 0 0 1-1.04.132c-.649 0-1.14-.151-1.476-.454-.336-.301-.503-.772-.503-1.413v-4.194h.597v4.194c0 .48.11.84.333 1.083.22.242.57.365 1.05.365.22 0 .448-.02.68-.061.232-.04.421-.102.57-.183v-5.398h.597v5.62zm5.225.332v-4.152c0-.515-.115-.895-.343-1.142-.23-.248-.624-.37-1.184-.37-.465 0-.874.077-1.227.232v5.432h-.598v-5.654a3.87 3.87 0 0 1 .851-.297c.317-.075.642-.111.974-.111.738 0 1.275.162 1.616.485.337.325.507.8.507 1.425v4.152h-.596zm9.569-5.499c0-.544-.143-.98-.427-1.31-.284-.325-.746-.49-1.387-.49-.192 0-.382.017-.57.05-.189.034-.355.08-.503.139v3.4a5.862 5.862 0 0 0 .874.067c.376 0 .693-.05.95-.15a1.59 1.59 0 0 0 .62-.403c.154-.17.267-.366.338-.591.07-.224.105-.461.105-.712m.62.023c0 .3-.05.588-.15.86a1.89 1.89 0 0 1-.47.718 2.226 2.226 0 0 1-.82.486c-.33.117-.73.175-1.194.175a4.48 4.48 0 0 1-.449-.02 6.286 6.286 0 0 1-.424-.055v3.311h-.62V54.87a3.789 3.789 0 0 1 1.693-.4c.818 0 1.428.205 1.83.614.403.408.603.947.603 1.618m1.595 5.476h.598v-5.951h-.598v5.95zm.71-7.618c0 .11-.04.206-.122.286a.395.395 0 0 1-.288.123.394.394 0 0 1-.288-.123.39.39 0 0 1-.122-.286c0-.111.04-.206.122-.288a.399.399 0 0 1 .576 0 .392.392 0 0 1 .121.288zm4.858 4.128c-.428.052-.81.12-1.15.204-.34.086-.627.2-.863.343-.236.143-.417.32-.541.53-.127.21-.19.462-.19.757 0 .44.132.783.394 1.027.262.242.658.364 1.188.364.214 0 .427-.023.636-.067.211-.044.386-.104.526-.176v-2.982zm.564 3.19a3.464 3.464 0 0 1-.818.3c-.309.073-.639.11-.984.11-.65 0-1.16-.151-1.533-.453-.372-.302-.558-.74-.558-1.313 0-.355.081-.658.243-.912a1.99 1.99 0 0 1 .68-.64 3.91 3.91 0 0 1 1.051-.413c.41-.104.861-.181 1.355-.233v-.407c0-.473-.116-.818-.349-1.04-.231-.22-.58-.33-1.044-.33a2.78 2.78 0 0 0-.753.104 3.03 3.03 0 0 0-.686.283l-.166-.388c.229-.124.485-.227.77-.309.283-.081.565-.121.846-.121.612 0 1.089.15 1.432.453.343.303.514.754.514 1.358v3.952zm5.082.035a1.687 1.687 0 0 1-.543.276c-.214.065-.45.1-.708.1-.353 0-.667-.079-.94-.234a2.057 2.057 0 0 1-.692-.646 3.027 3.027 0 0 1-.425-.982 4.95 4.95 0 0 1-.144-1.232c0-.44.047-.848.144-1.224.094-.375.238-.702.425-.977.189-.276.419-.49.692-.646.273-.154.587-.232.94-.232.258 0 .494.033.708.099.214.067.394.159.543.277l-.167.375a1.544 1.544 0 0 0-.464-.232 1.86 1.86 0 0 0-.576-.089c-.266 0-.501.071-.707.21-.207.14-.378.328-.515.563-.136.236-.24.514-.31.84-.07.324-.105.665-.105 1.026 0 .362.035.7.105 1.022.07.32.175.601.316.844.14.243.31.435.514.574.203.14.436.21.702.21.2 0 .39-.03.57-.089.18-.059.334-.135.46-.23l.177.397zm4.86-3.313c-.015-.67-.145-1.182-.388-1.54-.243-.357-.63-.536-1.161-.536a1.45 1.45 0 0 0-.743.188 1.556 1.556 0 0 0-.535.53 2.49 2.49 0 0 0-.321.811 4.715 4.715 0 0 0-.106 1.044l3.253-.497zm-3.242.883c.037.714.222 1.285.554 1.713.33.425.813.638 1.449.638.272 0 .537-.034.795-.104a2.29 2.29 0 0 0 .63-.26l.189.409a2.677 2.677 0 0 1-.709.287c-.294.08-.601.122-.918.122-.803 0-1.43-.266-1.88-.795-.45-.53-.674-1.299-.674-2.308 0-.464.051-.885.153-1.264.105-.379.251-.702.444-.972.192-.267.428-.475.708-.617a2.06 2.06 0 0 1 .952-.216c.655 0 1.176.223 1.559.668.383.445.574 1.15.574 2.115l-3.826.584zm7.525-2.838a2.032 2.032 0 0 0-.596-.077 2.32 2.32 0 0 0-.45.045c-.15.029-.291.077-.426.143v5.421h-.595v-5.653c.243-.125.515-.221.817-.292.303-.07.64-.104 1.018-.104.082 0 .153.002.216.004.062.005.123.01.182.017l-.166.496zm4.87 1.955c-.014-.67-.144-1.182-.387-1.54-.244-.357-.63-.536-1.16-.536-.282 0-.529.063-.742.188a1.553 1.553 0 0 0-.537.53 2.58 2.58 0 0 0-.32.811c-.07.314-.106.662-.106 1.044l3.252-.497zm-3.24.883c.036.714.222 1.285.552 1.713.332.425.816.638 1.45.638.272 0 .538-.034.797-.104.258-.07.468-.157.63-.26l.188.409a2.662 2.662 0 0 1-.708.287c-.295.08-.602.122-.918.122-.804 0-1.431-.266-1.881-.795-.449-.53-.674-1.299-.674-2.308 0-.464.051-.885.154-1.264.104-.379.251-.702.443-.972a1.96 1.96 0 0 1 .707-.617c.281-.143.598-.216.952-.216.656 0 1.177.223 1.56.668.383.445.575 1.15.575 2.115l-3.827.584z" mask="url(#d)"/></g></svg>