<?xml version="1.0" encoding="UTF-8"?>
<svg width="54px" height="34px" viewBox="0 0 54 34" version="1.1" xmlns="http://www.w3.org/2000/svg" xmlns:xlink="http://www.w3.org/1999/xlink">
    <!-- Generator: Sketch 42 (36781) - http://www.bohemiancoding.com/sketch -->
    <title>american express</title>
    <desc>Created with Sketch.</desc>
    <defs></defs>
    <g id="Page-1" stroke="none" stroke-width="1" fill="none" fill-rule="evenodd">
        <g id="american-express" transform="translate(1.000000, 0.633457)">
            <g id="card" stroke="#EFEFEF" fill="#F9F9F9">
                <rect x="0.0207129654" y="0.156188683" width="52.6971429" height="32.6972477" rx="5"></rect>
            </g>
            <g id="logo" transform="translate(9.000000, 11.000000)" fill="#2E77BC">
                <g id="express" transform="translate(7.384615, 6.304348)">
                    <path d="M21.7358863,1.75273883 C21.9140267,1.92646571 22.0096198,2.14591019 22.0096198,2.5174201 C22.0096198,3.29396618 21.4950562,3.65644143 20.572259,3.65644143 L18.7903934,3.65644143 L18.7903934,2.88250779 L20.5652165,2.88250779 C20.7387389,2.88250779 20.8616938,2.86084636 20.9388149,2.79303192 C21.0017355,2.73729999 21.0469922,2.65609682 21.0469922,2.55758628 C21.0469922,2.4524358 20.9981565,2.36894676 20.9353514,2.3188751 C20.8652728,2.26379628 20.7687561,2.23876045 20.6095496,2.23876045 C19.7538292,2.21132989 18.6823316,2.26379628 18.6823316,1.12150941 C18.6823316,0.597934049 19.031339,0.0468192765 19.9903877,0.0468192765 L21.8246679,0.0468192765 L21.8246679,0.815201497 L20.1463615,0.815201497 C19.9798817,0.815201497 19.8718198,0.820970622 19.7796902,0.88029465 C19.6795945,0.938747866 19.6424194,1.02550245 19.6424194,1.14001415 C19.6424194,1.27629614 19.7275065,1.36881985 19.8426108,1.40898603 C19.9391276,1.44066179 20.0426868,1.44980531 20.1986607,1.44980531 L20.6911732,1.46232323 C21.1877265,1.47375263 21.5286524,1.55484694 21.7358863,1.75273883 L21.7358863,1.75273883 Z" id="s"></path>
                    <path d="M25.1974248,1.75273883 C25.3755651,1.92646571 25.4711583,2.14591019 25.4711583,2.5174201 C25.4711583,3.29396618 24.9565947,3.65644143 24.0337975,3.65644143 L22.2519319,3.65644143 L22.2519319,2.88250779 L24.026755,2.88250779 C24.2002773,2.88250779 24.3232323,2.86084636 24.4003534,2.79303192 C24.463274,2.73729999 24.5085306,2.65609682 24.5085306,2.55758628 C24.5085306,2.4524358 24.459695,2.36894676 24.3968898,2.3188751 C24.3268113,2.26379628 24.2302945,2.23876045 24.0710881,2.23876045 C23.2153677,2.21132989 22.1438701,2.26379628 22.1438701,1.12150941 C22.1438701,0.597934049 22.4928774,0.0468192765 23.4519261,0.0468192765 L25.2862063,0.0468192765 L25.2862063,0.815201497 L23.6079,0.815201497 C23.4414201,0.815201497 23.3333583,0.820970622 23.2412287,0.88029465 C23.1411329,0.938747866 23.1039578,1.02550245 23.1039578,1.14001415 C23.1039578,1.27629614 23.189045,1.36881985 23.3041493,1.40898603 C23.400666,1.44066179 23.5042253,1.44980531 23.6601991,1.44980531 L24.1527117,1.46232323 C24.649265,1.47375263 24.9901908,1.55484694 25.1974248,1.75273883 L25.1974248,1.75273883 Z" id="s"></path>
                    <polygon id="Path-4" points="15.188679 0.0467104251 18.2422337 0.0467104251 18.2422337 0.79332236 16.0997002 0.79332236 16.0997002 1.44958761 18.1898191 1.44958761 18.1898191 2.18596751 16.0997002 2.18596751 16.0997002 2.90416922 18.2422337 2.90743477 18.2422337 3.65644143 15.188679 3.65644143"></polygon>
                    <path d="M14.0329023,1.9789321 C14.2364419,2.04990323 14.4030372,2.17682399 14.4809664,2.28197447 C14.6102711,2.45820493 14.6289741,2.62267943 14.6325531,2.94096101 L14.6325531,3.65644143 L13.714143,3.65644143 L13.714143,3.20481686 C13.714143,2.98776712 13.7361941,2.66611115 13.5662507,2.49837111 C13.4325589,2.36894676 13.2287884,2.33803295 12.8949051,2.33803295 L11.9172688,2.33803295 L11.9172688,3.65644143 L10.9979352,3.65644143 L10.9979352,0.0467104251 L13.1102206,0.0467104251 C13.5732932,0.0467104251 13.9106401,0.0659771276 14.2110427,0.217171759 C14.4997848,0.381537413 14.6813887,0.606859866 14.6813887,1.01864481 C14.6812733,1.59479541 14.2737324,1.88880312 14.0329023,1.9789321 Z M13.4803554,1.52970226 C13.5989233,1.46210552 13.6696945,1.3377972 13.6696945,1.18322817 C13.6696945,1.02887685 13.5989233,0.91697758 13.4803554,0.858524364 C13.3696382,0.796696754 13.2066219,0.793431211 13.0436056,0.793431211 L11.9171534,0.793431211 L11.9171534,1.60415664 L13.0284815,1.60415664 C13.2066219,1.60415664 13.3578623,1.59816981 13.4803554,1.52970226 Z" id="r"></path>
                    <path d="M10.5683433,1.23591226 C10.5683433,2.23876045 9.77485082,2.44568701 8.97500859,2.44568701 L7.83343239,2.44568701 L7.83343239,3.65644143 L6.05514577,3.65644143 L4.92857815,2.46157932 L3.75790839,3.65644143 L0.133796491,3.65644143 L0.133796491,0.0467104251 L3.81355561,0.0467104251 L4.93919962,1.22992543 L6.10294234,0.0467104251 L9.02649959,0.0467104251 C9.75256884,0.0467104251 10.5683433,0.236220759 10.5683433,1.23591226 Z M9.01587813,1.71257266 C9.36742541,1.71257266 9.58597352,1.548207 9.58597352,1.23591226 C9.58597352,0.920351975 9.35680395,0.793431211 9.02649959,0.793431211 L7.83343239,0.793431211 L7.83343239,1.71257266 L9.01587813,1.71257266 Z M6.92229573,3.32814553 L6.92229573,0.434221504 L5.51760746,1.85778046 L6.92229573,3.32814553 Z M3.29472031,2.90416922 L4.33977975,1.84526255 L3.33905337,0.79332236 L1.04527951,0.79332236 L1.04527951,1.44958761 L3.05377477,1.44958761 L3.05377477,2.18596751 L1.04527951,2.18596751 L1.04527951,2.90416922 L3.29472031,2.90416922 Z" id="exp"></path>
                </g>
                <g id="american">
                    <path d="M30.4249316,3.75189647 L29.1285361,3.75189647 L27.3942362,1.04323757 L27.3942362,3.75189647 L25.5310933,3.75189647 L25.1750434,2.94694017 L23.2744946,2.94694017 L22.9290662,3.75189647 L21.8583767,3.75189647 C21.4137762,3.75189647 20.8507233,3.65915506 20.5318485,3.35273829 C20.2103184,3.04632153 20.0429149,2.63137989 20.0429149,1.97500579 C20.0429149,1.43978332 20.1430107,0.950496159 20.5362356,0.563855892 C20.8319048,0.275835017 21.2950929,0.143036277 21.925569,0.143036277 L22.8114219,0.143036277 L22.8114219,0.916316811 L21.9441565,0.916316811 C21.6103886,0.916316811 21.4218577,0.963122925 21.2402538,1.13020986 C21.0841645,1.2820576 20.9771417,1.56931652 20.9771417,1.94757523 C20.9771417,2.33421549 21.0586499,2.61309285 21.2288242,2.79509243 C21.369674,2.93790551 21.6255127,2.98122837 21.8663428,2.98122837 L22.2772317,2.98122837 L23.5668156,0.143145129 L24.9376769,0.143145129 L26.4866785,3.55661701 L26.4866785,0.143145129 L27.8795908,0.143145129 L29.4878186,2.65663342 L29.4878186,0.143145129 L30.4249316,0.143145129 L30.4249316,3.75189647 Z M24.8312823,2.19466796 L24.2051933,0.756087511 L23.5824524,2.19466796 L24.8312823,2.19466796 Z" id="can"></path>
                    <polygon id="i" points="18.6613168 0.143036277 19.5948509 0.143036277 19.5948509 3.75189647 18.6613168 3.75189647"></polygon>
                    <path d="M18.1305901,1.11497066 C18.1305901,1.69046816 17.7233956,1.98763255 17.4859136,2.07689072 C17.686105,2.14873266 17.8572029,2.27565343 17.9385956,2.3808039 C18.0676695,2.56029991 18.0899514,2.72063806 18.0899514,3.04294713 L18.0899514,3.75189647 L17.1671543,3.75189647 L17.1636907,3.29678866 C17.1636907,3.07963006 17.1857418,2.76733532 17.019262,2.59371729 C16.8856855,2.46679653 16.6817997,2.43925712 16.3525344,2.43925712 L15.3703955,2.43925712 L15.3703955,3.75189647 L14.455449,3.75189647 L14.455449,0.143036277 L16.5598837,0.143036277 C17.0273435,0.143036277 17.3719637,0.154792231 17.6676329,0.315892342 C17.9570677,0.477210157 18.1305901,0.712438089 18.1305901,1.11497066 Z M16.9342903,1.62178291 C17.0528581,1.56343854 17.1228212,1.43640893 17.1228212,1.27868321 C17.1228212,1.12411418 17.0493946,1.01232377 16.9307113,0.959639679 C16.8226495,0.901404166 16.6561696,0.894546526 16.4968477,0.894546526 L15.3702801,0.894546526 L15.3702801,1.69612843 L16.4817236,1.69612843 C16.659864,1.69612843 16.8085645,1.6937337 16.9342903,1.62178291 Z" id="r"></path>
                    <polygon id="e" points="13.8213939 3.75189647 10.764953 3.75189647 10.764953 0.143036277 13.8213939 0.143036277 13.8213939 0.894546526 11.6800149 0.894546526 11.6800149 1.54504265 13.7700184 1.54504265 13.7700184 2.28479695 11.6800149 2.28479695 11.6800149 3.00550224 13.8213939 3.00550224"></polygon>
                    <path d="M10.0832168,3.75189647 L9.14529554,3.75189647 L9.14183202,0.925460331 L7.81507295,3.75189647 L7.01176721,3.75189647 L5.68177552,0.922956748 L5.68177552,3.75189647 L3.82094167,3.75189647 L3.46939439,2.94694017 L1.56445838,2.94694017 L1.20933212,3.75189647 L0.21553278,3.75189647 L1.85400865,0.143036277 L3.21320936,0.143036277 L4.7693689,3.55988256 L4.7693689,0.143036277 L6.26249238,0.143036277 L7.45983125,2.59121371 L8.55984521,0.143036277 L10.0831013,0.143036277 L10.0831013,3.75189647 L10.0832168,3.75189647 Z M3.13897458,2.19466796 L2.51288561,0.756087511 L1.89014471,2.19466796 L3.13897458,2.19466796 Z" id="am"></path>
                </g>
            </g>
        </g>
    </g>
</svg>