<svg width="78" height="80" viewBox="0 0 78 80">
  <path d="M45.0169013,57.4382868 L53.3740441,49.1175321 C53.3740441,49.1175321 56.6597584,45.9883593 60.1597584,49.1886496 L73.8026155,62.7721039 C73.8026155,62.7721039 76.0169013,66.8258049 73.4454727,69.3149196 L66.8026155,75.9288528 C66.8026155,75.9288528 55.0883298,83.3961968 36.3026155,71.4484464 C36.3026155,71.4484464 27.86128,67.0428194 19.8175426,59.0917594 C11.4699334,50.9484961 6.87404412,42.2191286 6.87404412,42.2191286 C-5.19738445,23.5152099 2.30261555,11.8519297 2.30261555,11.8519297 L8.94547269,5.2379965 C11.4454727,2.67776428 15.5169013,4.8824087 15.5169013,4.8824087 L29.231187,18.465863 C32.4454727,21.9506235 29.3026155,25.2220313 29.3026155,25.2220313 L20.9454727,33.5427861 C21.7052753,37.136134 29.5370024,45.3676882 31.3060026,47.1909566 L45.0169013,57.4382868 Z M75.1447579,0.069677127 L76.383457,0.585312116 C76.7053145,0.914573013 76.8976396,1.36108107 76.899092,1.82401125 L76.9687616,26.3223905 C76.9715804,27.2876497 76.190523,28.068707 75.22403,28.0671221 C74.2587709,28.0643033 73.4712808,27.279281 73.4696959,26.312788 L73.4117403,6.03864994 L39.3734341,40.0769562 C38.6923225,40.7580678 37.5842428,40.7555606 36.8987257,40.0700435 C36.2132086,39.3845263 36.2107014,38.2764467 36.891813,37.5953351 L70.9313531,3.55579495 L50.6559812,3.49907325 C49.6894881,3.49748835 48.9032319,2.71123216 48.901647,1.74473913 C48.8988282,0.779480002 49.678657,-0.00280586539 50.6463786,7.56498571e-06 L75.1447579,0.069677127 Z"/>
</svg>
