<?xml version="1.0" encoding="UTF-8"?>
<svg width="120px" height="114px" viewBox="0 0 120 114" version="1.1" xmlns="http://www.w3.org/2000/svg" xmlns:xlink="http://www.w3.org/1999/xlink">
    <!-- Generator: Sketch 42 (36781) - http://www.bohemiancoding.com/sketch -->
    <title>Computer@2x</title>
    <desc>Created with Sketch.</desc>
    <defs></defs>
    <g id="Page-1" stroke="none" stroke-width="1" fill="none" fill-rule="evenodd">
        <path d="M82.125,108.353535 L77.5912187,108.353535 C74.8882812,108.353535 72.751375,104.645657 72.1355625,102.529192 C71.8,101.374545 71.482875,98.7028283 71.2819062,96.7373737 L48.7180937,96.7373737 C48.517125,98.7028283 48.2,101.374545 47.8644375,102.529192 C47.248625,104.645657 45.1117187,108.353535 42.4087812,108.353535 L37.875,108.353535 C36.85725,108.353535 36.03125,109.394343 36.03125,110.676768 C36.03125,111.959192 36.85725,113 37.875,113 L82.125,113 C83.14275,113 83.96875,111.959192 83.96875,110.676768 C83.96875,109.394343 83.14275,108.353535 82.125,108.353535 L82.125,108.353535 Z M110.449275,76.6599815 C110.449275,78.5078814 108.948191,80.0045967 107.094897,80.0045967 L13.1723128,80.0045967 C11.3190189,80.0045967 9.81793478,78.5078814 9.81793478,76.6599815 L9.81793478,13.112292 C9.81793478,11.2643921 11.3190189,9.76767677 13.1723128,9.76767677 L107.094897,9.76767677 C108.948191,9.76767677 110.449275,11.2643921 110.449275,13.112292 L110.449275,76.6599815 Z M60,89.3838384 C58.98225,89.3838384 58.15625,88.5602424 58.15625,87.5454545 C58.15625,86.5306667 58.98225,85.7070707 60,85.7070707 C61.01775,85.7070707 61.84375,86.5306667 61.84375,87.5454545 C61.84375,88.5602424 61.01775,89.3838384 60,89.3838384 L60,89.3838384 Z M111.625,1 L8.375,1 C4.30215625,1 1,4.29254545 1,8.35353535 L1,89.2424242 C1,93.3034141 4.30215625,96.5959596 8.375,96.5959596 L111.625,96.5959596 C115.697844,96.5959596 119,93.3034141 119,89.2424242 L119,8.35353535 C119,4.29254545 115.697844,1 111.625,1 L111.625,1 Z M68.3827517,40.030303 L50.6566665,40.030303 C49.6781866,40.030303 48.884058,40.7966065 48.884058,41.7408019 L48.884058,48.5827974 C48.884058,49.5269928 49.6781866,50.2932962 50.6566665,50.2932962 L68.3827517,50.2932962 C69.3612316,50.2932962 70.1553602,49.5269928 70.1553602,48.5827974 L70.1553602,41.7408019 C70.1553602,40.7966065 69.3612316,40.030303 68.3827517,40.030303 L68.3827517,40.030303 Z M41.0204329,40.030303 L23.2943477,40.030303 C22.3158677,40.030303 21.5217391,40.7966065 21.5217391,41.7408019 L21.5217391,48.5827974 C21.5217391,49.5269928 22.3158677,50.2932962 23.2943477,50.2932962 L41.0204329,50.2932962 C41.9989128,50.2932962 42.7930414,49.5269928 42.7930414,48.5827974 L42.7930414,41.7408019 C42.7930414,40.7966065 41.9989128,40.030303 41.0204329,40.030303 L41.0204329,40.030303 Z M70.1553602,24.7711049 C70.1553602,23.8269096 69.3612316,23.0606061 68.3827517,23.0606061 L50.6566665,23.0606061 C49.6781866,23.0606061 48.884058,23.8269096 48.884058,24.7711049 L48.884058,31.6131004 C48.884058,32.5572958 49.6781866,33.3235993 50.6566665,33.3235993 L68.3827517,33.3235993 C69.3612316,33.3235993 70.1553602,32.5572958 70.1553602,31.6131004 L70.1553602,24.7711049 Z M97.5176791,24.7711049 C97.5176791,23.8269096 96.7235504,23.0606061 95.7450705,23.0606061 L78.0189853,23.0606061 C77.0405054,23.0606061 76.2463768,23.8269096 76.2463768,24.7711049 L76.2463768,31.6131004 C76.2463768,32.5572958 77.0405054,33.3235993 78.0189853,33.3235993 L95.7450705,33.3235993 C96.7235504,33.3235993 97.5176791,32.5572958 97.5176791,31.6131004 L97.5176791,24.7711049 Z M97.5176791,41.7408019 C97.5176791,40.7966065 96.7235504,40.030303 95.7450705,40.030303 L78.0189853,40.030303 C77.0405054,40.030303 76.2463768,40.7966065 76.2463768,41.7408019 L76.2463768,48.5827974 C76.2463768,49.5269928 77.0405054,50.2932962 78.0189853,50.2932962 L95.7450705,50.2932962 C96.7235504,50.2932962 97.5176791,49.5269928 97.5176791,48.5827974 L97.5176791,41.7408019 Z M42.7930414,31.6131004 L42.7930414,24.7711049 C42.7930414,23.8269096 41.9989128,23.0606061 41.0204329,23.0606061 L23.2943477,23.0606061 C22.3158677,23.0606061 21.5217391,23.8269096 21.5217391,24.7711049 L21.5217391,31.6131004 C21.5217391,32.5572958 22.3158677,33.3235993 23.2943477,33.3235993 L41.0204329,33.3235993 C41.9989128,33.3235993 42.7930414,32.5572958 42.7930414,31.6131004 L42.7930414,31.6131004 Z" id="Computer" stroke="#000000" stroke-width="2"></path>
    </g>
</svg>