<?xml version="1.0" encoding="UTF-8"?>
<svg width="52px" height="52px" viewBox="0 0 52 52" version="1.1" xmlns="http://www.w3.org/2000/svg" xmlns:xlink="http://www.w3.org/1999/xlink">
    <!-- Generator: Sketch 42 (36781) - http://www.bohemiancoding.com/sketch -->
    <title>compartir</title>
    <desc>Created with Sketch.</desc>
    <defs></defs>
    <g id="Page-1" stroke="none" stroke-width="1" fill="none" fill-rule="evenodd">
        <g id="compartir" transform="translate(1.000000, 1.000000)">
            <rect id="Rectangle-6" stroke="#8C1713" x="0" y="0" width="50" height="50" rx="25"></rect>
            <g id="Group" transform="translate(7.000000, 11.000000)" fill="#8C1713">
                <path d="M5.5078125,19.9959677 C2.47265625,19.9959677 0,17.528629 0,14.5 C0,11.471371 2.47265625,9.00403226 5.5078125,9.00403226 C8.54296875,9.00403226 11.015625,11.471371 11.015625,14.5 C11.015625,17.528629 8.54296875,19.9959677 5.5078125,19.9959677 L5.5078125,19.9959677 Z M5.5078125,10.2377016 C3.15234375,10.2377016 1.23632812,12.1495968 1.23632812,14.5 C1.23632812,16.8504032 3.15234375,18.7622984 5.5078125,18.7622984 C7.86328125,18.7622984 9.77929688,16.8504032 9.77929688,14.5 C9.77929688,12.1495968 7.86328125,10.2377016 5.5078125,10.2377016 L5.5078125,10.2377016 Z" id="Shape"></path>
                <path d="M24.4921875,11.0094758 C21.4570312,11.0094758 18.984375,8.5421371 18.984375,5.51350806 C18.984375,2.48487903 21.4570312,0.0175403226 24.4921875,0.0175403226 C27.5273438,0.0175403226 30,2.48487903 30,5.51350806 C30,8.5421371 27.5273438,11.0094758 24.4921875,11.0094758 L24.4921875,11.0094758 Z M24.4921875,1.25120968 C22.1367188,1.25120968 20.2207031,3.16310484 20.2207031,5.51350806 C20.2207031,7.86391129 22.1367188,9.77580645 24.4921875,9.77580645 C26.8476562,9.77580645 28.7636719,7.86391129 28.7636719,5.51350806 C28.7636719,3.16310484 26.8476562,1.25120968 24.4921875,1.25120968 L24.4921875,1.25120968 Z" id="Shape"></path>
                <path d="M24.4921875,28.9824597 C21.4570312,28.9824597 18.984375,26.515121 18.984375,23.4864919 C18.984375,20.4578629 21.4570312,17.9905242 24.4921875,17.9905242 C27.5273438,17.9905242 30,20.4578629 30,23.4864919 C30,26.515121 27.5273438,28.9824597 24.4921875,28.9824597 L24.4921875,28.9824597 Z M24.4921875,19.2241935 C22.1367188,19.2241935 20.2207031,21.1360887 20.2207031,23.4864919 C20.2207031,25.8368952 22.1367188,27.7487903 24.4921875,27.7487903 C26.8476562,27.7487903 28.7636719,25.8368952 28.7636719,23.4864919 C28.7636719,21.1360887 26.8476562,19.2241935 24.4921875,19.2241935 L24.4921875,19.2241935 Z" id="Shape"></path>
                <path d="M9.47460937,12.2665323 C9.24023437,12.2665323 9.01171875,12.1320565 8.91210937,11.8981855 C8.77148437,11.5883065 8.91210937,11.2199597 9.22265625,11.0854839 L19.3476562,6.58931452 C19.6582031,6.44899194 20.0273437,6.58931452 20.1621094,6.89919355 C20.3027344,7.20907258 20.1621094,7.57741935 19.8515625,7.71189516 L9.7265625,12.2139113 C9.64453125,12.2489919 9.5625,12.2665323 9.47460937,12.2665323 L9.47460937,12.2665323 Z" id="Shape"></path>
                <path d="M19.6054687,22.4633065 C19.5175781,22.4633065 19.4296875,22.4457661 19.3476562,22.4048387 L9.31640625,17.7683468 C9.00585937,17.6280242 8.87109375,17.2596774 9.01757812,16.9497984 C9.1640625,16.6399194 9.52734375,16.5054435 9.83789062,16.6516129 L19.8632812,21.2881048 C20.1738281,21.4284274 20.3085937,21.7967742 20.1621094,22.1066532 C20.0566406,22.3288306 19.8339844,22.4633065 19.6054687,22.4633065 L19.6054687,22.4633065 Z" id="Shape"></path>
            </g>
        </g>
    </g>
</svg>