<?xml version="1.0" encoding="UTF-8"?>
<svg width="116px" height="114px" viewBox="0 0 116 114" version="1.1" xmlns="http://www.w3.org/2000/svg" xmlns:xlink="http://www.w3.org/1999/xlink">
    <!-- Generator: Sketch 42 (36781) - http://www.bohemiancoding.com/sketch -->
    <title>pizza-5</title>
    <desc>Created with Sketch.</desc>
    <defs></defs>
    <g id="Page-1" stroke="none" stroke-width="1" fill="none" fill-rule="evenodd">
        <path d="M114.03113,5.33776191 L110.415999,1.72051607 C108.118997,-0.573505356 104.099784,-0.573505356 101.809264,1.72051607 L66.0728404,37.4756831 L70.3362317,41.7415684 L58.9398174,53.1446494 C52.6473717,47.2268958 44.8531232,43.4410037 36.2852842,42.2215616 L35.6780805,46.5025818 C43.7532417,47.6506735 51.078582,51.3176484 56.8632239,57.103512 C62.6478657,62.8936999 66.3126967,70.2233254 67.4579564,78.3053726 L71.7364737,77.6978137 C70.5976966,69.674144 67.2245827,62.3207351 61.9477447,56.247308 L73.3895372,44.7988222 L78.2925452,49.7068605 L114.03113,13.9516934 C115.17639,12.8036017 115.809524,11.2749748 115.809524,9.64472767 C115.809524,8.01448059 115.178551,6.48369155 114.03113,5.33776191 L114.03113,5.33776191 L114.03113,5.33776191 L114.03113,5.33776191 L114.03113,5.33776191 L114.03113,5.33776191 L114.03113,5.33776191 L114.03113,5.33776191 L114.03113,5.33776191 L114.03113,5.33776191 Z M81.9357675,27.7201462 L91.1043276,30.7774 L89.9374592,31.944951 L80.7688991,28.8876972 L81.9357675,27.7201462 L81.9357675,27.7201462 L81.9357675,27.7201462 L81.9357675,27.7201462 L81.9357675,27.7201462 L81.9357675,27.7201462 L81.9357675,27.7201462 L81.9357675,27.7201462 L81.9357675,27.7201462 L81.9357675,27.7201462 Z M72.1837732,37.4756831 L77.3525679,32.3060269 L86.521128,35.3632807 L78.2968669,43.5923529 L72.1837732,37.4756831 L72.1837732,37.4756831 L72.1837732,37.4756831 L72.1837732,37.4756831 L72.1837732,37.4756831 L72.1837732,37.4756831 L72.1837732,37.4756831 L72.1837732,37.4756831 L72.1837732,37.4756831 L72.1837732,37.4756831 Z M110.975664,10.8922775 L94.518498,27.3590703 L85.3499379,24.3018165 L104.864731,4.77776988 C105.523795,4.11399553 106.694985,4.11399553 107.356211,4.77776988 L110.973503,8.39501572 C111.304115,8.72582182 111.485628,9.16905876 111.485628,9.64472767 C111.487789,10.1182344 111.306276,10.5614714 110.975664,10.8922775 L110.975664,10.8922775 L110.975664,10.8922775 L110.975664,10.8922775 L110.975664,10.8922775 L110.975664,10.8922775 L110.975664,10.8922775 L110.975664,10.8922775 L110.975664,10.8922775 Z M32.41301,49.1360578 C23.7544146,49.1360578 15.6165882,52.5111449 9.49485106,58.6364632 C3.37311391,64.7617815 0,72.9065305 0,81.5680289 C0,90.2316894 3.37311391,98.3742763 9.49485106,104.499595 C15.6165882,110.624913 23.7544146,114 32.41301,114 C41.0716054,114 49.2094318,110.624913 55.3333298,104.499595 C61.4550669,98.3742763 64.82602,90.2316894 64.82602,81.5680289 C64.82602,72.9065305 61.4529061,64.7617815 55.3311689,58.6364632 C49.2094318,52.5089828 41.0716054,49.1360578 32.41301,49.1360578 L32.41301,49.1360578 L32.41301,49.1360578 L32.41301,49.1360578 L32.41301,49.1360578 L32.41301,49.1360578 L32.41301,49.1360578 L32.41301,49.1360578 L32.41301,49.1360578 Z M52.2778634,101.442341 C46.9707732,106.750373 39.9177022,109.675737 32.41301,109.675737 C24.9104786,109.675737 17.8552468,106.750373 12.5503175,101.442341 C7.24538817,96.1343082 4.32173466,89.0749491 4.32173466,81.5680289 C4.32173466,74.0611087 7.24538817,67.0039118 12.5503175,61.693717 C17.8574076,56.3856844 24.9104786,53.4603206 32.41301,53.4603206 C39.9177022,53.4603206 46.9707732,56.3856844 52.2778634,61.693717 C57.5827927,67.0017496 60.5042853,74.0611087 60.5042853,81.5680289 C60.5042853,89.0749491 57.5827927,96.1343082 52.2778634,101.442341 L52.2778634,101.442341 L52.2778634,101.442341 L52.2778634,101.442341 L52.2778634,101.442341 L52.2778634,101.442341 L52.2778634,101.442341 L52.2778634,101.442341 L52.2778634,101.442341 Z M32.41301,70.7573719 C29.5260912,70.7573719 26.8142027,71.8838423 24.7721831,73.9248944 C22.7301635,75.9659464 21.6086733,78.6794213 21.6086733,81.5680289 C21.6086733,84.4566365 22.7323243,87.1701114 24.7721831,89.2111634 C26.8120419,91.2522155 29.5260912,92.3786859 32.41301,92.3786859 C35.2977679,92.3786859 38.0118172,91.2522155 40.051676,89.2111634 C42.0915348,87.1701114 43.2173466,84.4566365 43.2173466,81.5680289 C43.2173466,78.6794213 42.0936956,75.9659464 40.0538369,73.9248944 C38.0139781,71.8838423 35.2999287,70.7573719 32.41301,70.7573719 L32.41301,70.7573719 L32.41301,70.7573719 L32.41301,70.7573719 L32.41301,70.7573719 L32.41301,70.7573719 L32.41301,70.7573719 L32.41301,70.7573719 L32.41301,70.7573719 Z M36.9983705,86.1539096 C34.5479469,88.6036045 30.2802339,88.6036045 27.8298104,86.1539096 C26.6067595,84.9279811 25.930408,83.2998962 25.930408,81.5680289 C25.930408,79.8361616 26.6045986,78.2059146 27.8276495,76.9821482 C29.0528613,75.7583818 30.6799944,75.0816347 32.41301,75.0816347 C34.1438647,75.0816347 35.7709978,75.7583818 36.9962096,76.9821482 C38.2214214,78.2059146 38.895612,79.8339995 38.895612,81.5680289 C38.895612,83.3020583 38.2214214,84.9279811 36.9983705,86.1539096 L36.9983705,86.1539096 L36.9983705,86.1539096 L36.9983705,86.1539096 L36.9983705,86.1539096 L36.9983705,86.1539096 L36.9983705,86.1539096 L36.9983705,86.1539096 L36.9983705,86.1539096 Z" id="pizza-5" fill="#000000"></path>
    </g>
</svg>