<?xml version="1.0" encoding="UTF-8"?>
<svg width="167px" height="106px" viewBox="0 0 167 106" version="1.1" xmlns="http://www.w3.org/2000/svg" xmlns:xlink="http://www.w3.org/1999/xlink">
    <!-- Generator: Sketch 42 (36781) - http://www.bohemiancoding.com/sketch -->
    <title>Group 2</title>
    <desc>Created with Sketch.</desc>
    <defs></defs>
    <g id="Page-1" stroke="none" stroke-width="1" fill="none" fill-rule="evenodd">
        <g id="Group-2" fill="#000000">
            <path d="M53.3604755,45.4686107 L53.3604755,63.543945 L83.3442738,63.543945 C82.1358587,71.301276 74.2811609,86.2887407 53.3604755,86.2887407 C35.3097757,86.2887407 20.5822174,71.3765899 20.5822174,53 C20.5822174,34.6234101 35.3097757,19.7112593 53.3604755,19.7112593 C63.6320033,19.7112593 70.5048639,24.0794651 74.4322128,27.8451598 L88.7821415,14.0627174 C79.5679767,5.4769336 67.6348782,0.280274987 53.3604755,0.280274987 C24.1319366,0.280274987 0.492317241,23.8535235 0.492317241,53 C0.492317241,82.1464765 24.1319366,105.719725 53.3604755,105.719725 C83.8729553,105.719725 104.113907,84.3305794 104.113907,54.2050223 C104.113907,50.7405832 103.736278,48.104597 103.283122,45.4686107 L53.3604755,45.4686107 L53.3604755,45.4686107 Z" id="Shape"></path>
            <polyline id="Shape-Copy" points="166.649386 45.4686107 151.544198 45.4686107 151.544198 30.4058321 136.43901 30.4058321 136.43901 45.4686107 121.333822 45.4686107 121.333822 60.5313893 136.43901 60.5313893 136.43901 75.5941679 151.544198 75.5941679 151.544198 60.5313893 166.649386 60.5313893"></polyline>
        </g>
    </g>
</svg>