<svg width="47" height="47" viewBox="0 0 47 47">
  <g fill="none" fill-rule="evenodd" transform="translate(1 1)">
    <path fill="#FFF" stroke="#DC4E41" stroke-width="2" d="M0,22.1311475 C0,9.90845165 9.92277022,0 22.163129,0 C34.4034877,0 44.3262579,9.90845165 44.3262579,22.1311475 C44.3262579,34.3538434 34.4034877,44.2622951 22.163129,44.2622951 C9.92277022,44.2622951 0,34.3538434 0,22.1311475 Z"/>
    <path fill="#DC4E41" d="M18.1073025,21.498829 L18.1073025,23.9016393 L22.1009687,23.9016393 C21.9400149,24.9328454 20.8938152,26.9251756 18.1073025,26.9251756 C15.7030551,26.9251756 13.7414307,24.9428571 13.7414307,22.5 C13.7414307,20.0571429 15.7030551,18.0748244 18.1073025,18.0748244 C19.4754098,18.0748244 20.3908346,18.6555035 20.9139344,19.156089 L22.8252608,17.3239461 C21.5979881,16.1826112 20.0085693,15.4918033 18.1073025,15.4918033 C14.2142325,15.4918033 11.0655738,18.6254684 11.0655738,22.5 C11.0655738,26.3745316 14.2142325,29.5081967 18.1073025,29.5081967 C22.171386,29.5081967 24.8673621,26.6648712 24.8673621,22.6601874 C24.8673621,22.1996487 24.8170641,21.8492389 24.7567064,21.498829 L18.1073025,21.498829 L18.1073025,21.498829 Z"/>
    <polyline fill="#DC4E41" points="33.197 21.499 31.185 21.499 31.185 19.496 29.173 19.496 29.173 21.499 27.161 21.499 27.161 23.501 29.173 23.501 29.173 25.504 31.185 25.504 31.185 23.501 33.197 23.501"/>
  </g>
</svg>
