<svg xmlns:xlink="http://www.w3.org/1999/xlink" width="436" height="92" viewBox="0 0 436 92">
  <defs>
    <polygon id="logohome-a" points="0 .4 0 80.317 115.868 80.317 115.868 .4 0 .4"/>
  </defs>
  <g fill="none" fill-rule="evenodd" transform="translate(0 -1)">
    <path fill="#FFF" d="M125.540605,67.7551217 C121.701479,74.6163064 130.058429,78.4634783 135.530101,79.9371153 C148.565649,83.4538223 165.555778,73.9370771 180.191501,47.0413191 C190.532755,28.0358159 203.544565,19.2435102 208.525286,16.4049561 C202.473106,14.764472 185.238042,10.5340898 175.176252,12.4576758 C162.561518,14.8742682 143.596797,29.0778032 141.968568,42.5299879 C141.762476,44.2285994 141.304975,50.6861217 144.080195,51.8411344 C144.648834,53.2458796 143.016289,55.6280261 143.016289,55.6280261 C132.798042,47.5343255 141.996622,32.1101153 147.982982,25.0304146 C164.040844,6.03352293 188.192378,5.51037643 203.654624,8.43181592 C213.609592,10.3048096 217.189755,11.1745675 218.173815,11.4329115 C226.729303,8.09489236 248.772447,1.18849745 255.66194,9.89253567 C259.394244,14.6083892 249.354034,17.3726694 246.850726,17.9797777 C240.467289,19.5298414 231.920432,20.1692427 225.370827,19.2456631 C218.510466,18.2844083 214.226787,17.4243382 213.165039,17.2047459 C202.094373,21.4835675 193.0188,36.7764529 188.97682,46.5235548 C177.495049,74.2137204 159.42375,81.4172108 146.12816,83.0114083 C134.928012,84.3515675 119.13235,79.7551981 121.882753,68.0166949 C122.482684,65.4558605 123.827133,64.6410006 125.827622,63.3621981 C125.827622,63.3621981 125.508234,64.6539178 125.67656,65.7938605 C125.747775,66.2750261 125.970052,67.0941917 125.970052,67.0941917 C125.970052,67.0941917 125.658217,67.5430643 125.540605,67.7551217 L125.540605,67.7551217 Z M228.085622,11.093835 C226.221089,11.6395866 224.61336,12.1907204 223.381128,12.6460516 C230.24041,14.1498287 247.391311,17.2079752 252.725948,12.8688732 C255.616622,10.514714 247.881182,8.94958025 243.908259,8.80103248 C238.282289,8.59435732 232.495545,9.81072675 228.085622,11.093835 L228.085622,11.093835 Z"/>
    <path fill="#FFF" d="M191.76175 73.4857287C194.500284 73.4857287 198.85302 71.4179006 203.582331 67.0400471L210.539802 54.9549325C209.369074 52.9915185 207.626469 52.0765503 205.814807 52.0765503 199.379578 52.0765503 190.50578 59.2068433 188.20101 66.8366013 186.885694 71.1778561 188.770728 73.4857287 191.76175 73.4857287M201.509548 72.1789389C201.72535 71.4426586 201.953022 70.7139134 202.297227 69.9840917L203.716128 71.0540662C199.099034 75.0411745 194.352459 77.2510917 189.788237 77.2510917 184.123422 77.2510917 180.655476 72.5427732 182.643017 65.9679197 185.330837 57.0830408 196.595726 48.5361618 206.108299 48.5361618 208.572763 48.5361618 210.719997 49.5157159 212.599637 51.3585694L213.725047 49.3251873 220.251992 48.0614548 208.085049 69.206907C207.372901 70.4501873 206.793471 71.6482573 206.476242 72.7031618 206.383447 73.0067159 206.376973 73.118665 206.387763 73.1401936 208.424938 73.1401936 216.227276 66.5610344 217.256654 64.1821172L217.225363 68.7160535C214.949726 71.1143465 208.96876 77.2510917 204.65379 77.2510917 201.739378 77.2510917 200.707842 74.8226586 201.509548 72.1789389M289.253321 73.4069338C291.990776 73.4069338 296.346748 71.342335 301.073901 66.9644815L308.031373 54.8761376C306.859566 52.9148764 305.119119 51.9977554 303.305299 51.9977554 296.872227 51.9977554 287.99843 59.1302013 285.69258 66.7588828 284.376185 71.0990611 286.26122 73.4069338 289.253321 73.4069338M299.00004 72.1001439C299.218 71.3638637 299.444593 70.6351185 299.789877 69.9085261L301.205541 70.9785006C296.588447 74.9645325 291.84403 77.1722968 287.283045 77.1722968 281.614993 77.1722968 278.148126 72.4639783 280.134588 65.8912777 282.823487 57.0074752 294.088376 48.4605962 303.599869 48.4605962 306.064334 48.4605962 308.210489 49.436921 310.091208 51.2819274L311.216618 49.2496217 317.743563 47.9848127 305.57662 69.1313414C304.863393 70.3724688 304.285042 71.5726917 303.967813 72.6243669 303.875018 72.9311503 303.868543 73.0398701 303.881492 73.0613987 305.916509 73.0613987 311.376311 67.5403732 312.416479 66.4973096L314.716934 68.6404879C312.443455 71.0387809 306.462489 77.1722968 302.14644 77.1722968 299.232027 77.1722968 298.199413 74.7438637 299.00004 72.1001439M394.853238 73.0153274C397.590693 73.0153274 401.945586 70.9485758 406.673819 66.5696459L413.63129 54.4856076C412.459483 52.5221936 410.717957 51.606149 408.905216 51.606149 402.471065 51.606149 393.597268 58.7375185 391.292498 66.3672764 389.976102 70.7085312 391.861137 73.0153274 394.853238 73.0153274M404.598878 71.7085376C404.818996 70.9722573 405.04451 70.2445885 405.388715 69.5136904L406.805458 70.583665C402.187285 74.5707732 397.442868 76.7817669 392.881883 76.7817669 387.213831 76.7817669 383.748043 72.0734484 385.734505 65.4985949 388.423404 56.6169452 399.687214 48.0668369 409.198707 48.0668369 411.663172 48.0668369 413.810406 49.0453146 415.691125 50.890321L416.816535 48.8580153 423.342401 47.5932064 411.175458 68.7375822C410.46331 69.9808624 409.886038 71.1810854 409.566651 72.2327605 409.472777 72.5395439 409.46846 72.6493401 409.48033 72.6697924 411.516426 72.6697924 416.976228 67.1487669 418.017475 66.1067796L420.31793 68.249958C418.042293 70.6450217 412.061327 76.7817669 407.746357 76.7817669 404.831944 76.7817669 403.798251 74.3522573 404.598878 71.7085376"/>
    <g transform="translate(0 .72)">
      <mask id="logohome-b" fill="#fff">
        <use xlink:href="#logohome-a"/>
      </mask>
      <path fill="#FFF" d="M99.1974894,66.0923478 C94.4692573,70.4702013 90.1165215,72.5380293 87.3769091,72.5380293 C84.3858869,72.5380293 82.5019314,70.2301567 83.8183264,65.8889019 C86.1252548,58.2612968 94.9968943,51.1266981 101.432124,51.1266981 C103.243786,51.1266981 104.985312,52.0427427 106.158198,54.0072331 L99.1974894,66.0923478 Z M18.9998968,71.818972 C17.5702054,71.818972 2.76507704,71.8824815 2.76507704,68.3754624 C2.76507704,67.2258318 4.06636593,66.0535962 9.17441037,66.0535962 C13.2584721,66.0535962 20.7748721,67.6930038 31.8131684,71.0428637 C27.8650622,71.5617045 23.5954104,71.818972 18.9998968,71.818972 L18.9998968,71.818972 Z M96.6434672,11.0855389 C101.496865,5.4256535 105.013366,2.99183822 107.289003,2.99183822 C107.44546,2.99183822 107.629971,3.0661121 107.691475,3.08441146 L107.719529,3.31369172 C107.719529,5.20606115 105.124504,9.46765987 99.2255437,16.369749 C94.4336499,21.9489019 89.4529289,26.9801503 84.2833807,31.4559592 C88.8076795,22.2104752 92.9316647,15.4332522 96.6434672,11.0855389 L96.6434672,11.0855389 Z M102.004,72.1924943 C101.99321,72.1709656 101.998605,72.0590166 102.09248,71.7522331 C102.40863,70.700558 102.989139,69.5024879 103.703445,68.2602841 L115.86823,47.112679 L109.343442,48.3764115 L108.214796,50.4097936 C106.336235,48.5680166 104.189,47.5895389 101.724536,47.5895389 C92.2141215,47.5895389 80.9459956,56.1353414 78.2592548,65.0191439 C76.5975758,70.5218701 78.7631536,74.7081185 82.8331881,75.9277172 C82.3746079,75.9729274 81.9117116,75.9944561 81.4337091,75.9944561 C78.8149462,75.9944561 76.0710178,75.6672204 73.1976079,75.0181312 C70.5130252,74.4293223 62.7257931,72.4346917 49.8499388,69.018093 C56.8980474,66.8275516 62.6567363,63.6456153 67.0936351,59.4539847 C72.1293857,54.6907682 76.960124,47.2224752 81.598798,37.1072331 C87.7534844,32.5754497 94.0495215,26.5754115 100.494462,19.1103478 C106.917823,11.7130994 110.489354,6.36215032 110.489354,3.31369172 C110.489354,1.36534777 109.203171,0.399787261 107.289003,0.399787261 C103.19523,0.399787261 97.6674499,4.33630318 90.8308277,11.4881248 C87.2636128,15.2308828 84.1949017,18.9445771 81.6376425,22.6249019 C79.0005363,26.4117936 74.7686499,33.1599529 68.9473783,42.8866025 C62.0244351,48.7197936 56.2279807,52.7725643 51.5439881,55.0890484 C46.895603,57.4119911 42.2277956,58.5594688 37.542724,58.5594688 C32.0742894,58.5594688 27.8812474,57.1751758 24.8567758,54.4980866 C23.2425733,53.059972 21.4568079,51.8575962 20.4835388,51.5422013 C20.0314326,51.3968828 19.0268721,52.311851 18.9923437,53.1105643 C19.2394375,53.6294051 19.8663437,54.3624561 20.8201906,55.3150994 C24.9290696,59.3807873 30.4072153,61.3743414 37.1488844,61.3743414 C45.6299215,61.3743414 54.5695388,57.7542968 63.943998,50.6638318 C60.6767486,55.2591248 57.8821067,58.6994051 55.5579141,60.9954369 C52.5463906,63.9577809 49.1140523,66.2161376 45.2436351,67.7597427 C31.6372894,64.2408828 21.3057462,62.459386 14.3105091,62.459386 C5.73775605,62.459386 -0.000431604939,63.9836153 -0.000431604939,68.3754624 C-0.000431604939,73.0504115 7.25700543,74.6359975 18.4442054,74.6359975 C25.0143116,74.6359975 31.3966696,74.0299656 37.6009906,72.8222076 C47.2085165,75.8792777 54.3688425,77.885749 59.0852054,78.8502331 C63.8673881,79.826558 68.8427141,80.3174115 74.0068672,80.3174115 C81.0560548,80.3174115 86.574124,79.0558318 90.4369881,76.4218 C91.0164178,76.0181376 91.9778178,75.4271758 92.962956,74.5961694 C94.3861733,73.7145707 95.6917783,72.8867936 96.9617758,71.9653669 C96.5506721,74.3055325 97.6296844,76.3033924 100.26787,76.3033924 C104.584998,76.3033924 110.568121,70.1666471 112.843759,67.7683541 L110.542225,65.6284051 C109.500978,66.6714688 104.040097,72.1924943 102.004,72.1924943 L102.004,72.1924943 Z" mask="url(#logohome-b)"/>
    </g>
    <path fill="#FFF" d="M352.499846 51.8078726C348.219404 51.8078726 342.384105 55.6195223 338.454342 62.3676815 347.748954 61.3095478 353.045826 57.7691592 354.125917 54.2061656 354.592051 52.6571783 353.903641 51.8078726 352.499846 51.8078726M336.976095 65.8650127C336.657786 66.0609236 336.365374 66.496879 336.334083 66.608828 335.207594 70.3322102 334.745777 72.9888471 339.896981 72.9888471 344.205478 72.9888471 348.237747 70.4290892 351.630162 68.1610446L353.463404 70.7843121C349.19591 73.7703376 343.466354 76.9845669 337.968786 76.9845669 331.410549 76.9845669 328.573826 72.7638726 330.536549 66.2740573 332.999935 58.1383758 344.147211 48.2696369 353.829189 48.2696369 357.836641 48.2696369 360.070196 51.1017325 358.978236 54.7271592 357.284186 60.3116943 349.380421 64.5356178 336.976095 65.8650127M233.9739 72.6758204C230.3031 75.0407439 226.759624 76.3292344 223.460004 76.3292344 217.406745 76.3292344 214.814957 71.9212408 216.64712 65.8480051 219.377021 56.836107 231.196522 48.4216293 240.231093 48.4216293 242.601683 48.4216293 244.729495 49.4033363 246.605898 51.2440369L247.733466 49.198814 254.100718 48.1008522 239.586922 72.779158C232.125552 85.3400561 225.952522 92.8858522 217.069014 92.8858522 212.728147 92.8858522 210.388848 89.6027312 211.418226 86.1979732 212.085056 83.9998968 213.887006 82.3357312 215.797937 82.3357312 218.125367 82.3357312 218.46094 84.0181962 217.845903 86.0612662 216.859685 86.3109987 215.711616 86.6533045 215.374964 87.755572 215.178584 88.4111197 215.549764 89.4627949 217.55349 89.4627949 223.604592 89.4627949 227.599095 83.674814 233.9739 72.6758204M238.308293 65.3087121L244.42953 54.8317885C243.262039 52.8780624 241.515118 51.9534064 239.591239 51.9534064 233.83255 51.9534064 224.724606 58.7564637 222.390703 66.4874064 221.17034 70.5078841 222.567661 72.2215656 225.425964 72.2215656 228.965125 72.2215656 232.957471 70.2559987 238.308293 65.3087121M280.267091 6.79735987C277.815575 7.9943535 275.558281 9.97176115 273.500604 11.7058949L271.311288 9.33451274C273.357096 7.62513694 279.751323 2.07720064 283.209557 2.07720064 285.986935 2.07720064 286.652686 4.27527707 285.887666 6.80597134 285.657836 7.54655732 285.367582 8.25485032 284.991007 8.93407962L252.350883 68.8343535C251.755268 69.9107866 251.009671 71.0356592 250.652518 72.2240414 250.463691 72.8483726 250.512246 73.0615064 250.526273 73.0884172 253.085691 73.1250159 258.761296 68.1680414 260.065821 67.0119522L262.260533 69.3865637C259.249009 72.0033726 253.549666 77.1207357 248.844093 77.1207357 245.706325 77.1207357 244.668315 74.6923025 245.541236 71.8117675 245.987947 70.3381306 246.894318 68.5318758 247.978725 66.4758885L279.310007 8.63375478C279.794483 7.79306051 280.098765 7.17949363 280.267091 6.79735987"/>
    <path fill="#FFF" d="M289.06676 29.9816841C286.981029 29.9816841 285.812459 27.9256968 286.345491 26.1700344 286.836441 24.5672255 288.841246 22.8815312 290.666935 22.8815312 292.755903 22.8815312 294.138118 24.6027478 293.501501 26.6985631 292.930703 28.582321 290.956111 29.9816841 289.06676 29.9816841M276.837234 58.4888624L271.045096 68.8495312C270.082617 70.4835567 269.378022 71.7752764 269.138481 72.5675312 269.069424 72.7968115 269.11798 72.981958 269.121217 73.0583847 269.228039 73.0917541 269.41255 73.1251236 269.702804 73.1251236 271.581365 73.1251236 280.06456 66.4243274 280.432503 65.0507987L280.841449 69.3888242C277.855822 71.9819516 272.217982 77.1208433 267.545859 77.1208433 264.339034 77.1208433 262.816548 74.6342828 263.662493 71.8086459 264.228975 69.9657924 265.542133 68.1552318 266.458214 66.4673847L272.014049 56.4694739C272.589162 55.3908879 273.35634 54.2487924 273.713493 53.0754803 273.833264 52.6804293 273.729679 52.5340344 273.719967 52.5189643 271.749691 52.5189643 266.312548 58.0658242 265.299355 59.0776713L262.985953 56.9409516C265.856125 53.9603083 271.066676 48.4059134 276.030133 48.4059134 278.8852 48.4059134 280.109879 50.778372 279.290908 53.4856013 278.739533 55.2929325 277.734972 56.8494548 276.837234 58.4888624M334.641328 35.632958C332.490857 36.5457732 329.751244 39.5554803 328.33558 41.1905822L325.476197 39.3520344C328.015113 36.7998115 332.990439 31.3939643 337.296778 31.3939643 340.082787 31.3939643 340.651427 33.4897796 339.887486 36.0097096 339.65442 36.7685949 339.231447 37.7621427 338.69194 38.7287796L332.759531 48.6362701 338.251703 48.6362701 337.11982 52.403786 330.620928 52.403786 320.812706 68.8656777C319.883676 70.3866777 319.225479 71.5513783 318.981622 72.3360981 318.791716 72.9668879 318.883432 73.1251236 319.600975 73.1251236 321.47522 73.1251236 330.414837 66.8032318 330.757963 65.6040854L330.732066 69.3888242C327.714069 72.0120917 322.029832 77.1208433 317.319943 77.1208433 314.171385 77.1208433 313.076187 74.5621618 313.976084 71.5847478 314.510195 69.7871045 315.672291 68.0734229 316.590531 66.4512382L324.829869 52.403786 319.43157 52.403786 320.573165 48.6362701 327.061266 48.6362701 333.172792 38.2863656C333.958313 36.8697796 334.434158 36.0215503 334.641328 35.632958M388.801705 6.79735987C386.350189 7.9943535 384.091817 9.97176115 382.036298 11.7058949L379.843745 9.33451274C381.894947 7.62083121 388.284859 2.07720064 391.74633 2.07720064 394.518313 2.07720064 395.191617 4.26558917 394.420123 6.80274204 394.307905 7.1848758 394.078076 7.93407325 393.52778 8.93407962L360.881182 68.8343535C360.56611 69.4048631 358.751212 72.4662389 359.05873 73.0916465 361.615989 73.1250159 367.289436 68.1712707 368.599357 67.0097994L370.784357 69.3887166C367.768518 72.0087548 362.082123 77.1207357 357.372234 77.1207357 354.239861 77.1207357 353.201851 74.6923025 354.070456 71.8117675 354.51393 70.3381306 355.43217 68.5286465 356.510103 66.4758885L387.841384 8.63375478C388.328019 7.78875478 388.6323 7.17626433 388.801705 6.79735987M404.673869 6.79735987C402.220195 7.9943535 399.962901 9.96853185 397.907383 11.7058949L395.708356 9.33666561C397.759558 7.62190764 404.153785 2.07720064 407.616336 2.07720064 410.385081 2.07720064 411.057306 4.27204777 410.291207 6.80597134 410.063536 7.54655732 409.77436 8.25485032 409.396706 8.93407962L376.753346 68.8311242C376.437195 69.4080924 374.621217 72.4608567 374.931973 73.0884172 377.482758 73.1250159 385.687568 66.814965 385.906607 65.7880478L386.664074 69.3865637C383.654709 72.0033726 377.951049 77.1207357 373.249793 77.1207357 370.109867 77.1207357 369.06862 74.6955318 369.941541 71.8096146 370.39041 70.3381306 371.304333 68.5318758 372.380109 66.4758885L403.714627 8.63375478C404.198025 7.79306051 404.501227 7.1816465 404.673869 6.79735987M428.574424 31.2704975C428.209718 31.2704975 427.886014 31.3307777 427.684239 31.4319624L427.684239 34.6203573C427.82559 34.6623382 428.086711 34.7021662 428.331646 34.7021662 429.604881 34.7021662 430.252288 34.077835 430.252288 32.9648032 430.252288 31.8550006 429.706308 31.2704975 428.574424 31.2704975L428.574424 31.2704975zM430.27279 38.8981025L427.724162 34.9863446 427.684239 34.9863446 427.684239 38.8981025 426.529696 38.8981025 426.529696 31.0100006C426.976407 30.7688796 427.703661 30.5869624 428.594925 30.5869624 430.475644 30.5869624 431.405753 31.4943955 431.405753 32.9066758 431.405753 34.1779433 430.475644 35.0843 429.017898 35.1456567L431.629108 38.8981025 430.27279 38.8981025zM428.755698 28.7096631C425.357888 28.7096631 422.748837 31.5126949 422.748837 34.9023828 422.748837 38.2931471 425.357888 41.0994083 428.755698 41.0994083 432.154587 41.0994083 434.763639 38.2931471 434.763639 34.9023828 434.763639 31.5126949 432.154587 28.7096631 428.755698 28.7096631L428.755698 28.7096631zM428.755698 42.0897268C424.791407 42.0897268 421.573792 38.8981025 421.573792 34.9249879 421.573792 30.9690962 424.791407 27.7591726 428.755698 27.7591726 432.722148 27.7591726 435.936525 30.9690962 435.936525 34.9249879 435.936525 38.8981025 432.722148 42.0897268 428.755698 42.0897268L428.755698 42.0897268z"/>
  </g>
</svg>
