<?xml version="1.0" encoding="UTF-8"?>
<svg width="54px" height="34px" viewBox="0 0 54 34" version="1.1" xmlns="http://www.w3.org/2000/svg" xmlns:xlink="http://www.w3.org/1999/xlink">
    <!-- Generator: Sketch 42 (36781) - http://www.bohemiancoding.com/sketch -->
    <title>mastercard</title>
    <desc>Created with Sketch.</desc>
    <defs></defs>
    <g id="Page-1" stroke="none" stroke-width="1" fill="none" fill-rule="evenodd">
        <g id="mastercard" transform="translate(1.000000, 0.633457)">
            <g id="card" stroke="#F0F0F0" fill="#F9F9F9">
                <rect x="0.0207129654" y="0.156188683" width="52.6971429" height="32.6972477" rx="5"></rect>
            </g>
            <g id="logo" transform="translate(10.000000, 7.000000)">
                <path d="M19.6996417,9.58336794 C19.6996417,14.8762633 15.2976131,19.166433 9.86721694,19.166433 C4.43635462,19.166433 0.034015273,14.8762633 0.034015273,9.58336794 C0.034015273,4.29062401 4.43635462,0 9.86721694,0 C15.2976131,0 19.6996417,4.29062401 19.6996417,9.58336794" id="Fill-2" fill="#D82331"></path>
                <path d="M23.1649824,0 C20.6238983,0 18.3090612,0.939421156 16.5637266,2.48053831 C16.208817,2.79463785 15.8772158,3.13387747 15.5715647,3.49507681 L17.5579085,3.49507681 C17.8292185,3.81705156 18.0793956,4.15553395 18.3075073,4.51006965 L14.8214997,4.51006965 C14.6131224,4.83583055 14.4233919,5.17431295 14.2551051,5.52506249 L18.873902,5.52506249 C19.0317777,5.85354943 19.1706959,6.19188037 19.2903458,6.53960099 L13.8386613,6.53960099 C13.7250716,6.87020817 13.629507,7.20869057 13.5529,7.55398804 L19.5756409,7.55398804 C19.7196869,8.20823589 19.7964493,8.88701803 19.7964493,9.58336794 C19.7964493,10.6472779 19.6186837,11.6713575 19.2903458,12.6277407 L13.8386613,12.6277407 C13.9581558,12.9753098 14.0972294,13.3139437 14.2547943,13.642885 L18.873902,13.642885 C18.705149,13.9927258 18.5163508,14.3315111 18.3067304,14.6577264 L14.8214997,14.6577264 C15.0489899,15.0112019 15.2996332,15.3501387 15.5715647,15.6716591 L17.5572869,15.6716591 C17.252102,16.0331613 16.9203454,16.3724009 16.5641927,16.6865005 C18.309372,18.2276176 20.6238983,19.166433 23.1649824,19.166433 C28.5953786,19.166433 32.9977179,14.8762633 32.9977179,9.58336794 C32.9977179,4.29107835 28.5953786,0 23.1649824,0" id="Fill-3" fill="#F1AB3D"></path>
                <path d="M31.5780797,14.8482457 C31.5780797,14.6774144 31.7204164,14.538841 31.8958511,14.538841 C32.0715966,14.538841 32.2133119,14.6774144 32.2133119,14.8482457 C32.2133119,15.0192286 32.0715966,15.1579534 31.8958511,15.1579534 C31.7204164,15.1579534 31.5780797,15.0192286 31.5780797,14.8482457 L31.5780797,14.8482457 Z M31.8958511,15.0837447 C32.0287092,15.0837447 32.137171,14.9781866 32.137171,14.8482457 C32.137171,14.7178505 32.0287092,14.6132012 31.8958511,14.6132012 C31.7623716,14.6132012 31.6542205,14.7178505 31.6542205,14.8482457 C31.6542205,14.9781866 31.7623716,15.0837447 31.8958511,15.0837447 L31.8958511,15.0837447 Z M31.8528083,14.984093 L31.7875447,14.984093 L31.7875447,14.7125499 L31.9057961,14.7125499 C31.9301922,14.7125499 31.9553653,14.7125499 31.9771198,14.7255743 C31.9993405,14.7410218 32.0123933,14.7669191 32.0123933,14.7938765 C32.0123933,14.8246201 31.9942127,14.8533949 31.9639117,14.8642991 L32.015501,14.984093 L31.9432449,14.984093 L31.9003574,14.8767176 L31.8528083,14.8767176 L31.8528083,14.984093 L31.8528083,14.984093 Z M31.8528083,14.8299207 L31.8888586,14.8299207 C31.9022221,14.8299207 31.9165179,14.8308294 31.9286383,14.8246201 C31.9392048,14.817805 31.9449542,14.8056893 31.9449542,14.7932708 C31.9449542,14.7829724 31.9378063,14.7708567 31.9289491,14.7655561 C31.9174503,14.7590439 31.8994251,14.7604069 31.8873047,14.7604069 L31.8528083,14.7604069 L31.8528083,14.8299207 L31.8528083,14.8299207 Z" id="registered" fill="#F1AB3D"></path>
                <path d="M31.5780797,11.8196234 C31.5780797,11.6480348 31.7207272,11.5099158 31.8952296,11.5099158 C32.0709751,11.5099158 32.2126903,11.6480348 32.2126903,11.8196234 C32.2126903,11.9900005 32.0709751,12.1290281 31.8952296,12.1290281 C31.7207272,12.1290281 31.5780797,11.9900005 31.5780797,11.8196234 L31.5780797,11.8196234 Z M31.8952296,12.0548195 C32.0290199,12.0548195 32.137171,11.9492614 32.137171,11.8196234 C32.137171,11.689834 32.0290199,11.5842759 31.8952296,11.5842759 C31.7620608,11.5842759 31.6542205,11.689834 31.6542205,11.8196234 C31.6542205,11.9492614 31.7620608,12.0548195 31.8952296,12.0548195 L31.8952296,12.0548195 Z M31.8524975,11.9548649 L31.7875447,11.9548649 L31.7875447,11.6833218 L31.9054853,11.6833218 C31.9301922,11.6833218 31.9550545,11.6842305 31.9766537,11.6972548 C31.9996513,11.7119451 32.0120825,11.7379939 32.0120825,11.7649513 C32.0120825,11.7956949 31.9939019,11.8244697 31.9642225,11.8353738 L32.015501,11.9548649 L31.9432449,11.9548649 L31.9003574,11.8474895 L31.8524975,11.8474895 L31.8524975,11.9548649 L31.8524975,11.9548649 Z M31.8524975,11.8009955 L31.8885478,11.8009955 C31.9016006,11.8009955 31.9168287,11.8022071 31.9283275,11.7956949 C31.938894,11.7891827 31.9443327,11.7761583 31.9443327,11.7643455 C31.9443327,11.7540472 31.9381171,11.7425373 31.9289491,11.7361765 C31.9177611,11.7301187 31.8994251,11.7317846 31.8873047,11.7317846 L31.8524975,11.7317846 L31.8524975,11.8009955 L31.8524975,11.8009955 Z" id="registered" fill="#FFFFFF"></path>
                <path d="M30.5722436,7.42086678 L30.3349638,8.82522796 C30.0436085,8.45100425 29.7300326,8.17991544 29.316075,8.17991544 C28.7773397,8.17991544 28.2872413,8.57791621 27.9662066,9.16401324 C27.5189957,9.07359982 27.0571781,8.91988187 27.0571781,8.91988187 L27.0568674,8.92366803 C27.0922962,8.59608976 27.1075243,8.39678648 27.1039504,8.32863567 L26.1232874,8.32863567 C25.9901186,9.5524729 25.7523727,10.7916062 25.566993,12.0158978 L25.5178899,12.2818374 L26.5861926,12.2818374 C26.7302387,11.3695251 26.8404098,10.6110823 26.9218339,10.0104464 C27.2868438,9.68892598 27.4695818,9.40905329 27.8376995,9.42722684 C27.6745405,9.81220324 27.5791314,10.255335 27.5791314,10.7099767 C27.5791314,11.6978606 28.0917613,12.3501397 28.8680871,12.3501397 C29.2593578,12.3501397 29.5594149,12.2185329 29.8523241,11.913823 L29.8019779,12.2815345 L30.8120095,12.2815345 L31.6250073,7.42086678 L30.5722436,7.42086678 L30.5722436,7.42086678 Z M29.2371371,11.3686165 C28.8738365,11.3686165 28.6900108,11.1060086 28.6900108,10.589274 C28.6900108,9.81220324 29.0338877,9.26139319 29.5179259,9.26139319 C29.8848005,9.26139319 30.0835436,9.53339067 30.0835436,10.0355865 C30.0835436,10.8193209 29.7339173,11.3686165 29.2371371,11.3686165 L29.2371371,11.3686165 Z" id="Fill-12" fill="#0B2D5A"></path>
                <path d="M24.4356022,10.6101736 C24.324188,10.5974521 24.2747741,10.5939688 24.1980117,10.5939688 C23.5930805,10.5939688 23.2868078,10.7959981 23.2868078,11.1953619 C23.2868078,11.4411592 23.4362925,11.5985119 23.6693767,11.5985119 C24.1038457,11.5985119 24.4177324,11.195059 24.4356022,10.6101736 L24.4356022,10.6101736 Z M25.2125496,12.3710393 L24.3282281,12.3710393 L24.3482733,11.96168 C24.0783618,12.2850178 23.7184798,12.4396444 23.2297799,12.4396444 C22.6507987,12.4396444 22.2547109,11.9989358 22.2547109,11.3595297 C22.2547109,10.3966344 22.9440186,9.8359803 24.1285526,9.8359803 C24.249601,9.8359803 24.4043689,9.84673298 24.5630216,9.86672389 C24.5961196,9.73587432 24.6049768,9.68029354 24.6049768,9.60941669 C24.6049768,9.34802045 24.4195971,9.2506405 23.9206415,9.2506405 C23.3985328,9.24458265 22.9682594,9.37134317 22.7906492,9.42783263 C22.8019926,9.36240784 22.9387354,8.53899452 22.9387354,8.53899452 C23.4707889,8.38694248 23.8213476,8.32954434 24.2161923,8.32954434 C25.1328348,8.32954434 25.6185823,8.73102838 25.6174946,9.48886547 C25.6195147,9.69195491 25.5850182,9.94320425 25.5312534,10.2721455 C25.4386413,10.8441581 25.2398982,12.0726901 25.2125496,12.3710393 L25.2125496,12.3710393 Z" id="a" fill="#0C2D5A"></path>
                <path d="M21.6197895,8.47341829 C21.9162726,8.47341829 22.1930213,8.54853564 22.5737255,8.73572322 L22.7485386,7.68090001 C22.5915953,7.62092729 22.0413611,7.26942052 21.5751927,7.26942052 C20.8610226,7.26942052 20.2564022,7.61532378 19.8321889,8.18491316 C19.2124956,7.9850041 18.9575015,8.38906272 18.6454794,8.79190978 L18.3681092,8.85491142 C18.3890868,8.72239594 18.4081997,8.5906377 18.4021395,8.45736499 L17.4211657,8.45736499 C17.2876862,9.68120222 17.0504064,10.9203355 16.8645606,12.1446271 L16.8160791,12.4105667 L17.884071,12.4105667 C18.0621473,11.2816863 18.1595765,10.5591362 18.2190907,10.0696619 L18.6212387,9.85248794 C18.6816852,9.63425388 18.8692403,9.56095389 19.2463705,9.56988922 C19.1972675,9.82765076 19.1705405,10.0991939 19.1705405,10.3801267 C19.1705405,11.6736292 19.8873522,12.478869 21.0361466,12.478869 C21.3320081,12.478869 21.5863807,12.4410074 21.9799823,12.3365095 L22.1669158,11.2288316 C21.813094,11.3982999 21.5232926,11.4781121 21.2603736,11.4781121 C20.639748,11.4781121 20.264327,11.0314971 20.264327,10.2938023 C20.264327,9.22322873 20.822486,8.47341829 21.6197895,8.47341829" id="Fill-11" fill="#0C2D5A"></path>
                <path d="M16.4488937,12.2797172 C16.08435,12.3884556 15.7320821,12.4399473 15.3599243,12.4396444 C14.1718163,12.4388872 13.5529,11.8338594 13.5529,10.6762042 C13.5529,9.32454628 14.3404139,8.32954434 15.4093381,8.32954434 C16.2849578,8.32954434 16.8434276,8.88656369 16.8434276,9.76086295 C16.8434276,10.0505797 16.8045803,10.3333298 16.7129005,10.7326936 L14.5997589,10.7326936 C14.527969,11.3062206 14.9047885,11.5455057 15.5218401,11.5455057 C15.9014566,11.5455057 16.2442458,11.4688739 16.6255716,11.2962251 L16.4488937,12.2797172 L16.4488937,12.2797172 Z M15.8525089,9.93548049 C15.8582583,9.85279084 15.9648555,9.22989236 15.3585258,9.22989236 C15.020709,9.22989236 14.7790784,9.4814446 14.6805615,9.93548049 L15.8525089,9.93548049 L15.8525089,9.93548049 Z" id="e" fill="#0C2D5A"></path>
                <path d="M13.143746,12.3663444 C12.8517691,12.4560006 12.6239682,12.4949223 12.3770543,12.4949223 C11.8313264,12.4949223 11.5332894,12.1891523 11.5332894,11.6268323 C11.5258307,11.4514576 11.6120719,10.9927268 11.6798217,10.5729178 C11.7413559,10.2032375 12.1427269,7.87520556 12.1427269,7.87520556 L13.2037263,7.87520556 L13.0797255,8.47341829 L13.6243656,8.47341829 L13.4793873,9.42328924 L12.9328825,9.42328924 C12.8096586,10.1756743 12.6337577,11.1116122 12.6317376,11.2357981 C12.6317376,11.4402505 12.7436181,11.5286952 12.9975245,11.5286952 C13.119039,11.5286952 13.2132051,11.5170338 13.2853058,11.4914394 L13.143746,12.3663444" id="t" fill="#0C2D5A"></path>
                <path d="M8.98444931,9.6677235 C8.98444931,10.1682534 9.23338325,10.5123393 9.79760245,10.7717667 C10.2297406,10.9698585 10.2965581,11.0284682 10.2965581,11.2080834 C10.2965581,11.4544865 10.1060506,11.565648 9.68354658,11.565648 C9.36499814,11.565648 9.06882579,11.5174881 8.72696894,11.4101127 C8.72696894,11.4101127 8.58711841,12.2810802 8.58043666,12.3222736 C8.82299964,12.3740682 9.03945718,12.4213194 9.69116066,12.4396444 C10.8177344,12.4396444 11.3379784,12.0218042 11.3379784,11.1184272 C11.3379784,10.5750381 11.1201223,10.2563951 10.5854271,10.01711 C10.1379054,9.81644373 10.0864715,9.77206998 10.0864715,9.58730554 C10.0864715,9.37361487 10.2637709,9.26366488 10.6088909,9.26366488 C10.8182006,9.26366488 11.1045834,9.28638182 11.3758934,9.3236376 L11.5278643,8.40693338 C11.2514264,8.36437698 10.8324964,8.32954434 10.5882241,8.32954434 C9.39405597,8.32954434 8.98087535,8.93744963 8.98444931,9.6677235" id="s" fill="#0C2D5A"></path>
                <path d="M7.65431536,10.6101736 C7.54243493,10.5974521 7.49302108,10.5939688 7.41610329,10.5939688 C6.81101665,10.5939688 6.50474399,10.7959981 6.50474399,11.1953619 C6.50474399,11.4411592 6.65422867,11.5985119 6.88746828,11.5985119 C7.32240343,11.5985119 7.63582401,11.195059 7.65431536,10.6101736 L7.65431536,10.6101736 Z M8.4306412,12.3710393 L7.54631967,12.3710393 L7.5665203,11.96168 C7.29676417,12.2850178 6.93672674,12.4396444 6.44771605,12.4396444 C5.86920102,12.4396444 5.47264706,11.9989358 5.47264706,11.3595297 C5.47264706,10.3966344 6.16242096,9.8359803 7.34664419,9.8359803 C7.46784798,9.8359803 7.62292668,9.84673298 7.78173473,9.86672389 C7.81483269,9.73587432 7.8235345,9.68029354 7.8235345,9.60941669 C7.8235345,9.34802045 7.6375333,9.2506405 7.13904384,9.2506405 C6.61646902,9.24458265 6.18604017,9.37134317 6.00889616,9.42783263 C6.0200842,9.36240784 6.15698233,8.53899452 6.15698233,8.53899452 C6.68888052,8.38694248 7.03974997,8.32954434 7.43459463,8.32954434 C8.35123718,8.32954434 8.83667391,8.73102838 8.83574157,9.48886547 C8.83760625,9.69195491 8.80310978,9.94320425 8.74950041,10.2721455 C8.65673289,10.8441581 8.45783436,12.0726901 8.4306412,12.3710393 L8.4306412,12.3710393 Z" id="a" fill="#0C2D5A"></path>
                <polyline id="m" fill="#0C2D5A" points="4.93608719 12.4328293 3.86871685 12.4328293 4.48032985 8.69634719 3.11492249 12.4328293 2.38738894 12.4328293 2.29741843 8.718004 1.65472755 12.4328293 0.655573192 12.4328293 1.49017009 7.57231304 3.02526276 7.57231304 3.06799486 10.5812473 4.10382114 7.57231304 5.7616715 7.57231304 4.93608719 12.4328293"></polyline>
                <path d="M31.2368444,12.1299368 L30.2272789,12.1299368 L30.2773143,11.7620738 C29.9844052,12.0669352 29.6841927,12.198542 29.2930774,12.198542 C28.5172177,12.198542 28.0041216,11.5470202 28.0041216,10.5580761 C28.0041216,9.24321964 28.7998712,8.1349359 29.7409098,8.1349359 C30.1550228,8.1349359 30.4684434,8.29970943 30.7604202,8.67408459 L30.9972338,7.26942052 L32.0499975,7.26942052 L31.2368444,12.1299368 L31.2368444,12.1299368 Z M29.6621274,11.2165644 C30.1595291,11.2165644 30.5085339,10.6675717 30.5085339,9.88459455 C30.5085339,9.3822473 30.3097907,9.10949259 29.9427608,9.10949259 C29.4587225,9.10949259 29.1148456,9.66030264 29.1148456,10.4376763 C29.1148456,10.9551682 29.2991375,11.2165644 29.6621274,11.2165644 L29.6621274,11.2165644 Z" id="d-2" fill="#FFFFFF"></path>
                <path d="M26.4339109,8.06909112 C26.300276,9.29262546 26.0629962,10.5319102 25.8773058,11.7560503 L25.8286689,12.02199 L26.89635,12.02199 C27.278142,9.60460476 27.3701325,9.13284965 27.9693144,9.19176225 C28.0645681,8.69698732 28.2420229,8.26369956 28.3744148,8.04531406 C27.9273592,7.9544463 27.6776483,8.20069792 27.3503981,8.66866686 C27.3765035,8.46618321 27.4235865,8.26975741 27.4147293,8.06909112 L26.4339109,8.06909112" id="r-2" fill="#FFFFFF"></path>
                <path d="M24.7463812,10.3072811 C24.6349669,10.2945596 24.5855531,10.2910763 24.5087907,10.2910763 C23.9038594,10.2910763 23.5975868,10.4931056 23.5975868,10.8924694 C23.5975868,11.1382667 23.7470714,11.2956194 23.9801557,11.2956194 C24.4146246,11.2956194 24.7285114,10.8921665 24.7463812,10.3072811 L24.7463812,10.3072811 Z M25.5233286,12.0681467 L24.6390071,12.0681467 L24.6590523,11.6587875 C24.3891408,11.9821253 24.0292587,12.1367519 23.5405588,12.1367519 C22.9615776,12.1367519 22.5654898,11.6960433 22.5654898,11.0566372 C22.5654898,10.0937418 23.2547976,9.53308778 24.4393316,9.53308778 C24.56038,9.53308778 24.7151479,9.54384046 24.8738006,9.56383137 C24.9068985,9.4329818 24.9157557,9.37740102 24.9157557,9.30652417 C24.9157557,9.04512793 24.7303761,8.94774798 24.2314204,8.94774798 C23.7093118,8.94169013 23.2790383,9.06845065 23.1014282,9.12494011 C23.1127716,9.05951532 23.2495143,8.236102 23.2495143,8.236102 C23.7815679,8.08404996 24.1321266,8.02665182 24.5269712,8.02665182 C25.4436138,8.02665182 25.9293613,8.42813586 25.9282736,9.18597295 C25.9302936,9.38906238 25.8957972,9.64031173 25.8420324,9.96925301 C25.7494203,10.5412655 25.5506771,11.7697976 25.5233286,12.0681467 L25.5233286,12.0681467 Z" id="a-2" fill="#FFFFFF"></path>
                <path d="M23.0352322,7.37043517 L22.8604191,8.42525838 C22.4792487,8.23852514 22.2031216,8.16295346 21.9067938,8.16295346 C21.1098012,8.16295346 20.5508652,8.91367257 20.5508652,9.98439764 C20.5508652,10.7220924 20.926597,11.1677987 21.5472226,11.1677987 C21.8099862,11.1677987 22.1004091,11.0885923 22.4537648,10.9185182 L22.2662097,12.0261961 C21.8732297,12.130694 21.6188571,12.1687071 21.3229956,12.1687071 C20.1735796,12.1687071 19.4577002,11.3633158 19.4577002,10.0701162 C19.4577002,8.33242182 20.4473758,7.11797426 21.8618863,7.11797426 C22.3280547,7.11797426 22.8785996,7.31046246 23.0352322,7.37043517" id="c-2" fill="#FFFFFF"></path>
                <path d="M17.7327216,8.06909112 C17.5984651,9.29262546 17.3608746,10.5319102 17.175495,11.7560503 L17.126858,12.02199 L18.1948499,12.02199 C18.5769527,9.60460476 18.6686325,9.13284965 19.266882,9.19176225 C19.3627573,8.69698732 19.5406782,8.26369956 19.6726039,8.04531406 C19.2258591,7.9544463 18.9758375,8.20069792 18.6492088,8.66866686 C18.6750034,8.46618321 18.7223972,8.26975741 18.7129185,8.06909112 L17.7327216,8.06909112" id="r-3" fill="#FFFFFF"></path>
                <path d="M16.7596727,11.9768246 C16.395129,12.0855631 16.042861,12.1370548 15.6707032,12.1367519 C14.4825953,12.1359947 13.863679,11.5309669 13.863679,10.3733116 C13.863679,9.02165376 14.6511929,8.02665182 15.7201171,8.02665182 C16.5957368,8.02665182 17.1542066,8.58367117 17.1542066,9.45797043 C17.1542066,9.74768713 17.1153592,10.0304373 17.0236794,10.4298011 L14.9105379,10.4298011 C14.838748,11.0033281 15.2155674,11.2426132 15.8326191,11.2426132 C16.2122356,11.2426132 16.5550248,11.1659814 16.9363505,10.9933326 L16.7596727,11.9768246 L16.7596727,11.9768246 Z M16.1632879,9.63258797 C16.1690373,9.54989831 16.2756345,8.92699984 15.6693047,8.92699984 C15.331488,8.92699984 15.0898574,9.17855208 14.9913404,9.63258797 L16.1632879,9.63258797 L16.1632879,9.63258797 Z" id="e-2" fill="#FFFFFF"></path>
                <path d="M13.4545249,12.0634519 C13.1625481,12.1531081 12.9347471,12.1920298 12.6878332,12.1920298 C12.1421054,12.1920298 11.8440684,11.8862598 11.8440684,11.3239398 C11.8366097,11.148565 11.9228508,10.6898343 11.9906006,10.2700253 C12.0521349,9.90034496 12.4535059,7.57231304 12.4535059,7.57231304 L13.5145053,7.57231304 L13.3905045,8.17052577 L13.9351446,8.17052577 L13.7901662,9.12039672 L13.2436614,9.12039672 C13.1204376,9.87278174 12.9445367,10.8087196 12.9425166,10.9329056 C12.9425166,11.137358 13.054397,11.2258026 13.3083034,11.2258026 C13.429818,11.2258026 13.523984,11.2141413 13.5960848,11.1885469 L13.4545249,12.0634519" id="t-2" fill="#FFFFFF"></path>
                <path d="M9.29522827,9.36483098 C9.29522827,9.86536087 9.54416221,10.2094468 10.1083814,10.4688742 C10.5405196,10.6669659 10.607337,10.7255756 10.607337,10.9051909 C10.607337,11.151594 10.4168295,11.2627555 9.99432553,11.2627555 C9.6757771,11.2627555 9.37960475,11.2145956 9.0377479,11.1072202 C9.0377479,11.1072202 8.89789737,11.9781877 8.89121562,12.019381 C9.1337786,12.0711757 9.35023614,12.1184269 10.0019396,12.1367519 C11.1285133,12.1367519 11.6487573,11.7189117 11.6487573,10.8155347 C11.6487573,10.2721455 11.4309013,9.9535026 10.8962061,9.71421751 C10.4486844,9.51355121 10.3972505,9.46917746 10.3972505,9.28441302 C10.3972505,9.07072234 10.5745499,8.96077236 10.9196699,8.96077236 C11.1289795,8.96077236 11.4153623,8.9834893 11.6866724,9.02074508 L11.8386433,8.10404086 C11.5622054,8.06148446 11.1432753,8.02665182 10.8990031,8.02665182 C9.70483493,8.02665182 9.29165431,8.63455711 9.29522827,9.36483098" id="s-2" fill="#FFFFFF"></path>
                <path d="M7.96509432,10.3072811 C7.85321389,10.2945596 7.80380004,10.2910763 7.72688225,10.2910763 C7.12179561,10.2910763 6.81552295,10.4931056 6.81552295,10.8924694 C6.81552295,11.1382667 6.96500763,11.2956194 7.19824724,11.2956194 C7.63318239,11.2956194 7.94660297,10.8921665 7.96509432,10.3072811 L7.96509432,10.3072811 Z M8.74142016,12.0681467 L7.85709863,12.0681467 L7.87729926,11.6587875 C7.60754313,11.9821253 7.2475057,12.1367519 6.75849501,12.1367519 C6.17997998,12.1367519 5.78342602,11.6960433 5.78342602,11.0566372 C5.78342602,10.0937418 6.47319992,9.53308778 7.65742315,9.53308778 C7.77862694,9.53308778 7.93370564,9.54384046 8.09251369,9.56383137 C8.12561165,9.4329818 8.13431346,9.37740102 8.13431346,9.30652417 C8.13431346,9.04512793 7.94831225,8.94774798 7.4498228,8.94774798 C6.92724798,8.94169013 6.49681912,9.06845065 6.31967512,9.12494011 C6.33086316,9.05951532 6.46776129,8.236102 6.46776129,8.236102 C6.99965948,8.08404996 7.35052893,8.02665182 7.74537359,8.02665182 C8.66201614,8.02665182 9.14745287,8.42813586 9.14652053,9.18597295 C9.14838521,9.38906238 9.11388874,9.64031173 9.06027937,9.96925301 C8.96751185,10.5412655 8.76861332,11.7697976 8.74142016,12.0681467 L8.74142016,12.0681467 Z" id="a-3" fill="#FFFFFF"></path>
                <polyline id="m-2" fill="#FFFFFF" points="5.24686615 12.1299368 4.17949581 12.1299368 4.79110881 8.39345467 3.42570145 12.1299368 2.6981679 12.1299368 2.60819739 8.41511148 1.96550651 12.1299368 0.966352151 12.1299368 1.80094905 7.26942052 3.33604172 7.26942052 3.37877382 10.2783548 4.4146001 7.26942052 6.07245046 7.26942052 5.24686615 12.1299368"></polyline>
            </g>
        </g>
    </g>
</svg>