<?xml version="1.0" encoding="UTF-8"?>
<svg width="125px" height="115px" viewBox="0 0 125 115" version="1.1" xmlns="http://www.w3.org/2000/svg" xmlns:xlink="http://www.w3.org/1999/xlink">
    <!-- Generator: Sketch 42 (36781) - http://www.bohemiancoding.com/sketch -->
    <title>pizza-4</title>
    <desc>Created with Sketch.</desc>
    <defs></defs>
    <g id="Page-1" stroke="none" stroke-width="1" fill="none" fill-rule="evenodd">
        <path d="M124.668103,96.1574124 C124.696121,95.8145553 124.69181,95.4695418 124.609914,95.1245283 L107.898707,52.058221 L118.471983,9.14070081 C118.489224,9.06738544 118.465517,8.99407008 118.476293,8.92075472 C118.489224,8.82156334 118.534483,8.7309973 118.534483,8.62533693 L118.534483,2.15633423 C118.534483,0.963881402 117.571121,0 116.37931,0 L8.62068966,0 C7.43103448,0 6.46551724,0.963881402 6.46551724,2.15633423 L6.46551724,8.62533693 C6.46551724,9.81778976 7.43103448,10.7816712 8.62068966,10.7816712 L8.94181034,10.7816712 L17.987069,50.6005391 C17.612069,50.9800539 17.2974138,51.4242588 17.137931,51.9633423 L0.478448276,94.8398922 L0.390086207,95.1266846 C0.295258621,95.5299191 0.295258621,95.9331536 0.349137931,96.3299191 C0.146551724,96.7072776 0,97.1212938 0,97.580593 L0,110.859299 C0,112.748248 1.53663793,114.285714 3.42456897,114.285714 L121.575431,114.285714 C123.463362,114.285714 125,112.748248 125,110.859299 L125,97.3110512 C125,96.8862534 124.862069,96.5067385 124.668103,96.1574124 L124.668103,96.1574124 L124.668103,96.1574124 L124.668103,96.1574124 L124.668103,96.1574124 L124.668103,96.1574124 L124.668103,96.1574124 L124.668103,96.1574124 L124.668103,96.1574124 Z M30.1724138,77.6280323 C25.3383621,77.6280323 21.5517241,80.4679245 21.5517241,84.097035 C21.5517241,87.7261456 25.3383621,90.5660377 30.1724138,90.5660377 C35.0064655,90.5660377 38.7931034,87.7261456 38.7931034,84.097035 C38.7931034,80.4679245 35.0064655,77.6280323 30.1724138,77.6280323 L30.1724138,77.6280323 L30.1724138,77.6280323 L30.1724138,77.6280323 L30.1724138,77.6280323 L30.1724138,77.6280323 L30.1724138,77.6280323 L30.1724138,77.6280323 L30.1724138,77.6280323 Z M30.1724138,86.2533693 C27.5409483,86.2533693 25.862069,84.9768194 25.862069,84.097035 C25.862069,83.2172507 27.5409483,81.9407008 30.1724138,81.9407008 C32.8038793,81.9407008 34.4827586,83.2172507 34.4827586,84.097035 C34.4827586,84.9768194 32.8038793,86.2533693 30.1724138,86.2533693 L30.1724138,86.2533693 L30.1724138,86.2533693 L30.1724138,86.2533693 L30.1724138,86.2533693 L30.1724138,86.2533693 L30.1724138,86.2533693 L30.1724138,86.2533693 L30.1724138,86.2533693 Z M36.637931,60.3773585 C31.8038793,60.3773585 28.0172414,63.2172507 28.0172414,66.8463612 C28.0172414,70.4754717 31.8038793,73.3153639 36.637931,73.3153639 C41.4719828,73.3153639 45.2586207,70.4754717 45.2586207,66.8463612 C45.2586207,63.2172507 41.4719828,60.3773585 36.637931,60.3773585 L36.637931,60.3773585 L36.637931,60.3773585 L36.637931,60.3773585 L36.637931,60.3773585 L36.637931,60.3773585 L36.637931,60.3773585 L36.637931,60.3773585 L36.637931,60.3773585 Z M36.637931,69.0026954 C34.0064655,69.0026954 32.3275862,67.7261456 32.3275862,66.8463612 C32.3275862,65.9665768 34.0064655,64.690027 36.637931,64.690027 C39.2693966,64.690027 40.9482759,65.9665768 40.9482759,66.8463612 C40.9482759,67.7261456 39.2693966,69.0026954 36.637931,69.0026954 L36.637931,69.0026954 L36.637931,69.0026954 L36.637931,69.0026954 L36.637931,69.0026954 L36.637931,69.0026954 L36.637931,69.0026954 L36.637931,69.0026954 L36.637931,69.0026954 Z M58.1896552,69.0026954 C63.0237069,69.0026954 66.8103448,66.1628032 66.8103448,62.5336927 C66.8103448,58.9045822 63.0237069,56.06469 58.1896552,56.06469 C53.3556034,56.06469 49.5689655,58.9045822 49.5689655,62.5336927 C49.5689655,66.1628032 53.3556034,69.0026954 58.1896552,69.0026954 L58.1896552,69.0026954 L58.1896552,69.0026954 L58.1896552,69.0026954 L58.1896552,69.0026954 L58.1896552,69.0026954 L58.1896552,69.0026954 L58.1896552,69.0026954 L58.1896552,69.0026954 Z M58.1896552,60.3773585 C60.8211207,60.3773585 62.5,61.6539084 62.5,62.5336927 C62.5,63.4134771 60.8211207,64.690027 58.1896552,64.690027 C55.5581897,64.690027 53.8793103,63.4134771 53.8793103,62.5336927 C53.8793103,61.6539084 55.5581897,60.3773585 58.1896552,60.3773585 L58.1896552,60.3773585 L58.1896552,60.3773585 L58.1896552,60.3773585 L58.1896552,60.3773585 L58.1896552,60.3773585 L58.1896552,60.3773585 L58.1896552,60.3773585 L58.1896552,60.3773585 Z M79.7413793,71.1590296 C84.575431,71.1590296 88.362069,68.3191375 88.362069,64.690027 C88.362069,61.0609164 84.575431,58.2210243 79.7413793,58.2210243 C74.9073276,58.2210243 71.1206897,61.0609164 71.1206897,64.690027 C71.1206897,68.3191375 74.9073276,71.1590296 79.7413793,71.1590296 L79.7413793,71.1590296 L79.7413793,71.1590296 L79.7413793,71.1590296 L79.7413793,71.1590296 L79.7413793,71.1590296 L79.7413793,71.1590296 L79.7413793,71.1590296 L79.7413793,71.1590296 Z M79.7413793,62.5336927 C82.3728448,62.5336927 84.0517241,63.8102426 84.0517241,64.690027 C84.0517241,65.5698113 82.3728448,66.8463612 79.7413793,66.8463612 C77.1099138,66.8463612 75.4310345,65.5698113 75.4310345,64.690027 C75.4310345,63.8102426 77.1099138,62.5336927 79.7413793,62.5336927 L79.7413793,62.5336927 L79.7413793,62.5336927 L79.7413793,62.5336927 L79.7413793,62.5336927 L79.7413793,62.5336927 L79.7413793,62.5336927 L79.7413793,62.5336927 L79.7413793,62.5336927 Z M107.758621,73.3153639 C107.758621,69.6862534 103.971983,66.8463612 99.137931,66.8463612 C94.3038793,66.8463612 90.5172414,69.6862534 90.5172414,73.3153639 C90.5172414,76.9444744 94.3038793,79.7843666 99.137931,79.7843666 C103.971983,79.7843666 107.758621,76.9444744 107.758621,73.3153639 L107.758621,73.3153639 L107.758621,73.3153639 L107.758621,73.3153639 L107.758621,73.3153639 L107.758621,73.3153639 L107.758621,73.3153639 L107.758621,73.3153639 L107.758621,73.3153639 Z M99.137931,75.4716981 C96.5064655,75.4716981 94.8275862,74.1951482 94.8275862,73.3153639 C94.8275862,72.4355795 96.5064655,71.1590296 99.137931,71.1590296 C101.769397,71.1590296 103.448276,72.4355795 103.448276,73.3153639 C103.448276,74.1951482 101.769397,75.4716981 99.137931,75.4716981 L99.137931,75.4716981 L99.137931,75.4716981 L99.137931,75.4716981 L99.137931,75.4716981 L99.137931,75.4716981 L99.137931,75.4716981 L99.137931,75.4716981 L99.137931,75.4716981 Z M86.2068966,79.7843666 C81.3728448,79.7843666 77.5862069,82.6242588 77.5862069,86.2533693 C77.5862069,89.8824798 81.3728448,92.722372 86.2068966,92.722372 C91.0409483,92.722372 94.8275862,89.8824798 94.8275862,86.2533693 C94.8275862,82.6242588 91.0409483,79.7843666 86.2068966,79.7843666 L86.2068966,79.7843666 L86.2068966,79.7843666 L86.2068966,79.7843666 L86.2068966,79.7843666 L86.2068966,79.7843666 L86.2068966,79.7843666 L86.2068966,79.7843666 L86.2068966,79.7843666 Z M86.2068966,88.4097035 C83.575431,88.4097035 81.8965517,87.1331536 81.8965517,86.2533693 C81.8965517,85.3735849 83.575431,84.097035 86.2068966,84.097035 C88.8383621,84.097035 90.5172414,85.3735849 90.5172414,86.2533693 C90.5172414,87.1331536 88.8383621,88.4097035 86.2068966,88.4097035 L86.2068966,88.4097035 L86.2068966,88.4097035 L86.2068966,88.4097035 L86.2068966,88.4097035 L86.2068966,88.4097035 L86.2068966,88.4097035 L86.2068966,88.4097035 L86.2068966,88.4097035 Z M62.5,84.097035 C57.6659483,84.097035 53.8793103,86.9369272 53.8793103,90.5660377 C53.8793103,94.1951482 57.6659483,97.0350404 62.5,97.0350404 C67.3340517,97.0350404 71.1206897,94.1951482 71.1206897,90.5660377 C71.1206897,86.9369272 67.3340517,84.097035 62.5,84.097035 L62.5,84.097035 L62.5,84.097035 L62.5,84.097035 L62.5,84.097035 L62.5,84.097035 L62.5,84.097035 L62.5,84.097035 L62.5,84.097035 Z M62.5,92.722372 C59.8685345,92.722372 58.1896552,91.4458221 58.1896552,90.5660377 C58.1896552,89.6862534 59.8685345,88.4097035 62.5,88.4097035 C65.1314655,88.4097035 66.8103448,89.6862534 66.8103448,90.5660377 C66.8103448,91.4458221 65.1314655,92.722372 62.5,92.722372 L62.5,92.722372 L62.5,92.722372 L62.5,92.722372 L62.5,92.722372 L62.5,92.722372 L62.5,92.722372 L62.5,92.722372 L62.5,92.722372 Z M52.1681034,78.2059299 C51.2974138,78.0183288 50.4396552,78.3913747 49.9590517,79.0792453 C48.6961207,79.102965 47.5431034,79.8404313 46.9892241,80.9725067 C45.4806034,81.0328841 44.1443966,82.1088949 43.8189655,83.6528302 C43.5732759,84.819407 44.3189655,85.9622642 45.4849138,86.2080863 C45.6336207,86.2404313 45.7823276,86.2533693 45.9310345,86.2533693 C46.6400862,86.2533693 47.2974138,85.9018868 47.6939655,85.3326146 C48.9568966,85.3088949 50.1099138,84.5714286 50.6637931,83.4393531 C52.1724138,83.3789757 53.5086207,82.302965 53.8340517,80.7590296 C54.0775862,79.5924528 53.3318966,78.4495957 52.1681034,78.2059299 L52.1681034,78.2059299 L52.1681034,78.2059299 L52.1681034,78.2059299 L52.1681034,78.2059299 L52.1681034,78.2059299 L52.1681034,78.2059299 L52.1681034,78.2059299 L52.1681034,78.2059299 Z M72.9956897,78.8118598 C72.3685345,77.716442 71.1702586,77.1342318 69.9116379,77.1126685 C69.6012931,76.5951482 69.1573276,76.1681941 68.6099138,75.8749326 C67.8125,75.4458221 66.8965517,75.3509434 66.0344828,75.6183288 C64.8943966,75.9633423 64.25,77.1665768 64.5969828,78.3051213 C64.8534483,79.1590296 65.5905172,79.7326146 66.4224138,79.8253369 C66.7327586,80.3708895 67.1918103,80.8215633 67.7586207,81.1256065 C68.3038793,81.4188679 68.9116379,81.5331536 69.5064655,81.5266846 C69.8168103,82.0442049 70.2607759,82.471159 70.8060345,82.7644205 C71.3038793,83.0318059 71.8491379,83.1698113 72.3987069,83.1698113 C72.7284483,83.1698113 73.0581897,83.122372 73.3814655,83.0231806 C74.5215517,82.6781671 75.1659483,81.4749326 74.8189655,80.3363881 C74.5625,79.4781671 73.825431,78.9045822 72.9956897,78.8118598 L72.9956897,78.8118598 L72.9956897,78.8118598 L72.9956897,78.8118598 L72.9956897,78.8118598 L72.9956897,78.8118598 L72.9956897,78.8118598 L72.9956897,78.8118598 L72.9956897,78.8118598 Z M58.4267241,72.3428571 C57.799569,71.2474394 56.6206897,70.6458221 55.3426724,70.6436658 C55.0323276,70.1261456 54.5883621,69.6991914 54.0409483,69.4059299 C53.2435345,68.9789757 52.3275862,68.884097 51.4655172,69.1493261 C50.325431,69.4943396 49.6810345,70.6975741 50.0280172,71.8361186 C50.2844828,72.690027 51.0215517,73.2636119 51.8534483,73.3563342 C52.1637931,73.9018868 52.6228448,74.3525606 53.1896552,74.6566038 C53.7349138,74.9498652 54.3448276,75.0641509 54.9375,75.0576819 C55.2478448,75.5752022 55.6918103,76.0021563 56.237069,76.2954178 C56.7349138,76.5628032 57.2801724,76.7008086 57.8297414,76.7008086 C58.1594828,76.7008086 58.4892241,76.6533693 58.8125,76.5541779 C59.9525862,76.2091644 60.5969828,75.0059299 60.25,73.8673854 C59.9956897,73.0091644 59.2586207,72.4355795 58.4267241,72.3428571 L58.4267241,72.3428571 L58.4267241,72.3428571 L58.4267241,72.3428571 L58.4267241,72.3428571 L58.4267241,72.3428571 L58.4267241,72.3428571 L58.4267241,72.3428571 L58.4267241,72.3428571 Z M74.200431,94.8787062 L74.1336207,94.8787062 C72.5862069,94.8787062 71.2586207,95.9590296 70.9008621,97.509434 C70.8362069,97.7897574 70.7284483,98.0506739 70.6293103,98.3180593 C70.5732759,98.471159 70.5366379,98.6328841 70.4698276,98.7816712 C70.375,98.9908356 70.2456897,99.180593 70.1314655,99.3789757 C70.0258621,99.5622642 69.9353448,99.7563342 69.8125,99.9309973 C69.7241379,100.056065 69.612069,100.163881 69.5172414,100.28248 C69.3340517,100.508895 69.1594828,100.743935 68.950431,100.950943 C68.8987069,101.000539 68.8383621,101.041509 68.7844828,101.091105 C67.5280172,102.27062 65.8577586,103.100809 63.9913793,103.389757 C63.5064655,103.465229 63.0064655,103.504043 62.5,103.504043 C61.9935345,103.504043 61.4935345,103.465229 61.0086207,103.389757 C59.1206897,103.098652 57.4288793,102.253369 56.1702586,101.052291 C56.1336207,101.015633 56.0883621,100.987601 56.0517241,100.950943 C55.8318966,100.730997 55.6443966,100.487332 55.4525862,100.245822 C55.3663793,100.138005 55.2650862,100.04097 55.1875,99.928841 C55.049569,99.7326146 54.9482759,99.5191375 54.8318966,99.3121294 C54.7327586,99.13531 54.6142241,98.9671159 54.5301724,98.7816712 C54.4461207,98.5983827 54.3987069,98.3978437 54.3318966,98.2080863 C54.25,97.9752022 54.1508621,97.7487871 54.0969828,97.5072776 C53.7413793,95.9590296 52.4137931,94.8787062 50.8663793,94.8787062 L50.799569,94.8787062 L23.2176724,94.8787062 C16.7672414,90.7040431 12.9310345,82.9153639 12.9310345,77.6280323 C12.9310345,64.7698113 35.6314655,53.9083558 62.5,53.9083558 C89.3685345,53.9083558 112.068966,64.7698113 112.068966,77.6280323 C112.068966,82.9153639 108.232759,90.7040431 101.782328,94.8787062 L74.200431,94.8787062 L74.200431,94.8787062 L74.200431,94.8787062 L74.200431,94.8787062 L74.200431,94.8787062 L74.200431,94.8787062 L74.200431,94.8787062 L74.200431,94.8787062 L74.200431,94.8787062 Z M21.0064655,53.9083558 L33.4224138,53.9083558 C27.3168103,55.909434 22.0775862,58.5336927 18.0086207,61.625876 L21.0064655,53.9083558 L21.0064655,53.9083558 L21.0064655,53.9083558 L21.0064655,53.9083558 L21.0064655,53.9083558 L21.0064655,53.9083558 L21.0064655,53.9083558 L21.0064655,53.9083558 L21.0064655,53.9083558 Z M106.991379,61.6237197 C102.922414,58.5315364 97.6831897,55.909434 91.5775862,53.9083558 L103.993534,53.9083558 L106.991379,61.6237197 L106.991379,61.6237197 L106.991379,61.6237197 L106.991379,61.6237197 L106.991379,61.6237197 L106.991379,61.6237197 L106.991379,61.6237197 L106.991379,61.6237197 L106.991379,61.6237197 Z M115.424569,83.3293801 L119.911638,94.8787062 L108.484914,94.8787062 C111.872845,91.4285714 114.224138,87.2495957 115.424569,83.3293801 L115.424569,83.3293801 L115.424569,83.3293801 L115.424569,83.3293801 L115.424569,83.3293801 L115.424569,83.3293801 L115.424569,83.3293801 L115.424569,83.3293801 L115.424569,83.3293801 Z M10.7758621,4.31266846 L114.224138,4.31266846 L114.224138,6.4690027 L70.9698276,6.4690027 C70.2952586,6.4690027 69.6594828,6.78382749 69.25,7.32291105 C68.8426724,7.86199461 68.7112069,8.5606469 68.8943966,9.21185984 C68.9418103,9.38005391 68.9655172,9.53962264 68.9655172,9.70350404 C68.9655172,11.2345013 66.7521552,12.9380054 63.5775862,12.9380054 C60.4030172,12.9380054 58.1896552,11.2345013 58.1896552,9.70350404 C58.1896552,9.53962264 58.2133621,9.38005391 58.2607759,9.21185984 C58.4439655,8.5606469 58.3125,7.86199461 57.9051724,7.32291105 C57.4978448,6.78382749 56.862069,6.4690027 56.1853448,6.4690027 L10.7758621,6.4690027 L10.7758621,4.31266846 L10.7758621,4.31266846 L10.7758621,4.31266846 L10.7758621,4.31266846 L10.7758621,4.31266846 L10.7758621,4.31266846 L10.7758621,4.31266846 L10.7758621,4.31266846 L10.7758621,4.31266846 Z M49.325431,40.2070081 C49.325431,42.8571429 50.3577586,45.3520216 52.2349138,47.2280323 C52.6551724,47.6485175 53.2068966,47.8598383 53.7586207,47.8598383 C54.3103448,47.8598383 54.862069,47.6485175 55.2823276,47.2280323 C56.125,46.3849057 56.125,45.0221024 55.2823276,44.1789757 C54.2219828,43.1180593 53.6357759,41.7078167 53.6357759,40.2070081 C53.6357759,38.7061995 54.2198276,37.2959569 55.2823276,36.2350404 C59.1508621,32.3644205 59.1508621,26.0636119 55.2823276,22.1929919 C54.4396552,21.3498652 53.0775862,21.3498652 52.2349138,22.1929919 C51.3922414,23.0361186 51.3922414,24.3989218 52.2349138,25.2420485 C54.4224138,27.4328841 54.4224138,30.9951482 52.2349138,33.1859838 C50.3577586,35.0641509 49.325431,37.5568733 49.325431,40.2070081 L49.325431,40.2070081 L49.325431,40.2070081 L49.325431,40.2070081 L49.325431,40.2070081 L49.325431,40.2070081 L49.325431,40.2070081 L49.325431,40.2070081 L49.325431,40.2070081 Z M25.862069,40.2070081 C25.862069,42.8571429 26.8943966,45.3520216 28.7715517,47.2280323 C29.1918103,47.6485175 29.7435345,47.8598383 30.2952586,47.8598383 C30.8469828,47.8598383 31.3987069,47.6485175 31.8189655,47.2280323 C32.6616379,46.3849057 32.6616379,45.0221024 31.8189655,44.1789757 C30.7564655,43.1180593 30.1724138,41.7078167 30.1724138,40.2070081 C30.1724138,38.7061995 30.7564655,37.2959569 31.8189655,36.2350404 C35.6875,32.3644205 35.6875,26.0636119 31.8189655,22.1929919 C30.9762931,21.3498652 29.6142241,21.3498652 28.7715517,22.1929919 C27.9288793,23.0361186 27.9288793,24.3989218 28.7715517,25.2420485 C30.9590517,27.4328841 30.9590517,30.9951482 28.7715517,33.1859838 C26.8943966,35.0641509 25.862069,37.5568733 25.862069,40.2070081 L25.862069,40.2070081 L25.862069,40.2070081 L25.862069,40.2070081 L25.862069,40.2070081 L25.862069,40.2070081 L25.862069,40.2070081 L25.862069,40.2070081 L25.862069,40.2070081 Z M38.549569,33.7380054 C38.549569,36.3881402 39.5818966,38.8830189 41.4590517,40.7590296 C41.8793103,41.1795148 42.4310345,41.3908356 42.9827586,41.3908356 C43.5344828,41.3908356 44.0862069,41.1795148 44.5064655,40.7590296 C45.3491379,39.915903 45.3491379,38.5530997 44.5064655,37.709973 C43.4461207,36.6490566 42.8599138,35.238814 42.8599138,33.7380054 C42.8599138,32.2371968 43.4439655,30.8269542 44.5064655,29.7660377 C48.375,25.8954178 48.375,19.5946092 44.5064655,15.7239892 C43.6637931,14.8808625 42.3017241,14.8808625 41.4590517,15.7239892 C40.6163793,16.5671159 40.6163793,17.9299191 41.4590517,18.7730458 C43.6465517,20.9638814 43.6465517,24.5261456 41.4590517,26.7169811 C39.5818966,28.5951482 38.549569,31.0878706 38.549569,33.7380054 L38.549569,33.7380054 L38.549569,33.7380054 L38.549569,33.7380054 L38.549569,33.7380054 L38.549569,33.7380054 L38.549569,33.7380054 L38.549569,33.7380054 L38.549569,33.7380054 Z M53.9719828,10.7816712 C54.625,14.4862534 58.6099138,17.2506739 63.5775862,17.2506739 C68.5452586,17.2506739 72.5280172,14.4862534 73.1831897,10.7816712 L113.62931,10.7816712 L104.06681,49.5956873 L22.1810345,49.5956873 L13.362069,10.7816712 L53.9719828,10.7816712 L53.9719828,10.7816712 L53.9719828,10.7816712 L53.9719828,10.7816712 L53.9719828,10.7816712 L53.9719828,10.7816712 L53.9719828,10.7816712 L53.9719828,10.7816712 L53.9719828,10.7816712 Z M9.57543103,83.3272237 C10.7758621,87.2495957 13.1271552,91.4285714 16.5172414,94.8787062 L5.08836207,94.8787062 L9.57543103,83.3272237 L9.57543103,83.3272237 L9.57543103,83.3272237 L9.57543103,83.3272237 L9.57543103,83.3272237 L9.57543103,83.3272237 L9.57543103,83.3272237 L9.57543103,83.3272237 L9.57543103,83.3272237 Z M120.689655,109.973046 L4.31034483,109.973046 L4.31034483,99.1913747 L22,99.1913747 L50.0862069,99.1913747 C51.6142241,104.301887 56.6206897,107.816712 62.5021552,107.816712 C68.3836207,107.816712 73.3900862,104.301887 74.9181034,99.1913747 L103.00431,99.1913747 L120.689655,99.1913747 L120.689655,109.973046 L120.689655,109.973046 L120.689655,109.973046 L120.689655,109.973046 L120.689655,109.973046 L120.689655,109.973046 L120.689655,109.973046 L120.689655,109.973046 L120.689655,109.973046 Z" id="pizza-4" fill="#000000"></path>
    </g>
</svg>