<?xml version="1.0" encoding="UTF-8"?>
<svg width="24px" height="24px" viewBox="0 0 24 24" version="1.1" xmlns="http://www.w3.org/2000/svg" xmlns:xlink="http://www.w3.org/1999/xlink">
    <!-- Generator: Sketch 42 (36781) - http://www.bohemiancoding.com/sketch -->
    <title>phone</title>
    <desc>Created with Sketch.</desc>
    <defs></defs>
    <g id="Page-1" stroke="none" stroke-width="1" fill="none" fill-rule="evenodd">
        <g id="phone" transform="translate(1.000000, -4.000000)">
            <path d="M8.33962264,18.222061 C8.33962264,18.222061 10.9811321,20.9259797 12.0566038,21.1415094 L14.2641509,18.8490566 C14.2641509,18.8490566 15.1320755,17.9869376 16.0566038,18.8686502 L19.6603774,22.6110305 C19.6603774,22.6110305 20.245283,23.7278665 19.5660377,24.413643 L17.8113208,26.2358491 C17.8113208,26.2358491 14.7169811,28.2931785 9.75471698,25.0014514 C9.75471698,25.0014514 7.41509434,23.7278665 5.24528302,21.4354136" id="XMLID_1_" stroke="#8C1713"></path>
            <path d="M8.52830189,18.4179971 C8.52830189,18.4179971 5.9245283,15.6748911 5.69811321,14.5580552 L7.90566038,12.2656023 C7.90566038,12.2656023 8.73584906,11.3642961 7.88679245,10.404209 L4.26415094,6.66182874 C4.26415094,6.66182874 3.18867925,6.05442671 2.52830189,6.75979681 L0.773584906,8.5820029 C0.773584906,8.5820029 -1.20754717,11.7953556 1.98113208,16.9484761 C1.98113208,16.9484761 3.20754717,19.3780842 5.43396226,21.6313498" id="XMLID_4_" stroke="#8C1713"></path>
            <path d="M24.5469877,9.54113976 L19.9841219,4.75491204 C19.8038936,4.56583714 19.5121172,4.56631581 19.3323498,4.75491204 C19.1521214,4.94350827 19.1521214,5.24985748 19.3323498,5.43845371 L23.1088484,9.39945325 L10.3928388,9.39945325 C10.1383987,9.39945325 9.93189667,9.61581238 9.93189667,9.88291059 C9.93189667,10.1500088 10.1383987,10.3663679 10.3928388,10.3663679 L23.1083874,10.3663679 L19.3323498,14.3273675 C19.1521214,14.5159637 19.1525824,14.8223129 19.3323498,15.0109091 C19.5125781,15.1995054 19.8043545,15.1995054 19.9841219,15.0109091 L24.5469877,10.2246814 C24.6331839,10.1342127 24.6806609,10.0097583 24.6820438,9.88291059 C24.6820438,9.75510553 24.6313401,9.63304452 24.5469877,9.54113976 Z" id="Arrow_Forward" fill="#8C1713" transform="translate(17.306970, 9.882821) rotate(-45.000000) translate(-17.306970, -9.882821) "></path>
        </g>
    </g>
</svg>