<?xml version="1.0" encoding="UTF-8"?>
<svg width="124px" height="103px" viewBox="0 0 124 103" version="1.1" xmlns="http://www.w3.org/2000/svg" xmlns:xlink="http://www.w3.org/1999/xlink">
    <!-- Generator: Sketch 42 (36781) - http://www.bohemiancoding.com/sketch -->
    <title>Shape</title>
    <desc>Created with Sketch.</desc>
    <defs></defs>
    <g id="Page-1" stroke="none" stroke-width="1" fill="none" fill-rule="evenodd">
        <path d="M60.2090757,27.2593182 L60.4778662,31.6915474 L55.9980242,31.1488255 C39.6913996,29.0683913 25.4455022,22.013006 13.349929,10.1635767 L7.43653762,4.2840889 L5.91339136,8.62586451 C2.68790516,18.304406 4.74863245,28.5256694 11.4683954,35.4001474 C15.0522689,39.1992011 14.2458974,39.741923 8.06371549,37.4805816 C5.91339136,36.7569523 4.03185774,36.2142304 3.85266407,36.4855913 C3.2254862,37.1187669 5.37581033,45.3500499 7.07815026,48.6063816 C9.40766807,53.1290645 14.1563005,57.5612938 19.3529172,60.1844499 L23.7431623,62.264884 L18.5465456,62.3553377 C13.5291227,62.3553377 13.349929,62.4457913 13.88751,64.3453182 C15.6794468,70.224806 22.757597,76.4661084 30.6421189,79.1797182 L36.1971229,81.079245 L31.3588936,83.9737621 C24.1911465,88.1346304 15.7690436,90.4864255 7.34694078,90.6673328 C3.31508303,90.7577864 0,91.1196011 0,91.3909621 C0,92.2954986 10.9308143,97.3609035 17.2921899,99.350884 C36.3763165,105.230372 59.0443167,102.697669 76.0677161,92.6573133 C88.1632894,85.5114743 100.258863,71.3102499 105.903463,57.5612938 C108.949756,50.2345474 111.996048,36.847406 111.996048,30.4251962 C111.996048,26.2643279 112.264839,25.721606 117.282262,20.7466548 C120.238958,17.8521377 123.01646,14.6862596 123.554041,13.781723 C124.450009,12.0631035 124.360412,12.0631035 119.790973,13.6008157 C112.175242,16.3144255 111.10008,15.9526109 114.863147,11.8821962 C117.640649,8.98767914 120.955732,3.74136695 120.955732,2.20365475 C120.955732,1.93229378 119.61178,2.38456207 118.088633,3.198645 C116.47589,4.10318158 112.892017,5.45998646 110.204112,6.27406939 L105.365882,7.81178158 L100.975637,4.82681085 C98.5565226,3.198645 95.1518428,1.38957183 93.359906,0.846849877 C88.7904672,-0.419501342 81.8019138,-0.238594025 77.6804592,1.20866451 C66.4808544,5.27907914 59.4027041,15.7717035 60.2090757,27.2593182 Z" id="Shape" fill="#000000"></path>
    </g>
</svg>
