<?xml version="1.0" encoding="UTF-8"?>
<svg width="21px" height="21px" viewBox="0 0 21 21" version="1.1" xmlns="http://www.w3.org/2000/svg" xmlns:xlink="http://www.w3.org/1999/xlink">
    <!-- Generator: Sketch 42 (36781) - http://www.bohemiancoding.com/sketch -->
    <title>Group</title>
    <desc>Created with Sketch.</desc>
    <defs></defs>
    <g id="Page-1" stroke="none" stroke-width="1" fill="none" fill-rule="evenodd">
        <g id="58---Settings" transform="translate(-19.000000, -19.000000)">
            <g id="Group" transform="translate(18.000000, 18.000000)">
                <polygon id="Shape" points="0 0 22 0 22 22 0 22"></polygon>
                <path d="M11.0833333,7.41666667 C9.0575,7.41666667 7.41666667,9.0575 7.41666667,11.0833333 C7.41666667,13.1091667 9.0575,14.75 11.0833333,14.75 C13.1091667,14.75 14.75,13.1091667 14.75,11.0833333 C14.75,9.0575 13.1091667,7.41666667 11.0833333,7.41666667 L11.0833333,7.41666667 Z M19.2783333,10.1666667 C18.8566667,6.34416667 15.8225,3.31 12,2.88833333 L12,1 L10.1666667,1 L10.1666667,2.88833333 C6.34416667,3.31 3.31,6.34416667 2.88833333,10.1666667 L1,10.1666667 L1,12 L2.88833333,12 C3.31,15.8225 6.34416667,18.8566667 10.1666667,19.2783333 L10.1666667,21.1666667 L12,21.1666667 L12,19.2783333 C15.8225,18.8566667 18.8566667,15.8225 19.2783333,12 L21.1666667,12 L21.1666667,10.1666667 L19.2783333,10.1666667 L19.2783333,10.1666667 Z M11.0833333,17.5 C7.54041667,17.5 4.66666667,14.62625 4.66666667,11.0833333 C4.66666667,7.54041667 7.54041667,4.66666667 11.0833333,4.66666667 C14.62625,4.66666667 17.5,7.54041667 17.5,11.0833333 C17.5,14.62625 14.62625,17.5 11.0833333,17.5 L11.0833333,17.5 Z" id="Shape" fill="#8C1713"></path>
            </g>
        </g>
    </g>
</svg>