<?xml version="1.0" encoding="UTF-8"?>
<svg width="54px" height="35px" viewBox="0 0 54 35" version="1.1" xmlns="http://www.w3.org/2000/svg" xmlns:xlink="http://www.w3.org/1999/xlink">
    <!-- Generator: Sketch 42 (36781) - http://www.bohemiancoding.com/sketch -->
    <title>visa</title>
    <desc>Created with Sketch.</desc>
    <defs></defs>
    <g id="Page-1" stroke="none" stroke-width="1" fill="none" fill-rule="evenodd">
        <g id="visa" transform="translate(1.000000, 0.633457)">
            <g id="card" transform="translate(0.020595, 0.154769)" stroke="#EFEFEF" fill="#F9F9F9">
                <rect x="0.0207129654" y="0.156188683" width="52.6971429" height="32.6972477" rx="5"></rect>
            </g>
            <g id="logo" transform="translate(10.000000, 11.000000)">
                <g id="registered" transform="translate(29.965310, 8.580106)" fill="#0161AB">
                    <path d="M0.0787659588,0.570556101 C0.0787659588,0.287035926 0.302588481,0.0572565102 0.578513952,0.0572565102 C0.854928652,0.0572565102 1.07826194,0.287035926 1.07826194,0.570556101 C1.07826194,0.853825152 0.854928652,1.08385569 0.578513952,1.08385569 C0.302588481,1.08385569 0.0787659588,0.853825152 0.0787659588,0.570556101 L0.0787659588,0.570556101 Z M0.578513952,0.96030217 C0.788882661,0.96030217 0.958645318,0.785770264 0.958645318,0.570556101 C0.958645318,0.354588563 0.788882661,0.180558907 0.578513952,0.180558907 C0.369123701,0.180558907 0.19911643,0.354588563 0.19911643,0.570556101 C0.19911643,0.785770264 0.369123701,0.96030217 0.578513952,0.96030217 L0.578513952,0.96030217 Z M0.511244888,0.795564141 L0.40899591,0.795564141 L0.40899591,0.344794686 L0.594413912,0.344794686 C0.633063047,0.344794686 0.672201412,0.345296936 0.706447481,0.36739594 C0.741916624,0.393010695 0.761975036,0.435450827 0.761975036,0.480151085 C0.761975036,0.531631719 0.733355107,0.579345478 0.686389069,0.596924231 L0.766622717,0.795564141 L0.652876844,0.795564141 L0.586341625,0.617014234 L0.511244888,0.617014234 L0.511244888,0.795564141 L0.511244888,0.795564141 Z M0.511244888,0.539918846 L0.567506287,0.539918846 C0.588787772,0.539918846 0.611536947,0.541927846 0.63012767,0.531631719 C0.64700609,0.520331092 0.655812222,0.499236589 0.655812222,0.479146585 C0.655812222,0.462572332 0.645538401,0.442482329 0.631106129,0.433692952 C0.613004636,0.422894575 0.584629321,0.4251547 0.565549368,0.4251547 L0.511244888,0.4251547 L0.511244888,0.539918846 L0.511244888,0.539918846 Z"></path>
                </g>
                <path d="M27.577154,9.69608285 L27.2940607,8.28954113 L24.2226164,8.28954113 L23.7191203,9.69608285 L21.2012457,9.69608285 L24.8037857,0.930450486 C24.8037857,0.930450486 25.0226113,0.224966186 25.9195992,0.224966186 L27.8614302,0.224966186 L29.7953755,9.69608285 L27.577154,9.69608285 Z M24.9189156,6.34613915 L26.9025402,6.34613915 L26.1881042,2.80101011 L24.9189156,6.34613915 Z" id="a" fill="#0066B2"></path>
                <path d="M21.3897117,2.50239668 L21.734707,0.468444795 C21.734707,0.468444795 20.6705442,0.0555372695 19.5618278,0.0555372695 C18.3628211,0.0555372695 15.5157223,0.590385321 15.5157223,3.19097833 C15.5157223,5.63824018 18.857643,5.66882593 18.857643,6.95302467 C18.857643,8.2380283 15.8603234,8.00863524 14.8706796,7.19811306 L14.5118844,9.32422461 C14.5118844,9.32422461 15.5902413,9.85947511 17.2391219,9.85947511 C18.887214,9.85947511 21.3751233,8.98778144 21.3751233,6.61698395 C21.3751233,4.15442922 18.0032373,3.92463371 18.0032373,2.85413272 C18.0032373,1.78322928 20.3563028,1.92086512 21.3897117,2.50239668" id="s" fill="#0066B2"></path>
                <polyline id="i" fill="#0066B2" points="13.0230816 9.69608285 10.6073256 9.69608285 12.1170253 0.224966186 14.5335698 0.224966186 13.0230816 9.69608285"></polyline>
                <path d="M2.13640835,0.224966186 L0.232625436,0.224966186 L0.188071751,0.38513889 C0.188466031,0.38513889 1.35277605,0.632239495 2.71580339,1.4677132 L4.81416368,9.69608285 L7.33124976,9.69608285 L11.1750894,0.224966186 L8.57481014,0.224966186 L6.27181832,6.73932692 L5.99897629,5.3364072 L5.99897629,5.33680964 L5.1859701,1.07774498 C5.1859701,1.07774498 5.08818856,0.224966186 4.04019126,0.224966186 L2.13640835,0.224966186 L0.232625436,0.224966186 L0.188071751,0.38513889 C0.188466031,0.38513889 2.01871565,0.772290001 3.77405199,2.22229567 C5.45250365,3.60911763 5.99897629,5.33680964 5.99897629,5.33680964 L5.1859701,1.07774498 C5.1859701,1.07774498 5.08818856,0.224966186 4.04019126,0.224966186 L2.13640835,0.224966186 Z" id="v" fill="#0066B2"></path>
                <path d="M5.99897629,5.33680964 L5.1859701,1.07774498 C5.1859701,1.07774498 5.08818856,0.224966186 4.04019126,0.224966186 L0.232625436,0.224966186 L0.188071751,0.38513889 C0.188466031,0.38513889 2.01871565,0.772290001 3.77405199,2.22229567 C5.45250365,3.60911763 5.99897629,5.33680964 5.99897629,5.33680964" id="shape" fill="#F9A533"></path>
            </g>
        </g>
    </g>
</svg>