
<svg width="32px" height="23px" viewBox="1375 7310 32 23" version="1.1" xmlns="http://www.w3.org/2000/svg" xmlns:xlink="http://www.w3.org/1999/xlink">
    <!-- Generator: Sketch 42 (36781) - http://www.bohemiancoding.com/sketch -->
    <desc>Created with Sketch.</desc>
    <defs></defs>
    <path d="M1406.68,7314.96135 C1406.68,7314.96135 1407,7317.60808 1407,7320.25379 L1407,7322.73497 C1407,7325.3817 1406.68,7328.02741 1406.68,7328.02741 C1406.68,7328.02741 1406.367,7330.28071 1405.408,7331.27298 C1404.191,7332.57591 1402.827,7332.58204 1402.202,7332.65868 C1397.724,7332.98978 1391,7333 1391,7333 C1391,7333 1382.68,7332.92234 1380.12,7332.67095 C1379.408,7332.53503 1377.809,7332.57591 1376.591,7331.27298 C1375.632,7330.28071 1375.32,7328.02741 1375.32,7328.02741 C1375.32,7328.02741 1375,7325.3817 1375,7322.73497 L1375,7320.25379 C1375,7317.60808 1375.32,7314.96135 1375.32,7314.96135 C1375.32,7314.96135 1375.632,7312.70805 1376.591,7311.71578 C1377.809,7310.41285 1379.172,7310.40672 1379.798,7310.3311 C1384.276,7310 1390.993,7310 1390.993,7310 L1391.007,7310 C1391.007,7310 1397.724,7310 1402.202,7310.3311 C1402.827,7310.40672 1404.191,7310.41285 1405.408,7311.71578 C1406.367,7312.70805 1406.68,7314.96135 1406.68,7314.96135 Z M1387.696,7325.74141 L1396.341,7321.16328 L1387.695,7316.55347 L1387.696,7325.74141 Z" id="Combined-Shape" stroke="none" fill="#2A2828" fill-rule="evenodd"></path>
</svg>
