<svg xmlns:xlink="http://www.w3.org/1999/xlink" width="436" height="92" viewBox="0 0 436 92">
  <defs>
    <polygon id="home-a" points="0 .4 0 80.317 115.868 80.317 115.868 .4 0 .4"/>
    <polygon id="home-c" points="0 168.122 435.937 168.122 435.937 0 0 0"/>
  </defs>
  <g fill="none" fill-rule="evenodd" transform="translate(0 -36)">
    <path fill="#FFF" d="M125.540605,102.755122 C121.701479,109.616306 130.058429,113.463478 135.530101,114.937115 C148.565649,118.453822 165.555778,108.937077 180.191501,82.0413191 C190.532755,63.0358159 203.544565,54.2435102 208.525286,51.4049561 C202.473106,49.764472 185.238042,45.5340898 175.176252,47.4576758 C162.561518,49.8742682 143.596797,64.0778032 141.968568,77.5299879 C141.762476,79.2285994 141.304975,85.6861217 144.080195,86.8411344 C144.648834,88.2458796 143.016289,90.6280261 143.016289,90.6280261 C132.798042,82.5343255 141.996622,67.1101153 147.982982,60.0304146 C164.040844,41.0335229 188.192378,40.5103764 203.654624,43.4318159 C213.609592,45.3048096 217.189755,46.1745675 218.173815,46.4329115 C226.729303,43.0948924 248.772447,36.1884975 255.66194,44.8925357 C259.394244,49.6083892 249.354034,52.3726694 246.850726,52.9797777 C240.467289,54.5298414 231.920432,55.1692427 225.370827,54.2456631 C218.510466,53.2844083 214.226787,52.4243382 213.165039,52.2047459 C202.094373,56.4835675 193.0188,71.7764529 188.97682,81.5235548 C177.495049,109.21372 159.42375,116.417211 146.12816,118.011408 C134.928012,119.351568 119.13235,114.755198 121.882753,103.016695 C122.482684,100.455861 123.827133,99.6410006 125.827622,98.3621981 C125.827622,98.3621981 125.508234,99.6539178 125.67656,100.793861 C125.747775,101.275026 125.970052,102.094192 125.970052,102.094192 C125.970052,102.094192 125.658217,102.543064 125.540605,102.755122 L125.540605,102.755122 Z M228.085622,46.093835 C226.221089,46.6395866 224.61336,47.1907204 223.381128,47.6460516 C230.24041,49.1498287 247.391311,52.2079752 252.725948,47.8688732 C255.616622,45.514714 247.881182,43.9495803 243.908259,43.8010325 C238.282289,43.5943573 232.495545,44.8107268 228.085622,46.093835 L228.085622,46.093835 Z"/>
    <path fill="#FFF" d="M191.76175 108.485729C194.500284 108.485729 198.85302 106.417901 203.582331 102.040047L210.539802 89.9549325C209.369074 87.9915185 207.626469 87.0765503 205.814807 87.0765503 199.379578 87.0765503 190.50578 94.2068433 188.20101 101.836601 186.885694 106.177856 188.770728 108.485729 191.76175 108.485729M201.509548 107.178939C201.72535 106.442659 201.953022 105.713913 202.297227 104.984092L203.716128 106.054066C199.099034 110.041175 194.352459 112.251092 189.788237 112.251092 184.123422 112.251092 180.655476 107.542773 182.643017 100.96792 185.330837 92.0830408 196.595726 83.5361618 206.108299 83.5361618 208.572763 83.5361618 210.719997 84.5157159 212.599637 86.3585694L213.725047 84.3251873 220.251992 83.0614548 208.085049 104.206907C207.372901 105.450187 206.793471 106.648257 206.476242 107.703162 206.383447 108.006716 206.376973 108.118665 206.387763 108.140194 208.424938 108.140194 216.227276 101.561034 217.256654 99.1821172L217.225363 103.716054C214.949726 106.114346 208.96876 112.251092 204.65379 112.251092 201.739378 112.251092 200.707842 109.822659 201.509548 107.178939M289.253321 108.406934C291.990776 108.406934 296.346748 106.342335 301.073901 101.964482L308.031373 89.8761376C306.859566 87.9148764 305.119119 86.9977554 303.305299 86.9977554 296.872227 86.9977554 287.99843 94.1302013 285.69258 101.758883 284.376185 106.099061 286.26122 108.406934 289.253321 108.406934M299.00004 107.100144C299.218 106.363864 299.444593 105.635118 299.789877 104.908526L301.205541 105.978501C296.588447 109.964532 291.84403 112.172297 287.283045 112.172297 281.614993 112.172297 278.148126 107.463978 280.134588 100.891278 282.823487 92.0074752 294.088376 83.4605962 303.599869 83.4605962 306.064334 83.4605962 308.210489 84.436921 310.091208 86.2819274L311.216618 84.2496217 317.743563 82.9848127 305.57662 104.131341C304.863393 105.372469 304.285042 106.572692 303.967813 107.624367 303.875018 107.93115 303.868543 108.03987 303.881492 108.061399 305.916509 108.061399 311.376311 102.540373 312.416479 101.49731L314.716934 103.640488C312.443455 106.038781 306.462489 112.172297 302.14644 112.172297 299.232027 112.172297 298.199413 109.743864 299.00004 107.100144M394.853238 108.015327C397.590693 108.015327 401.945586 105.948576 406.673819 101.569646L413.63129 89.4856076C412.459483 87.5221936 410.717957 86.606149 408.905216 86.606149 402.471065 86.606149 393.597268 93.7375185 391.292498 101.367276 389.976102 105.708531 391.861137 108.015327 394.853238 108.015327M404.598878 106.708538C404.818996 105.972257 405.04451 105.244589 405.388715 104.51369L406.805458 105.583665C402.187285 109.570773 397.442868 111.781767 392.881883 111.781767 387.213831 111.781767 383.748043 107.073448 385.734505 100.498595 388.423404 91.6169452 399.687214 83.0668369 409.198707 83.0668369 411.663172 83.0668369 413.810406 84.0453146 415.691125 85.890321L416.816535 83.8580153 423.342401 82.5932064 411.175458 103.737582C410.46331 104.980862 409.886038 106.181085 409.566651 107.232761 409.472777 107.539544 409.46846 107.64934 409.48033 107.669792 411.516426 107.669792 416.976228 102.148767 418.017475 101.10678L420.31793 103.249958C418.042293 105.645022 412.061327 111.781767 407.746357 111.781767 404.831944 111.781767 403.798251 109.352257 404.598878 106.708538"/>
    <g transform="translate(0 35.72)">
      <mask id="home-b" fill="#fff">
        <use xlink:href="#home-a"/>
      </mask>
      <path fill="#FFF" d="M99.1974894,66.0923478 C94.4692573,70.4702013 90.1165215,72.5380293 87.3769091,72.5380293 C84.3858869,72.5380293 82.5019314,70.2301567 83.8183264,65.8889019 C86.1252548,58.2612968 94.9968943,51.1266981 101.432124,51.1266981 C103.243786,51.1266981 104.985312,52.0427427 106.158198,54.0072331 L99.1974894,66.0923478 Z M18.9998968,71.818972 C17.5702054,71.818972 2.76507704,71.8824815 2.76507704,68.3754624 C2.76507704,67.2258318 4.06636593,66.0535962 9.17441037,66.0535962 C13.2584721,66.0535962 20.7748721,67.6930038 31.8131684,71.0428637 C27.8650622,71.5617045 23.5954104,71.818972 18.9998968,71.818972 L18.9998968,71.818972 Z M96.6434672,11.0855389 C101.496865,5.4256535 105.013366,2.99183822 107.289003,2.99183822 C107.44546,2.99183822 107.629971,3.0661121 107.691475,3.08441146 L107.719529,3.31369172 C107.719529,5.20606115 105.124504,9.46765987 99.2255437,16.369749 C94.4336499,21.9489019 89.4529289,26.9801503 84.2833807,31.4559592 C88.8076795,22.2104752 92.9316647,15.4332522 96.6434672,11.0855389 L96.6434672,11.0855389 Z M102.004,72.1924943 C101.99321,72.1709656 101.998605,72.0590166 102.09248,71.7522331 C102.40863,70.700558 102.989139,69.5024879 103.703445,68.2602841 L115.86823,47.112679 L109.343442,48.3764115 L108.214796,50.4097936 C106.336235,48.5680166 104.189,47.5895389 101.724536,47.5895389 C92.2141215,47.5895389 80.9459956,56.1353414 78.2592548,65.0191439 C76.5975758,70.5218701 78.7631536,74.7081185 82.8331881,75.9277172 C82.3746079,75.9729274 81.9117116,75.9944561 81.4337091,75.9944561 C78.8149462,75.9944561 76.0710178,75.6672204 73.1976079,75.0181312 C70.5130252,74.4293223 62.7257931,72.4346917 49.8499388,69.018093 C56.8980474,66.8275516 62.6567363,63.6456153 67.0936351,59.4539847 C72.1293857,54.6907682 76.960124,47.2224752 81.598798,37.1072331 C87.7534844,32.5754497 94.0495215,26.5754115 100.494462,19.1103478 C106.917823,11.7130994 110.489354,6.36215032 110.489354,3.31369172 C110.489354,1.36534777 109.203171,0.399787261 107.289003,0.399787261 C103.19523,0.399787261 97.6674499,4.33630318 90.8308277,11.4881248 C87.2636128,15.2308828 84.1949017,18.9445771 81.6376425,22.6249019 C79.0005363,26.4117936 74.7686499,33.1599529 68.9473783,42.8866025 C62.0244351,48.7197936 56.2279807,52.7725643 51.5439881,55.0890484 C46.895603,57.4119911 42.2277956,58.5594688 37.542724,58.5594688 C32.0742894,58.5594688 27.8812474,57.1751758 24.8567758,54.4980866 C23.2425733,53.059972 21.4568079,51.8575962 20.4835388,51.5422013 C20.0314326,51.3968828 19.0268721,52.311851 18.9923437,53.1105643 C19.2394375,53.6294051 19.8663437,54.3624561 20.8201906,55.3150994 C24.9290696,59.3807873 30.4072153,61.3743414 37.1488844,61.3743414 C45.6299215,61.3743414 54.5695388,57.7542968 63.943998,50.6638318 C60.6767486,55.2591248 57.8821067,58.6994051 55.5579141,60.9954369 C52.5463906,63.9577809 49.1140523,66.2161376 45.2436351,67.7597427 C31.6372894,64.2408828 21.3057462,62.459386 14.3105091,62.459386 C5.73775605,62.459386 -0.000431604939,63.9836153 -0.000431604939,68.3754624 C-0.000431604939,73.0504115 7.25700543,74.6359975 18.4442054,74.6359975 C25.0143116,74.6359975 31.3966696,74.0299656 37.6009906,72.8222076 C47.2085165,75.8792777 54.3688425,77.885749 59.0852054,78.8502331 C63.8673881,79.826558 68.8427141,80.3174115 74.0068672,80.3174115 C81.0560548,80.3174115 86.574124,79.0558318 90.4369881,76.4218 C91.0164178,76.0181376 91.9778178,75.4271758 92.962956,74.5961694 C94.3861733,73.7145707 95.6917783,72.8867936 96.9617758,71.9653669 C96.5506721,74.3055325 97.6296844,76.3033924 100.26787,76.3033924 C104.584998,76.3033924 110.568121,70.1666471 112.843759,67.7683541 L110.542225,65.6284051 C109.500978,66.6714688 104.040097,72.1924943 102.004,72.1924943 L102.004,72.1924943 Z" mask="url(#home-b)"/>
    </g>
    <path fill="#FFF" d="M352.499846 86.8078726C348.219404 86.8078726 342.384105 90.6195223 338.454342 97.3676815 347.748954 96.3095478 353.045826 92.7691592 354.125917 89.2061656 354.592051 87.6571783 353.903641 86.8078726 352.499846 86.8078726M336.976095 100.865013C336.657786 101.060924 336.365374 101.496879 336.334083 101.608828 335.207594 105.33221 334.745777 107.988847 339.896981 107.988847 344.205478 107.988847 348.237747 105.429089 351.630162 103.161045L353.463404 105.784312C349.19591 108.770338 343.466354 111.984567 337.968786 111.984567 331.410549 111.984567 328.573826 107.763873 330.536549 101.274057 332.999935 93.1383758 344.147211 83.2696369 353.829189 83.2696369 357.836641 83.2696369 360.070196 86.1017325 358.978236 89.7271592 357.284186 95.3116943 349.380421 99.5356178 336.976095 100.865013M233.9739 107.67582C230.3031 110.040744 226.759624 111.329234 223.460004 111.329234 217.406745 111.329234 214.814957 106.921241 216.64712 100.848005 219.377021 91.836107 231.196522 83.4216293 240.231093 83.4216293 242.601683 83.4216293 244.729495 84.4033363 246.605898 86.2440369L247.733466 84.198814 254.100718 83.1008522 239.586922 107.779158C232.125552 120.340056 225.952522 127.885852 217.069014 127.885852 212.728147 127.885852 210.388848 124.602731 211.418226 121.197973 212.085056 118.999897 213.887006 117.335731 215.797937 117.335731 218.125367 117.335731 218.46094 119.018196 217.845903 121.061266 216.859685 121.310999 215.711616 121.653304 215.374964 122.755572 215.178584 123.41112 215.549764 124.462795 217.55349 124.462795 223.604592 124.462795 227.599095 118.674814 233.9739 107.67582M238.308293 100.308712L244.42953 89.8317885C243.262039 87.8780624 241.515118 86.9534064 239.591239 86.9534064 233.83255 86.9534064 224.724606 93.7564637 222.390703 101.487406 221.17034 105.507884 222.567661 107.221566 225.425964 107.221566 228.965125 107.221566 232.957471 105.255999 238.308293 100.308712M280.267091 41.7973599C277.815575 42.9943535 275.558281 44.9717611 273.500604 46.7058949L271.311288 44.3345127C273.357096 42.6251369 279.751323 37.0772006 283.209557 37.0772006 285.986935 37.0772006 286.652686 39.2752771 285.887666 41.8059713 285.657836 42.5465573 285.367582 43.2548503 284.991007 43.9340796L252.350883 103.834354C251.755268 104.910787 251.009671 106.035659 250.652518 107.224041 250.463691 107.848373 250.512246 108.061506 250.526273 108.088417 253.085691 108.125016 258.761296 103.168041 260.065821 102.011952L262.260533 104.386564C259.249009 107.003373 253.549666 112.120736 248.844093 112.120736 245.706325 112.120736 244.668315 109.692303 245.541236 106.811768 245.987947 105.338131 246.894318 103.531876 247.978725 101.475889L279.310007 43.6337548C279.794483 42.7930605 280.098765 42.1794936 280.267091 41.7973599"/>
    <path fill="#FFF" d="M289.06676 64.9816841C286.981029 64.9816841 285.812459 62.9256968 286.345491 61.1700344 286.836441 59.5672255 288.841246 57.8815312 290.666935 57.8815312 292.755903 57.8815312 294.138118 59.6027478 293.501501 61.6985631 292.930703 63.582321 290.956111 64.9816841 289.06676 64.9816841M276.837234 93.4888624L271.045096 103.849531C270.082617 105.483557 269.378022 106.775276 269.138481 107.567531 269.069424 107.796811 269.11798 107.981958 269.121217 108.058385 269.228039 108.091754 269.41255 108.125124 269.702804 108.125124 271.581365 108.125124 280.06456 101.424327 280.432503 100.050799L280.841449 104.388824C277.855822 106.981952 272.217982 112.120843 267.545859 112.120843 264.339034 112.120843 262.816548 109.634283 263.662493 106.808646 264.228975 104.965792 265.542133 103.155232 266.458214 101.467385L272.014049 91.4694739C272.589162 90.3908879 273.35634 89.2487924 273.713493 88.0754803 273.833264 87.6804293 273.729679 87.5340344 273.719967 87.5189643 271.749691 87.5189643 266.312548 93.0658242 265.299355 94.0776713L262.985953 91.9409516C265.856125 88.9603083 271.066676 83.4059134 276.030133 83.4059134 278.8852 83.4059134 280.109879 85.778372 279.290908 88.4856013 278.739533 90.2929325 277.734972 91.8494548 276.837234 93.4888624M334.641328 70.632958C332.490857 71.5457732 329.751244 74.5554803 328.33558 76.1905822L325.476197 74.3520344C328.015113 71.7998115 332.990439 66.3939643 337.296778 66.3939643 340.082787 66.3939643 340.651427 68.4897796 339.887486 71.0097096 339.65442 71.7685949 339.231447 72.7621427 338.69194 73.7287796L332.759531 83.6362701 338.251703 83.6362701 337.11982 87.403786 330.620928 87.403786 320.812706 103.865678C319.883676 105.386678 319.225479 106.551378 318.981622 107.336098 318.791716 107.966888 318.883432 108.125124 319.600975 108.125124 321.47522 108.125124 330.414837 101.803232 330.757963 100.604085L330.732066 104.388824C327.714069 107.012092 322.029832 112.120843 317.319943 112.120843 314.171385 112.120843 313.076187 109.562162 313.976084 106.584748 314.510195 104.787104 315.672291 103.073423 316.590531 101.451238L324.829869 87.403786 319.43157 87.403786 320.573165 83.6362701 327.061266 83.6362701 333.172792 73.2863656C333.958313 71.8697796 334.434158 71.0215503 334.641328 70.632958M388.801705 41.7973599C386.350189 42.9943535 384.091817 44.9717611 382.036298 46.7058949L379.843745 44.3345127C381.894947 42.6208312 388.284859 37.0772006 391.74633 37.0772006 394.518313 37.0772006 395.191617 39.2655892 394.420123 41.802742 394.307905 42.1848758 394.078076 42.9340732 393.52778 43.9340796L360.881182 103.834354C360.56611 104.404863 358.751212 107.466239 359.05873 108.091646 361.615989 108.125016 367.289436 103.171271 368.599357 102.009799L370.784357 104.388717C367.768518 107.008755 362.082123 112.120736 357.372234 112.120736 354.239861 112.120736 353.201851 109.692303 354.070456 106.811768 354.51393 105.338131 355.43217 103.528646 356.510103 101.475889L387.841384 43.6337548C388.328019 42.7887548 388.6323 42.1762643 388.801705 41.7973599M404.673869 41.7973599C402.220195 42.9943535 399.962901 44.9685318 397.907383 46.7058949L395.708356 44.3366656C397.759558 42.6219076 404.153785 37.0772006 407.616336 37.0772006 410.385081 37.0772006 411.057306 39.2720478 410.291207 41.8059713 410.063536 42.5465573 409.77436 43.2548503 409.396706 43.9340796L376.753346 103.831124C376.437195 104.408092 374.621217 107.460857 374.931973 108.088417 377.482758 108.125016 385.687568 101.814965 385.906607 100.788048L386.664074 104.386564C383.654709 107.003373 377.951049 112.120736 373.249793 112.120736 370.109867 112.120736 369.06862 109.695532 369.941541 106.809615 370.39041 105.338131 371.304333 103.531876 372.380109 101.475889L403.714627 43.6337548C404.198025 42.7930605 404.501227 42.1816465 404.673869 41.7973599M428.574424 66.2704975C428.209718 66.2704975 427.886014 66.3307777 427.684239 66.4319624L427.684239 69.6203573C427.82559 69.6623382 428.086711 69.7021662 428.331646 69.7021662 429.604881 69.7021662 430.252288 69.077835 430.252288 67.9648032 430.252288 66.8550006 429.706308 66.2704975 428.574424 66.2704975L428.574424 66.2704975zM430.27279 73.8981025L427.724162 69.9863446 427.684239 69.9863446 427.684239 73.8981025 426.529696 73.8981025 426.529696 66.0100006C426.976407 65.7688796 427.703661 65.5869624 428.594925 65.5869624 430.475644 65.5869624 431.405753 66.4943955 431.405753 67.9066758 431.405753 69.1779433 430.475644 70.0843 429.017898 70.1456567L431.629108 73.8981025 430.27279 73.8981025zM428.755698 63.7096631C425.357888 63.7096631 422.748837 66.5126949 422.748837 69.9023828 422.748837 73.2931471 425.357888 76.0994083 428.755698 76.0994083 432.154587 76.0994083 434.763639 73.2931471 434.763639 69.9023828 434.763639 66.5126949 432.154587 63.7096631 428.755698 63.7096631L428.755698 63.7096631zM428.755698 77.0897268C424.791407 77.0897268 421.573792 73.8981025 421.573792 69.9249879 421.573792 65.9690962 424.791407 62.7591726 428.755698 62.7591726 432.722148 62.7591726 435.936525 65.9690962 435.936525 69.9249879 435.936525 73.8981025 432.722148 77.0897268 428.755698 77.0897268L428.755698 77.0897268z"/>
  </g>
</svg>
